<?xml version="1.0" standalone="no"?>
<!DOCTYPE svg PUBLIC "-//W3C//DTD SVG 1.1//EN" "http://www.w3.org/Graphics/SVG/1.1/DTD/svg11.dtd" >
<svg>
<metadata>
Created by FontForge 20090622 at Thu Mar 15 17:01:06 2018
 By deploy user
&#194;&#169; 2013 Kyle Wayne Benson
</metadata>
<defs>
<font id="TideSans-600Bunny" horiz-adv-x="654" >
  <font-face 
    font-family="Tide Sans 600 Bunny"
    font-weight="600"
    font-stretch="normal"
    units-per-em="1000"
    panose-1="0 0 7 0 0 0 0 0 0 0"
    ascent="800"
    descent="-200"
    x-height="537"
    cap-height="700"
    bbox="-173 -361 1436 992"
    underline-thickness="50"
    underline-position="-50"
    unicode-range="U+0020-U+FB02"
  />
<missing-glyph horiz-adv-x="500" 
d="M0 0v700h500v-700h-500zM250 395l170 255h-340zM280 350l170 -255v510zM80 50h340l-170 255zM50 605v-510l170 255z" />
    <glyph glyph-name="arrowleft" unicode="&#x3c;&#x2d;" horiz-adv-x="786" 
d="M771 150h-450v-99l-306 297l306 296v-98h450l-99 -198z" />
    <glyph glyph-name="arrowright" unicode="&#x2d;&#x3e;" horiz-adv-x="786" 
d="M455 51v99h-450l99 198l-99 198h450v98l306 -296z" />
    <glyph glyph-name="fi" unicode="fi" horiz-adv-x="738" 
d="M677 537v-537h-170v394h-218v-394h-170v394h-86v143h86v18q0 65 24 116t65 81.5t90 46t104 15.5q113 0 233 -64l-60 -134q-82 56 -160 56q-54 0 -90 -31.5t-36 -87.5v-16h388z" />
    <glyph glyph-name="fl" unicode="fl" horiz-adv-x="737" 
d="M384 797q148 0 282 -114v-683h-171v622q-55 33 -102 33q-48 0 -81 -27t-33 -74v-17h116l-1 -143h-115v-394h-170v394h-76v143h76v19q0 80 41 136t101.5 80.5t132.5 24.5z" />
    <glyph glyph-name="uni00660066.liga" unicode="ff" horiz-adv-x="812" 
d="M740 638q-40 -1 -65 -21.5t-25 -61.5v-18h119v-143h-119v-394h-170v394h-201v-394h-170v394h-76v143h76v29q0 106 68.5 161t165.5 55q66 0 133 -27l-49 -115q-30 13 -64 13q-38 0 -61 -23.5t-23 -68.5v-24h201v22q0 106 69.5 160.5t165.5 54.5q89 0 175 -46l-47 -123
q-53 35 -103 33z" />
    <glyph glyph-name="uni00740074.liga" unicode="tt" horiz-adv-x="977" 
d="M925 160l47 -125q-82 -45 -166 -45q-100 0 -160.5 61t-60.5 156v187h-296v-170q1 -45 25 -67t60 -23q42 -1 88 26l47 -125q-85 -45 -167 -45q-99 0 -160 61t-61 156v187h-98v143h98v163h168v-163h296v163h168v-163h152v-143h-152v-170q0 -45 24.5 -67t60.5 -23
q43 -1 87 26z" />
    <glyph glyph-name=".notdef" horiz-adv-x="500" 
d="M0 0v700h500v-700h-500zM250 395l170 255h-340zM280 350l170 -255v510zM80 50h340l-170 255zM50 605v-510l170 255z" />
    <glyph glyph-name=".null" horiz-adv-x="0" 
 />
    <glyph glyph-name="nonmarkingreturn" horiz-adv-x="333" 
 />
    <glyph glyph-name="space" unicode=" " horiz-adv-x="330" 
 />
    <glyph glyph-name="exclam" unicode="!" horiz-adv-x="353" 
d="M255 234h-159l-18 466h199zM175 175q37 0 64.5 -27.5t27.5 -65.5q0 -39 -27.5 -66t-64.5 -27q-38 0 -65 27.5t-27 65.5t27 65.5t65 27.5z" />
    <glyph glyph-name="quotedbl" unicode="&#x22;" horiz-adv-x="333" 
d="M149 770v-105l-20 -111h-86l-22 111v105h128zM312 770v-105l-20 -111h-86l-22 111v105h128z" />
    <glyph glyph-name="numbersign" unicode="#" horiz-adv-x="757" 
d="M586 382l-15 -123h114v-136h-131l-15 -123h-140l15 123h-128l-15 -123h-140l15 123h-102v136h119l15 123h-104v135h121l16 124h140l-16 -124h128l16 124h140l-16 -124h112v-135h-129zM446 382h-128l-15 -123h128z" />
    <glyph glyph-name="dollar" unicode="$" horiz-adv-x="524" 
d="M316 413q81 -16 131 -60t38 -120q-10 -66 -61.5 -105.5t-125.5 -44.5l-13 -76l-114 19l11 70q-77 21 -148 68l47 118q82 -58 183 -64q67 -2 73 30q1 9 -3 15.5t-16 11t-22.5 7t-30.5 6t-32 6.5q-75 15 -118.5 57t-32.5 111q10 62 60 100t122 45l14 78l114 -20l-13 -69
q58 -15 112 -49l-42 -111q-72 48 -140 49q-74 2 -82 -31q1 -7 0 -11t5.5 -8t9.5 -6t14 -4.5t17.5 -3.5t20 -3.5t22.5 -4.5z" />
    <glyph glyph-name="percent" unicode="%" horiz-adv-x="842" 
d="M206 718q74 0 117.5 -46.5t43.5 -110.5q0 -69 -43 -112.5t-118 -43.5q-69 0 -115.5 43t-46.5 113q0 68 46 112.5t116 44.5zM260 0h-144l452 700h144zM208 626q-30 0 -49 -20t-19 -47q0 -26 18.5 -46.5t49.5 -20.5t49 20t18 47t-18 47t-49 20zM637 302q74 0 117.5 -46.5
t43.5 -110.5q0 -68 -43.5 -112t-117.5 -44q-69 0 -115.5 43t-46.5 113q0 68 46 112.5t116 44.5zM639 209q-29 0 -47 -19.5t-18 -45.5t18 -45.5t47 -19.5t47 19.5t18 45.5t-17.5 45.5t-47.5 19.5z" />
    <glyph glyph-name="ampersand" unicode="&#x26;" horiz-adv-x="830" 
d="M613 0l-31 32q-103 -67 -229 -67q-121 0 -210 61t-89 173q0 77 44 127t119 87l-1 1q-49 52 -49 124q0 83 65 138t153 55q91 0 152 -56.5t61 -137.5q0 -99 -122 -165l85 -91q13 41 13 84h169q3 -128 -52 -220l137 -145h-215zM374 479q68 32 69 66q1 21 -15 36t-40 15
q-21 0 -36 -12.5t-16 -33.5q-1 -30 38 -71zM237 205q-1 -40 32 -62.5t85 -22.5q58 0 109 33l-140 148q-85 -43 -86 -96z" />
    <glyph glyph-name="quotesingle" unicode="'" horiz-adv-x="170" 
d="M149 770v-105l-20 -111h-86l-22 111v105h128z" />
    <glyph glyph-name="parenleft" unicode="(" horiz-adv-x="419" 
d="M192 792l149 -76q-119 -212 -119 -417q0 -206 120 -420l-148 -76q-71 116 -113 231.5t-42 263.5q0 79 13.5 152t41 141t46 104.5t52.5 96.5z" />
    <glyph glyph-name="parenright" unicode=")" horiz-adv-x="419" 
d="M78 716l149 76q34 -60 52.5 -96.5t46 -104.5t41 -141t13.5 -152q0 -148 -42 -263.5t-113 -231.5l-148 76q120 214 120 420q0 205 -119 417z" />
    <glyph glyph-name="asterisk" unicode="*" horiz-adv-x="447" 
d="M292 594l59 -82l-72 -46l-56 83l-52 -82l-72 50l55 79l-92 20l21 88l96 -24v99l94 -2l-3 -96l93 22l23 -90z" />
    <glyph glyph-name="plus" unicode="+" horiz-adv-x="705" 
d="M423 412h195v-130h-195v-208h-143v208h-193v130h193v208h143v-208z" />
    <glyph glyph-name="comma" unicode="," horiz-adv-x="231" 
d="M114 149q38 0 64.5 -27.5t26.5 -72.5q0 -60 -44.5 -103.5t-110.5 -46.5l5 51q44 7 54 48q-29 -6 -54 14.5t-25 55.5q0 34 24.5 57.5t59.5 23.5z" />
    <glyph glyph-name="hyphen" unicode="-" horiz-adv-x="414" 
d="M384 284h-354v141h354v-141z" />
    <glyph glyph-name="period" unicode="." horiz-adv-x="238" 
d="M121 171q37 0 63.5 -27.5t26.5 -64.5q0 -39 -27 -66t-63 -27q-37 0 -64 27.5t-27 65.5q0 37 27 64.5t64 27.5z" />
    <glyph glyph-name="slash" unicode="/" horiz-adv-x="483" 
d="M195 -132h-157l251 862h157z" />
    <glyph glyph-name="zero" unicode="0" horiz-adv-x="765" 
d="M382 713q66 0 125 -22.5t107.5 -65.5t77.5 -114t29 -160q0 -90 -28.5 -161t-77 -114t-108 -65.5t-125.5 -22.5t-125.5 22.5t-107.5 65.5t-76.5 114t-28.5 161q0 89 28.5 160t76.5 114t107.5 65.5t125.5 22.5zM382 557q-65 0 -111 -53t-46 -151q0 -100 46 -155t111 -55
t111 54.5t46 154.5q0 98 -46 151.5t-111 53.5z" />
    <glyph glyph-name="one" unicode="1" horiz-adv-x="433" 
d="M346 0h-182v550l-72 -46l-58 97l150 99h162v-700z" />
    <glyph glyph-name="two" unicode="2" horiz-adv-x="674" 
d="M333 713q108 0 188 -64t80 -164q0 -113 -106 -199l-160 -130h276v-156h-568v131l298 229q79 61 79 115q0 36 -28 60.5t-69 24.5q-75 0 -116 -89l-150 64q33 81 109.5 129.5t166.5 48.5z" />
    <glyph glyph-name="three" unicode="3" horiz-adv-x="635" 
d="M314 712q107 0 177 -50t70 -133q-1 -54 -32.5 -94t-86.5 -61q65 -15 106.5 -60.5t41.5 -112.5q0 -96 -81.5 -153t-199.5 -57q-147 0 -275 87l64 131q98 -63 189 -63q54 0 86.5 20.5t32.5 51.5q0 29 -29.5 48t-74.5 19h-112v147h100q40 0 66 17.5t26 43.5q0 27 -27 45.5
t-73 18.5q-77 0 -156 -54l-64 136q127 73 252 73z" />
    <glyph glyph-name="four" unicode="4" horiz-adv-x="687" 
d="M560 291h96v-157h-96v-134h-180v134h-356v132l327 434h209v-409zM211 289h172v233z" />
    <glyph glyph-name="five" unicode="5" horiz-adv-x="693" 
d="M577 545h-297l-13 -111q72 38 142 38q92 0 155 -59.5t63 -161.5q0 -122 -89 -193.5t-211 -71.5q-145 0 -269 97l72 126q90 -67 185 -66q58 1 94.5 27.5t35.5 71.5q-1 44 -36 70.5t-90 25.5q-76 0 -158 -55l-72 45l33 372h455v-155z" />
    <glyph glyph-name="six" unicode="6" horiz-adv-x="676" 
d="M403 475q95 0 167.5 -64t72.5 -162q0 -110 -83.5 -184.5t-201.5 -74.5q-85 0 -159 38t-123.5 119.5t-49.5 191.5q0 115 53 201.5t134.5 128.5t174.5 42q116 0 212 -62l-55 -139q-65 48 -140 48q-74 0 -127.5 -47t-65.5 -133q77 99 191 97zM358 144q43 0 73 26.5t30 70.5
q0 43 -29 69t-71 26q-41 0 -77 -25t-60 -67q19 -48 56 -74t78 -26z" />
    <glyph glyph-name="seven" unicode="7" horiz-adv-x="610" 
d="M562 538l-305 -538h-211l318 537h-325v163h523v-162z" />
    <glyph glyph-name="eight" unicode="8" horiz-adv-x="703" 
d="M350 711q112 0 192 -51t81 -141q0 -62 -38 -102t-89 -52q60 -12 109 -58t50 -114q1 -94 -87 -149t-217 -57q-129 -1 -215.5 54t-87.5 148q0 71 48.5 117.5t106.5 57.5q-48 12 -85.5 51.5t-38.5 99.5q-1 89 78.5 142t192.5 54zM349 564q-42 0 -71.5 -20.5t-28.5 -49.5
q1 -28 29 -46.5t73 -17.5q44 0 71.5 19t26.5 47q0 29 -30.5 49t-69.5 19zM350 293q-52 -1 -86 -23t-34 -55q0 -32 33.5 -53t87.5 -20q53 1 87 22.5t33 53.5q0 32 -34.5 54t-86.5 21z" />
    <glyph glyph-name="nine" unicode="9" horiz-adv-x="690" 
d="M330 711q134 0 227.5 -92.5t93.5 -257.5q0 -114 -51.5 -200.5t-131 -128.5t-173.5 -42q-113 0 -212 62l56 136q68 -45 137 -45t118.5 42t65.5 114q-72 -78 -183 -78q-98 0 -167 63t-69 167q-1 111 83 185.5t206 74.5zM324 366q78 0 130 76q-32 113 -125 113
q-46 0 -76.5 -27.5t-30.5 -69.5q1 -42 30 -67.5t72 -24.5z" />
    <glyph glyph-name="colon" unicode=":" horiz-adv-x="229" 
d="M116 528q34 0 58 -25t24 -59q0 -35 -24.5 -59.5t-57.5 -24.5q-34 0 -58.5 25t-24.5 59t24.5 59t58.5 25zM116 192q34 0 58 -25t24 -59q0 -35 -24.5 -59.5t-57.5 -24.5q-34 0 -58.5 25t-24.5 59t24.5 59t58.5 25z" />
    <glyph glyph-name="semicolon" unicode=";" horiz-adv-x="272" 
d="M121 520q36 0 61.5 -26t25.5 -62q0 -37 -26 -63.5t-61 -26.5q-36 0 -61.5 26.5t-25.5 63.5q0 36 25.5 62t61.5 26zM133 148q38 0 64.5 -27.5t26.5 -72.5q0 -59 -44.5 -102.5t-109.5 -46.5l4 51q44 7 54 48q-29 -6 -53.5 14.5t-24.5 55.5q0 34 24 57t59 23z" />
    <glyph glyph-name="less" unicode="&#x3c;" horiz-adv-x="674" 
d="M589 443l-338 -96l338 -97l-37 -143l-506 178v120l506 180z" />
    <glyph glyph-name="equal" unicode="=" horiz-adv-x="668" 
d="M595 384h-522v130h522v-130zM595 160h-522v130h522v-130z" />
    <glyph glyph-name="greater" unicode="&#x3e;" horiz-adv-x="674" 
d="M604 405v-120l-506 -178l-37 144l338 96l-338 97l37 141z" />
    <glyph glyph-name="question" unicode="?" horiz-adv-x="638" 
d="M282 718q101 8 181 -42.5t85 -150.5q2 -49 -16.5 -83.5t-46 -55l-55.5 -40.5t-48 -52t-21 -76l-179 -1q-3 69 15 120.5t45.5 78t55.5 44.5t48 32t20 29q0 22 -19 33.5t-49 9.5q-68 -6 -104 -90l-151 75q37 79 100.5 121t138.5 48zM269 167q35 0 60 -25.5t25 -60.5
q0 -36 -25 -61.5t-60 -25.5t-60 25.5t-25 61.5q0 35 25 60.5t60 25.5z" />
    <glyph glyph-name="at" unicode="@" horiz-adv-x="1093" 
d="M586 741q102 0 191 -33t155 -94t98.5 -155t19.5 -207q-16 -141 -88 -220t-168 -78q-71 1 -119 43.5t-53 104.5q-28 -43 -69.5 -64t-83.5 -21q-34 0 -67 14t-61 41t-42.5 73.5t-7.5 105.5q13 106 75.5 160.5t138.5 54.5q85 0 147 -69l11 54h131l-32 -282q-5 -75 38 -75
q34 0 63 44.5t37 118.5q16 151 -76.5 246.5t-239.5 95.5q-148 0 -260 -98t-127 -255q-15 -158 76.5 -258t236.5 -100q74 0 147 30l40 -138q-95 -35 -189 -35q-102 0 -191.5 37.5t-154 103t-98 161.5t-23.5 207q13 143 89.5 255t196 172t259.5 60zM544 364q-43 -1 -73.5 -31
t-36.5 -79q-5 -51 22 -83.5t73 -32.5q42 0 94 42l16 138q-44 46 -95 46z" />
    <glyph glyph-name="A" unicode="A" horiz-adv-x="786" 
d="M547 129h-308l-50 -129h-190l302 700h182l304 -700h-189zM486 285l-94 239l-93 -239h187z" />
    <glyph glyph-name="B" unicode="B" horiz-adv-x="701" 
d="M338 704q81 0 139 -16t88 -43.5t43 -57t13 -63.5q0 -56 -30.5 -95t-82.5 -52q69 -12 115 -59t46 -122q0 -97 -85 -149.5t-247 -52.5q-145 0 -261 6v700q103 4 262 4zM356 554q-37 3 -98 -1v-122q52 -3 95 0q96 8 93 64q-2 29 -28 43t-62 16zM343 300q-40 1 -85 -2v-153
q62 -2 99 -1q128 5 128 78q0 72 -142 78z" />
    <glyph glyph-name="C" unicode="C" horiz-adv-x="716" 
d="M433 716q118 1 232 -51l-57 -145q-76 42 -159 41q-93 -2 -159.5 -57.5t-66.5 -155.5q0 -101 66 -154.5t160 -53.5q85 0 158 45l62 -143q-110 -58 -227 -58q-78 0 -150 24t-128.5 68.5t-90.5 114.5t-34 156q0 163 113.5 265t280.5 104z" />
    <glyph glyph-name="D" unicode="D" horiz-adv-x="772" 
d="M76 0v700q79 3 207 3q134 -2 232.5 -36.5t158 -113.5t59.5 -197q0 -174 -124.5 -267t-360.5 -93q-92 0 -172 4zM257 547v-395q31 -2 62 1q102 7 167 56.5t65 144.5q0 51 -20.5 89t-55.5 59t-73.5 31.5t-82.5 12.5q-27 2 -62 1z" />
    <glyph glyph-name="E" unicode="E" horiz-adv-x="664" 
d="M602 545h-344v-123h260v-141h-260v-126h366v-155h-548v700h526v-155z" />
    <glyph glyph-name="F" unicode="F" horiz-adv-x="630" 
d="M601 543h-345v-163h253v-144h-253v-236h-180v700h525v-157z" />
    <glyph glyph-name="G" unicode="G" horiz-adv-x="799" 
d="M442 718q123 1 238 -52l-54 -149q-81 51 -171 48q-98 -2 -165.5 -63t-67.5 -155q0 -95 67.5 -153.5t166.5 -58.5q71 0 135 33v87h-157v144h321v-327q-139 -93 -307 -93q-177 0 -293 102.5t-116 263.5q1 158 114 265t289 108z" />
    <glyph glyph-name="H" unicode="H" horiz-adv-x="814" 
d="M738 0h-182v266h-298v-266h-182v700h182v-279h298v279h182v-700z" />
    <glyph glyph-name="I" unicode="I" horiz-adv-x="330" 
d="M254 0h-178v700h178v-700z" />
    <glyph glyph-name="J" unicode="J" horiz-adv-x="451" 
d="M386 700v-336q0 -208 -92.5 -297.5t-281.5 -89.5l-2 158q96 1 146.5 58.5t50.5 165.5v341h179z" />
    <glyph glyph-name="K" unicode="K" horiz-adv-x="723" 
d="M461 393l274 -393h-218l-168 256l-92 -115v-141h-181v700h181v-318l246 318h206z" />
    <glyph glyph-name="L" unicode="L" horiz-adv-x="584" 
d="M258 155h323v-155h-505v700h182v-545z" />
    <glyph glyph-name="M" unicode="M" horiz-adv-x="996" 
d="M920 0h-184v425l-242 -316l-237 317v-426h-181v700h171l247 -330l252 330h174v-700z" />
    <glyph glyph-name="N" unicode="N" horiz-adv-x="828" 
d="M752 0h-174l-322 424v-424h-180v700h179l317 -426v426h180v-700z" />
    <glyph glyph-name="O" unicode="O" horiz-adv-x="850" 
d="M426 714q166 0 275.5 -101t109.5 -267q0 -164 -106 -267.5t-278 -103.5q-170 0 -279 102t-109 267q0 166 110 268t277 102zM426 558q-91 0 -147 -60t-56 -153q0 -92 55.5 -152.5t148.5 -60.5t146.5 60.5t53.5 152.5q0 93 -54.5 153t-146.5 60z" />
    <glyph glyph-name="P" unicode="P" horiz-adv-x="694" 
d="M76 0v700q117 6 221 6q372 0 372 -259q0 -69 -25.5 -121.5t-68.5 -83.5t-91 -47.5t-103 -20.5q-51 -4 -122 -4v-170h-183zM259 555v-230q68 0 96 2q61 5 96.5 33t35.5 78q0 51 -36 81.5t-97 34.5q-28 1 -95 1z" />
    <glyph glyph-name="Q" unicode="Q" horiz-adv-x="863" 
d="M764 -57l95 -76q-32 -68 -87.5 -104t-130.5 -23q-48 9 -90.5 39t-78.5 59.5t-67 35.5q-63 12 -104 -60l-95 84q32 62 89 96q-117 34 -186.5 127t-69.5 223q0 165 110 267t277 102q166 0 275.5 -101t109.5 -267q0 -141 -81 -239t-218 -123q21 -13 70.5 -55t78.5 -48
q60 -9 103 63zM223 344q0 -92 55.5 -152.5t148.5 -60.5t146.5 61t53.5 153q0 93 -54.5 152.5t-146.5 59.5q-91 0 -147 -60t-56 -153z" />
    <glyph glyph-name="R" unicode="R" horiz-adv-x="716" 
d="M466 0l-82 179q-22 -2 -32 -2q-61 -2 -94 0v-177h-182v700q174 4 256 4q151 -1 238.5 -72t87.5 -188q0 -128 -106 -204l120 -240h-206zM348 333q64 6 96 34.5t32 74.5q0 49 -38.5 76t-95.5 31q-40 3 -85 1v-219q54 -2 91 2z" />
    <glyph glyph-name="S" unicode="S" horiz-adv-x="674" 
d="M349 711q117 0 227 -51l-35 -147q-93 43 -179 43q-51 0 -83.5 -15t-31.5 -44q1 -13 9 -22t26.5 -16t34.5 -10.5t48.5 -10t52.5 -11.5q100 -25 156.5 -70.5t57.5 -136.5q1 -112 -84.5 -172t-212.5 -61q-146 -1 -284 72l50 147q115 -64 222 -63q58 1 91.5 19.5t34.5 46.5
q0 15 -9.5 25.5t-29.5 17t-40 10.5l-52 10t-54 12q-199 50 -200 206q-1 75 42.5 127t106 73t136.5 21z" />
    <glyph glyph-name="T" unicode="T" horiz-adv-x="640" 
d="M635 545h-226v-545h-179v545h-225v155h630v-155z" />
    <glyph glyph-name="U" unicode="U" horiz-adv-x="801" 
d="M737 700v-392q0 -155 -96 -242.5t-238 -87.5q-65 0 -124 19.5t-107.5 57.5t-77.5 102t-29 146v397h182v-400q0 -71 40.5 -114.5t111.5 -43.5t113 44.5t42 114.5v399h183z" />
    <glyph glyph-name="V" unicode="V" horiz-adv-x="768" 
d="M482 0h-189l-322 700h191l225 -511l219 511h191z" />
    <glyph glyph-name="W" unicode="W" horiz-adv-x="1127" 
d="M896 0h-168l-161 450l-153 -450h-169l-239 700h178l148 -467l159 467h148l166 -468l139 468h179z" />
    <glyph glyph-name="X" unicode="X" horiz-adv-x="743" 
d="M372 229l-155 -229h-216l248 358l-236 342h217l142 -213l147 213h215l-237 -343l247 -357h-217z" />
    <glyph glyph-name="Y" unicode="Y" horiz-adv-x="780" 
d="M488 269v-269h-199l-1 270l-281 430h211l173 -267l172 267h209z" />
    <glyph glyph-name="Z" unicode="Z" horiz-adv-x="703" 
d="M662 558l-387 -402h389v-156h-626v140l398 405h-377v155h603v-142z" />
    <glyph glyph-name="bracketleft" unicode="[" horiz-adv-x="399" 
d="M326 673h-87v-747h87v-99h-261v946h261v-100z" />
    <glyph glyph-name="backslash" unicode="\" horiz-adv-x="461" 
d="M164 743l251 -862l-135 -36l-251 861z" />
    <glyph glyph-name="bracketright" unicode="]" horiz-adv-x="399" 
d="M324 773v-946h-261v99h87v747h-87v100h261z" />
    <glyph glyph-name="asciicircum" unicode="^" horiz-adv-x="637" 
d="M271 700h94l248 -355l-155 1l-139 219l-140 -219l-155 -1z" />
    <glyph glyph-name="underscore" unicode="_" horiz-adv-x="364" 
d="M359 -121h-354v121h354v-121z" />
    <glyph glyph-name="grave" unicode="`" horiz-adv-x="636" 
d="M510 814l-113 -48l-117 186l154 23z" />
    <glyph glyph-name="a" unicode="a" horiz-adv-x="671" 
d="M615 537v-537h-159l-5 60q-64 -68 -158 -68q-103 0 -180 79t-77 205q0 122 73.5 195t173.5 73q102 0 163 -73l5 66h164zM329 409q-52 0 -89.5 -36t-37.5 -98q0 -63 37.5 -102t94.5 -39q64 0 113 51l-1 163q-48 61 -117 61z" />
    <glyph glyph-name="b" unicode="b" horiz-adv-x="698" 
d="M243 723v-252q80 73 178 73t170 -70.5t72 -197.5q0 -131 -75.5 -207.5t-177.5 -76.5q-91 0 -172 68l-5 -60h-160v723h170zM366 403q-67 0 -123 -60l-1 -152q49 -53 117 -53q56 -1 94.5 37.5t38.5 97.5q0 58 -36.5 94t-89.5 36z" />
    <glyph glyph-name="c" unicode="c" horiz-adv-x="601" 
d="M344 553q126 0 229 -78l-78 -127q-53 62 -137 62q-66 0 -108.5 -40.5t-43.5 -100.5q-1 -61 42.5 -101t107.5 -40q80 0 136 61l80 -121q-102 -82 -230 -82q-125 0 -215.5 76t-90.5 206q-1 130 90 207t218 78z" />
    <glyph glyph-name="d" unicode="d" horiz-adv-x="698" 
d="M626 723v-723h-160l-5 60q-81 -68 -172 -68q-102 0 -177.5 76.5t-75.5 207.5q0 127 71.5 197.5t170.5 70.5q98 0 178 -73v252h170zM332 403q-52 0 -89 -36t-37 -94q0 -59 38.5 -97.5t95.5 -37.5q67 0 116 53v152q-56 60 -124 60z" />
    <glyph glyph-name="e" unicode="e" horiz-adv-x="658" 
d="M342 552q103 -1 175.5 -52t97.5 -126t3 -153h-403q15 -46 56.5 -70t97.5 -23q88 1 171 65l74 -117q-40 -34 -107 -59.5t-146 -25.5q-85 0 -157 30.5t-120 96.5t-48 156q0 128 88 204t218 74zM216 337h245q-2 35 -33 59.5t-82 24.5q-47 0 -81.5 -22t-48.5 -62z" />
    <glyph glyph-name="f" unicode="f" horiz-adv-x="441" 
d="M344 774q89 0 175 -46l-47 -123q-53 35 -103 33q-40 -1 -65 -21.5t-25 -61.5v-18h119v-143h-119v-394h-170v394h-76v143h76v22q0 106 69.5 160.5t165.5 54.5z" />
    <glyph glyph-name="g" unicode="g" horiz-adv-x="677" 
d="M282 544q92 0 171 -72l7 65h162v-509q0 -76 -25.5 -133t-69 -89t-93.5 -47t-107 -15q-131 0 -243 67l56 126q78 -51 163 -51q67 0 109 34t43 97v50q-75 -71 -162 -71q-103 0 -180 73.5t-77 206.5q0 68 22 121t58 84t78.5 47t87.5 16zM333 404q-53 0 -90 -35t-37 -94
q0 -58 38 -95t94 -37q64 0 114 46v165q-56 50 -119 50z" />
    <glyph glyph-name="h" unicode="h" horiz-adv-x="701" 
d="M242 725v-274q84 95 189 95q89 0 154.5 -60.5t65.5 -175.5v-310h-169v290q0 50 -29 79.5t-73 29.5q-77 0 -138 -86l-1 -313h-170v725h171z" />
    <glyph glyph-name="i" unicode="i" horiz-adv-x="305" 
d="M152 774q39 0 65.5 -25t26.5 -64q0 -38 -26 -62t-65 -24t-65.5 24.5t-26.5 62.5t26 63t65 25zM237 0h-170v537h170v-537z" />
    <glyph glyph-name="j" unicode="j" horiz-adv-x="296" 
d="M151 764q36 0 62 -23t26 -56t-26 -55t-62 -22q-37 0 -63 22t-26 55t26 56t63 23zM234 537v-552q0 -109 -69 -169t-168 -60q-84 0 -170 46l50 127q48 -31 105 -30q35 1 60 21.5t25 67.5v549h167z" />
    <glyph glyph-name="k" unicode="k" horiz-adv-x="647" 
d="M240 318l193 219h208l-214 -230l231 -307h-208l-136 186l-74 -79v-107h-169v722h169v-404z" />
    <glyph glyph-name="l" unicode="l" horiz-adv-x="313" 
d="M242 0h-171v722h171v-722z" />
    <glyph glyph-name="m" unicode="m" horiz-adv-x="981" 
d="M738 552q79 0 136 -56t57 -153v-343h-161v314q0 42 -21.5 67.5t-57.5 25.5q-67 0 -114 -81l-1 -326h-160v317q0 42 -22 66t-58 24q-60 0 -113 -78v-329h-167v537h161l1 -79q79 94 176 94q55 0 99.5 -28t63.5 -76q28 42 75 73t106 31z" />
    <glyph glyph-name="n" unicode="n" horiz-adv-x="671" 
d="M409 546q88 0 150 -60.5t62 -174.5v-311h-171l1 294q0 52 -26 82t-70 30q-39 0 -73.5 -23.5t-58.5 -58.5v-324h-167v537h161l6 -82q89 91 186 91z" />
    <glyph glyph-name="o" unicode="o" horiz-adv-x="680" 
d="M341 551q126 0 214.5 -77t88.5 -204q0 -89 -44.5 -154t-111.5 -95t-147 -30q-129 0 -217 76t-88 204q0 121 86.5 200.5t218.5 79.5zM341 408q-56 0 -95.5 -37.5t-39.5 -100.5q1 -63 40 -99.5t95 -36.5q54 0 93.5 36.5t39.5 99.5q0 65 -39.5 101.5t-93.5 36.5z" />
    <glyph glyph-name="p" unicode="p" horiz-adv-x="676" 
d="M217 537l9 -64q81 71 175 71q97 0 168.5 -68.5t71.5 -199.5q0 -72 -23 -128.5t-60.5 -89t-81.5 -49.5t-90 -17q-85 0 -165 64v-241h-165v722h161zM347 402q-70 0 -121 -53l-1 -166q54 -46 117 -46q55 0 92 36t37 100q0 63 -36.5 96t-87.5 33z" />
    <glyph glyph-name="q" unicode="q" horiz-adv-x="677" 
d="M621 537v-722h-165v245q-79 -69 -176 -68q-102 1 -173 72.5t-71 206.5q0 72 22 127t59.5 86t80 46t88.5 14q97 -1 165 -73l9 66h161zM335 402q-53 0 -91 -33t-38 -97q0 -62 37 -98.5t92 -36.5q61 0 117 46l-1 166q-51 53 -116 53z" />
    <glyph glyph-name="r" unicode="r" horiz-adv-x="453" 
d="M369 546q39 0 83 -23l-38 -139q-29 19 -60 19q-78 0 -128 -94v-309h-170v537h154l7 -86q26 46 66.5 70.5t85.5 24.5z" />
    <glyph glyph-name="s" unicode="s" horiz-adv-x="582" 
d="M304 552q105 -1 199 -45l-39 -127q-78 38 -154 38q-38 0 -60.5 -10.5t-22.5 -29.5q0 -9 6.5 -15t20.5 -9.5t28.5 -6t38.5 -5.5t42 -7q186 -34 186 -173q0 -47 -21.5 -83t-58.5 -56t-81.5 -29.5t-95.5 -8.5q-136 3 -258 69l56 124q101 -59 204 -58q39 1 63 11.5t23 28.5
q-1 10 -8 17t-22.5 11t-31 7t-41.5 7t-45 8q-175 38 -175 166q0 86 72 132t175 44z" />
    <glyph glyph-name="t" unicode="t" horiz-adv-x="514" 
d="M289 537h152v-143h-152v-170q1 -45 25 -67t60 -23q42 -1 88 26l47 -125q-85 -45 -167 -45q-99 0 -160 61t-61 156v187h-98v143h98v163h168v-163z" />
    <glyph glyph-name="u" unicode="u" horiz-adv-x="652" 
d="M597 0h-157l-8 67q-84 -84 -183 -84q-83 0 -140.5 59.5t-57.5 160.5v334h170v-322q0 -40 24 -63.5t61 -23.5q68 0 121 70v339h170v-537z" />
    <glyph glyph-name="v" unicode="v" horiz-adv-x="631" 
d="M318 196l142 341h175l-244 -537h-146l-249 537h177z" />
    <glyph glyph-name="w" unicode="w" horiz-adv-x="906" 
d="M731 0h-180l-101 305l-97 -305h-178l-170 537h171l93 -339l111 339h146l111 -345l93 345h171z" />
    <glyph glyph-name="x" unicode="x" horiz-adv-x="648" 
d="M449 0l-132 161l-129 -161h-201l229 284l-207 253h212l104 -135l108 135h199l-203 -255l232 -282h-212z" />
    <glyph glyph-name="y" unicode="y" horiz-adv-x="668" 
d="M688 537l-395 -841h-187l146 306l-253 535h187l157 -355l159 355h186z" />
    <glyph glyph-name="z" unicode="z" horiz-adv-x="565" 
d="M519 433l-248 -291h258v-142h-485v100l255 296h-240v141h460v-104z" />
    <glyph glyph-name="braceleft" unicode="{" horiz-adv-x="370" 
d="M327 772v-103q-32 0 -45 -13t-13 -46v-184q0 -97 -86 -116v-7q86 -21 86 -117v-173q0 -34 13 -47t45 -12v-105h-118q-118 0 -118 119v208q0 78 -71 84l-1 92q72 6 72 84v218q0 62 29.5 90t88.5 28h118z" />
    <glyph glyph-name="bar" unicode="|" horiz-adv-x="413" 
d="M283 -94h-155v848h155v-848z" />
    <glyph glyph-name="braceright" unicode="}" horiz-adv-x="369" 
d="M32 772h119q59 0 88 -28t29 -90v-218q0 -78 72 -84v-92q-72 -6 -72 -84v-208q0 -119 -117 -119h-119v105q32 -1 45.5 12t13.5 47v173q0 96 86 117v7q-86 19 -86 116v184q0 33 -13.5 46t-45.5 13v103z" />
    <glyph glyph-name="asciitilde" unicode="~" 
d="M199 509q40 6 76.5 -8t59.5 -33.5t52.5 -35t56.5 -12.5q29 3 52 25t34 52l89 -46q-49 -140 -158 -158q-33 -6 -64 2.5t-54.5 23.5t-45 30.5t-46 26t-47.5 7.5q-59 -6 -89 -74l-83 41q21 62 64.5 106t102.5 53z" />
    <glyph glyph-name="exclamdown" unicode="&#xa1;" horiz-adv-x="353" 
d="M175 452q-38 0 -65 27.5t-27 65.5t27 65.5t65 27.5q37 0 64.5 -27t27.5 -66q0 -38 -27.5 -65.5t-64.5 -27.5zM78 -74l18 467h159l22 -467h-199z" />
    <glyph glyph-name="cent" unicode="&#xa2;" horiz-adv-x="546" 
d="M454 283l62 -117q-92 -64 -196 -68l-14 -87l-114 19l14 84q-76 25 -123.5 84.5t-47.5 148.5q0 110 70.5 176t174.5 75l15 82l114 -19l-13 -73q67 -17 123 -54l-62 -115q-62 45 -133 45q-59 0 -98 -32t-39 -84q0 -54 40 -84t96 -30q72 0 131 49z" />
    <glyph glyph-name="sterling" unicode="&#xa3;" horiz-adv-x="728" 
d="M688 0h-511q-86 0 -172 46l59 139q49 -31 95 -29q36 1 59.5 18t23.5 51v71h-87v145h86v75q0 107 66.5 161.5t162.5 54.5q87 0 173 -47l-56 -134q-47 29 -92 28q-72 -2 -72 -87v-51h114v-145h-114v-70q0 -52 -22 -71h287v-155z" />
    <glyph glyph-name="currency" unicode="&#xa4;" horiz-adv-x="522" 
d="M437 362q0 -47 -20 -87l53 -53l-76 -77l-56 55q-43 -18 -89 -18q-45 0 -85 17l-56 -54l-76 78l51 49q-22 41 -22 90t24 91l-55 56l76 76l58 -59q40 19 85 19q48 0 88 -19l58 59l77 -76l-56 -57q21 -40 21 -90zM249 273q38 0 64.5 25.5t26.5 64.5t-26 64.5t-65 25.5
q-36 0 -63 -25.5t-27 -64.5t26.5 -64.5t63.5 -25.5z" />
    <glyph glyph-name="yen" unicode="&#xa5;" horiz-adv-x="781" 
d="M532 336h106v-98h-150v-32h150v-97h-150v-109h-199l-1 109h-162v97h162v32h-162v98h119l-238 364h211l173 -267l172 267h209z" />
    <glyph glyph-name="brokenbar" unicode="&#xa6;" horiz-adv-x="410" 
d="M280 367h-152v387h152v-387zM280 -94h-152v379h152v-379z" />
    <glyph glyph-name="section" unicode="&#xa7;" horiz-adv-x="586" 
d="M490 233q56 -41 57 -118q0 -86 -71 -128t-176 -42q-130 0 -244 58l40 116q97 -51 200 -50q42 0 66.5 11.5t23.5 32.5q-1 28 -54 40q-14 3 -63 11q-210 21 -211 153q-1 67 57 112q-58 39 -58 115q-1 82 70 127.5t174 43.5q92 0 203 -41l-31 -118q-94 38 -168 38
q-42 -1 -64 -13.5t-21 -33.5q0 -14 12 -22.5t28.5 -11.5t48.5 -8q14 -2 22 -3q214 -24 215 -160q0 -69 -56 -109zM220 329q0 -20 19 -28t61 -14q85 2 85 46q-1 20 -22.5 29.5t-66.5 16.5q-36 -1 -56 -15.5t-20 -34.5z" />
    <glyph glyph-name="dieresis" unicode="&#xa8;" horiz-adv-x="651" 
d="M365 912q27 0 46 -18.5t19 -45.5t-19.5 -46t-45.5 -19t-45.5 19t-19.5 46t19 45.5t46 18.5zM543 912q27 0 45.5 -18.5t18.5 -45.5t-19.5 -46t-44.5 -19q-27 0 -46.5 19t-19.5 46t19.5 45.5t46.5 18.5z" />
    <glyph glyph-name="copyright" unicode="&#xa9;" horiz-adv-x="764" 
d="M383 714q153 0 261.5 -106t108.5 -256q0 -151 -108.5 -258.5t-261.5 -107.5q-154 0 -262.5 107.5t-108.5 258.5q0 150 108.5 256t262.5 106zM384 617q-111 0 -189 -78t-78 -187q0 -110 78 -188.5t188 -78.5q109 0 187.5 79t78.5 188t-78.5 187t-186.5 78zM385 549
q82 1 156 -53l-48 -73q-44 34 -101 34q-51 0 -81.5 -30t-30.5 -76q0 -48 33 -75t79 -27q55 0 100 37l48 -77q-69 -55 -152 -55q-88 0 -148.5 52t-61.5 144q0 94 60.5 146.5t146.5 52.5z" />
    <glyph glyph-name="ordfeminine" unicode="&#xaa;" horiz-adv-x="459" 
d="M219 717q83 0 132.5 -44.5t49.5 -119.5v-203h-112l-1 35q-59 -42 -117 -42q-62 0 -103.5 34.5t-41.5 89.5q0 62 48 92t111 30q44 -1 96 -25q2 35 -18 54.5t-61 19.5q-47 0 -103 -27l-32 69q76 37 152 37zM207 521q-29 0 -48 -12.5t-19 -33.5t17.5 -35t42.5 -14
q41 0 79 28v46q-36 21 -72 21zM409 183h-363v118h363v-118z" />
    <glyph glyph-name="guillemotleft" unicode="&#xab;" horiz-adv-x="686" 
d="M176 270l231 -270h-158l-231 270l228 267h158zM448 270l231 -270h-158l-231 270l228 267h158z" />
    <glyph glyph-name="logicalnot" unicode="&#xac;" horiz-adv-x="675" 
d="M617 97h-95v242h-465v88h560v-330z" />
    <glyph glyph-name="registered" unicode="&#xae;" horiz-adv-x="750" 
d="M376 714q150 0 256.5 -106t106.5 -256q0 -151 -106.5 -258.5t-256.5 -107.5q-151 0 -257.5 107.5t-106.5 258.5q0 150 106.5 256t257.5 106zM376 617q-110 0 -188 -77.5t-78 -187.5t78 -188.5t188 -78.5q109 0 187.5 78.5t78.5 189.5q0 109 -78 186.5t-188 77.5zM366 539
q79 0 129 -35.5t51 -104.5q0 -76 -57 -107l54 -123h-104l-33 85q-12 -3 -74 -3v-82h-101v356q62 14 135 14zM376 460q-30 0 -48 -2v-127q19 1 47 1q37 -1 58 15.5t21 46.5q0 31 -21.5 48.5t-56.5 17.5z" />
    <glyph glyph-name="macron" unicode="&#xaf;" horiz-adv-x="656" 
d="M643 777h-349v110h349v-110z" />
    <glyph glyph-name="degree" unicode="&#xb0;" horiz-adv-x="394" 
d="M199 806q74 0 117.5 -46.5t43.5 -110.5q0 -69 -43 -112.5t-118 -43.5q-68 0 -115 42.5t-47 113.5q0 68 46 112.5t116 44.5zM202 714q-31 0 -49.5 -20t-18.5 -47t18.5 -47t49.5 -20t48.5 20t17.5 47t-17.5 47t-48.5 20z" />
    <glyph glyph-name="plusminus" unicode="&#xb1;" horiz-adv-x="609" 
d="M370 524h150v-118h-150v-150h-131v150h-149v118h149v151h131v-151zM522 68h-435v119h435v-119z" />
    <glyph glyph-name="twosuperior" unicode="&#xb2;" horiz-adv-x="421" 
d="M207 701q57 0 100 -35t43 -88q-2 -56 -49 -94l-86 -74h142v-91h-314v63l162 139q36 30 36 52q0 16 -12.5 26.5t-31.5 10.5t-34.5 -14t-23.5 -37l-91 27q19 56 63.5 85.5t95.5 29.5z" />
    <glyph glyph-name="threesuperior" unicode="&#xb3;" horiz-adv-x="388" 
d="M185 711q58 0 100.5 -29.5t42.5 -77.5t-47 -77q26 -11 43 -34.5t17 -51.5q0 -53 -47 -84.5t-110 -31.5q-84 0 -150 48l38 74q50 -35 104 -35q30 0 47.5 10.5t17.5 28.5q0 17 -14.5 27t-39.5 10h-63v72h60q21 0 33.5 9.5t12.5 24.5q0 14 -14 24t-39 10q-45 0 -89 -29
l-36 72q65 40 133 40z" />
    <glyph glyph-name="acute" unicode="&#xb4;" 
d="M600 952l-117 -186l-114 48l77 161z" />
    <glyph glyph-name="uni00B5" unicode="&#xb5;" horiz-adv-x="634" 
d="M596 536v-536h-156l-9 67q-78 -84 -182 -84q-25 0 -49 6v-189h-148v378q-1 8 -1 25v334h170v-322q0 -40 24 -63.5t61 -23.5q68 0 121 70v339z" />
    <glyph glyph-name="paragraph" unicode="&#xb6;" horiz-adv-x="907" 
d="M688 -93v718h-72v-718h-177v317q-65 0 -118 3q-59 4 -110.5 20.5t-94.5 48t-67.5 83.5t-24.5 120q1 258 355 258h76h376v-850h-143z" />
    <glyph glyph-name="periodcentered" unicode="&#xb7;" horiz-adv-x="238" 
d="M121 502q37 0 63.5 -27.5t26.5 -64.5q0 -38 -26.5 -65t-63.5 -27q-38 0 -64.5 27t-26.5 65q0 37 27 64.5t64 27.5z" />
    <glyph glyph-name="cedilla" unicode="&#xb8;" horiz-adv-x="564" 
d="M279 -169l-106 39l77 130h97z" />
    <glyph glyph-name="onesuperior" unicode="&#xb9;" horiz-adv-x="311" 
d="M215 328h-104v260l-32 -23l-45 76l88 58h93v-371z" />
    <glyph glyph-name="ordmasculine" unicode="&#xba;" horiz-adv-x="487" 
d="M244 721q85 0 146.5 -53t61.5 -139q0 -94 -61 -142.5t-147 -48.5q-92 0 -150 49.5t-58 141.5q0 83 58 137.5t150 54.5zM245 626q-40 0 -68.5 -27.5t-28.5 -69.5t28.5 -68.5t68.5 -26.5t67.5 26t27.5 69q-1 44 -28.5 70.5t-66.5 26.5zM440 183h-393v118h393v-118z" />
    <glyph glyph-name="guillemotright" unicode="&#xbb;" horiz-adv-x="714" 
d="M175 537l229 -267l-232 -270h-158l232 270l-228 267h157zM447 537l229 -267l-232 -270h-158l232 270l-228 267h157z" />
    <glyph glyph-name="onequarter" unicode="&#xbc;" horiz-adv-x="919" 
d="M271 0h-144l452 700h144zM257 328h-104v260l-31 -23l-46 76l89 58h92v-371zM794 148h49v-79h-49v-69h-102v69h-192v70l176 237h118v-228zM603 147h91v116z" />
    <glyph glyph-name="onehalf" unicode="&#xbd;" horiz-adv-x="951" 
d="M275 0h-144l452 700h144zM257 328h-104v260l-31 -23l-46 76l89 58h92v-371zM725 383q57 0 100 -35t43 -88q-2 -56 -49 -94l-86 -74h142v-91h-314v63l162 139q36 30 36 52q0 16 -12.5 26.5t-31.5 10.5t-34.5 -14t-23.5 -37l-91 27q19 56 63.5 85.5t95.5 29.5z" />
    <glyph glyph-name="threequarters" unicode="&#xbe;" horiz-adv-x="1005" 
d="M228 711q58 0 100 -29.5t42 -77.5q0 -49 -46 -77q26 -11 43 -34.5t17 -51.5q0 -53 -47 -84.5t-111 -31.5q-82 0 -150 48l38 74q50 -35 104 -35q65 0 65 39q0 17 -14.5 27t-39.5 10h-62v72h60q21 0 33.5 9.5t12.5 24.5q0 14 -14.5 24t-39.5 10q-44 0 -89 -29l-36 72
q65 40 134 40zM352 0h-143l451 700h145zM864 148h49v-79h-49v-69h-102v69h-192v70l176 237h118v-228zM673 147h91v116z" />
    <glyph glyph-name="questiondown" unicode="&#xbf;" horiz-adv-x="665" 
d="M372 475q-35 0 -60 26t-25 61q0 36 25.5 61.5t59.5 25.5q35 0 60.5 -25.5t25.5 -61.5q0 -35 -25.5 -61t-60.5 -26zM360 -76q-101 -8 -181 43t-85 151q-2 49 16.5 83.5t46 55l55.5 40.5t48 52t21 76l179 1q3 -69 -15 -120.5t-45.5 -78t-55.5 -44.5t-48 -32t-20 -29
q0 -22 19 -33.5t49 -9.5q68 6 104 90l151 -75q-37 -79 -100.5 -121.5t-138.5 -48.5z" />
    <glyph glyph-name="Agrave" unicode="&#xc0;" horiz-adv-x="786" 
d="M407 766l-117 186l154 23l77 -161zM547 129h-308l-50 -129h-190l302 700h182l304 -700h-189zM486 285l-94 239l-93 -239h187z" />
    <glyph glyph-name="Aacute" unicode="&#xc1;" horiz-adv-x="786" 
d="M409 766l-114 48l77 161l154 -23zM547 129h-308l-50 -129h-190l302 700h182l304 -700h-189zM486 285l-94 239l-93 -239h187z" />
    <glyph glyph-name="Acircumflex" unicode="&#xc2;" horiz-adv-x="786" 
d="M324 755l-91 43l94 136h135l93 -136l-92 -42l-68 113zM547 129h-308l-50 -129h-190l302 700h182l304 -700h-189zM486 285l-94 239l-93 -239h187z" />
    <glyph glyph-name="Atilde" unicode="&#xc3;" horiz-adv-x="786" 
d="M320 812q-39 2 -56 -49l-77 40q12 47 47 78t86 30q44 -1 94.5 -31.5t68.5 -30.5q37 0 57 49l76 -33q-11 -49 -45 -81.5t-85 -32.5q-39 0 -91 30.5t-75 30.5zM547 129h-308l-50 -129h-190l302 700h182l303 -700h-189zM486 285l-94 239l-93 -239h187z" />
    <glyph glyph-name="Adieresis" unicode="&#xc4;" horiz-adv-x="786" 
d="M306 783q-26 0 -45.5 19t-19.5 46t19 45.5t46 18.5t46 -18.5t19 -45.5t-19.5 -46t-45.5 -19zM484 783q-27 0 -46.5 19t-19.5 46t19.5 45.5t46.5 18.5t45.5 -18.5t18.5 -45.5t-19.5 -46t-44.5 -19zM547 129h-308l-50 -129h-190l302 700h182l304 -700h-189zM486 285
l-94 239l-93 -239h187z" />
    <glyph glyph-name="Aring" unicode="&#xc5;" horiz-adv-x="786" 
d="M391 743q-58 0 -98 33t-40 90q0 56 40.5 91t97.5 35q58 0 98.5 -35t40.5 -91q0 -57 -40.5 -90t-98.5 -33zM391 917q-21 0 -36.5 -14.5t-15.5 -35.5t15.5 -35t37.5 -14q21 0 36.5 14t15.5 35q0 22 -16 36t-37 14zM547 129h-308l-50 -129h-190l302 700h182l304 -700h-189z
M486 285l-94 239l-93 -239h187z" />
    <glyph glyph-name="AE" unicode="&#xc6;" horiz-adv-x="1067" 
d="M1028 155v-155h-548v189h-181l-100 -189h-199l400 700h605v-155h-343v-123h260v-141h-260v-126h366zM480 339v191l-7 -15l-94 -176h101z" />
    <glyph glyph-name="Ccedilla" unicode="&#xc7;" horiz-adv-x="716" 
d="M607 185l62 -143q-93 -49 -190 -56l-66 -164l-106 38l76 128q-146 17 -245 112t-99 247q0 163 113.5 265t280.5 104q118 1 232 -51l-57 -145q-76 42 -159 41q-93 -2 -159.5 -57.5t-66.5 -155.5q0 -101 66 -154.5t160 -53.5q85 0 158 45z" />
    <glyph glyph-name="Egrave" unicode="&#xc8;" horiz-adv-x="664" 
d="M437 805l-114 -47l-117 186l154 22zM602 545h-344v-123h260v-141h-260v-126h366v-155h-548v700h526v-155z" />
    <glyph glyph-name="Eacute" unicode="&#xc9;" horiz-adv-x="664" 
d="M493 943l-117 -186l-113 48l76 161zM602 545h-344v-123h260v-141h-260v-126h366v-155h-548v700h526v-155z" />
    <glyph glyph-name="Ecircumflex" unicode="&#xca;" horiz-adv-x="664" 
d="M427 771l-68 114l-71 -115l-91 43l94 137h135l93 -137zM602 545h-344v-123h260v-141h-260v-126h366v-155h-548v700h526v-155z" />
    <glyph glyph-name="Edieresis" unicode="&#xcb;" horiz-adv-x="664" 
d="M264 899q27 0 45.5 -18.5t18.5 -45.5t-19.5 -46t-44.5 -19q-27 0 -46.5 19t-19.5 46t19.5 45.5t46.5 18.5zM441 899q27 0 46 -18.5t19 -45.5t-19.5 -46t-45.5 -19t-45.5 19t-19.5 46t19 45.5t46 18.5zM602 545h-344v-123h260v-141h-260v-126h366v-155h-548v700h526v-155z
" />
    <glyph glyph-name="Igrave" unicode="&#xcc;" horiz-adv-x="330" 
d="M248 805l-114 -47l-117 186l154 22zM254 0h-178v700h178v-700z" />
    <glyph glyph-name="Iacute" unicode="&#xcd;" horiz-adv-x="330" 
d="M318 941l-117 -186l-113 47l76 161zM254 0h-178v700h178v-700z" />
    <glyph glyph-name="Icircumflex" unicode="&#xce;" horiz-adv-x="330" 
d="M238 756l-68 113l-71 -114l-91 43l94 136h135l93 -136zM254 0h-178v700h178v-700z" />
    <glyph glyph-name="Idieresis" unicode="&#xcf;" horiz-adv-x="330" 
d="M86 900q27 0 45.5 -18t18.5 -45q0 -28 -19 -46.5t-45 -18.5q-27 0 -46.5 19t-19.5 46t19.5 45t46.5 18zM263 900q27 0 46 -18t19 -45q0 -28 -19.5 -46.5t-45.5 -18.5t-45.5 19t-19.5 46t19 45t46 18zM254 0h-178v700h178v-700z" />
    <glyph glyph-name="Eth" unicode="&#xd0;" horiz-adv-x="784" 
d="M296 703q100 -1 180 -21.5t141 -61.5t94.5 -108t33.5 -156q0 -174 -124.5 -267t-360.5 -93q-91 0 -171 4v313h-71v105h71v282q80 3 207 3zM331 153q102 7 167 56.5t65 144.5q0 51 -20 89t-55 59t-73.5 31.5t-83.5 12.5q-25 2 -62 1v-129h118v-105h-118v-161q33 -2 62 1z
" />
    <glyph glyph-name="Ntilde" unicode="&#xd1;" horiz-adv-x="828" 
d="M335 911q44 -1 94.5 -31.5t68.5 -30.5q37 0 57 49l76 -33q-11 -49 -45 -81.5t-85 -32.5q-39 0 -91 30.5t-74 30.5q-39 1 -57 -49l-76 40q11 47 46.5 78t85.5 30zM752 0h-175l-322 424v-424h-179v700h178l318 -426v426h180v-700z" />
    <glyph glyph-name="Ograve" unicode="&#xd2;" horiz-adv-x="850" 
d="M513 814l-113 -48l-117 186l154 23zM426 714q166 0 275.5 -101t109.5 -267q0 -164 -106 -267.5t-278 -103.5q-170 0 -279 102t-109 267q0 166 110 268t277 102zM426 558q-91 0 -147 -60t-56 -153q0 -92 55.5 -152.5t148.5 -60.5t146.5 60.5t53.5 152.5q0 93 -54.5 153
t-146.5 60z" />
    <glyph glyph-name="Oacute" unicode="&#xd3;" horiz-adv-x="850" 
d="M540 949l-117 -186l-113 47l76 161zM426 714q166 0 275.5 -101t109.5 -267q0 -164 -106 -267.5t-278 -103.5q-170 0 -279 102t-109 267q0 166 110 268t277 102zM426 558q-91 0 -147 -60t-56 -153q0 -92 55.5 -152.5t148.5 -60.5t146.5 60.5t53.5 152.5q0 93 -54.5 153
t-146.5 60z" />
    <glyph glyph-name="Ocircumflex" unicode="&#xd4;" horiz-adv-x="850" 
d="M487 756l-68 113l-71 -114l-91 43l94 136h135l93 -136zM426 714q166 0 275.5 -101t109.5 -267q0 -164 -106 -267.5t-278 -103.5q-170 0 -279 102t-109 267q0 166 110 268t277 102zM426 558q-91 0 -147 -60t-56 -153q0 -92 55.5 -152.5t148.5 -60.5t146.5 60.5t53.5 152.5
q0 93 -54.5 153t-146.5 60z" />
    <glyph glyph-name="Otilde" unicode="&#xd5;" horiz-adv-x="850" 
d="M337 911q44 -1 94.5 -31.5t68.5 -30.5q37 0 57 49l76 -33q-11 -49 -45 -81.5t-85 -32.5q-39 0 -91 30.5t-74 30.5q-39 1 -57 -49l-76 40q11 47 46.5 78t85.5 30zM426 714q165 0 274.5 -101t109.5 -267q0 -164 -106 -267.5t-278 -103.5q-169 0 -278 102t-109 267
q0 166 110 268t277 102zM426 558q-92 0 -148 -60t-56 -153q0 -92 55.5 -152.5t148.5 -60.5t147 60.5t54 152.5q0 93 -55 153t-146 60z" />
    <glyph glyph-name="Odieresis" unicode="&#xd6;" horiz-adv-x="850" 
d="M329 908q27 0 46 -18.5t19 -45.5t-19.5 -46t-45.5 -19t-45.5 19t-19.5 46t19 45.5t46 18.5zM507 908q27 0 45.5 -18.5t18.5 -45.5t-19.5 -46t-44.5 -19q-27 0 -46.5 19t-19.5 46t19.5 45.5t46.5 18.5zM426 714q166 0 275.5 -101t109.5 -267q0 -164 -106 -267.5
t-278 -103.5q-170 0 -279 102t-109 267q0 166 110 268t277 102zM426 558q-91 0 -147 -60t-56 -153q0 -92 55.5 -152.5t148.5 -60.5t146.5 60.5t53.5 152.5q0 93 -54.5 153t-146.5 60z" />
    <glyph glyph-name="multiply" unicode="&#xd7;" horiz-adv-x="715" 
d="M458 281l194 -196l-100 -103l-194 197l-195 -197l-100 103l194 196l-194 196l100 102l195 -197l194 197l100 -102z" />
    <glyph glyph-name="Oslash" unicode="&#xd8;" horiz-adv-x="843" 
d="M688 721l-40 -70q73 -49 114.5 -127t41.5 -178q0 -164 -106.5 -267.5t-275.5 -103.5q-78 0 -145 24l-48 -85l-99 59l45 80q-136 105 -136 294q0 166 109.5 268t273.5 102q62 0 121 -17l46 80zM226 346q0 -77 41 -132l192 337q-18 3 -37 3q-86 0 -141.5 -59t-54.5 -149z
M423 137q87 0 141.5 60.5t54.5 148.5q0 90 -59 151l-199 -350q32 -10 62 -10z" />
    <glyph glyph-name="Ugrave" unicode="&#xd9;" horiz-adv-x="801" 
d="M494 802l-113 -47l-117 186l154 22zM737 700v-392q0 -155 -96 -242.5t-238 -87.5q-65 0 -124 19.5t-107.5 57.5t-77.5 102t-29 146v397h182v-400q0 -71 40.5 -114.5t111.5 -43.5t113 44.5t42 114.5v399h183z" />
    <glyph glyph-name="Uacute" unicode="&#xda;" horiz-adv-x="801" 
d="M531 943l-117 -186l-114 48l77 161zM737 700v-392q0 -155 -96 -242.5t-238 -87.5q-65 0 -124 19.5t-107.5 57.5t-77.5 102t-29 146v397h182v-400q0 -71 40.5 -114.5t111.5 -43.5t113 44.5t42 114.5v399h183z" />
    <glyph glyph-name="Ucircumflex" unicode="&#xdb;" horiz-adv-x="801" 
d="M465 771l-68 114l-71 -115l-91 43l94 137h135l93 -137zM737 700v-392q0 -155 -96 -242.5t-238 -87.5q-65 0 -124 19.5t-107.5 57.5t-77.5 102t-29 146v397h182v-400q0 -71 40.5 -114.5t111.5 -43.5t113 44.5t42 114.5v399h183z" />
    <glyph glyph-name="Udieresis" unicode="&#xdc;" horiz-adv-x="801" 
d="M308 899q27 0 45.5 -18.5t18.5 -45.5t-19.5 -46t-44.5 -19q-27 0 -46.5 19t-19.5 46t19.5 45.5t46.5 18.5zM485 899q27 0 46 -18.5t19 -45.5t-19.5 -46t-45.5 -19t-45.5 19t-19.5 46t19 45.5t46 18.5zM737 700v-392q0 -155 -96 -242.5t-238 -87.5q-65 0 -124 19.5
t-107.5 57.5t-77.5 102t-29 146v397h182v-400q0 -71 40.5 -114.5t111.5 -43.5t113 44.5t42 114.5v399h183z" />
    <glyph glyph-name="Yacute" unicode="&#xdd;" horiz-adv-x="780" 
d="M522 952l-117 -186l-113 48l76 161zM488 269v-269h-199l-1 270l-281 430h211l173 -267l172 267h209z" />
    <glyph glyph-name="Thorn" unicode="&#xde;" horiz-adv-x="689" 
d="M254 623h91q141 -1 230 -65.5t89 -194.5q0 -68 -25.5 -121t-68.5 -84t-92.5 -48t-104.5 -20q-59 -4 -119 -4v-86h-178v699l178 1v-77zM254 471v-238q45 0 93 3q59 2 95 33.5t36 82.5t-36.5 82.5t-94.5 33.5q-90 3 -93 3z" />
    <glyph glyph-name="germandbls" unicode="&#xdf;" horiz-adv-x="747" 
d="M298 771q118 0 200.5 -63.5t82.5 -167.5q0 -40 -13.5 -67t-33 -38.5t-39 -18.5t-33 -12.5t-13.5 -13.5q0 -7 3.5 -11.5t13 -7t18 -4t26 -3.5t30.5 -4q199 -32 199 -183q1 -93 -69.5 -140.5t-185.5 -47.5q-100 0 -199 53l45 126q85 -45 153 -44q45 1 71 14.5t25 35.5
q-1 13 -8.5 21.5t-22.5 13t-29.5 7.5t-38 6t-38.5 7q-67 15 -107 49t-40 107q0 43 20.5 72.5t45 41.5t45 27t20.5 31q0 30 -33 52.5t-75 21.5q-35 -1 -59 -23.5t-24 -58.5v-549h-170v549q0 107 67.5 164.5t165.5 57.5z" />
    <glyph glyph-name="agrave" unicode="&#xe0;" horiz-adv-x="671" 
d="M494 670l-113 -47l-117 186l154 22zM615 537v-537h-159l-5 60q-64 -68 -158 -68q-103 0 -180 79t-77 205q0 122 73.5 195t173.5 73q102 0 163 -73l5 66h164zM329 409q-52 0 -89.5 -36t-37.5 -98q0 -63 37.5 -102t94.5 -39q64 0 113 51l-1 163q-48 61 -117 61z" />
    <glyph glyph-name="aacute" unicode="&#xe1;" horiz-adv-x="671" 
d="M499 809l-117 -186l-113 47l76 161zM615 537v-537h-159l-5 60q-64 -68 -158 -68q-103 0 -180 79t-77 205q0 122 73.5 195t173.5 73q102 0 163 -73l5 66h164zM329 409q-52 0 -89.5 -36t-37.5 -98q0 -63 37.5 -102t94.5 -39q64 0 113 51l-1 163q-48 61 -117 61z" />
    <glyph glyph-name="acircumflex" unicode="&#xe2;" horiz-adv-x="671" 
d="M437 612l-69 114l-71 -115l-90 43l94 137h134l94 -137zM615 537v-537h-159l-5 60q-64 -68 -158 -68q-103 0 -180 79t-77 205q0 122 73.5 195t173.5 73q102 0 163 -73l5 66h164zM329 409q-52 0 -89.5 -36t-37.5 -98q0 -63 37.5 -102t94.5 -39q64 0 113 51l-1 163
q-48 61 -117 61z" />
    <glyph glyph-name="atilde" unicode="&#xe3;" horiz-adv-x="671" 
d="M293 768q44 -1 95 -32t69 -31q36 0 56 50l77 -33q-12 -50 -45.5 -82.5t-84.5 -32.5q-40 0 -91.5 30.5t-74.5 30.5q-39 3 -56 -48l-77 39q12 47 47 78t85 31zM615 537v-537h-160l-5 60q-62 -68 -158 -68q-103 0 -180 79t-77 205q0 122 73.5 195t173.5 73q101 0 164 -73
l5 66h164zM328 409q-52 0 -89.5 -36t-37.5 -98q0 -63 38 -102t94 -39q64 0 113 51v163q-48 61 -118 61z" />
    <glyph glyph-name="adieresis" unicode="&#xe4;" horiz-adv-x="671" 
d="M280 768q27 0 45.5 -18t18.5 -45q0 -28 -19 -46.5t-45 -18.5q-27 0 -46.5 19t-19.5 46t19.5 45t46.5 18zM457 768q27 0 46 -18t19 -45q0 -28 -19.5 -46.5t-45.5 -18.5t-45.5 19t-19.5 46t19 45t46 18zM615 537v-537h-159l-5 60q-64 -68 -158 -68q-103 0 -180 79t-77 205
q0 122 73.5 195t173.5 73q102 0 163 -73l5 66h164zM329 409q-52 0 -89.5 -36t-37.5 -98q0 -63 37.5 -102t94.5 -39q64 0 113 51l-1 163q-48 61 -117 61z" />
    <glyph glyph-name="aring" unicode="&#xe5;" horiz-adv-x="671" 
d="M365 848q57 0 97.5 -35t40.5 -90q0 -58 -40 -91t-98 -33q-59 0 -98.5 33t-39.5 91q0 56 40 90.5t98 34.5zM364 773q-20 0 -35.5 -14.5t-15.5 -34.5q0 -22 15.5 -36t36.5 -14t36.5 14.5t15.5 35.5t-15.5 35t-37.5 14zM615 537v-537h-159l-5 60q-64 -68 -158 -68
q-103 0 -180 79t-77 205q0 122 73.5 195t173.5 73q102 0 163 -73l5 66h164zM329 409q-52 0 -89.5 -36t-37.5 -98q0 -63 37.5 -102t94.5 -39q64 0 113 51l-1 163q-48 61 -117 61z" />
    <glyph glyph-name="ae" unicode="&#xe6;" horiz-adv-x="1078" 
d="M757 552q103 -1 175.5 -52t97.5 -126t3 -153h-404q16 -47 57.5 -70.5t97.5 -22.5q83 1 171 64l74 -117q-39 -33 -107 -58.5t-146 -25.5q-80 0 -150.5 28.5t-115.5 82.5q-83 -110 -211 -110q-107 0 -185.5 78.5t-78.5 205.5q0 123 76.5 195.5t182.5 72.5q125 0 210 -104
q41 54 107.5 83.5t145.5 28.5zM630 337h245q-2 35 -33 59.5t-82 24.5q-98 0 -130 -84zM333 134q64 0 113 51v163q-48 61 -118 61q-52 0 -89.5 -36t-37.5 -98q0 -63 38 -102t94 -39z" />
    <glyph glyph-name="ccedilla" unicode="&#xe7;" horiz-adv-x="601" 
d="M492 189l79 -122q-87 -69 -195 -79l-61 -152l-106 39l70 116q-105 19 -174 91.5t-69 185.5q-1 130 90 207t218 78q126 0 229 -78l-78 -127q-53 62 -137 62q-66 0 -108.5 -40.5t-43.5 -100.5q-1 -61 42.5 -101t107.5 -40q80 0 136 61z" />
    <glyph glyph-name="egrave" unicode="&#xe8;" horiz-adv-x="658" 
d="M333 627l-117 186l154 22l76 -161zM342 552q103 -1 175.5 -52t97.5 -126t3 -153h-403q15 -46 56.5 -70t97.5 -23q88 1 171 65l74 -117q-40 -34 -107 -59.5t-146 -25.5q-85 0 -157 30.5t-120 96.5t-48 156q0 128 88 204t218 74zM216 337h245q-2 35 -33 59.5t-82 24.5
q-47 0 -81.5 -22t-48.5 -62z" />
    <glyph glyph-name="eacute" unicode="&#xe9;" horiz-adv-x="658" 
d="M380 622l-113 48l76 161l154 -23zM342 552q103 -1 175.5 -52t97.5 -126t3 -153h-403q15 -46 56.5 -70t97.5 -23q88 1 171 65l74 -117q-40 -34 -107 -59.5t-146 -25.5q-85 0 -157 30.5t-120 96.5t-48 156q0 128 88 204t218 74zM216 337h245q-2 35 -33 59.5t-82 24.5
q-47 0 -81.5 -22t-48.5 -62z" />
    <glyph glyph-name="ecircumflex" unicode="&#xea;" horiz-adv-x="658" 
d="M273 623l-91 43l94 136h135l93 -136l-92 -42l-68 113zM342 552q103 -1 175.5 -52t97.5 -126t3 -153h-403q15 -46 56.5 -70t97.5 -23q88 1 171 65l74 -117q-40 -34 -107 -59.5t-146 -25.5q-85 0 -157 30.5t-120 96.5t-48 156q0 128 88 204t218 74zM216 337h245
q-2 35 -33 59.5t-82 24.5q-47 0 -81.5 -22t-48.5 -62z" />
    <glyph glyph-name="edieresis" unicode="&#xeb;" horiz-adv-x="658" 
d="M258 634q-26 0 -45.5 19t-19.5 46t19 45.5t46 18.5t46 -18.5t19 -45.5t-19.5 -46t-45.5 -19zM436 634q-27 0 -46.5 19t-19.5 46t19.5 45.5t46.5 18.5t45.5 -18.5t18.5 -45.5t-19.5 -46t-44.5 -19zM342 552q103 -1 175.5 -52t97.5 -126t3 -153h-403q15 -46 56.5 -70
t97.5 -23q88 1 171 65l74 -117q-40 -34 -107 -59.5t-146 -25.5q-85 0 -157 30.5t-120 96.5t-48 156q0 128 88 204t218 74zM216 337h245q-2 35 -33 59.5t-82 24.5q-47 0 -81.5 -22t-48.5 -62z" />
    <glyph glyph-name="igrave" unicode="&#xec;" horiz-adv-x="292" 
d="M278 650l-114 -47l-117 186l154 22zM231 0h-170v537h170v-537z" />
    <glyph glyph-name="iacute" unicode="&#xed;" horiz-adv-x="292" 
d="M283 789l-117 -186l-114 47l77 161zM231 0h-170v537h170v-537z" />
    <glyph glyph-name="icircumflex" unicode="&#xee;" horiz-adv-x="292" 
d="M220 592l-68 114l-71 -115l-91 43l94 137h135l93 -137zM231 0h-170v537h170v-537z" />
    <glyph glyph-name="idieresis" unicode="&#xef;" horiz-adv-x="292" 
d="M63 748q27 0 46 -18t19 -45q0 -28 -19.5 -46.5t-45.5 -18.5t-46 19t-20 46t19.5 45t46.5 18zM241 748q27 0 45.5 -18t18.5 -45q0 -28 -19 -46.5t-45 -18.5q-27 0 -46.5 19t-19.5 46t19.5 45t46.5 18zM231 0h-170v537h170v-537z" />
    <glyph glyph-name="eth" unicode="&#xf0;" horiz-adv-x="651" 
d="M620 361q14 -156 -69.5 -257.5t-210.5 -113.5q-116 -11 -205.5 56.5t-97.5 177.5q-7 97 56.5 167t162.5 74q92 5 172 -54q-26 69 -86.5 110.5t-133.5 49.5l41 155q78 -11 148 -45l69 97l128 -89l-72 -101q87 -93 98 -227zM318 143q46 2 79 36.5t44 89.5q-51 67 -128 64
q-45 -2 -74.5 -30t-27.5 -71q3 -42 34 -66.5t73 -22.5z" />
    <glyph glyph-name="ntilde" unicode="&#xf1;" horiz-adv-x="671" 
d="M261 785q44 -1 95 -31.5t69 -30.5q36 0 56 49l77 -33q-12 -50 -45.5 -82t-84.5 -32q-40 0 -91.5 30.5t-74.5 30.5q-39 2 -56 -49l-77 40q12 47 47 78t85 30zM408 546q89 0 151 -60.5t62 -174.5v-311h-172l1 294q0 52 -25.5 82t-69.5 30q-39 0 -73.5 -23.5t-58.5 -58.5
l-1 -324h-167v537h162l6 -82q87 91 185 91z" />
    <glyph glyph-name="ograve" unicode="&#xf2;" horiz-adv-x="680" 
d="M463 652l-114 -48l-117 186l154 23zM341 551q126 0 214.5 -77t88.5 -204q0 -89 -44.5 -154t-111.5 -95t-147 -30q-129 0 -217 76t-88 204q0 121 86.5 200.5t218.5 79.5zM341 408q-56 0 -95.5 -37.5t-39.5 -100.5q1 -63 40 -99.5t95 -36.5q54 0 93.5 36.5t39.5 99.5
q0 65 -39.5 101.5t-93.5 36.5z" />
    <glyph glyph-name="oacute" unicode="&#xf3;" horiz-adv-x="680" 
d="M468 790l-117 -186l-114 48l77 161zM341 551q126 0 214.5 -77t88.5 -204q0 -89 -44.5 -154t-111.5 -95t-147 -30q-129 0 -217 76t-88 204q0 121 86.5 200.5t218.5 79.5zM341 408q-56 0 -95.5 -37.5t-39.5 -100.5q1 -63 40 -99.5t95 -36.5q54 0 93.5 36.5t39.5 99.5
q0 65 -39.5 101.5t-93.5 36.5z" />
    <glyph glyph-name="ocircumflex" unicode="&#xf4;" horiz-adv-x="680" 
d="M405 594l-68 113l-71 -114l-91 43l94 136h135l93 -136zM341 551q126 0 214.5 -77t88.5 -204q0 -89 -44.5 -154t-111.5 -95t-147 -30q-129 0 -217 76t-88 204q0 121 86.5 200.5t218.5 79.5zM341 408q-56 0 -95.5 -37.5t-39.5 -100.5q1 -63 40 -99.5t95 -36.5
q54 0 93.5 36.5t39.5 99.5q0 65 -39.5 101.5t-93.5 36.5z" />
    <glyph glyph-name="otilde" unicode="&#xf5;" horiz-adv-x="680" 
d="M262 749q44 -1 94.5 -31.5t68.5 -30.5q37 0 57 49l76 -33q-11 -49 -45 -81.5t-85 -32.5q-39 0 -91 30.5t-74 30.5q-39 1 -57 -49l-76 40q11 47 46.5 78t85.5 30zM341 551q126 0 214.5 -77t88.5 -204q0 -89 -44.5 -154t-111.5 -95t-147 -30q-129 0 -217.5 76t-88.5 204
q0 121 87 200.5t219 79.5zM341 408q-57 0 -96.5 -37.5t-38.5 -100.5q0 -63 39.5 -99.5t95.5 -36.5q53 0 92.5 36.5t39.5 99.5q0 65 -39 101.5t-93 36.5z" />
    <glyph glyph-name="odieresis" unicode="&#xf6;" horiz-adv-x="680" 
d="M248 750q27 0 46 -18.5t19 -45.5t-19.5 -46t-45.5 -19t-45.5 19t-19.5 46t19 45.5t46 18.5zM426 750q27 0 45.5 -18.5t18.5 -45.5t-19.5 -46t-44.5 -19q-27 0 -46.5 19t-19.5 46t19.5 45.5t46.5 18.5zM341 551q126 0 214.5 -77t88.5 -204q0 -89 -44.5 -154t-111.5 -95
t-147 -30q-129 0 -217 76t-88 204q0 121 86.5 200.5t218.5 79.5zM341 408q-56 0 -95.5 -37.5t-39.5 -100.5q1 -63 40 -99.5t95 -36.5q54 0 93.5 36.5t39.5 99.5q0 65 -39.5 101.5t-93.5 36.5z" />
    <glyph glyph-name="divide" unicode="&#xf7;" horiz-adv-x="675" 
d="M339 410h-2q-25 0 -45 20t-20 47q0 28 20.5 48.5t46.5 20.5q28 0 48 -20.5t20 -48.5q0 -27 -20 -47t-48 -20zM617 240h-560v88h560v-88zM338 158h2q25 0 45 -19.5t20 -47.5q0 -27 -20.5 -48.5t-46.5 -21.5q-28 0 -48 21t-20 49t19.5 47.5t48.5 19.5z" />
    <glyph glyph-name="oslash" unicode="&#xf8;" horiz-adv-x="672" 
d="M547 563l-33 -63q57 -36 89.5 -95.5t32.5 -134.5q0 -89 -43.5 -153.5t-110 -94.5t-146.5 -30q-44 0 -85 9l-38 -72l-92 45l36 67q-122 76 -122 230q0 121 85 200.5t216 79.5q39 0 84 -10l36 67zM182 270q0 -65 39 -106l137 259q-14 2 -21 2q-65 0 -110 -42t-45 -113z
M337 117q63 0 107 41t44 112q0 65 -38 108l-137 -260q8 -1 24 -1z" />
    <glyph glyph-name="ugrave" unicode="&#xf9;" horiz-adv-x="652" 
d="M418 677l-113 -48l-117 186l154 23zM597 0h-157l-8 67q-84 -84 -183 -84q-83 0 -140.5 59.5t-57.5 160.5v334h170v-322q0 -40 24 -63.5t61 -23.5q68 0 121 70v339h170v-537z" />
    <glyph glyph-name="uacute" unicode="&#xfa;" horiz-adv-x="652" 
d="M469 801l-117 -186l-113 48l76 161zM597 0h-157l-8 67q-84 -84 -183 -84q-83 0 -140.5 59.5t-57.5 160.5v334h170v-322q0 -40 24 -63.5t61 -23.5q68 0 121 70v339h170v-537z" />
    <glyph glyph-name="ucircumflex" unicode="&#xfb;" horiz-adv-x="652" 
d="M393 628l-68 114l-71 -115l-91 43l94 137h135l93 -137zM597 0h-157l-8 67q-84 -84 -183 -84q-83 0 -140.5 59.5t-57.5 160.5v334h170v-322q0 -40 24 -63.5t61 -23.5q68 0 121 70v339h170v-537z" />
    <glyph glyph-name="udieresis" unicode="&#xfc;" horiz-adv-x="652" 
d="M227 777q27 0 45.5 -18.5t18.5 -45.5t-19.5 -46t-44.5 -19q-27 0 -46.5 19t-19.5 46t19.5 45.5t46.5 18.5zM404 777q27 0 46 -18.5t19 -45.5t-19.5 -46t-45.5 -19t-45.5 19t-19.5 46t19 45.5t46 18.5zM597 0h-157l-8 67q-84 -84 -183 -84q-83 0 -140.5 59.5t-57.5 160.5
v334h170v-322q0 -40 24 -63.5t61 -23.5q68 0 121 70v339h170v-537z" />
    <glyph glyph-name="yacute" unicode="&#xfd;" horiz-adv-x="668" 
d="M350 603l-114 47l77 161l154 -22zM688 537l-395 -841h-187l146 306l-253 535h187l157 -355l159 355h186z" />
    <glyph glyph-name="thorn" unicode="&#xfe;" horiz-adv-x="691" 
d="M241 700v-222q77 67 172 67q99 0 170.5 -74.5t71.5 -210.5q0 -130 -67 -199t-161 -69q-54 0 -104 21.5t-83 51.5v-258h-169v893h170zM238 355v-172q55 -55 122 -55q53 0 89.5 36t36.5 99q0 62 -38 101t-95 39q-65 0 -115 -48z" />
    <glyph glyph-name="ydieresis" unicode="&#xff;" horiz-adv-x="668" 
d="M247 620q-26 0 -45.5 19t-19.5 46t19 45t46 18t46 -18t19 -45q0 -28 -19.5 -46.5t-45.5 -18.5zM425 620q-27 0 -46.5 19t-19.5 46t19.5 45t46.5 18t45.5 -18t18.5 -45q0 -28 -19 -46.5t-45 -18.5zM688 537l-395 -841h-187l146 306l-253 535h187l157 -355l159 355h186z
" />
    <glyph glyph-name="Amacron" unicode="&#x100;" horiz-adv-x="786" 
d="M565 777h-349v110h349v-110zM547 129h-308l-50 -129h-190l302 700h182l304 -700h-189zM486 285l-94 239l-93 -239h187z" />
    <glyph glyph-name="amacron" unicode="&#x101;" horiz-adv-x="671" 
d="M539 634h-350v110h350v-110zM615 537v-537h-159l-5 60q-64 -68 -158 -68q-103 0 -180 79t-77 205q0 122 73.5 195t173.5 73q102 0 163 -73l5 66h164zM329 409q-52 0 -89.5 -36t-37.5 -98q0 -63 37.5 -102t94.5 -39q64 0 113 51l-1 163q-48 61 -117 61z" />
    <glyph glyph-name="Abreve" unicode="&#x102;" horiz-adv-x="786" 
d="M395 772q-67 0 -111 34.5t-61 92.5l96 26q6 -26 27 -42.5t49 -16.5t48.5 16.5t26.5 42.5l95 -26q-16 -58 -59.5 -92.5t-110.5 -34.5zM547 129h-308l-50 -129h-190l302 700h182l304 -700h-189zM486 285l-94 239l-93 -239h187z" />
    <glyph glyph-name="abreve" unicode="&#x103;" horiz-adv-x="671" 
d="M444 782l95 -26q-16 -58 -60 -93t-110 -35q-67 0 -111 35t-62 93l96 26q6 -26 27 -42.5t50 -16.5q28 0 48.5 17t26.5 42zM615 537v-537h-159l-5 60q-64 -68 -158 -68q-103 0 -180 79t-77 205q0 122 73.5 195t173.5 73q102 0 163 -73l5 66h164zM329 409q-52 0 -89.5 -36
t-37.5 -98q0 -63 37.5 -102t94.5 -39q64 0 113 51l-1 163q-48 61 -117 61z" />
    <glyph glyph-name="Aogonek" unicode="&#x104;" horiz-adv-x="786" 
d="M835 -85l31 -52q-56 -49 -123 -51q-49 -1 -83.5 25.5t-34.5 68.5q0 57 57 94h-84l-51 129h-308l-50 -129h-190l302 700h182l304 -700h-7q-63 -28 -63 -71q-1 -19 13.5 -29.5t39.5 -9.5q34 2 65 25zM486 285l-94 239l-93 -239h187z" />
    <glyph glyph-name="aogonek" unicode="&#x105;" horiz-adv-x="671" 
d="M670 -84l32 -52q-60 -50 -124 -50q-48 -1 -83 25t-35 68q0 55 56 93h-60l-5 60q-64 -68 -158 -68q-103 0 -180 79t-77 205q0 122 73.5 195t173.5 73q102 0 163 -73l5 66h164v-537h-3q-60 -28 -60 -70q-1 -19 13.5 -29.5t39.5 -9.5q34 2 65 25zM334 134q64 0 113 51
l-1 163q-48 61 -117 61q-52 0 -89.5 -36t-37.5 -98q0 -63 37.5 -102t94.5 -39z" />
    <glyph glyph-name="Cacute" unicode="&#x106;" horiz-adv-x="716" 
d="M555 950l-117 -186l-114 48l77 161zM433 716q118 1 232 -51l-57 -145q-76 42 -159 41q-93 -2 -159.5 -57.5t-66.5 -155.5q0 -101 66 -154.5t160 -53.5q85 0 158 45l62 -143q-110 -58 -227 -58q-78 0 -150 24t-128.5 68.5t-90.5 114.5t-34 156q0 163 113.5 265t280.5 104z
" />
    <glyph glyph-name="cacute" unicode="&#x107;" horiz-adv-x="601" 
d="M479 804l-117 -186l-114 48l77 161zM344 553q126 0 229 -78l-78 -127q-53 62 -137 62q-66 0 -108.5 -40.5t-43.5 -100.5q-1 -61 42.5 -101t107.5 -40q80 0 136 61l80 -121q-102 -82 -230 -82q-125 0 -215.5 76t-90.5 206q-1 130 90 207t218 78z" />
    <glyph glyph-name="Ccaron" unicode="&#x10c;" horiz-adv-x="716" 
d="M506 769h-129l-97 113l89 62l71 -92l69 91l92 -61zM433 716q118 1 232 -51l-57 -145q-76 42 -159 41q-93 -2 -159.5 -57.5t-66.5 -155.5q0 -101 66 -154.5t160 -53.5q85 0 158 45l62 -143q-110 -58 -227 -58q-78 0 -150 24t-128.5 68.5t-90.5 114.5t-34 156
q0 163 113.5 265t280.5 104z" />
    <glyph glyph-name="ccaron" unicode="&#x10d;" horiz-adv-x="601" 
d="M411 613h-129l-97 113l89 63l71 -93l69 92l92 -61zM344 553q126 0 229 -78l-78 -127q-53 62 -137 62q-66 0 -108.5 -40.5t-43.5 -100.5q-1 -61 42.5 -101t107.5 -40q80 0 136 61l80 -121q-102 -82 -230 -82q-125 0 -215.5 76t-90.5 206q-1 130 90 207t218 78z" />
    <glyph glyph-name="Dcaron" unicode="&#x10e;" horiz-adv-x="772" 
d="M426 769h-128l-97 113l89 62l71 -92l69 91l91 -61zM76 0v700q79 3 207 3q134 -2 232.5 -36.5t158 -113.5t59.5 -197q0 -174 -124.5 -267t-360.5 -93q-92 0 -172 4zM257 547v-395q31 -2 62 1q102 7 167 56.5t65 144.5q0 51 -20.5 89t-55.5 59t-73.5 31.5t-82.5 12.5
q-27 2 -62 1z" />
    <glyph glyph-name="dcaron" unicode="&#x10f;" horiz-adv-x="761" 
d="M707 882q37 8 68.5 -13t40.5 -65q13 -56 -21 -107.5t-96 -68.5l-6 50q41 17 41 58q-26 -12 -54 2.5t-36 48.5q-7 32 11.5 59.5t51.5 35.5zM626 723v-723h-160l-5 60q-81 -68 -172 -68q-102 0 -177.5 76.5t-75.5 207.5q0 127 71.5 197.5t170.5 70.5q98 0 178 -73v252h170z
M332 403q-52 0 -89 -36t-37 -94q0 -59 38.5 -97.5t95.5 -37.5q67 0 116 53v152q-56 60 -124 60z" />
    <glyph glyph-name="Dcroat" unicode="&#x110;" horiz-adv-x="784" 
d="M296 703q100 -1 180 -21.5t141 -61.5t94.5 -108t33.5 -156q0 -174 -124.5 -267t-360.5 -93q-91 0 -171 4v313h-71v105h71v282q80 3 207 3zM331 153q102 7 167 56.5t65 144.5q0 51 -20 89t-55 59t-73.5 31.5t-83.5 12.5q-25 2 -62 1v-129h118v-105h-118v-161q33 -2 62 1z
" />
    <glyph glyph-name="dcroat" unicode="&#x111;" horiz-adv-x="698" 
d="M688 569h-62v-569h-160l-5 60q-81 -68 -172 -68q-102 0 -177.5 76.5t-75.5 207.5q0 127 71.5 197.5t170.5 70.5q98 0 178 -73v98h-117v110h117v44h170v-44h62v-110zM340 138q67 0 116 53v152q-56 60 -124 60q-52 0 -89 -36t-37 -94q0 -59 38.5 -97.5t95.5 -37.5z" />
    <glyph glyph-name="Emacron" unicode="&#x112;" horiz-adv-x="664" 
d="M523 761h-350v110h350v-110zM602 545h-344v-123h260v-141h-260v-126h366v-155h-548v700h526v-155z" />
    <glyph glyph-name="emacron" unicode="&#x113;" horiz-adv-x="658" 
d="M525 634h-349v110h349v-110zM342 552q103 -1 175.5 -52t97.5 -126t3 -153h-403q15 -46 56.5 -70t97.5 -23q88 1 171 65l74 -117q-40 -34 -107 -59.5t-146 -25.5q-85 0 -157 30.5t-120 96.5t-48 156q0 128 88 204t218 74zM216 337h245q-2 35 -33 59.5t-82 24.5
q-47 0 -81.5 -22t-48.5 -62z" />
    <glyph glyph-name="Edotaccent" unicode="&#x116;" horiz-adv-x="664" 
d="M358 896q27 0 45.5 -18.5t18.5 -45.5t-19.5 -46t-44.5 -19q-27 0 -46.5 19t-19.5 46t19.5 45.5t46.5 18.5zM602 545h-344v-123h260v-141h-260v-126h366v-155h-548v700h526v-155z" />
    <glyph glyph-name="edotaccent" unicode="&#x117;" horiz-adv-x="658" 
d="M356 630q-26 0 -45.5 19t-19.5 46t19 45.5t46 18.5t46 -18.5t19 -45.5t-19.5 -46t-45.5 -19zM342 552q103 -1 175.5 -52t97.5 -126t3 -153h-403q15 -46 56.5 -70t97.5 -23q88 1 171 65l74 -117q-40 -34 -107 -59.5t-146 -25.5q-85 0 -157 30.5t-120 96.5t-48 156
q0 128 88 204t218 74zM216 337h245q-2 35 -33 59.5t-82 24.5q-47 0 -81.5 -22t-48.5 -62z" />
    <glyph glyph-name="Eogonek" unicode="&#x118;" horiz-adv-x="664" 
d="M624 0h-177q-63 -28 -63 -71q-1 -19 13.5 -29.5t39.5 -9.5q34 2 65 25l32 -52q-58 -50 -124 -51q-48 -1 -83 25.5t-35 68.5q0 56 58 94h-274v700h526v-155h-344v-123h260v-141h-260v-126h366v-155z" />
    <glyph glyph-name="eogonek" unicode="&#x119;" horiz-adv-x="658" 
d="M342 552q103 -1 175.5 -52t97.5 -126t3 -153h-403q15 -46 56.5 -70t97.5 -23q86 1 171 65l74 -117q-35 -30 -95 -54.5t-130 -29.5q-60 -28 -60 -69q-1 -20 13.5 -30t39.5 -9q33 2 65 24l32 -52q-60 -50 -124 -50q-48 -1 -83 25t-35 68q0 59 61 97q-112 17 -187 89
t-75 189q0 128 88 204t218 74zM216 337h244q-2 35 -33 59.5t-82 24.5q-47 0 -81 -22t-48 -62z" />
    <glyph glyph-name="Ecaron" unicode="&#x11a;" horiz-adv-x="664" 
d="M418 762h-129l-97 113l89 63l71 -93l69 92l92 -61zM602 545h-344v-123h260v-141h-260v-126h366v-155h-548v700h526v-155z" />
    <glyph glyph-name="ecaron" unicode="&#x11b;" horiz-adv-x="658" 
d="M283 614l-97 113l89 63l71 -93l69 92l92 -61l-95 -114h-129zM342 552q103 -1 175.5 -52t97.5 -126t3 -153h-403q15 -46 56.5 -70t97.5 -23q88 1 171 65l74 -117q-40 -34 -107 -59.5t-146 -25.5q-85 0 -157 30.5t-120 96.5t-48 156q0 128 88 204t218 74zM216 337h245
q-2 35 -33 59.5t-82 24.5q-47 0 -81.5 -22t-48.5 -62z" />
    <glyph glyph-name="Gcommaaccent" unicode="&#x122;" horiz-adv-x="799" 
d="M442 718q123 1 238 -52l-54 -149q-81 51 -171 48q-98 -2 -165.5 -63t-67.5 -155q0 -95 67.5 -153.5t166.5 -58.5q71 0 135 33v87h-157v144h321v-327q-139 -93 -307 -93q-177 0 -293 102.5t-116 263.5q1 158 114 265t289 108zM453 -81q38 0 64.5 -27.5t26.5 -72.5
q0 -59 -44.5 -102.5t-109.5 -47.5l4 51q43 7 54 48q-29 -6 -53.5 14.5t-24.5 55.5q0 34 24 57.5t59 23.5z" />
    <glyph glyph-name="gcommaaccent" unicode="&#x123;" horiz-adv-x="677" 
d="M358 817q38 0 64.5 -27.5t26.5 -72.5q0 -59 -44.5 -102.5t-110.5 -46.5l5 51q44 7 54 48q-29 -6 -54 14.5t-25 55.5q0 34 24.5 57t59.5 23zM282 544q92 0 171 -72l7 65h162v-509q0 -76 -25.5 -133t-69 -89t-93.5 -47t-107 -15q-131 0 -243 67l56 126q78 -51 163 -51
q67 0 109 34t43 97v50q-75 -71 -162 -71q-103 0 -180 73.5t-77 206.5q0 68 22 121t58 84t78.5 47t87.5 16zM333 404q-53 0 -90 -35t-37 -94q0 -58 38 -95t94 -37q64 0 114 46v165q-56 50 -119 50z" />
    <glyph glyph-name="Imacron" unicode="&#x12a;" horiz-adv-x="330" 
d="M346 777h-350v110h350v-110zM254 0h-178v700h178v-700z" />
    <glyph glyph-name="imacron" unicode="&#x12b;" horiz-adv-x="292" 
d="M322 614h-350v110h350v-110zM231 0h-170v537h170v-537z" />
    <glyph glyph-name="Iogonek" unicode="&#x12e;" horiz-adv-x="330" 
d="M272 -85l32 -52q-56 -49 -123 -51q-49 -1 -83.5 25.5t-34.5 68.5q0 57 57 94h-44v700h178v-700h-37q-61 -28 -63 -71q0 -19 14.5 -29.5t38.5 -9.5q33 2 65 25z" />
    <glyph glyph-name="iogonek" unicode="&#x12f;" horiz-adv-x="292" 
d="M147 600q-36 0 -61.5 24.5t-25.5 59.5q0 34 25.5 58.5t61.5 24.5q37 0 62.5 -24.5t25.5 -58.5q0 -35 -26 -59.5t-62 -24.5zM286 -85l32 -52q-58 -50 -124 -51q-48 -1 -83 25.5t-35 68.5q0 57 57 94h-72v537h170v-537q-63 -28 -63 -71q-1 -19 13.5 -29.5t39.5 -9.5
q34 2 65 25z" />
    <glyph glyph-name="dotlessi" unicode="&#x131;" horiz-adv-x="292" 
d="M231 0h-170v537h170v-537z" />
    <glyph glyph-name="Kcommaaccent" unicode="&#x136;" horiz-adv-x="723" 
d="M461 393l274 -393h-218l-168 256l-92 -115v-141h-181v700h181v-318l246 318h206zM376 -77q38 0 64.5 -27.5t26.5 -72.5q0 -59 -44.5 -102.5t-109.5 -47.5l4 51q43 7 54 48q-29 -6 -53.5 14.5t-24.5 55.5q0 34 24 57.5t59 23.5z" />
    <glyph glyph-name="kcommaaccent" unicode="&#x137;" horiz-adv-x="647" 
d="M240 318l193 219h208l-214 -230l231 -307h-208l-136 186l-74 -79v-107h-169v722h169v-404zM304 -62q38 0 64.5 -27.5t26.5 -72.5q0 -59 -44.5 -102.5t-109.5 -46.5l4 51q44 7 54 48q-29 -6 -53.5 14.5t-24.5 55.5q0 34 24 57t59 23z" />
    <glyph glyph-name="Lacute" unicode="&#x139;" horiz-adv-x="584" 
d="M356 938l-117 -186l-114 47l77 161zM258 155h323v-155h-505v700h182v-545z" />
    <glyph glyph-name="lacute" unicode="&#x13a;" horiz-adv-x="313" 
d="M308 958l-117 -186l-113 47l76 161zM242 0h-171v722h171v-722z" />
    <glyph glyph-name="Lcommaaccent" unicode="&#x13b;" horiz-adv-x="584" 
d="M258 155h323v-155h-505v700h182v-545zM334 -77q38 0 64.5 -27.5t26.5 -72.5q0 -59 -44.5 -102.5t-109.5 -47.5l4 51q43 7 54 48q-29 -6 -53.5 14.5t-24.5 55.5q0 34 24 57.5t59 23.5z" />
    <glyph glyph-name="lcommaaccent" unicode="&#x13c;" horiz-adv-x="313" 
d="M242 0h-171v722h171v-722zM154 -65q38 0 64.5 -27.5t26.5 -72.5q0 -59 -44.5 -102.5t-110.5 -46.5l5 51q44 7 54 48q-29 -6 -54 14.5t-25 55.5q0 34 24.5 57t59.5 23z" />
    <glyph glyph-name="Lcaron" unicode="&#x13d;" horiz-adv-x="584" 
d="M258 155h323v-155h-505v700h182v-545z" />
    <glyph glyph-name="lcaron" unicode="&#x13e;" horiz-adv-x="384" 
d="M331 874q37 8 68.5 -13t40.5 -65q12 -56 -21.5 -107.5t-95.5 -68.5l-7 50q40 16 42 58q-27 -12 -55 2.5t-35 48.5q-7 32 11.5 59.5t51.5 35.5zM242 0h-171v722h171v-722z" />
    <glyph glyph-name="Ldot" unicode="&#x13f;" horiz-adv-x="584" 
d="M258 155h323v-155h-505v700h182v-545zM405 495q33 0 56.5 -24t23.5 -57q0 -35 -23.5 -59t-56.5 -24t-57 24.5t-24 58.5q0 32 24 56.5t57 24.5z" />
    <glyph glyph-name="ldot" unicode="&#x140;" horiz-adv-x="313" 
d="M242 0h-171v722h171v-722zM374 507q37 0 64 -27.5t27 -64.5q0 -39 -27 -65.5t-64 -26.5t-63.5 27t-26.5 65q0 37 26.5 64.5t63.5 27.5z" />
    <glyph glyph-name="Lslash" unicode="&#x141;" horiz-adv-x="618" 
d="M616 155v-155h-505v237l-44 -18l-42 104l86 36v341h182v-266l123 51l41 -104l-164 -68v-158h323z" />
    <glyph glyph-name="lslash" unicode="&#x142;" horiz-adv-x="415" 
d="M286 299v-299h-170v220l-64 -30l-43 103l107 50v379h170v-300l77 36l43 -103z" />
    <glyph glyph-name="Nacute" unicode="&#x143;" horiz-adv-x="828" 
d="M560 945l-117 -186l-114 47l77 161zM752 0h-174l-322 424v-424h-180v700h179l317 -426v426h180v-700z" />
    <glyph glyph-name="nacute" unicode="&#x144;" horiz-adv-x="671" 
d="M502 816l-117 -186l-113 47l76 161zM409 546q88 0 150 -60.5t62 -174.5v-311h-171l1 294q0 52 -26 82t-70 30q-39 0 -73.5 -23.5t-58.5 -58.5v-324h-167v537h161l6 -82q89 91 186 91z" />
    <glyph glyph-name="Ncommaaccent" unicode="&#x145;" horiz-adv-x="828" 
d="M752 0h-174l-322 424v-424h-180v700h179l317 -426v426h180v-700zM433 -77q38 0 64.5 -27.5t26.5 -72.5q0 -59 -44.5 -102.5t-110.5 -47.5l5 51q43 7 54 48q-29 -6 -54 14.5t-25 55.5q0 34 24.5 57.5t59.5 23.5z" />
    <glyph glyph-name="ncommaaccent" unicode="&#x146;" horiz-adv-x="671" 
d="M409 546q88 0 150 -60.5t62 -174.5v-311h-171l1 294q0 52 -26 82t-70 30q-39 0 -73.5 -23.5t-58.5 -58.5v-324h-167v537h161l6 -82q89 91 186 91zM345 -72q38 0 64.5 -27.5t26.5 -72.5q0 -59 -44.5 -102.5t-110.5 -47.5l5 51q43 7 54 48q-29 -6 -54 14.5t-25 55.5
q0 34 24.5 57.5t59.5 23.5z" />
    <glyph glyph-name="Ncaron" unicode="&#x147;" horiz-adv-x="828" 
d="M487 766h-128l-97 113l89 62l71 -92l69 91l91 -61zM752 0h-174l-322 424v-424h-180v700h179l317 -426v426h180v-700z" />
    <glyph glyph-name="ncaron" unicode="&#x148;" horiz-adv-x="671" 
d="M414 625h-129l-97 113l89 62l71 -92l69 91l92 -61zM409 546q88 0 150 -60.5t62 -174.5v-311h-171l1 294q0 52 -26 82t-70 30q-39 0 -73.5 -23.5t-58.5 -58.5v-324h-167v537h161l6 -82q89 91 186 91z" />
    <glyph glyph-name="Eng" unicode="&#x14a;" horiz-adv-x="834" 
d="M752 700v-700q-6 -193 -99 -277t-275 -84l-2 158q92 1 142.5 55t53.5 155l-316 417v-424h-180v700h179l317 -426v426h180z" />
    <glyph glyph-name="eng" unicode="&#x14b;" horiz-adv-x="671" 
d="M409 546q88 0 150 -60.5t62 -174.5v-367q0 -115 -68.5 -176.5t-166.5 -61.5q-88 0 -176 49l49 128q49 -34 105 -32q36 1 61 25.5t25 72.5v51l1 294q0 52 -26 82t-70 30q-39 0 -73.5 -23.5t-58.5 -58.5v-324h-167v537h161l6 -82q89 91 186 91z" />
    <glyph glyph-name="Omacron" unicode="&#x14c;" horiz-adv-x="850" 
d="M601 777h-349v110h349v-110zM426 714q166 0 275.5 -101t109.5 -267q0 -164 -106 -267.5t-278 -103.5q-170 0 -279 102t-109 267q0 166 110 268t277 102zM426 558q-91 0 -147 -60t-56 -153q0 -92 55.5 -152.5t148.5 -60.5t146.5 60.5t53.5 152.5q0 93 -54.5 153t-146.5 60
z" />
    <glyph glyph-name="omacron" unicode="&#x14d;" horiz-adv-x="680" 
d="M507 615h-349v110h349v-110zM341 551q126 0 214.5 -77t88.5 -204q0 -89 -44.5 -154t-111.5 -95t-147 -30q-129 0 -217 76t-88 204q0 121 86.5 200.5t218.5 79.5zM341 408q-56 0 -95.5 -37.5t-39.5 -100.5q1 -63 40 -99.5t95 -36.5q54 0 93.5 36.5t39.5 99.5
q0 65 -39.5 101.5t-93.5 36.5z" />
    <glyph glyph-name="Ohungarumlaut" unicode="&#x150;" horiz-adv-x="850" 
d="M454 943l-117 -186l-114 48l77 161zM666 943l-117 -186l-114 48l77 161zM426 714q166 0 275.5 -101t109.5 -267q0 -164 -106 -267.5t-278 -103.5q-170 0 -279 102t-109 267q0 166 110 268t277 102zM426 558q-91 0 -147 -60t-56 -153q0 -92 55.5 -152.5t148.5 -60.5
t146.5 60.5t53.5 152.5q0 93 -54.5 153t-146.5 60z" />
    <glyph glyph-name="ohungarumlaut" unicode="&#x151;" horiz-adv-x="680" 
d="M379 790l-117 -186l-113 48l76 161zM591 790l-117 -186l-113 48l76 161zM341 551q126 0 214.5 -77t88.5 -204q0 -89 -44.5 -154t-111.5 -95t-147 -30q-129 0 -217 76t-88 204q0 121 86.5 200.5t218.5 79.5zM341 408q-56 0 -95.5 -37.5t-39.5 -100.5q1 -63 40 -99.5
t95 -36.5q54 0 93.5 36.5t39.5 99.5q0 65 -39.5 101.5t-93.5 36.5z" />
    <glyph glyph-name="OE" unicode="&#x152;" horiz-adv-x="1269" 
d="M1230 155v-155h-548v58q-103 -83 -255 -83q-170 0 -279 102t-109 267t110 267t277 102q151 0 256 -83v70h525v-155h-343v-123h260v-141h-260v-126h366zM427 131q93 0 146.5 61t53.5 153q0 93 -54.5 152.5t-146.5 59.5q-91 0 -147 -60t-56 -153q0 -92 55.5 -152.5
t148.5 -60.5z" />
    <glyph glyph-name="oe" unicode="&#x153;" horiz-adv-x="1137" 
d="M815 557q103 -1 175.5 -52t97.5 -126t3 -153h-403q15 -46 56.5 -70t97.5 -23q83 1 171 64l74 -117q-39 -33 -107 -58.5t-146 -25.5q-73 0 -140 24.5t-112 71.5q-42 -49 -106 -75t-135 -26q-129 0 -217.5 75.5t-88.5 203.5q0 122 87 201t219 79q142 0 231 -92
q42 48 105.5 74t137.5 25zM689 342h244q-2 35 -33 59.5t-82 24.5q-47 0 -81 -22t-48 -62zM341 134q53 0 92.5 36.5t39.5 99.5q0 65 -39 101.5t-93 36.5q-57 0 -96.5 -37.5t-38.5 -100.5q0 -63 39.5 -99.5t95.5 -36.5z" />
    <glyph glyph-name="Racute" unicode="&#x154;" horiz-adv-x="716" 
d="M369 763l-113 47l76 161l154 -22zM466 0l-82 179q-22 -2 -32 -2q-61 -2 -94 0v-177h-182v700q174 4 256 4q151 -1 238.5 -72t87.5 -188q0 -128 -106 -204l120 -240h-206zM348 333q64 6 96 34.5t32 74.5q0 49 -38.5 76t-95.5 31q-40 3 -85 1v-219q54 -2 91 2z" />
    <glyph glyph-name="racute" unicode="&#x155;" horiz-adv-x="453" 
d="M388 789l-117 -186l-113 48l76 161zM369 546q39 0 83 -23l-38 -139q-29 19 -60 19q-78 0 -128 -94v-309h-170v537h154l7 -86q26 46 66.5 70.5t85.5 24.5z" />
    <glyph glyph-name="Rcommaaccent" unicode="&#x156;" horiz-adv-x="716" 
d="M671 0h-205l-82 179q-22 -2 -32 -2q-61 -2 -94 0v-177h-182v700q174 4 256 4q151 -1 238.5 -72t87.5 -188q0 -128 -106 -204zM348 333q64 6 96 34.5t32 74.5q0 49 -38.5 76t-95.5 31q-40 3 -85 1v-219q54 -2 91 2zM358 -77q38 0 64.5 -27.5t26.5 -72.5
q0 -59 -44.5 -102.5t-109.5 -46.5l4 51q44 7 54 48q-29 -6 -53.5 14.5t-24.5 55.5q0 34 24 57t59 23z" />
    <glyph glyph-name="rcommaaccent" unicode="&#x157;" horiz-adv-x="453" 
d="M369 546q39 0 83 -23l-38 -139q-29 19 -60 19q-78 0 -128 -94v-309h-170v537h154l7 -86q26 46 66.5 70.5t85.5 24.5zM212 -72q38 0 64.5 -27.5t26.5 -72.5q0 -59 -44.5 -102.5t-109.5 -47.5l4 51q43 7 54 48q-29 -6 -53.5 14.5t-24.5 55.5q0 34 24 57.5t59 23.5z" />
    <glyph glyph-name="Rcaron" unicode="&#x158;" horiz-adv-x="716" 
d="M295 767l-97 113l89 62l71 -92l69 91l91 -61l-95 -113h-128zM466 0l-82 179q-22 -2 -32 -2q-61 -2 -94 0v-177h-182v700q174 4 256 4q151 -1 238.5 -72t87.5 -188q0 -128 -106 -204l120 -240h-206zM348 333q64 6 96 34.5t32 74.5q0 49 -38.5 76t-95.5 31q-40 3 -85 1
v-219q54 -2 91 2z" />
    <glyph glyph-name="rcaron" unicode="&#x159;" horiz-adv-x="453" 
d="M321 622h-129l-97 113l89 63l71 -93l69 92l92 -61zM369 546q39 0 83 -23l-38 -139q-29 19 -60 19q-78 0 -128 -94v-309h-170v537h154l7 -86q26 46 66.5 70.5t85.5 24.5z" />
    <glyph glyph-name="Sacute" unicode="&#x15a;" horiz-adv-x="674" 
d="M489 951l-117 -186l-113 47l76 161zM349 711q117 0 227 -51l-35 -147q-93 43 -179 43q-51 0 -83.5 -15t-31.5 -44q1 -13 9 -22t26.5 -16t34.5 -10.5t48.5 -10t52.5 -11.5q100 -25 156.5 -70.5t57.5 -136.5q1 -112 -84.5 -172t-212.5 -61q-146 -1 -284 72l50 147
q115 -64 222 -63q58 1 91.5 19.5t34.5 46.5q0 15 -9.5 25.5t-29.5 17t-40 10.5l-52 10t-54 12q-199 50 -200 206q-1 75 42.5 127t106 73t136.5 21z" />
    <glyph glyph-name="sacute" unicode="&#x15b;" horiz-adv-x="582" 
d="M457 807l-117 -186l-114 48l77 161zM304 552q105 -1 199 -45l-39 -127q-78 38 -154 38q-38 0 -60.5 -10.5t-22.5 -29.5q0 -9 6.5 -15t20.5 -9.5t28.5 -6t38.5 -5.5t42 -7q186 -34 186 -173q0 -47 -21.5 -83t-58.5 -56t-81.5 -29.5t-95.5 -8.5q-136 3 -258 69l56 124
q101 -59 204 -58q39 1 63 11.5t23 28.5q-1 10 -8 17t-22.5 11t-31 7t-41.5 7t-45 8q-175 38 -175 166q0 86 72 132t175 44z" />
    <glyph glyph-name="Scedilla" unicode="&#x15e;" horiz-adv-x="674" 
d="M632 219q1 -94 -60.5 -151t-159.5 -74l-67 -166l-106 38l72 121q-138 6 -260 72l50 147q115 -64 222 -63q58 1 91.5 19.5t34.5 46.5q0 15 -9.5 25.5t-29.5 17t-40 10.5l-52 10t-54 12q-199 50 -200 206q-1 75 42.5 127t106 73t136.5 21q117 0 227 -51l-35 -147
q-93 43 -179 43q-51 0 -83.5 -15t-31.5 -44q1 -13 9 -22t26.5 -16t34.5 -10.5t48.5 -10t52.5 -11.5q100 -25 156.5 -70.5t57.5 -137.5z" />
    <glyph glyph-name="scedilla" unicode="&#x15f;" horiz-adv-x="582" 
d="M549 161q0 -74 -49.5 -116t-130.5 -54l-62 -155l-106 39l66 111q-126 8 -233 68l56 124q101 -59 204 -58q39 1 63 11.5t23 28.5q-1 10 -8 17t-22.5 11t-31 7t-41.5 7t-45 8q-175 38 -175 166q0 86 72 132t175 44q105 -1 199 -45l-39 -127q-78 38 -154 38
q-38 0 -60.5 -10.5t-22.5 -29.5q0 -9 6.5 -15t20.5 -9.5t28.5 -6t38.5 -5.5t42 -7q186 -34 186 -174z" />
    <glyph glyph-name="Scaron" unicode="&#x160;" horiz-adv-x="674" 
d="M418 776h-129l-97 113l89 62l71 -92l69 91l92 -61zM349 711q117 0 227 -51l-35 -147q-93 43 -179 43q-51 0 -83.5 -15t-31.5 -44q1 -13 9 -22t26.5 -16t34.5 -10.5t48.5 -10t52.5 -11.5q100 -25 156.5 -70.5t57.5 -136.5q1 -112 -84.5 -172t-212.5 -61q-146 -1 -284 72
l50 147q115 -64 222 -63q58 1 91.5 19.5t34.5 46.5q0 15 -9.5 25.5t-29.5 17t-40 10.5l-52 10t-54 12q-199 50 -200 206q-1 75 42.5 127t106 73t136.5 21z" />
    <glyph glyph-name="scaron" unicode="&#x161;" horiz-adv-x="582" 
d="M374 620h-128l-97 113l89 63l71 -93l69 92l91 -61zM304 552q105 -1 199 -45l-39 -127q-78 38 -154 38q-38 0 -60.5 -10.5t-22.5 -29.5q0 -9 6.5 -15t20.5 -9.5t28.5 -6t38.5 -5.5t42 -7q186 -34 186 -173q0 -47 -21.5 -83t-58.5 -56t-81.5 -29.5t-95.5 -8.5
q-136 3 -258 69l56 124q101 -59 204 -58q39 1 63 11.5t23 28.5q-1 10 -8 17t-22.5 11t-31 7t-41.5 7t-45 8q-175 38 -175 166q0 86 72 132t175 44z" />
    <glyph glyph-name="Tcedilla" unicode="&#x162;" horiz-adv-x="640" 
d="M635 700v-155h-226v-545h-28l-68 -169l-106 39l78 130h-55v545h-225v155h630z" />
    <glyph glyph-name="tcedilla" unicode="&#x163;" horiz-adv-x="514" 
d="M462 160l47 -125q-77 -40 -149 -44l-62 -155l-106 39l75 126q-68 20 -107 75t-39 131v187h-98v143h98v163h168v-163h152v-143h-152v-170q1 -45 25 -67t60 -23q42 -1 88 26z" />
    <glyph glyph-name="Tcaron" unicode="&#x164;" horiz-adv-x="640" 
d="M384 764h-128l-97 113l89 62l71 -92l69 91l91 -61zM635 545h-226v-545h-179v545h-225v155h630v-155z" />
    <glyph glyph-name="tcaron" unicode="&#x165;" horiz-adv-x="514" 
d="M413 842q37 9 68.5 -12t40.5 -65q12 -57 -21.5 -108t-95.5 -68l-7 49q41 18 42 59q-26 -12 -54.5 2.5t-35.5 47.5t11.5 60t51.5 35zM289 537h152v-143h-152v-170q1 -45 25 -67t60 -23q42 -1 88 26l47 -125q-85 -45 -167 -45q-99 0 -160 61t-61 156v187h-98v143h98v163
h168v-163z" />
    <glyph glyph-name="Tbar" unicode="&#x166;" horiz-adv-x="640" 
d="M409 545v-88h91v-110h-91v-347h-179v347h-80v110h80v88h-225v155h630v-155h-226z" />
    <glyph glyph-name="tbar" unicode="&#x167;" horiz-adv-x="514" 
d="M462 160l47 -125q-85 -45 -167 -45q-99 0 -160 61t-61 156v20h-101v106h101v61h-98v143h98v163h168v-163h152v-143h-152v-61h99v-106h-99v-3q1 -45 25 -67t60 -23q42 -1 88 26z" />
    <glyph glyph-name="Umacron" unicode="&#x16a;" horiz-adv-x="801" 
d="M571 777h-350v110h350v-110zM737 700v-392q0 -155 -96 -242.5t-238 -87.5q-65 0 -124 19.5t-107.5 57.5t-77.5 102t-29 146v397h182v-400q0 -71 40.5 -114.5t111.5 -43.5t113 44.5t42 114.5v399h183z" />
    <glyph glyph-name="umacron" unicode="&#x16b;" horiz-adv-x="652" 
d="M481 641h-349v110h349v-110zM597 0h-157l-8 67q-84 -84 -183 -84q-83 0 -140.5 59.5t-57.5 160.5v334h170v-322q0 -40 24 -63.5t61 -23.5q68 0 121 70v339h170v-537z" />
    <glyph glyph-name="Uring" unicode="&#x16e;" horiz-adv-x="801" 
d="M405 992q58 0 98.5 -35t40.5 -91q0 -57 -40.5 -90t-98.5 -33t-98 33t-40 90q0 56 40.5 91t97.5 35zM405 917q-21 0 -36.5 -14.5t-15.5 -35.5t15.5 -35t37.5 -14q21 0 36.5 14t15.5 35q0 22 -16 36t-37 14zM737 700v-392q0 -155 -96 -242.5t-238 -87.5q-65 0 -124 19.5
t-107.5 57.5t-77.5 102t-29 146v397h182v-400q0 -71 40.5 -114.5t111.5 -43.5t113 44.5t42 114.5v399h183z" />
    <glyph glyph-name="uring" unicode="&#x16f;" horiz-adv-x="652" 
d="M314 852q58 0 98.5 -35t40.5 -91q0 -57 -40.5 -90t-98.5 -33t-98 33t-40 90q0 56 40.5 91t97.5 35zM314 777q-21 0 -36.5 -14.5t-15.5 -35.5t15.5 -35t37.5 -14q21 0 36.5 14t15.5 35q0 22 -16 36t-37 14zM597 0h-157l-8 67q-84 -84 -183 -84q-83 0 -140.5 59.5
t-57.5 160.5v334h170v-322q0 -40 24 -63.5t61 -23.5q68 0 121 70v339h170v-537z" />
    <glyph glyph-name="Uhungarumlaut" unicode="&#x170;" horiz-adv-x="801" 
d="M407 944l-117 -186l-114 47l77 161zM619 944l-117 -186l-114 47l77 161zM737 700v-392q0 -155 -96 -242.5t-238 -87.5q-65 0 -124 19.5t-107.5 57.5t-77.5 102t-29 146v397h182v-400q0 -71 40.5 -114.5t111.5 -43.5t113 44.5t42 114.5v399h183z" />
    <glyph glyph-name="uhungarumlaut" unicode="&#x171;" horiz-adv-x="652" 
d="M330 798l-117 -186l-114 48l77 161zM542 798l-117 -186l-114 48l77 161zM597 0h-157l-8 67q-84 -84 -183 -84q-83 0 -140.5 59.5t-57.5 160.5v334h170v-322q0 -40 24 -63.5t61 -23.5q68 0 121 70v339h170v-537z" />
    <glyph glyph-name="Uogonek" unicode="&#x172;" horiz-adv-x="801" 
d="M736 700v-392q0 -148 -86 -234t-219 -95q-55 -27 -55 -66q-1 -20 13.5 -30t39.5 -9q33 2 65 24l32 -52q-60 -50 -124 -50q-48 -1 -83 25t-35 68q0 57 57 94q-119 17 -197.5 98t-78.5 222v397h182v-400q0 -71 40.5 -114.5t111.5 -43.5t113 44.5t42 114.5v399h182z" />
    <glyph glyph-name="uogonek" unicode="&#x173;" horiz-adv-x="652" 
d="M650 -85l32 -52q-58 -50 -124 -51q-48 -1 -83 25.5t-35 68.5q0 56 58 94h-58l-8 67q-84 -84 -183 -84q-83 0 -140.5 59.5t-57.5 160.5v334h170v-322q0 -40 24 -63.5t61 -23.5q68 0 121 70v339h170v-537h-2q-61 -28 -63 -71q0 -19 14.5 -29.5t38.5 -9.5q33 2 65 25z" />
    <glyph glyph-name="Wcircumflex" unicode="&#x174;" horiz-adv-x="1127" 
d="M633 756l-68 113l-71 -114l-91 43l94 136h135l93 -136zM896 0h-168l-161 450l-153 -450h-169l-239 700h178l148 -467l159 467h148l166 -468l139 468h179z" />
    <glyph glyph-name="wcircumflex" unicode="&#x175;" horiz-adv-x="906" 
d="M519 592l-68 114l-71 -115l-91 43l94 137h135l93 -137zM731 0h-180l-101 305l-97 -305h-178l-170 537h171l93 -339l111 339h146l111 -345l93 345h171z" />
    <glyph glyph-name="Ycircumflex" unicode="&#x176;" horiz-adv-x="780" 
d="M460 756l-69 113l-71 -114l-90 43l94 136h134l94 -136zM488 269v-269h-199l-1 270l-281 430h211l173 -267l172 267h209z" />
    <glyph glyph-name="ycircumflex" unicode="&#x177;" horiz-adv-x="668" 
d="M265 591l-91 43l94 137h135l93 -137l-92 -42l-68 114zM688 537l-395 -841h-187l146 306l-253 535h187l157 -355l159 355h186z" />
    <glyph glyph-name="Ydieresis" unicode="&#x178;" horiz-adv-x="780" 
d="M303 912q27 0 45.5 -18.5t18.5 -45.5t-19.5 -46t-44.5 -19q-27 0 -46.5 19t-19.5 46t19.5 45.5t46.5 18.5zM480 912q27 0 46 -18.5t19 -45.5t-19.5 -46t-45.5 -19t-45.5 19t-19.5 46t19 45.5t46 18.5zM488 269v-269h-199l-1 270l-281 430h211l173 -267l172 267h209z" />
    <glyph glyph-name="Zacute" unicode="&#x179;" horiz-adv-x="703" 
d="M491 952l-117 -186l-113 48l76 161zM662 558l-387 -402h389v-156h-626v140l398 405h-377v155h603v-142z" />
    <glyph glyph-name="zacute" unicode="&#x17a;" horiz-adv-x="565" 
d="M426 800l-117 -186l-113 48l76 161zM519 433l-248 -291h258v-142h-485v100l255 296h-240v141h460v-104z" />
    <glyph glyph-name="Zdotaccent" unicode="&#x17b;" horiz-adv-x="703" 
d="M369 904q27 0 45.5 -18t18.5 -45q0 -28 -19 -46.5t-45 -18.5q-27 0 -46.5 19t-19.5 46t19.5 45t46.5 18zM662 558l-387 -402h389v-156h-626v140l398 405h-377v155h603v-142z" />
    <glyph glyph-name="zdotaccent" unicode="&#x17c;" horiz-adv-x="565" 
d="M280 749q27 0 45.5 -18t18.5 -45q0 -28 -19 -46.5t-45 -18.5q-27 0 -46.5 19t-19.5 46t19.5 45t46.5 18zM519 433l-248 -291h258v-142h-485v100l255 296h-240v141h460v-104z" />
    <glyph glyph-name="Zcaron" unicode="&#x17d;" horiz-adv-x="703" 
d="M424 770h-128l-97 113l89 63l71 -93l69 92l91 -61zM662 558l-387 -402h389v-156h-626v140l398 405h-377v155h603v-142z" />
    <glyph glyph-name="zcaron" unicode="&#x17e;" horiz-adv-x="565" 
d="M351 618h-128l-97 113l89 63l71 -93l69 92l91 -61zM519 433l-248 -291h258v-142h-485v100l255 296h-240v141h460v-104z" />
    <glyph glyph-name="florin" unicode="&#x192;" horiz-adv-x="536" 
d="M390 715q66 0 141 -34l-36 -104q-38 23 -73 22q-34 -2 -56.5 -25t-22.5 -70v-63h108v-109h-108v-129q0 -100 -54 -152t-136 -52q-65 0 -142 35l37 106q36 -23 73 -22q34 2 56.5 25t22.5 70v119h-68v109h68v72q0 100 54 151t136 51z" />
    <glyph glyph-name="circumflex" unicode="&#x2c6;" horiz-adv-x="635" 
d="M516 756l-69 113l-71 -114l-90 43l94 136h134l94 -136z" />
    <glyph glyph-name="caron" unicode="&#x2c7;" horiz-adv-x="658" 
d="M518 785h-129l-97 113l89 63l71 -93l69 92l92 -61z" />
    <glyph glyph-name="breve" unicode="&#x2d8;" horiz-adv-x="652" 
d="M532 925l95 -26q-16 -58 -60 -92.5t-110 -34.5q-67 0 -111 34.5t-62 92.5l96 26q6 -26 27 -42.5t50 -16.5q28 0 48.5 17t26.5 42z" />
    <glyph glyph-name="dotaccent" unicode="&#x2d9;" horiz-adv-x="616" 
d="M369 912q27 0 46 -18.5t19 -45.5t-19.5 -46t-45.5 -19t-45.5 19t-19.5 46t19 45.5t46 18.5z" />
    <glyph glyph-name="ring" unicode="&#x2da;" horiz-adv-x="643" 
d="M424 992q58 0 98.5 -35t40.5 -91q0 -57 -40.5 -90t-98.5 -33t-98 33t-40 90q0 56 40.5 91t97.5 35zM424 917q-21 0 -36.5 -14.5t-15.5 -35.5t15.5 -35t37.5 -14q21 0 36.5 14t15.5 35q0 22 -16 36t-37 14z" />
    <glyph glyph-name="ogonek" unicode="&#x2db;" horiz-adv-x="564" 
d="M307 12l-1 -12q-61 -28 -63 -71q0 -19 14.5 -29.5t38.5 -9.5q33 2 65 25l32 -52q-56 -49 -123 -51q-49 -1 -83.5 25.5t-34.5 68.5q0 32 22 61.5t58 45.5z" />
    <glyph glyph-name="tilde" unicode="&#x2dc;" 
d="M368 911q44 -1 94.5 -31.5t68.5 -30.5q37 0 57 49l76 -33q-11 -49 -45 -81.5t-85 -32.5q-39 0 -91 30.5t-74 30.5q-39 1 -57 -49l-76 40q11 47 46.5 78t85.5 30z" />
    <glyph glyph-name="hungarumlaut" unicode="&#x2dd;" horiz-adv-x="677" 
d="M511 952l-117 -186l-114 48l77 161zM723 952l-117 -186l-114 48l77 161z" />
    <glyph glyph-name="commaaccentcomb" unicode="&#x326;" horiz-adv-x="0" 
d="M152 -77q38 0 64.5 -27.5t26.5 -72.5q0 -59 -44.5 -102.5t-110.5 -47.5l5 51q43 7 54 48q-29 -6 -54 14.5t-25 55.5q0 34 24.5 57.5t59.5 23.5z" />
    <glyph glyph-name="Omega" unicode="&#x3a9;" horiz-adv-x="738" 
d="M692 382q0 -94 -36 -169.5t-91 -125.5h121v-87h-251v87q132 105 132 273q0 102 -51.5 173.5t-143.5 71.5q-91 0 -145.5 -71.5t-54.5 -174.5q0 -84 36.5 -155.5t96.5 -116.5v-87h-253v87h120q-55 50 -90.5 123.5t-35.5 163.5q0 150 93.5 246t234.5 96q144 0 231 -95
t87 -239z" />
    <glyph glyph-name="pi" unicode="&#x3c0;" horiz-adv-x="764" 
d="M732 406h-87v-231q0 -115 15 -175h-161q-20 23 -20 160v246h-170q-2 -103 -24 -229.5t-50 -176.5h-162q28 74 50.5 196.5t22.5 209.5q-88 0 -127 -11l-17 92q44 36 208 36h537z" />
    <glyph glyph-name="Wgrave" unicode="&#x1e80;" horiz-adv-x="1127" 
d="M691 814l-114 -48l-117 186l154 23zM896 0h-168l-161 450l-153 -450h-169l-239 700h178l148 -467l159 467h148l166 -468l139 468h179z" />
    <glyph glyph-name="wgrave" unicode="&#x1e81;" horiz-adv-x="906" 
d="M577 650l-114 -47l-117 186l154 22zM731 0h-180l-101 305l-97 -305h-178l-170 537h171l93 -339l111 339h146l111 -345l93 345h171z" />
    <glyph glyph-name="Wacute" unicode="&#x1e82;" horiz-adv-x="1127" 
d="M696 952l-117 -186l-114 48l77 161zM896 0h-168l-161 450l-153 -450h-169l-239 700h178l148 -467l159 467h148l166 -468l139 468h179z" />
    <glyph glyph-name="wacute" unicode="&#x1e83;" horiz-adv-x="906" 
d="M582 789l-117 -186l-114 47l77 161zM731 0h-180l-101 305l-97 -305h-178l-170 537h171l93 -339l111 339h146l111 -345l93 345h171z" />
    <glyph glyph-name="Wdieresis" unicode="&#x1e84;" horiz-adv-x="1127" 
d="M476 912q27 0 46 -18.5t19 -45.5t-19.5 -46t-45.5 -19t-45.5 19t-19.5 46t19 45.5t46 18.5zM654 912q27 0 45.5 -18.5t18.5 -45.5t-19.5 -46t-44.5 -19q-27 0 -46.5 19t-19.5 46t19.5 45.5t46.5 18.5zM896 0h-168l-161 450l-153 -450h-169l-239 700h178l148 -467l159 467
h148l166 -468l139 468h179z" />
    <glyph glyph-name="wdieresis" unicode="&#x1e85;" horiz-adv-x="906" 
d="M362 748q27 0 46 -18t19 -45q0 -28 -19.5 -46.5t-45.5 -18.5t-45.5 19t-19.5 46t19 45t46 18zM540 748q27 0 45.5 -18t18.5 -45q0 -28 -19 -46.5t-45 -18.5q-27 0 -46.5 19t-19.5 46t19.5 45t46.5 18zM731 0h-180l-101 305l-97 -305h-178l-170 537h171l93 -339l111 339
h146l111 -345l93 345h171z" />
    <glyph glyph-name="Ygrave" unicode="&#x1ef2;" horiz-adv-x="780" 
d="M517 814l-113 -48l-117 186l154 23zM488 269v-269h-199l-1 270l-281 430h211l173 -267l172 267h209z" />
    <glyph glyph-name="ygrave" unicode="&#x1ef3;" horiz-adv-x="668" 
d="M348 603l-117 186l154 22l77 -161zM688 537l-395 -841h-187l146 306l-253 535h187l157 -355l159 355h186z" />
    <glyph glyph-name="endash" unicode="&#x2013;" horiz-adv-x="479" 
d="M449 284h-419v141h419v-141z" />
    <glyph glyph-name="emdash" unicode="&#x2014;" horiz-adv-x="612" 
d="M582 284h-552v141h552v-141z" />
    <glyph glyph-name="quoteleft" unicode="&#x2018;" horiz-adv-x="160" 
d="M95 542q-37 -8 -69 13t-41 65q-12 56 22 107.5t96 68.5l6 -50q-41 -17 -41 -58q26 12 54 -2.5t36 -48.5q7 -32 -11.5 -59.5t-51.5 -35.5z" />
    <glyph glyph-name="quoteright" unicode="&#x2019;" horiz-adv-x="160" 
d="M65 844q37 9 68.5 -12t40.5 -65q13 -56 -21 -107.5t-96 -68.5l-6 49q41 19 41 59q-26 -12 -54 2.5t-36 47.5q-7 33 11.5 60t51.5 35z" />
    <glyph glyph-name="quotesinglbase" unicode="&#x201a;" horiz-adv-x="231" 
d="M114 149q38 0 64.5 -27.5t26.5 -72.5q0 -60 -44.5 -103.5t-110.5 -46.5l5 51q44 7 54 48q-29 -6 -54 14.5t-25 55.5q0 34 24.5 57.5t59.5 23.5z" />
    <glyph glyph-name="quotedblleft" unicode="&#x201c;" horiz-adv-x="352" 
d="M95 542q-37 -8 -69 13t-41 65q-12 56 22 107.5t96 68.5l6 -50q-41 -17 -41 -58q26 12 54 -2.5t36 -48.5q7 -32 -11.5 -59.5t-51.5 -35.5zM287 542q-37 -8 -68.5 13t-40.5 65q-12 56 21.5 107.5t95.5 68.5l7 -50q-40 -16 -42 -58q27 12 55 -2.5t35 -48.5
q7 -32 -11.5 -59.5t-51.5 -35.5z" />
    <glyph glyph-name="quotedblright" unicode="&#x201d;" horiz-adv-x="357" 
d="M65 844q37 9 68.5 -12t40.5 -65q13 -56 -21 -107.5t-96 -68.5l-6 49q41 19 41 59q-26 -12 -54 2.5t-36 47.5q-7 33 11.5 60t51.5 35zM263 844q37 9 68.5 -12t40.5 -65q12 -57 -21.5 -108t-95.5 -68l-7 49q41 18 42 59q-26 -12 -54.5 2.5t-35.5 47.5t11.5 60t51.5 35z" />
    <glyph glyph-name="quotedblbase" unicode="&#x201e;" horiz-adv-x="433" 
d="M114 149q38 0 64.5 -27.5t26.5 -72.5q0 -60 -44.5 -103.5t-110.5 -46.5l5 51q44 7 54 48q-29 -6 -54 14.5t-25 55.5q0 34 24.5 57.5t59.5 23.5zM315 149q38 0 64.5 -27.5t26.5 -72.5q0 -60 -44.5 -103.5t-109.5 -46.5l4 51q44 7 54 48q-29 -6 -53.5 14.5t-24.5 55.5
q0 34 24 57.5t59 23.5z" />
    <glyph glyph-name="dagger" unicode="&#x2020;" horiz-adv-x="479" 
d="M461 440h-131v-534h-155v534h-133v141h133v173h155v-173h131v-141z" />
    <glyph glyph-name="daggerdbl" unicode="&#x2021;" horiz-adv-x="479" 
d="M330 440v-177h131v-140h-131v-217h-155v217h-133v140h133v177h-133v141h133v173h155v-173h131v-141h-131z" />
    <glyph glyph-name="bullet" unicode="&#x2022;" horiz-adv-x="405" 
d="M203 441q42 0 72.5 -31t30.5 -73q0 -44 -30.5 -74.5t-72.5 -30.5t-72 31t-30 74q0 42 30 73t72 31z" />
    <glyph glyph-name="ellipsis" unicode="&#x2026;" horiz-adv-x="713" 
d="M121 171q37 0 63.5 -27.5t26.5 -64.5q0 -39 -27 -66t-63 -27q-37 0 -64 27.5t-27 65.5q0 37 27 64.5t64 27.5zM360 171q37 0 64 -27.5t27 -64.5q0 -39 -27 -66t-64 -27t-63.5 27.5t-26.5 65.5q0 37 26.5 64.5t63.5 27.5zM596 171q37 0 64 -27.5t27 -64.5q0 -39 -27 -66
t-64 -27t-63.5 27.5t-26.5 65.5q0 37 26.5 64.5t63.5 27.5z" />
    <glyph glyph-name="perthousand" unicode="&#x2030;" horiz-adv-x="1214" 
d="M206 718q74 0 117.5 -46.5t43.5 -110.5q0 -69 -43 -112.5t-118 -43.5q-69 0 -115.5 43t-46.5 113q0 68 46 112.5t116 44.5zM260 0h-144l452 700h144zM208 626q-30 0 -49 -20t-19 -47q0 -26 18.5 -46.5t49.5 -20.5t49 20t18 47t-18 47t-49 20zM637 302q74 0 117.5 -46.5
t43.5 -110.5q0 -68 -43.5 -112t-117.5 -44q-69 0 -115.5 43t-46.5 113q0 68 46 112.5t116 44.5zM1016 302q74 0 117.5 -46.5t43.5 -110.5q0 -68 -43.5 -112t-117.5 -44q-69 0 -115.5 43t-46.5 113q0 68 46 112.5t116 44.5zM639 209q-29 0 -47 -19.5t-18 -45.5t18 -45.5
t47 -19.5t47 19.5t18 45.5t-17.5 45.5t-47.5 19.5zM1018 209q-29 0 -47 -19.5t-18 -45.5t18 -45.5t47 -19.5t47 19.5t18 45.5t-17.5 45.5t-47.5 19.5z" />
    <glyph glyph-name="guilsinglleft" unicode="&#x2039;" horiz-adv-x="414" 
d="M175 270l232 -270h-158l-231 270l228 267h157z" />
    <glyph glyph-name="guilsinglright" unicode="&#x203a;" horiz-adv-x="442" 
d="M175 537l229 -267l-232 -270h-157l231 270l-228 267h157z" />
    <glyph glyph-name="fraction" unicode="&#x2044;" horiz-adv-x="610" 
d="M177 0h-144l452 700h144z" />
    <glyph glyph-name="foursuperior" unicode="&#x2074;" horiz-adv-x="398" 
d="M318 472h49v-79h-49v-69h-102v69h-192v70l176 236h118v-227zM127 470h91v117z" />
    <glyph glyph-name="Euro" unicode="&#x20ac;" horiz-adv-x="694" 
d="M589 176l58 -118q-94 -78 -227 -78q-118 0 -208.5 65.5t-122.5 184.5h-66l-1 88h53q-2 22 -2 33l1 14h-52l1 90h62q29 124 122.5 194.5t213.5 70.5q122 0 218 -68l-56 -121q-69 48 -142 48q-62 0 -109 -32t-69 -92h223l-1 -90h-239v-13q0 -23 1 -34h238l1 -88h-215
q24 -51 67.5 -79.5t100.5 -28.5q82 0 150 54z" />
    <glyph glyph-name="afii61289" unicode="&#x2113;" horiz-adv-x="674" 
d="M572 213l71 -68q-50 -79 -124 -116t-157 -37q-178 0 -221 155q-1 1 -1 4t-1 5q-41 -28 -59 -38l-46 78l102 66v220q0 148 59.5 216.5t164.5 68.5q94 0 143.5 -53t49.5 -129q0 -93 -64.5 -175.5t-197.5 -183.5l1 -13q3 -45 33.5 -71.5t75.5 -26.5q49 0 94.5 28.5
t76.5 69.5zM291 530v-176q142 128 142 228q0 86 -65 86q-31 0 -54 -33t-23 -105z" />
    <glyph glyph-name="uni2116" unicode="&#x2116;" horiz-adv-x="1475" 
d="M1139 714q123 0 210 -75.5t87 -199.5q0 -129 -87.5 -201.5t-209.5 -72.5q-127 0 -213.5 74t-86.5 200q0 120 85.5 197.5t214.5 77.5zM752 0h-174l-322 423v-423h-180v700h179l317 -427v427h180v-700zM1139 574q-55 0 -94 -36.5t-39 -98.5q1 -62 39.5 -98t93.5 -36
q53 0 91.5 35.5t38.5 98.5t-38.5 99t-91.5 36zM1393 0h-520v115h520v-115z" />
    <glyph glyph-name="trademark" unicode="&#x2122;" horiz-adv-x="1081" 
d="M463 556h-146v-298h-155v298h-146v144h447v-144zM1041 258h-155v203l-120 -157l-113 155v-201h-155v442h142l127 -170l131 170h143v-442z" />
    <glyph glyph-name="estimated" unicode="&#x212e;" horiz-adv-x="874" 
d="M839 340h-652q-5 0 -5 -4v-197q0 -12 8 -23q105 -107 247 -107q155 0 260 120h58q-55 -65 -139 -102.5t-180 -37.5q-166 0 -284 106t-118 255q0 151 117.5 256.5t284.5 105.5t285 -105.5t118 -256.5v-10zM691 366v198q0 15 -9 24q-106 103 -245 103q-140 0 -246 -106
q-9 -11 -9 -25v-194q0 -6 5 -6h500q4 0 4 6z" />
    <glyph glyph-name="arrowup" unicode="&#x2191;" horiz-adv-x="667" 
d="M527 415v-451l-198 99l-198 -99v451h-99l297 306l296 -306h-98z" />
    <glyph glyph-name="arrowdown" unicode="&#x2193;" horiz-adv-x="667" 
d="M625 280l-296 -305l-297 305h99v451l198 -99l198 99v-451h98z" />
    <glyph glyph-name="partialdiff" unicode="&#x2202;" horiz-adv-x="721" 
d="M119 623l-49 97q100 65 242 65q155 0 257 -108t102 -282q0 -176 -101.5 -290t-262.5 -114q-67 0 -121 23.5t-85.5 61t-47.5 78.5t-16 80q0 109 76 183t196 74q74 0 126.5 -33.5t75.5 -69.5h1v29q0 109 -60 180t-160 71q-91 0 -173 -45zM324 105h1q65 0 111 51.5t57 120.5
q-10 35 -50.5 69t-95.5 34q-64 0 -106.5 -41.5t-42.5 -103.5q0 -56 36 -93t90 -37z" />
    <glyph glyph-name="Delta" unicode="&#x2206;" horiz-adv-x="838" 
d="M28 0v78l293 637h197l290 -637v-78h-780zM205 117h413l-142 327q-50 115 -64 156h-5q-2 -6 -57 -143z" />
    <glyph glyph-name="product" unicode="&#x220f;" horiz-adv-x="892" 
d="M870 571h-133v-667h-156v667h-271v-667h-155v667h-134v126h849v-126z" />
    <glyph glyph-name="summation" unicode="&#x2211;" horiz-adv-x="710" 
d="M691 -96h-668v82l299 309l-283 305v97h627v-127h-401v-4l241 -257l-263 -275v-4h448v-126z" />
    <glyph glyph-name="minus" unicode="&#x2212;" horiz-adv-x="745" 
d="M628 253h-511v139h512z" />
    <glyph glyph-name="bulletoperator" unicode="&#x2219;" horiz-adv-x="361" 
d="M181 423q33 0 57 -24.5t24 -57.5q0 -34 -24 -58t-57 -24q-34 0 -57.5 24t-23.5 58q0 33 24 57.5t57 24.5z" />
    <glyph glyph-name="radical" unicode="&#x221a;" horiz-adv-x="736" 
d="M762 829l-291 -983h-126l-197 442l-89 -35l-28 73l208 85l143 -351l8.5 -23.5l10 -28l8.5 -23.5h2l10 40t10 38l215 766h116z" />
    <glyph glyph-name="infinity" unicode="&#x221e;" horiz-adv-x="872" 
d="M819 290v-1q0 -86 -54 -139t-127 -53q-106 0 -203 126q-51 -61 -97.5 -93.5t-107.5 -32.5q-72 0 -125 52.5t-53 133.5q0 83 53.5 136.5t134.5 53.5q106 0 203 -122q2 3 15.5 18t18 19t17.5 17.5t20 18.5t20.5 15.5t24.5 14.5t25 10t29 7.5t31 1.5q76 0 125.5 -50.5
t49.5 -132.5zM239 177h2q29 0 59.5 19t47 35.5t43.5 48.5q-30 40 -45.5 59t-46 38t-64.5 19q-44 0 -72.5 -31.5t-28.5 -81.5q0 -44 30 -75t75 -31zM635 396h-1q-16 0 -32 -6t-27.5 -13t-27 -21t-23 -22t-22.5 -25.5t-19 -21.5q51 -62 85 -86t72 -24q44 0 70 33t26 73
q0 50 -28 81.5t-73 31.5z" />
    <glyph glyph-name="integral" unicode="&#x222b;" horiz-adv-x="530" 
d="M384 715q66 0 141 -34l-37 -97q-35 22 -72 21q-34 -1 -56.5 -24t-22.5 -70v-309q0 -100 -54.5 -151.5t-135.5 -51.5q-65 0 -142 35l37 97q36 -23 72 -22q33 1 56 24.5t23 70.5v308q0 100 54.5 151.5t136.5 51.5z" />
    <glyph glyph-name="approxequal" unicode="&#x2248;" horiz-adv-x="658" 
d="M199 558q40 6 76.5 -8t59.5 -33.5t52.5 -35t56.5 -12.5q29 3 52 25t34 52l89 -46q-49 -140 -158 -158q-33 -6 -64 2.5t-54.5 23.5t-45 30.5t-46 26t-47.5 7.5q-59 -6 -89 -74l-83 41q21 62 64.5 106t102.5 53zM202 328q40 6 76.5 -8t59.5 -33.5t52.5 -35t56.5 -12.5
q29 3 52 25t34 52l89 -46q-49 -140 -158 -158q-33 -6 -64 2.5t-54.5 23.5t-45 30.5t-46 26t-47.5 7.5q-59 -6 -89 -74l-83 41q21 62 64.5 106t102.5 53z" />
    <glyph glyph-name="notequal" unicode="&#x2260;" horiz-adv-x="668" 
d="M440 384l-27 -94h182v-130h-220l-85 -292h-157l85 292h-145v130h183l27 94h-210v130h248l63 216h157l-63 -216h117v-130h-155z" />
    <glyph glyph-name="lessequal" unicode="&#x2264;" horiz-adv-x="649" 
d="M612 526l-338 -97l338 -96l-37 -144l-506 178v121l506 179zM616 152v-121h-549v122z" />
    <glyph glyph-name="greaterequal" unicode="&#x2265;" horiz-adv-x="659" 
d="M604 488v-121l-506 -178l-37 144l338 97l-338 96l37 141zM606 31h-549v121l549 1v-122z" />
    <glyph glyph-name="deleterightKey" unicode="&#x2326;" horiz-adv-x="993" 
d="M935 340l-164 -207h-733v415h733z" />
    <glyph glyph-name="uni232B" unicode="&#x232b;" horiz-adv-x="987" 
d="M942 548v-415h-733l-164 207l164 208h733z" />
    <glyph glyph-name="lozenge" unicode="&#x25ca;" horiz-adv-x="732" 
d="M707 345l-340 -341l-341 341l341 340zM176 345l191 -189l190 189l-190 190z" />
    <glyph glyph-name="uni2639" unicode="&#x2639;" horiz-adv-x="816" 
d="M154 163l253 6q217 5 276 5q38 0 65.5 27t27.5 65q0 36 -22.5 62t-57.5 31q-25 49 -85 49q-40 0 -70 -28q-33 38 -82 38l-15 -1q-23 38 -61.5 60t-82.5 22q-52 0 -94.5 -28.5t-62.5 -76.5q-43 -5 -73 -38t-30 -77q0 -48 33.5 -82t80.5 -34zM154 344q25 0 30 18
q12 39 44 63t72 24q35 0 65 -19.5t45 -51.5q9 -20 30 -13q9 3 19 3q41 0 58 -40q5 -16 23 -16q17 0 24 15q15 32 47 32q35 0 47 -33q6 -18 24 -16h2q18 0 30 -12.5t12 -31.5q0 -18 -12 -30.5t-31 -12.5l-277 -6q-51 -1 -112.5 -2t-98.5 -2t-41 -1q-26 0 -45 19.5t-19 47.5
q0 27 19 46t45 19z" />
    <glyph glyph-name="whitesmilingface" unicode="&#x263a;" horiz-adv-x="501" 
d="M431 444l-42 -365q0 -24 -33 -36t-82 -12q-104 0 -111 48l-47 362v7q0 16 26.5 26.5t40.5 10.5l-11 122q-7 7 -8 12l-1 7l-93 77l22 21l87 -74h8q13 0 13 -6v-15q3 -3 3 -6q4 -7 -3 -16l11 -117q22 3 63 3q12 0 27 -0.5t39.5 -3t43.5 -7t33 -13.5t14 -21v-4zM274 465
q-41 0 -59 -3v-32q18 -4 59 -4q101 0 129 22q-40 17 -129 17zM187 433v24q-39 -5 -39 -11q2 -6 39 -13zM274 59q64 0 87 20q-1 0 -3 1t-7.5 3.5t-10.5 4.5q-13 4 -13 16q0 8 6.5 11t11.5 0q1 -1 9 -2.5t11 -3.5l34 308q-18 -19 -125 -19q-32 0 -56 3l3 -18h3q11 0 15 -6
l22 -3l24 -3q16 -8 20 -21q11 3 24 3q-3 3 -9 3q-10 0 -10 15q0 5 4 8.5t8 3.5q20 -1 32.5 -5.5t16 -8t3.5 -6.5q0 -12 -2 -17q-9 -17 -62 -24v-7q0 -4 1.5 -11t1.5 -10v-7q8 -4 13 -12t6 -14l2 -6l6 -53q0 -5 -4 -9t-10 -4l-73 -12q-14 9 -17 12l6 -48l-27 -4l-12 118
q-13 4 -13 17l6 53v6q-19 7 -24 15q-4 5 -4 17q2 10 26 14l-4 28q-24 3 -43 12l40 -308q40 17 87 17q15 0 15 -14t-15 -14q-61 0 -84 -19q17 -20 84 -20zM281 312q-1 7 -1 19t-3 12l-20 3q-18 4 -24 4l-6 -4l-3 -3v-4l-3 -56l21 -4q2 0 6 2t9 2q2 0 5 1t5 1q1 0 7 3t11 3v3
q0 3 -1.5 8.5t-2.5 9.5zM249 251v-22l4 -19q4 0 4 -5l53 8l-5 35q-9 15 -11 15q-5 -5 -15.5 -9.5t-11.5 -5.5h-4h-2z" />
    <glyph glyph-name="invsmileface" unicode="&#x263b;" horiz-adv-x="1144" 
d="M560 707l549 -135v-450l-549 -144l-525 144v450z" />
    <glyph glyph-name="uni2714" unicode="&#x2714;" horiz-adv-x="814" 
d="M809 610l-523 -616l-281 301l128 115l148 -166l395 473z" />
    <glyph glyph-name="A.ss01" horiz-adv-x="799" 
d="M573 129h-348l-64 -145l-161 65l306 651h188l305 -652l-160 -67zM504 285l-105 236l-105 -236h210z" />
    <glyph glyph-name="Aacute.ss01" horiz-adv-x="799" 
d="M409 766l-114 48l77 161l154 -23zM573 129h-348l-64 -145l-161 65l306 651h188l305 -652l-160 -67zM504 285l-105 236l-105 -236h210z" />
    <glyph glyph-name="Abreve.ss01" horiz-adv-x="799" 
d="M395 772q-67 0 -111 34.5t-61 92.5l96 26q6 -26 27 -42.5t49 -16.5t48.5 16.5t26.5 42.5l95 -26q-16 -58 -59.5 -92.5t-110.5 -34.5zM573 129h-348l-64 -145l-161 65l306 651h188l305 -652l-160 -67zM504 285l-105 236l-105 -236h210z" />
    <glyph glyph-name="Acircumflex.ss01" horiz-adv-x="799" 
d="M324 755l-91 43l94 136h135l93 -136l-92 -42l-68 113zM573 129h-348l-64 -145l-161 65l306 651h188l305 -652l-160 -67zM504 285l-105 236l-105 -236h210z" />
    <glyph glyph-name="Adieresis.ss01" horiz-adv-x="799" 
d="M306 783q-26 0 -45.5 19t-19.5 46t19 45.5t46 18.5t46 -18.5t19 -45.5t-19.5 -46t-45.5 -19zM484 783q-27 0 -46.5 19t-19.5 46t19.5 45.5t46.5 18.5t45.5 -18.5t18.5 -45.5t-19.5 -46t-44.5 -19zM573 129h-348l-64 -145l-161 65l306 651h188l305 -652l-160 -67zM504 285
l-105 236l-105 -236h210z" />
    <glyph glyph-name="Agrave.ss01" horiz-adv-x="799" 
d="M407 766l-117 186l154 23l77 -161zM573 129h-348l-64 -145l-161 65l306 651h188l305 -652l-160 -67zM504 285l-105 236l-105 -236h210z" />
    <glyph glyph-name="Amacron.ss01" horiz-adv-x="799" 
d="M565 777h-349v110h349v-110zM573 129h-348l-64 -145l-161 65l306 651h188l305 -652l-160 -67zM504 285l-105 236l-105 -236h210z" />
    <glyph glyph-name="Aogonek.ss01" horiz-adv-x="799" 
d="M835 -85l31 -52q-58 -50 -123 -50q-49 -1 -83.5 25t-34.5 68q0 54 54 92l-41 -17l-65 148h-348l-64 -145l-161 65l306 651h188l305 -652l-85 -36h66v-12q-63 -28 -63 -71q-1 -19 13.5 -29.5t39.5 -9.5q34 2 65 25zM504 285l-105 236l-105 -236h210z" />
    <glyph glyph-name="Aring.ss01" horiz-adv-x="799" 
d="M391 743q-58 0 -98 33t-40 90q0 56 40.5 91t97.5 35q58 0 98.5 -35t40.5 -91q0 -57 -40.5 -90t-98.5 -33zM391 917q-21 0 -36.5 -14.5t-15.5 -35.5t15.5 -35t37.5 -14q21 0 36.5 14t15.5 35q0 22 -16 36t-37 14zM573 129h-348l-64 -145l-161 65l306 651h188l305 -652
l-160 -67zM504 285l-105 236l-105 -236h210z" />
    <glyph glyph-name="Atilde.ss01" horiz-adv-x="799" 
d="M320 812q-39 2 -56 -49l-77 40q12 47 47 78t86 30q44 -1 94.5 -31.5t68.5 -30.5q37 0 57 49l76 -33q-11 -49 -45 -81.5t-85 -32.5q-39 0 -91 30.5t-75 30.5zM573 129h-348l-64 -145l-161 65l306 651h187l306 -652l-161 -67zM504 285l-105 236l-105 -236h210z" />
    <glyph glyph-name="AE.ss01" horiz-adv-x="1049" 
d="M1010 155v-155h-548v166h-208l-106 -183l-148 87l382 630h605v-155h-343v-123h260v-141h-260v-126h366zM461 316v210l-6 -15l-114 -195h120z" />
    <glyph glyph-name="K.ss01" horiz-adv-x="729" 
d="M686 612l-213 -234l252 -299l-138 -108l-233 282l-97 -107v-146h-181v700h181v-319l304 343z" />
    <glyph glyph-name="Q.ss01" horiz-adv-x="850" 
d="M810 345q0 -137 -76 -233l76 -84l-128 -109l-83 90q-77 -34 -172 -34q-170 0 -279 102t-109 267q0 166 110 268t277 102q166 0 275.5 -101.5t108.5 -267.5zM426 131q93 0 147 61t54 153q0 93 -55 152.5t-146 59.5q-92 0 -148 -60t-56 -153q0 -92 55.5 -152.5t148.5 -60.5
z" />
    <glyph glyph-name="R.ss01" horiz-adv-x="716" 
d="M522 -33l-133 214q-23 -4 -37 -5q-41 -3 -94 1v-177h-182v700q221 4 254 3q157 -2 242.5 -72.5t85.5 -188.5q0 -126 -98 -197l115 -181zM348 333q63 6 95.5 34.5t32.5 73.5q0 49 -38 75.5t-96 30.5q-30 2 -84 2v-217q50 -2 90 1z" />
    <glyph glyph-name="V.ss01" horiz-adv-x="781" 
d="M787 650l-306 -650h-177l-311 650l160 66l239 -523l234 522z" />
    <glyph glyph-name="W.ss01" horiz-adv-x="1128" 
d="M1114 671l-216 -671h-171l-161 436l-156 -436h-165l-232 667l161 48l158 -475l167 460h132l174 -460l151 480z" />
    <glyph glyph-name="Wacute.ss01" horiz-adv-x="1128" 
d="M696 952l-117 -186l-113 48l76 161zM1114 671l-216 -671h-171l-161 436l-156 -436h-165l-232 667l161 48l158 -475l167 460h132l174 -460l151 480z" />
    <glyph glyph-name="Wcircumflex.ss01" horiz-adv-x="1128" 
d="M634 756l-69 113l-71 -114l-90 43l94 136h134l94 -136zM1114 671l-216 -671h-171l-161 436l-156 -436h-165l-232 667l161 48l158 -475l167 460h132l174 -460l151 480z" />
    <glyph glyph-name="Wdieresis.ss01" horiz-adv-x="1128" 
d="M477 912q27 0 45.5 -18.5t18.5 -45.5t-19.5 -46t-44.5 -19q-27 0 -46.5 19t-19.5 46t19.5 45.5t46.5 18.5zM654 912q27 0 46 -18.5t19 -45.5t-19.5 -46t-45.5 -19t-45.5 19t-19.5 46t19 45.5t46 18.5zM1114 671l-216 -671h-171l-161 436l-156 -436h-165l-232 667l161 48
l158 -475l167 460h132l174 -460l151 480z" />
    <glyph glyph-name="Wgrave.ss01" horiz-adv-x="1128" 
d="M691 814l-113 -48l-117 186l154 23zM1114 671l-216 -671h-171l-161 436l-156 -436h-165l-232 667l161 48l158 -475l167 460h132l174 -460l151 480z" />
    <glyph glyph-name="X.ss01" horiz-adv-x="797" 
d="M632 -37l-234 266l-235 -266l-132 118l249 282l-225 255l133 115l209 -237l210 237l133 -115l-225 -255l250 -282z" />
    <glyph glyph-name="Y.ss01" horiz-adv-x="781" 
d="M759 621l-274 -344v-277h-193l-1 286l-271 334l135 109l236 -295l235 296z" />
    <glyph glyph-name="Yacute.ss01" horiz-adv-x="781" 
d="M522 952l-117 -186l-113 48l76 161zM760 621l-275 -344v-277h-193l-1 286l-271 334l135 109l236 -295l235 296z" />
    <glyph glyph-name="Ycircumflex.ss01" horiz-adv-x="781" 
d="M459 756l-68 113l-71 -114l-91 43l94 136h135l93 -136zM759 621l-274 -344v-277h-193l-1 286l-271 334l135 109l236 -295l235 296z" />
    <glyph glyph-name="Ydieresis.ss01" horiz-adv-x="781" 
d="M302 912q27 0 46 -18.5t19 -45.5t-19.5 -46t-45.5 -19t-45.5 19t-19.5 46t19 45.5t46 18.5zM480 912q27 0 45.5 -18.5t18.5 -45.5t-19.5 -46t-44.5 -19q-27 0 -46.5 19t-19.5 46t19.5 45.5t46.5 18.5zM759 621l-274 -344v-277h-193l-1 286l-271 334l135 109l236 -295
l235 296z" />
    <glyph glyph-name="Ygrave.ss01" horiz-adv-x="781" 
d="M496 814l-114 -48l-117 186l154 23zM760 621l-275 -344v-277h-193l-1 286l-271 334l135 109l236 -295l235 296z" />
    <glyph glyph-name="a.ss01" 
d="M313 549q57 0 108 -16t92.5 -48t66 -84.5t24.5 -120.5v-280h-166l-5 63q-97 -74 -199 -74q-88 0 -148 50t-60 134q0 86 62.5 133t151.5 47q96 0 193 -56q-4 60 -45 91t-102 31q-70 0 -141 -39l-48 112q105 58 216 57zM289 117q67 0 144 46v41q-72 32 -132 32
q-47 1 -76 -16.5t-29 -44.5q0 -26 25.5 -42t67.5 -16z" />
    <glyph glyph-name="aacute.ss01" 
d="M382 623l-113 47l76 161l154 -22zM313 549q57 0 108 -16t92.5 -48t66 -84.5t24.5 -120.5v-280h-166l-5 63q-97 -74 -199 -74q-88 0 -148 50t-60 134q0 86 62.5 133t151.5 47q96 0 193 -56q-4 60 -45 91t-102 31q-70 0 -141 -39l-48 112q105 58 216 57zM289 117
q67 0 144 46v41q-72 32 -132 32q-47 1 -76 -16.5t-29 -44.5q0 -26 25.5 -42t67.5 -16z" />
    <glyph glyph-name="abreve.ss01" 
d="M369 628q-67 0 -111 35t-62 93l96 26q6 -26 27 -42.5t50 -16.5q28 0 48.5 17t26.5 42l95 -26q-16 -58 -60 -93t-110 -35zM313 549q57 0 108 -16t92.5 -48t66 -84.5t24.5 -120.5v-280h-166l-5 63q-97 -74 -199 -74q-88 0 -148 50t-60 134q0 86 62.5 133t151.5 47
q96 0 193 -56q-4 60 -45 91t-102 31q-70 0 -141 -39l-48 112q105 58 216 57zM289 117q67 0 144 46v41q-72 32 -132 32q-47 1 -76 -16.5t-29 -44.5q0 -26 25.5 -42t67.5 -16z" />
    <glyph glyph-name="acircumflex.ss01" 
d="M297 611l-90 43l94 137h134l94 -137l-92 -42l-69 114zM313 549q57 0 108 -16t92.5 -48t66 -84.5t24.5 -120.5v-280h-166l-5 63q-97 -74 -199 -74q-88 0 -148 50t-60 134q0 86 62.5 133t151.5 47q96 0 193 -56q-4 60 -45 91t-102 31q-70 0 -141 -39l-48 112q105 58 216 57
zM289 117q67 0 144 46v41q-72 32 -132 32q-47 1 -76 -16.5t-29 -44.5q0 -26 25.5 -42t67.5 -16z" />
    <glyph glyph-name="adieresis.ss01" 
d="M280 640q-27 0 -46.5 19t-19.5 46t19.5 45t46.5 18t45.5 -18t18.5 -45q0 -28 -19 -46.5t-45 -18.5zM457 640q-26 0 -45.5 19t-19.5 46t19 45t46 18t46 -18t19 -45q0 -28 -19.5 -46.5t-45.5 -18.5zM313 549q57 0 108 -16t92.5 -48t66 -84.5t24.5 -120.5v-280h-166l-5 63
q-97 -74 -199 -74q-88 0 -148 50t-60 134q0 86 62.5 133t151.5 47q96 0 193 -56q-4 60 -45 91t-102 31q-70 0 -141 -39l-48 112q105 58 216 57zM289 117q67 0 144 46v41q-72 32 -132 32q-47 1 -76 -16.5t-29 -44.5q0 -26 25.5 -42t67.5 -16z" />
    <glyph glyph-name="agrave.ss01" 
d="M381 623l-117 186l154 22l76 -161zM313 549q57 0 108 -16t92.5 -48t66 -84.5t24.5 -120.5v-280h-166l-5 63q-97 -74 -199 -74q-88 0 -148 50t-60 134q0 86 62.5 133t151.5 47q96 0 193 -56q-4 60 -45 91t-102 31q-70 0 -141 -39l-48 112q105 58 216 57zM289 117
q67 0 144 46v41q-72 32 -132 32q-47 1 -76 -16.5t-29 -44.5q0 -26 25.5 -42t67.5 -16z" />
    <glyph glyph-name="amacron.ss01" 
d="M539 634h-350v110h350v-110zM313 549q57 0 108 -16t92.5 -48t66 -84.5t24.5 -120.5v-280h-166l-5 63q-97 -74 -199 -74q-88 0 -148 50t-60 134q0 86 62.5 133t151.5 47q96 0 193 -56q-4 60 -45 91t-102 31q-70 0 -141 -39l-48 112q105 58 216 57zM289 117q67 0 144 46v41
q-72 32 -132 32q-47 1 -76 -16.5t-29 -44.5q0 -26 25.5 -42t67.5 -16z" />
    <glyph glyph-name="aogonek.ss01" 
d="M658 -85l32 -52q-56 -49 -123 -51q-49 -1 -83.5 25.5t-34.5 68.5q0 57 57 94h-68l-5 63q-97 -74 -199 -74q-88 0 -148 50t-60 134q0 86 62.5 133t151.5 47q96 0 193 -56q-4 60 -45 91t-102 31q-70 0 -141 -39l-48 112q104 58 216 58q121 0 206 -69t85 -201l-1 -280
q-61 -28 -63 -71q0 -19 14.5 -29.5t38.5 -9.5q33 2 65 25zM289 117q67 0 144 46v41q-72 32 -132 32q-47 1 -76 -16.5t-29 -44.5q0 -26 25.5 -42t67.5 -16z" />
    <glyph glyph-name="aring.ss01" 
d="M365 599q-59 0 -98.5 33t-39.5 91q0 56 40 90.5t98 34.5q57 0 97.5 -35t40.5 -90q0 -58 -40 -91t-98 -33zM364 773q-20 0 -35.5 -14.5t-15.5 -34.5q0 -22 15.5 -36t36.5 -14t36.5 14.5t15.5 35.5t-15.5 35t-37.5 14zM313 549q57 0 108 -16t92.5 -48t66 -84.5t24.5 -120.5
v-280h-166l-5 63q-97 -74 -199 -74q-88 0 -148 50t-60 134q0 86 62.5 133t151.5 47q96 0 193 -56q-4 60 -45 91t-102 31q-70 0 -141 -39l-48 112q105 58 216 57zM289 117q67 0 144 46v41q-72 32 -132 32q-47 1 -76 -16.5t-29 -44.5q0 -26 25.5 -42t67.5 -16z" />
    <glyph glyph-name="atilde.ss01" 
d="M294 668q-38 3 -57 -48l-76 39q11 47 46 78t86 31q44 -1 95 -32t69 -31q36 0 56 50l77 -33q-12 -50 -45.5 -82.5t-84.5 -32.5q-40 0 -91.5 30.5t-74.5 30.5zM313 549q57 0 108 -16t92.5 -48t66 -84.5t24.5 -120.5v-280h-166l-5 63q-97 -74 -199 -74q-88 0 -148 50
t-60 134q0 86 62.5 133t151.5 47q96 0 193 -56q-4 60 -45 91t-102 31q-69 0 -142 -39l-47 112q105 58 216 57zM289 117q67 0 144 46v41q-72 32 -132 32q-47 1 -76 -16.5t-29 -44.5q0 -26 25.5 -42t67.5 -16z" />
    <glyph glyph-name="ae.ss01" horiz-adv-x="1112" 
d="M791 552q103 -1 175.5 -52t97.5 -126t3 -153h-404q16 -47 57.5 -70.5t97.5 -22.5q83 1 171 64l74 -117q-39 -33 -107 -58.5t-146 -25.5q-88 0 -164.5 34.5t-119.5 99.5q-57 -67 -130.5 -101.5t-148.5 -34.5q-95 0 -158 51t-63 135q0 63 38.5 105.5t90.5 59t110 15.5
q94 -1 168 -53q-1 47 -39 82t-103 35q-67 0 -146 -38l-49 115q112 52 218 52q160 0 232 -97q42 49 106 75.5t139 25.5zM664 337h245q-2 35 -33 59.5t-82 24.5q-98 0 -130 -84zM428 186v31q-63 28 -125 30q-51 2 -84 -16t-33 -50q0 -28 25 -44t64 -16q40 0 82.5 17t70.5 48z
" />
    <glyph glyph-name="k.ss01" horiz-adv-x="643" 
d="M240 316l251 256l113 -108l-158 -159l195 -215l-121 -114l-197 222l-83 -78v-120h-169v722h169v-406z" />
    <glyph glyph-name="v.ss01" horiz-adv-x="640" 
d="M320 201l174 357l148 -70l-251 -488h-141l-252 489l151 72z" />
    <glyph glyph-name="w.ss01" horiz-adv-x="906" 
d="M737 0h-178l-101 307l-100 -307h-173l-176 506l157 42l109 -345l114 334h144l110 -339l97 353l158 -45z" />
    <glyph glyph-name="wacute.ss01" horiz-adv-x="906" 
d="M591 789l-117 -186l-114 47l77 161zM737 0h-178l-101 307l-100 -307h-173l-176 506l157 42l109 -345l114 334h144l110 -339l97 353l158 -45z" />
    <glyph glyph-name="wcircumflex.ss01" horiz-adv-x="906" 
d="M528 592l-68 114l-71 -115l-91 43l94 137h135l93 -137zM737 0h-178l-101 307l-100 -307h-173l-176 506l157 42l109 -345l114 334h144l110 -339l97 353l158 -45z" />
    <glyph glyph-name="wdieresis.ss01" horiz-adv-x="906" 
d="M371 748q27 0 46 -18t19 -45q0 -28 -19.5 -46.5t-45.5 -18.5t-45.5 19t-19.5 46t19 45t46 18zM549 748q27 0 45.5 -18t18.5 -45q0 -28 -19 -46.5t-45 -18.5q-27 0 -46.5 19t-19.5 46t19.5 45t46.5 18zM737 0h-178l-101 307l-100 -307h-173l-176 506l157 42l109 -345
l114 334h144l110 -339l97 353l158 -45z" />
    <glyph glyph-name="wgrave.ss01" horiz-adv-x="906" 
d="M586 650l-114 -47l-117 186l154 22zM737 0h-178l-101 307l-100 -307h-173l-176 506l157 42l109 -345l114 334h144l110 -339l97 353l158 -45z" />
    <glyph glyph-name="x.ss01" horiz-adv-x="650" 
d="M523 -25l-202 194l-200 -194l-107 107l198 192l-183 177l113 110l183 -178l187 182l108 -106l-186 -181l201 -193z" />
    <glyph glyph-name="y.ss01" horiz-adv-x="686" 
d="M693 482l-391 -787l-152 69l112 232l-266 474l150 80l206 -378l187 379z" />
    <glyph glyph-name="yacute.ss01" horiz-adv-x="686" 
d="M467 789l-117 -186l-114 47l77 161zM693 482l-391 -787l-152 69l112 232l-266 474l150 80l206 -378l187 379z" />
    <glyph glyph-name="ycircumflex.ss01" horiz-adv-x="686" 
d="M404 592l-68 114l-71 -115l-91 43l94 137h135l93 -137zM693 482l-391 -787l-152 69l112 232l-266 474l150 80l206 -378l187 379z" />
    <glyph glyph-name="ydieresis.ss01" horiz-adv-x="686" 
d="M247 748q27 0 46 -18t19 -45q0 -28 -19.5 -46.5t-45.5 -18.5t-45.5 19t-19.5 46t19 45t46 18zM425 748q27 0 45.5 -18t18.5 -45q0 -28 -19 -46.5t-45 -18.5q-27 0 -46.5 19t-19.5 46t19.5 45t46.5 18zM693 482l-391 -787l-152 69l112 232l-266 474l150 80l206 -378
l187 379z" />
    <glyph glyph-name="ygrave.ss01" horiz-adv-x="686" 
d="M462 650l-114 -47l-117 186l154 22zM693 482l-391 -787l-152 69l112 232l-266 474l150 80l206 -378l187 379z" />
    <glyph glyph-name="dcaron.ss02" horiz-adv-x="827" 
d="M863 742v-127q0 -71 -36.5 -109.5t-99.5 -42.5v38q23 3 37 19t14 33q0 31 -34 31h-46v158h165zM626 723v-723h-160l-5 60q-81 -68 -172 -68q-102 0 -177.5 76.5t-75.5 207.5q0 127 71.5 197.5t170.5 70.5q98 0 178 -73v252h170zM332 403q-52 0 -89 -36t-37 -94
q0 -59 38.5 -97.5t95.5 -37.5q67 0 116 53v152q-56 60 -124 60z" />
    <glyph glyph-name="i.ss02" horiz-adv-x="305" 
d="M237 740v-142h-170v142h170zM237 0h-170v537h170v-537z" />
    <glyph glyph-name="j.ss02" horiz-adv-x="296" 
d="M237 740v-142h-170v142h170zM234 537v-552q0 -109 -69 -169t-168 -60q-84 0 -170 46l50 127q48 -31 105 -30q35 1 60 21.5t25 67.5v549h167z" />
    <glyph glyph-name="lcaron.ss02" horiz-adv-x="421" 
d="M470 743v-127q0 -71 -36.5 -109.5t-99.5 -42.5v38q23 3 37 19t14 33q0 31 -34 31h-46v158h165zM242 0h-171v722h171v-722z" />
    <glyph glyph-name="tcaron.ss02" horiz-adv-x="514" 
d="M568 833v-127q0 -71 -36.5 -109.5t-99.5 -42.5v38q23 3 37 19t14 33q0 31 -34 31h-46v158h165zM289 537h152v-143h-152v-170q1 -45 25 -67t60 -23q42 -1 88 26l47 -125q-85 -45 -167 -45q-99 0 -160 61t-61 156v187h-98v143h98v163h168v-163z" />
    <glyph glyph-name="uni004E0044.ordn" horiz-adv-x="1233" 
d="M692 163v537q148 3 180 2q156 -2 246.5 -67.5t90.5 -197.5q0 -137 -96 -207.5t-268 -70.5q-74 0 -153 4zM591 163h-174l-185 257v-257h-181v537h175l183 -265v265h182v-537zM873 549v-235q15 -1 33 1q48 6 85 35.5t37 85.5q0 55 -37 82t-81 30q-7 4 -37 1z" />
    <glyph glyph-name="uni00530054.ordn" horiz-adv-x="1059" 
d="M291 711q94 0 181 -38l-32 -142q-67 30 -136 30t-69 -26q0 -11 12 -16t48.5 -9t51.5 -6q171 -30 171 -165q0 -91 -70 -139t-179 -48q-117 0 -229 55l50 139q87 -45 170 -44q70 2 70 29q0 12 -14.5 17.5t-53.5 10t-60 8.5q-154 34 -154 161q0 90 71.5 136.5t171.5 46.5z
M1063 549h-166v-386h-181v386h-166v151h513v-151z" />
    <glyph glyph-name="uni00720064.ordn" horiz-adv-x="1171" 
d="M542 510q-1 -102 -71 -160l90 -185h-199l-58 126q-45 -2 -67 0v-126h-181v537q192 4 217 4q132 -2 200.5 -53t68.5 -143zM798 705q156 -2 246.5 -68t90.5 -198q0 -136 -96.5 -207t-267.5 -71q-74 0 -153 4v537q81 3 180 3zM237 554v-114q37 -2 66 2q58 8 58 55
q0 50 -63 56q-17 1 -61 1zM832 318q47 5 84.5 34.5t37.5 85.5q0 55 -36.5 82t-81.5 31q-5 2 -37 1v-236q16 0 33 2z" />
    <glyph glyph-name="uni00740068.ordn" horiz-adv-x="1158" 
d="M516 549h-167v-386h-181v386h-165v151h513v-151zM1108 163h-181v193h-163v-193h-181v537h181v-194h163v194h181v-537z" />
    <glyph glyph-name="a.sc" 
d="M438 83h-222l-32 -83h-187l242 537h176l242 -537h-186zM377 234l-51 129l-51 -129h102z" />
    <glyph glyph-name="aacute.sc" 
d="M333 603l-113 48l76 161l154 -23zM438 83h-222l-32 -83h-187l242 537h176l242 -537h-186zM377 234l-51 129l-51 -129h102z" />
    <glyph glyph-name="abreve.sc" 
d="M320 609q-67 0 -111 34.5t-62 92.5l96 26q6 -26 27 -42.5t50 -16.5q28 0 48.5 17t26.5 42l95 -26q-16 -58 -60 -92.5t-110 -34.5zM438 83h-222l-32 -83h-187l242 537h176l242 -537h-186zM377 234l-51 129l-51 -129h102z" />
    <glyph glyph-name="acircumflex.sc" 
d="M248 592l-90 43l94 136h134l94 -136l-92 -42l-69 113zM438 83h-222l-32 -83h-187l242 537h176l242 -537h-186zM377 234l-51 129l-51 -129h102z" />
    <glyph glyph-name="adieresis.sc" 
d="M231 620q-27 0 -46.5 19t-19.5 46t19.5 45.5t46.5 18.5t45.5 -18.5t18.5 -45.5t-19.5 -46t-44.5 -19zM408 620q-26 0 -45.5 19t-19.5 46t19 45.5t46 18.5t46 -18.5t19 -45.5t-19.5 -46t-45.5 -19zM438 83h-222l-32 -83h-187l242 537h176l242 -537h-186zM377 234l-51 129
l-51 -129h102z" />
    <glyph glyph-name="agrave.sc" 
d="M332 603l-117 186l154 23l76 -161zM438 83h-222l-32 -83h-187l242 537h176l242 -537h-186zM377 234l-51 129l-51 -129h102z" />
    <glyph glyph-name="amacron.sc" 
d="M490 614h-350v110h350v-110zM438 83h-222l-32 -83h-187l242 537h176l242 -537h-186zM377 234l-51 129l-51 -129h102z" />
    <glyph glyph-name="aogonek.sc" 
d="M689 -36l32 -52q-58 -50 -124 -51q-48 -1 -83 25.5t-35 68.5q0 24 12 45h-21l-32 83h-222l-32 -83h-187l241 537h176l215 -476h5v-9l23 -52h-81q-5 -9 -5 -22q-1 -19 13.5 -29.5t39.5 -9.5q34 2 65 25zM377 234l-51 129l-51 -129h102z" />
    <glyph glyph-name="aring.sc" 
d="M316 580q-59 0 -98.5 33t-39.5 90q0 56 40 91t98 35q57 0 97.5 -35t40.5 -91q0 -57 -40 -90t-98 -33zM315 754q-20 0 -35.5 -14.5t-15.5 -35.5t15.5 -35t36.5 -14t36.5 14t15.5 35q0 22 -15.5 36t-37.5 14zM438 83h-222l-32 -83h-187l242 537h176l242 -537h-186zM377 234
l-51 129l-51 -129h102z" />
    <glyph glyph-name="atilde.sc" 
d="M245 649q-39 1 -57 -49l-76 40q11 47 46.5 78t85.5 30q44 -1 95 -31.5t69 -30.5q36 0 56 49l77 -33q-12 -50 -45.5 -82t-84.5 -32q-40 0 -91.5 30.5t-74.5 30.5zM438 83h-222l-32 -83h-187l241 537h176l243 -537h-187zM377 234l-51 129l-51 -129h102z" />
    <glyph glyph-name="ae.sc" horiz-adv-x="826" 
d="M364 0v100h-175l-68 -111l-146 100l289 448h100h422v-151h-241v-56h181v-122h-181v-57h256v-151h-437zM364 252v138l-26 -47l-57 -91h83z" />
    <glyph glyph-name="b.sc" horiz-adv-x="555" 
d="M266 541q71 0 121 -13.5t74 -36.5t33.5 -45t9.5 -47q0 -41 -21.5 -68.5t-56.5 -37.5q45 -11 77 -46t32 -90q0 -78 -69 -120.5t-194 -42.5q-140 0 -225 6v537q80 4 219 4zM270 405q-17 0 -43 -2v-65q19 -3 44 -1q27 0 43 9t15 26q-1 33 -59 33zM271 219q-22 0 -44 -2v-77
q27 -2 50 -1q64 2 64 40q0 37 -70 40z" />
    <glyph glyph-name="c.sc" horiz-adv-x="548" 
d="M329 552q91 0 184 -44l-60 -140q-56 32 -110 31q-60 -1 -101 -35t-41 -93t41.5 -95.5t103.5 -36.5q58 0 109 34l60 -138q-92 -49 -186 -49q-124 0 -216.5 75t-92.5 208q0 129 89.5 206t219.5 77z" />
    <glyph glyph-name="cacute.sc" horiz-adv-x="548" 
d="M471 789l-117 -186l-113 47l76 161zM329 552q91 0 184 -44l-60 -140q-56 32 -110 31q-60 -1 -101 -35t-41 -93t41.5 -95.5t103.5 -36.5q58 0 109 34l60 -138q-92 -49 -186 -49q-124 0 -216.5 75t-92.5 208q0 129 89.5 206t219.5 77z" />
    <glyph glyph-name="ccaron.sc" horiz-adv-x="548" 
d="M404 622h-129l-97 113l89 62l71 -92l69 91l92 -61zM329 552q91 0 184 -44l-60 -140q-56 32 -110 31q-60 -1 -101 -35t-41 -93t41.5 -95.5t103.5 -36.5q58 0 109 34l60 -138q-92 -49 -186 -49q-124 0 -216.5 75t-92.5 208q0 129 89.5 206t219.5 77z" />
    <glyph glyph-name="ccedilla.sc" horiz-adv-x="548" 
d="M455 173l60 -138q-80 -44 -170 -49l-62 -154l-106 38l74 124q-100 22 -165.5 92.5t-65.5 182.5q0 129 89.5 206t219.5 77q91 0 184 -44l-60 -140q-56 32 -110 31q-60 -1 -101 -35t-41 -93t41.5 -95.5t103.5 -36.5q58 0 109 34z" />
    <glyph glyph-name="d.sc" horiz-adv-x="596" 
d="M51 0v537q81 3 180 3q156 -2 246.5 -68t90.5 -198q0 -136 -96.5 -207t-267.5 -71q-74 0 -153 4zM231 387v-236q17 0 34 2q47 5 84 34.5t37 85.5q0 55 -36.5 82t-81.5 31q-5 2 -37 1z" />
    <glyph glyph-name="eth.sc" horiz-adv-x="596" 
d="M231 540q156 -2 246.5 -68t90.5 -198q0 -137 -96.5 -207.5t-267.5 -70.5q-74 0 -153 4v220h-58v119h58v198q81 3 180 3zM265 153q47 5 84 34.5t37 85.5q0 55 -36.5 82t-81.5 31q-5 2 -37 1v-48h68v-119h-68v-69q17 0 34 2z" />
    <glyph glyph-name="dcaron.sc" horiz-adv-x="596" 
d="M363 621h-129l-97 113l89 63l71 -93l69 92l92 -61zM51 0v537q81 3 180 3q156 -2 246.5 -68t90.5 -198q0 -136 -96.5 -207t-267.5 -71q-74 0 -153 4zM231 387v-236q17 0 34 2q47 5 84 34.5t37 85.5q0 55 -36.5 82t-81.5 31q-5 2 -37 1z" />
    <glyph glyph-name="dcroat.sc" horiz-adv-x="596" 
d="M470 613h-350v110h350v-110zM51 0v537q81 3 180 3q156 -2 246.5 -68t90.5 -198q0 -136 -96.5 -207t-267.5 -71q-74 0 -153 4zM231 387v-236q17 0 34 2q47 5 84 34.5t37 85.5q0 55 -36.5 82t-81.5 31q-5 2 -37 1z" />
    <glyph glyph-name="e.sc" horiz-adv-x="517" 
d="M473 386h-241v-56h181v-122h-181v-57h256v-151h-437v537h422v-151z" />
    <glyph glyph-name="eacute.sc" horiz-adv-x="517" 
d="M399 789l-117 -186l-113 47l76 161zM473 386h-241v-56h181v-122h-181v-57h256v-151h-437v537h422v-151z" />
    <glyph glyph-name="ecaron.sc" horiz-adv-x="517" 
d="M332 622h-129l-97 113l89 62l71 -92l69 91l92 -61zM473 386h-241v-56h181v-122h-181v-57h256v-151h-437v537h422v-151z" />
    <glyph glyph-name="ecircumflex.sc" horiz-adv-x="517" 
d="M337 592l-69 114l-71 -115l-90 43l94 137h134l94 -137zM473 386h-241v-56h181v-122h-181v-57h256v-151h-437v537h422v-151z" />
    <glyph glyph-name="edieresis.sc" horiz-adv-x="517" 
d="M180 748q27 0 45.5 -18t18.5 -45q0 -28 -19 -46.5t-45 -18.5q-27 0 -46.5 19t-19.5 46t19.5 45t46.5 18zM357 748q27 0 46 -18t19 -45q0 -28 -19.5 -46.5t-45.5 -18.5t-45.5 19t-19.5 46t19 45t46 18zM473 386h-241v-56h181v-122h-181v-57h256v-151h-437v537h422v-151z
" />
    <glyph glyph-name="edotaccent.sc" horiz-adv-x="517" 
d="M274 748q27 0 45.5 -18t18.5 -45q0 -28 -19 -46.5t-45 -18.5q-27 0 -46.5 19t-19.5 46t19.5 45t46.5 18zM473 386h-241v-56h181v-122h-181v-57h256v-151h-437v537h422v-151z" />
    <glyph glyph-name="egrave.sc" horiz-adv-x="517" 
d="M394 650l-113 -47l-117 186l154 22zM473 386h-241v-56h181v-122h-181v-57h256v-151h-437v537h422v-151z" />
    <glyph glyph-name="emacron.sc" horiz-adv-x="517" 
d="M439 614h-350v110h350v-110zM473 386h-241v-56h181v-122h-181v-57h256v-151h-437v537h422v-151z" />
    <glyph glyph-name="eogonek.sc" horiz-adv-x="517" 
d="M333 -110q34 2 65 25l32 -52q-58 -50 -124 -51q-48 -1 -83 25.5t-35 68.5q0 57 57 94h-194v537h422v-151h-241v-56h181v-122h-181v-57h256v-151h-145q-63 -28 -63 -71q-1 -19 13.5 -29.5t39.5 -9.5z" />
    <glyph glyph-name="f.sc" horiz-adv-x="494" 
d="M472 386h-240v-81h178v-132h-178v-173h-181v537h421v-151z" />
    <glyph glyph-name="g.sc" horiz-adv-x="633" 
d="M344 552q98 0 188 -44l-55 -144q-57 37 -121 37q-65 -1 -106 -38.5t-41 -95.5q0 -59 42 -96t105 -37q43 0 83 18v35h-101v125h259v-241q-110 -88 -256 -88q-134 0 -224.5 76.5t-90.5 204.5q1 128 91.5 208t226.5 80z" />
    <glyph glyph-name="gcommaaccent.sc" horiz-adv-x="633" 
d="M344 552q98 0 188 -44l-55 -144q-57 37 -121 37q-65 -1 -106 -38.5t-41 -95.5q0 -59 42 -96t105 -37q43 0 83 18v35h-101v125h259v-241q-110 -88 -256 -88q-134 0 -224.5 76.5t-90.5 204.5q1 128 91.5 208t226.5 80zM359 -77q38 0 64.5 -27.5t26.5 -72.5
q0 -59 -44.5 -102.5t-109.5 -47.5l4 51q43 7 54 48q-29 -6 -53.5 14.5t-24.5 55.5q0 34 24 57.5t59 23.5z" />
    <glyph glyph-name="h.sc" horiz-adv-x="627" 
d="M576 0h-181v193h-163v-193h-181v537h181v-194h163v194h181v-537z" />
    <glyph glyph-name="i.sc" horiz-adv-x="281" 
d="M230 0h-179v537h179v-537z" />
    <glyph glyph-name="iacute.sc" horiz-adv-x="281" 
d="M276 789l-117 -186l-114 47l77 161zM230 0h-179v537h179v-537z" />
    <glyph glyph-name="icircumflex.sc" horiz-adv-x="281" 
d="M213 592l-68 114l-71 -115l-91 43l94 137h135l93 -137zM230 0h-179v537h179v-537z" />
    <glyph glyph-name="idieresis.sc" horiz-adv-x="281" 
d="M56 748q27 0 46 -18t19 -45q0 -28 -19.5 -46.5t-45.5 -18.5t-46 19t-20 46t19.5 45t46.5 18zM234 748q27 0 45.5 -18t18.5 -45q0 -28 -19 -46.5t-45 -18.5q-27 0 -46.5 19t-19.5 46t19.5 45t46.5 18zM230 0h-179v537h179v-537z" />
    <glyph glyph-name="igrave.sc" horiz-adv-x="281" 
d="M271 650l-114 -47l-117 186l154 22zM230 0h-179v537h179v-537z" />
    <glyph glyph-name="imacron.sc" horiz-adv-x="281" 
d="M315 614h-350v110h350v-110zM230 0h-179v537h179v-537z" />
    <glyph glyph-name="iogonek.sc" horiz-adv-x="281" 
d="M285 -85l32 -52q-58 -50 -124 -51q-48 -1 -83 25.5t-35 68.5q0 57 57 94h-81v537h179v-537q-63 -28 -63 -71q-1 -19 13.5 -29.5t39.5 -9.5q34 2 65 25z" />
    <glyph glyph-name="j.sc" horiz-adv-x="365" 
d="M323 537v-257q0 -161 -76 -231.5t-232 -70.5l-2 158q60 0 94 41t34 103v257h182z" />
    <glyph glyph-name="k.sc" horiz-adv-x="606" 
d="M402 283l210 -283h-219l-127 186l-35 -40v-146h-180v537h180v-216l157 216h202z" />
    <glyph glyph-name="kcommaaccent.sc" horiz-adv-x="606" 
d="M402 283l210 -283h-219l-127 186l-35 -40v-146h-180v537h180v-216l157 216h202zM275 -77q38 0 64.5 -27.5t26.5 -72.5q0 -59 -44.5 -102.5t-110.5 -47.5l5 51q43 7 54 48q-29 -6 -54 14.5t-25 55.5q0 34 24.5 57.5t59.5 23.5z" />
    <glyph glyph-name="l.sc" horiz-adv-x="489" 
d="M232 151h250v-151h-431v537h181v-386z" />
    <glyph glyph-name="lacute.sc" horiz-adv-x="489" 
d="M346 789l-117 -186l-114 47l77 161zM232 151h250v-151h-431v537h181v-386z" />
    <glyph glyph-name="lcaron.sc" horiz-adv-x="489" 
d="M232 151h250v-151h-431v537h181v-386z" />
    <glyph glyph-name="lcommaaccent.sc" horiz-adv-x="489" 
d="M232 151h250v-151h-431v537h181v-386zM215 -77q38 0 64.5 -27.5t26.5 -72.5q0 -59 -44.5 -102.5t-110.5 -47.5l5 51q43 7 54 48q-29 -6 -54 14.5t-25 55.5q0 34 24.5 57.5t59.5 23.5z" />
    <glyph glyph-name="ldot.sc" horiz-adv-x="495" 
d="M232 151h250v-151h-431v537h181v-386zM393 482q37 0 63.5 -27.5t26.5 -64.5q0 -38 -26.5 -65t-63.5 -27q-38 0 -64.5 27t-26.5 65q0 37 27 64.5t64 27.5z" />
    <glyph glyph-name="lslash.sc" horiz-adv-x="478" 
d="M482 151v-151h-431v161l-25 -11l-43 103l68 31v253h181v-168l106 49l43 -103l-149 -69v-95h250z" />
    <glyph glyph-name="m.sc" horiz-adv-x="761" 
d="M710 0h-185v271l-147 -198l-145 199v-272h-182v537h171l155 -214l159 214h174v-537z" />
    <glyph glyph-name="n.sc" horiz-adv-x="642" 
d="M591 0h-174l-185 258v-258h-181v537h175l183 -264v264h182v-537z" />
    <glyph glyph-name="nacute.sc" horiz-adv-x="642" 
d="M458 789l-117 -186l-114 47l77 161zM591 0h-174l-185 258v-258h-181v537h175l183 -264v264h182v-537z" />
    <glyph glyph-name="ncaron.sc" horiz-adv-x="642" 
d="M390 622h-128l-97 113l89 62l71 -92l69 91l91 -61zM591 0h-174l-185 258v-258h-181v537h175l183 -264v264h182v-537z" />
    <glyph glyph-name="ncommaaccent.sc" horiz-adv-x="642" 
d="M591 0h-174l-185 258v-258h-181v537h175l183 -264v264h182v-537zM326 -77q38 0 64.5 -27.5t26.5 -72.5q0 -59 -44.5 -102.5t-110.5 -47.5l5 51q43 7 54 48q-29 -6 -54 14.5t-25 55.5q0 34 24.5 57.5t59.5 23.5z" />
    <glyph glyph-name="eng.sc" horiz-adv-x="642" 
d="M591 537v-539q0 -161 -76 -231.5t-231 -70.5l-2 158q60 0 93.5 41t33.5 103v12l-177 248v-258h-181v537h175l183 -264v264h182z" />
    <glyph glyph-name="ntilde.sc" horiz-adv-x="642" 
d="M252 748q44 -1 94.5 -32t68.5 -31q37 0 57 50l76 -33q-11 -50 -45 -82.5t-85 -32.5q-39 0 -90.5 30.5t-74.5 30.5q-38 3 -57 -48l-76 39q11 47 46 78t86 31zM591 0h-175l-184 258v-258h-182v537h176l183 -264v264h182v-537z" />
    <glyph glyph-name="o.sc" horiz-adv-x="668" 
d="M334 548q128 0 218 -77t90 -207q0 -127 -87.5 -206t-219.5 -79q-130 0 -219.5 77.5t-89.5 206.5t89.5 207t218.5 78zM334 397q-54 0 -90 -38t-36 -95t36 -95.5t90 -38.5t90 38.5t36 95.5t-35.5 95t-90.5 38z" />
    <glyph glyph-name="oacute.sc" horiz-adv-x="668" 
d="M466 789l-117 -186l-113 47l76 161zM334 548q128 0 218 -77t90 -207q0 -127 -87.5 -206t-219.5 -79q-130 0 -219.5 77.5t-89.5 206.5t89.5 207t218.5 78zM334 397q-54 0 -90 -38t-36 -95t36 -95.5t90 -38.5t90 38.5t36 95.5t-35.5 95t-90.5 38z" />
    <glyph glyph-name="ocircumflex.sc" horiz-adv-x="668" 
d="M404 592l-69 114l-71 -115l-90 43l94 137h134l94 -137zM334 548q128 0 218 -77t90 -207q0 -127 -87.5 -206t-219.5 -79q-130 0 -219.5 77.5t-89.5 206.5t89.5 207t218.5 78zM334 397q-54 0 -90 -38t-36 -95t36 -95.5t90 -38.5t90 38.5t36 95.5t-35.5 95t-90.5 38z" />
    <glyph glyph-name="odieresis.sc" horiz-adv-x="668" 
d="M247 748q27 0 45.5 -18t18.5 -45q0 -28 -19 -46.5t-45 -18.5q-27 0 -46.5 19t-19.5 46t19.5 45t46.5 18zM424 748q27 0 46 -18t19 -45q0 -28 -19.5 -46.5t-45.5 -18.5t-45.5 19t-19.5 46t19 45t46 18zM334 548q128 0 218 -77t90 -207q0 -127 -87.5 -206t-219.5 -79
q-130 0 -219.5 77.5t-89.5 206.5t89.5 207t218.5 78zM334 397q-54 0 -90 -38t-36 -95t36 -95.5t90 -38.5t90 38.5t36 95.5t-35.5 95t-90.5 38z" />
    <glyph glyph-name="ograve.sc" horiz-adv-x="668" 
d="M461 650l-113 -47l-117 186l154 22zM334 548q128 0 218 -77t90 -207q0 -127 -87.5 -206t-219.5 -79q-130 0 -219.5 77.5t-89.5 206.5t89.5 207t218.5 78zM334 397q-54 0 -90 -38t-36 -95t36 -95.5t90 -38.5t90 38.5t36 95.5t-35.5 95t-90.5 38z" />
    <glyph glyph-name="ohungarumlaut.sc" horiz-adv-x="668" 
d="M378 789l-117 -186l-114 47l77 161zM590 789l-117 -186l-114 47l77 161zM334 548q128 0 218 -77t90 -207q0 -127 -87.5 -206t-219.5 -79q-130 0 -219.5 77.5t-89.5 206.5t89.5 207t218.5 78zM334 397q-54 0 -90 -38t-36 -95t36 -95.5t90 -38.5t90 38.5t36 95.5t-35.5 95
t-90.5 38z" />
    <glyph glyph-name="omacron.sc" horiz-adv-x="668" 
d="M506 614h-350v110h350v-110zM334 548q128 0 218 -77t90 -207q0 -127 -87.5 -206t-219.5 -79q-130 0 -219.5 77.5t-89.5 206.5t89.5 207t218.5 78zM334 397q-54 0 -90 -38t-36 -95t36 -95.5t90 -38.5t90 38.5t36 95.5t-35.5 95t-90.5 38z" />
    <glyph glyph-name="oslash.sc" horiz-adv-x="668" 
d="M560 606l-48 -107q60 -37 95 -97t35 -138q0 -126 -87.5 -205t-219.5 -79q-25 0 -51 3l-45 -104l-128 15l56 126q-65 37 -103 99t-38 144q0 129 89 207t218 78q33 0 64 -6l35 79zM208 264q0 -50 28 -87l97 219q-53 0 -89 -37.5t-36 -94.5zM441 337l-91 -206q48 6 79 43.5
t31 89.5q0 40 -19 73z" />
    <glyph glyph-name="otilde.sc" horiz-adv-x="668" 
d="M260 748q44 -1 95 -32t69 -31q36 0 56 50l77 -33q-12 -50 -45.5 -82.5t-84.5 -32.5q-40 0 -91.5 30.5t-74.5 30.5q-39 3 -56 -48l-77 39q12 47 47 78t85 31zM333 548q128 0 218 -77t90 -207q0 -127 -87 -206t-219 -79q-131 0 -220 77.5t-89 206.5t89 207t218 78zM334 397
q-54 0 -90 -38t-36 -95t36 -95.5t90 -38.5t90 38.5t36 95.5t-36 95t-90 38z" />
    <glyph glyph-name="oe.sc" horiz-adv-x="1001" 
d="M536 0v43q-83 -63 -201 -63q-131 0 -220 77t-89 206t89.5 207t218.5 78q115 0 202 -64v53h422v-151h-241v-56h181v-122h-181v-57h256v-151h-437zM334 130q54 0 90 38.5t36 95.5t-35.5 95t-90.5 38q-54 0 -90 -38t-36 -95t36 -95.5t90 -38.5z" />
    <glyph glyph-name="p.sc" horiz-adv-x="546" 
d="M51 0v537q105 7 179 7q138 -1 215 -53.5t77 -160.5q0 -56 -21.5 -97.5t-57 -63.5t-69 -32.5t-71.5 -14.5q-38 -3 -71 -3v-119h-181zM232 391v-120q24 0 45 3q58 9 58 57q0 52 -58 58q-13 2 -45 2z" />
    <glyph glyph-name="thorn.sc" horiz-adv-x="539" 
d="M229 486h26q119 0 192.5 -51.5t72.5 -156.5q0 -54 -20.5 -95.5t-54.5 -65t-69 -36t-73 -16.5q-26 -3 -71 -3v-62h-181v537h178v-51zM277 332q-26 2 -45 2v-120q20 -2 45 2q56 10 56 58q0 51 -56 58z" />
    <glyph glyph-name="q.sc" horiz-adv-x="674" 
d="M591 -25l88 -71q-27 -58 -74.5 -89t-111.5 -20q-48 8 -100 51t-78 47q-47 9 -78 -46l-88 79q25 49 68 77q-81 32 -129.5 99.5t-48.5 160.5q0 129 89.5 206.5t218.5 77.5q128 0 218 -77t90 -206q0 -107 -64 -181.5t-168 -95.5q10 -7 30 -24.5t33 -25.5t27 -10q47 -8 78 48
zM347 396q-54 0 -90 -37.5t-36 -94.5t36 -95.5t90 -38.5t90 38.5t36 95.5q0 56 -35.5 94t-90.5 38z" />
    <glyph glyph-name="r.sc" horiz-adv-x="582" 
d="M357 0l-58 126q-45 -2 -67 0v-126h-181v537q192 4 217 4q132 -2 200.5 -53t68.5 -143q-1 -102 -71 -160l90 -185h-199zM232 389v-114q37 -2 66 2q58 8 58 55q0 50 -63 56q-17 1 -61 1z" />
    <glyph glyph-name="racute.sc" horiz-adv-x="582" 
d="M293 603l-114 47l77 161l154 -22zM357 0l-58 126q-45 -2 -67 0v-126h-181v537q192 4 217 4q132 -2 200.5 -53t68.5 -143q-1 -102 -71 -160l90 -185h-199zM232 389v-114q37 -2 66 2q58 8 58 55q0 50 -63 56q-17 1 -61 1z" />
    <glyph glyph-name="rcaron.sc" horiz-adv-x="582" 
d="M214 622l-97 113l89 62l71 -92l69 91l91 -61l-95 -113h-128zM357 0l-58 126q-45 -2 -67 0v-126h-181v537q192 4 217 4q132 -2 200.5 -53t68.5 -143q-1 -102 -71 -160l90 -185h-199zM232 389v-114q37 -2 66 2q58 8 58 55q0 50 -63 56q-17 1 -61 1z" />
    <glyph glyph-name="rcommaaccent.sc" horiz-adv-x="582" 
d="M232 0h-181v537q192 4 217 4q132 -2 200.5 -53t68.5 -143q-1 -102 -71 -160l90 -185h-199l-58 126q-45 -2 -67 0v-126zM232 389v-114q37 -2 66 2q58 8 58 55q0 50 -63 56q-17 1 -61 1zM279 -77q38 0 64.5 -27.5t26.5 -72.5q0 -59 -44.5 -102.5t-110.5 -46.5l5 51
q44 7 54 48q-29 -6 -54 14.5t-25 55.5q0 34 24.5 57t59.5 23z" />
    <glyph glyph-name="s.sc" horiz-adv-x="554" 
d="M291 548q94 0 181 -38l-32 -142q-67 30 -136 30t-69 -26q0 -11 12 -16t48.5 -9t51.5 -6q171 -30 171 -165q0 -91 -70.5 -139.5t-178.5 -48.5q-115 0 -229 56l50 139q87 -45 170 -44q70 2 70 29q0 12 -14.5 17.5t-53.5 10t-60 8.5q-154 34 -154 161q0 90 71.5 136.5
t171.5 46.5z" />
    <glyph glyph-name="sacute.sc" horiz-adv-x="554" 
d="M409 789l-117 -186l-113 47l76 161zM291 548q94 0 181 -38l-32 -142q-67 30 -136 30t-69 -26q0 -11 12 -16t48.5 -9t51.5 -6q171 -30 171 -165q0 -91 -70.5 -139.5t-178.5 -48.5q-115 0 -229 56l50 139q87 -45 170 -44q70 2 70 29q0 12 -14.5 17.5t-53.5 10t-60 8.5
q-154 34 -154 161q0 90 71.5 136.5t171.5 46.5z" />
    <glyph glyph-name="scaron.sc" horiz-adv-x="554" 
d="M342 622h-129l-97 113l89 62l71 -92l69 91l92 -61zM291 548q94 0 181 -38l-32 -142q-67 30 -136 30t-69 -26q0 -11 12 -16t48.5 -9t51.5 -6q171 -30 171 -165q0 -91 -70.5 -139.5t-178.5 -48.5q-115 0 -229 56l50 139q87 -45 170 -44q70 2 70 29q0 12 -14.5 17.5
t-53.5 10t-60 8.5q-154 34 -154 161q0 90 71.5 136.5t171.5 46.5z" />
    <glyph glyph-name="scedilla.sc" horiz-adv-x="554" 
d="M518 176q0 -78 -52.5 -124.5t-139.5 -59.5l-64 -160l-106 38l71 120q-94 9 -187 54l50 139q87 -45 170 -44q70 2 70 29q0 12 -14.5 17.5t-53.5 10t-60 8.5q-154 34 -154 161q0 90 71.5 136.5t171.5 46.5q94 0 181 -38l-32 -142q-67 30 -136 30t-69 -26q0 -11 12 -16
t48.5 -9t51.5 -6q171 -30 171 -165z" />
    <glyph glyph-name="t.sc" horiz-adv-x="526" 
d="M520 386h-167v-386h-181v386h-165v151h513v-151z" />
    <glyph glyph-name="tbar.sc" horiz-adv-x="526" 
d="M430 595h-349v110h349v-110zM520 386h-167v-386h-181v386h-165v151h513v-151z" />
    <glyph glyph-name="tcaron.sc" horiz-adv-x="526" 
d="M323 603h-128l-97 113l89 63l71 -93l69 92l91 -61zM520 386h-167v-386h-181v386h-165v151h513v-151z" />
    <glyph glyph-name="tcedilla.sc" horiz-adv-x="526" 
d="M520 537v-151h-167v-386h-37l-68 -169l-106 39l78 130h-48v386h-165v151h513z" />
    <glyph glyph-name="u.sc" horiz-adv-x="616" 
d="M577 537v-301q0 -121 -76 -189t-190 -68q-70 0 -130 26t-101 85t-41 141v306h181v-305q0 -41 23 -67.5t64 -26.5t65 27t24 68v304h181z" />
    <glyph glyph-name="uacute.sc" horiz-adv-x="616" 
d="M440 789l-117 -186l-113 47l76 161zM577 537v-301q0 -121 -76 -189t-190 -68q-70 0 -130 26t-101 85t-41 141v306h181v-305q0 -41 23 -67.5t64 -26.5t65 27t24 68v304h181z" />
    <glyph glyph-name="ucircumflex.sc" horiz-adv-x="616" 
d="M378 592l-69 114l-71 -115l-90 43l94 137h134l94 -137zM577 537v-301q0 -121 -76 -189t-190 -68q-70 0 -130 26t-101 85t-41 141v306h181v-305q0 -41 23 -67.5t64 -26.5t65 27t24 68v304h181z" />
    <glyph glyph-name="udieresis.sc" horiz-adv-x="616" 
d="M221 748q27 0 45.5 -18t18.5 -45q0 -28 -19 -46.5t-45 -18.5q-27 0 -46.5 19t-19.5 46t19.5 45t46.5 18zM398 748q27 0 46 -18t19 -45q0 -28 -19.5 -46.5t-45.5 -18.5t-45.5 19t-19.5 46t19 45t46 18zM577 537v-301q0 -121 -76 -189t-190 -68q-70 0 -130 26t-101 85
t-41 141v306h181v-305q0 -41 23 -67.5t64 -26.5t65 27t24 68v304h181z" />
    <glyph glyph-name="ugrave.sc" horiz-adv-x="616" 
d="M435 650l-113 -47l-117 186l154 22zM577 537v-301q0 -121 -76 -189t-190 -68q-70 0 -130 26t-101 85t-41 141v306h181v-305q0 -41 23 -67.5t64 -26.5t65 27t24 68v304h181z" />
    <glyph glyph-name="uhungarumlaut.sc" horiz-adv-x="616" 
d="M352 789l-117 -186l-114 47l77 161zM564 789l-117 -186l-114 47l77 161zM577 537v-301q0 -121 -76 -189t-190 -68q-70 0 -130 26t-101 85t-41 141v306h181v-305q0 -41 23 -67.5t64 -26.5t65 27t24 68v304h181z" />
    <glyph glyph-name="umacron.sc" horiz-adv-x="616" 
d="M480 614h-350v110h350v-110zM577 537v-301q0 -121 -76 -189t-190 -68q-70 0 -130 26t-101 85t-41 141v306h181v-305q0 -41 23 -67.5t64 -26.5t65 27t24 68v304h181z" />
    <glyph glyph-name="uogonek.sc" horiz-adv-x="616" 
d="M426 1q-51 -28 -53 -66q0 -19 14.5 -29.5t38.5 -9.5q33 2 65 25l32 -52q-56 -49 -123 -51q-49 -1 -83.5 25.5t-34.5 68.5q0 36 27 68q-109 0 -190 65t-81 186v306h182v-305q0 -41 23 -67.5t64 -26.5t65 26.5t24 67.5v305h181v-302q0 -86 -41 -146.5t-110 -87.5z" />
    <glyph glyph-name="uring.sc" horiz-adv-x="616" 
d="M306 828q57 0 97.5 -35t40.5 -90q0 -58 -40 -91t-98 -33q-59 0 -98.5 33t-39.5 91q0 56 40 90.5t98 34.5zM305 753q-20 0 -35.5 -14.5t-15.5 -34.5q0 -22 15.5 -36t36.5 -14t36.5 14.5t15.5 35.5t-15.5 35t-37.5 14zM577 537v-301q0 -121 -76 -189t-190 -68
q-70 0 -130 26t-101 85t-41 141v306h181v-305q0 -41 23 -67.5t64 -26.5t65 27t24 68v304h181z" />
    <glyph glyph-name="v.sc" horiz-adv-x="642" 
d="M420 0h-193l-242 537h193l144 -348l142 348h193z" />
    <glyph glyph-name="w.sc" horiz-adv-x="844" 
d="M684 0h-169l-91 282l-88 -282h-166l-175 537h179l87 -310l96 310h134l97 -311l85 311h176z" />
    <glyph glyph-name="wacute.sc" horiz-adv-x="844" 
d="M575 789l-117 -186l-114 47l77 161zM684 0h-169l-91 282l-88 -282h-166l-175 537h179l87 -310l96 310h134l97 -311l85 311h176z" />
    <glyph glyph-name="wcircumflex.sc" horiz-adv-x="844" 
d="M512 592l-68 114l-71 -115l-91 43l94 137h135l93 -137zM684 0h-169l-91 282l-88 -282h-166l-175 537h179l87 -310l96 310h134l97 -311l85 311h176z" />
    <glyph glyph-name="wdieresis.sc" horiz-adv-x="844" 
d="M355 748q27 0 46 -18t19 -45q0 -28 -19.5 -46.5t-45.5 -18.5t-45.5 19t-19.5 46t19 45t46 18zM533 748q27 0 45.5 -18t18.5 -45q0 -28 -19 -46.5t-45 -18.5q-27 0 -46.5 19t-19.5 46t19.5 45t46.5 18zM684 0h-169l-91 282l-88 -282h-166l-175 537h179l87 -310l96 310h134
l97 -311l85 311h176z" />
    <glyph glyph-name="wgrave.sc" horiz-adv-x="844" 
d="M570 650l-114 -47l-117 186l154 22zM684 0h-169l-91 282l-88 -282h-166l-175 537h179l87 -310l96 310h134l97 -311l85 311h176z" />
    <glyph glyph-name="x.sc" horiz-adv-x="611" 
d="M306 146l-104 -146h-211l200 273l-190 264h210l95 -137l101 137h209l-193 -265l197 -272h-210z" />
    <glyph glyph-name="y.sc" horiz-adv-x="644" 
d="M421 191v-191h-202v201l-225 336h211l119 -183l116 183h210z" />
    <glyph glyph-name="yacute.sc" horiz-adv-x="644" 
d="M437 789l-117 -186l-114 47l77 161zM421 191v-191h-202v201l-225 336h211l119 -183l116 183h210z" />
    <glyph glyph-name="ycircumflex.sc" horiz-adv-x="644" 
d="M374 592l-68 114l-71 -115l-91 43l94 137h135l93 -137zM421 191v-191h-202v201l-225 336h211l119 -183l116 183h210z" />
    <glyph glyph-name="ydieresis.sc" horiz-adv-x="644" 
d="M217 748q27 0 46 -18t19 -45q0 -28 -19.5 -46.5t-45.5 -18.5t-45.5 19t-19.5 46t19 45t46 18zM395 748q27 0 45.5 -18t18.5 -45q0 -28 -19 -46.5t-45 -18.5q-27 0 -46.5 19t-19.5 46t19.5 45t46.5 18zM421 191v-191h-202v201l-225 336h211l119 -183l116 183h210z" />
    <glyph glyph-name="ygrave.sc" horiz-adv-x="644" 
d="M432 650l-114 -47l-117 186l154 22zM421 191v-191h-202v201l-225 336h211l119 -183l116 183h210z" />
    <glyph glyph-name="z.sc" horiz-adv-x="538" 
d="M511 394l-246 -247h247v-147h-486v141l258 250h-241v146h468v-143z" />
    <glyph glyph-name="zacute.sc" horiz-adv-x="538" 
d="M401 789l-117 -186l-113 47l76 161zM511 394l-246 -247h247v-147h-486v141l258 250h-241v146h468v-143z" />
    <glyph glyph-name="zcaron.sc" horiz-adv-x="538" 
d="M334 622h-129l-97 113l89 62l71 -92l69 91l92 -61zM511 394l-246 -247h247v-147h-486v141l258 250h-241v146h468v-143z" />
    <glyph glyph-name="zdotaccent.sc" horiz-adv-x="538" 
d="M276 748q27 0 45.5 -18t18.5 -45q0 -28 -19 -46.5t-45 -18.5q-27 0 -46.5 19t-19.5 46t19.5 45t46.5 18zM511 394l-246 -247h247v-147h-486v141l258 250h-241v146h468v-143z" />
    <glyph glyph-name="a.sc.ss01" horiz-adv-x="637" 
d="M433 85h-231l-41 -99l-163 66l225 485h191l225 -486l-162 -67zM369 237l-52 121l-51 -121h103z" />
    <glyph glyph-name="k.sc.ss01" horiz-adv-x="576" 
d="M549 461l-146 -183l169 -195l-145 -104l-166 204l-30 -33v-150h-180v537h180v-210l179 226z" />
    <glyph glyph-name="q.sc.ss01" horiz-adv-x="679" 
d="M508 -79l-64 75q-48 -16 -109 -16q-131 0 -220 77t-89 206t89.5 207t218.5 78q128 0 218 -77t90 -207q0 -97 -56 -171l58 -76zM334 130q54 0 90 38.5t36 95.5q0 56 -35.5 94t-90.5 38q-54 0 -90 -37.5t-36 -94.5t36 -95.5t90 -38.5z" />
    <glyph glyph-name="r.sc.ss01" horiz-adv-x="580" 
d="M393 -39l-102 165q-39 -2 -59 0v-126h-181v536q202 4 215 4q127 -2 198.5 -54.5t70.5 -145.5q0 -95 -74 -156l84 -126zM232 388v-113q37 -2 61 1q60 9 60 56q0 26 -19.5 39.5t-46.5 15.5q-25 3 -55 1z" />
    <glyph glyph-name="v.sc.ss01" horiz-adv-x="624" 
d="M632 487l-227 -487h-181l-232 486l163 66l159 -359l156 359z" />
    <glyph glyph-name="w.sc.ss01" horiz-adv-x="885" 
d="M876 508l-163 -507h-169l-100 273l-99 -273h-163l-174 503l161 46l101 -315l107 302h132l110 -302l100 320z" />
    <glyph glyph-name="x.sc.ss01" horiz-adv-x="629" 
d="M487 -32l-172 182l-172 -182l-125 123l176 186l-158 167l124 120l154 -162l155 162l124 -120l-159 -168l177 -185z" />
    <glyph glyph-name="y.sc.ss01" horiz-adv-x="609" 
d="M599 454l-206 -246v-208h-181l-1 214l-199 237l129 109l162 -198l165 201z" />
    <glyph glyph-name="seven.ss01" horiz-adv-x="610" 
d="M562 538l-319 -564l-158 93l279 470h-325v163h523v-162z" />
    <glyph glyph-name="one.dnom" horiz-adv-x="311" 
d="M215 1h-104v260l-32 -23l-45 76l88 58h93v-371z" />
    <glyph glyph-name="two.dnom" horiz-adv-x="421" 
d="M207 383q57 0 100 -35t43 -88q-2 -56 -49 -94l-86 -74h142v-91h-314v63l162 139q36 30 36 52q0 16 -12.5 26.5t-31.5 10.5t-34.5 -14t-23.5 -37l-91 27q19 56 63.5 85.5t95.5 29.5z" />
    <glyph glyph-name="three.dnom" horiz-adv-x="388" 
d="M185 377q58 0 100.5 -29.5t42.5 -77.5t-47 -77q26 -11 43 -34.5t17 -51.5q0 -54 -47 -85.5t-110 -31.5q-82 0 -150 49l38 74q50 -35 104 -35q30 0 47.5 10.5t17.5 28.5q0 17 -14.5 27t-39.5 10h-63v72h60q21 0 33.5 9.5t12.5 24.5q0 14 -14 24t-39 10q-45 0 -89 -29
l-36 72q65 40 133 40z" />
    <glyph glyph-name="four.dnom" horiz-adv-x="398" 
d="M318 148h49v-79h-49v-69h-102v69h-192v70l176 237h118v-228zM127 147h91v116z" />
    <glyph glyph-name="one.numr" horiz-adv-x="311" 
d="M215 328h-104v260l-32 -23l-45 76l88 58h93v-371z" />
    <glyph glyph-name="two.numr" horiz-adv-x="421" 
d="M207 701q57 0 100 -35t43 -88q-2 -56 -49 -94l-86 -74h142v-91h-314v63l162 139q36 30 36 52q0 16 -12.5 26.5t-31.5 10.5t-34.5 -14t-23.5 -37l-91 27q19 56 63.5 85.5t95.5 29.5z" />
    <glyph glyph-name="three.numr" horiz-adv-x="388" 
d="M185 711q58 0 100.5 -29.5t42.5 -77.5t-47 -77q26 -11 43 -34.5t17 -51.5q0 -53 -47 -84.5t-110 -31.5q-84 0 -150 48l38 74q50 -35 104 -35q30 0 47.5 10.5t17.5 28.5q0 17 -14.5 27t-39.5 10h-63v72h60q21 0 33.5 9.5t12.5 24.5q0 14 -14 24t-39 10q-45 0 -89 -29
l-36 72q65 40 133 40z" />
    <glyph glyph-name="four.numr" horiz-adv-x="398" 
d="M318 472h49v-79h-49v-69h-102v69h-192v70l176 236h118v-227zM127 470h91v117z" />
    <glyph glyph-name="guillemotleft.ss01" horiz-adv-x="645" 
d="M340 433l-170 -157l170 -156l-74 -84l-248 205v70l248 206zM630 433l-169 -157l169 -156l-73 -84l-249 205v70l249 206z" />
    <glyph glyph-name="guillemotright.ss01" horiz-adv-x="673" 
d="M344 311v-70l-248 -205l-74 84l170 156l-170 157l74 84zM635 311v-70l-249 -205l-73 84l169 156l-169 157l73 84z" />
    <glyph glyph-name="guilsinglleft.ss01" horiz-adv-x="354" 
d="M340 433l-170 -157l170 -156l-74 -84l-248 205v70l248 206z" />
    <glyph glyph-name="guilsinglright.ss01" horiz-adv-x="383" 
d="M344 311v-70l-248 -205l-74 84l170 156l-170 157l74 84z" />
    <glyph glyph-name="quotedblbase.ss02" horiz-adv-x="432" 
d="M195 179v-127q0 -71 -36.5 -109.5t-99.5 -42.5v38q23 3 37 19t14 33q0 31 -34 31h-46v158h165zM406 179v-127q0 -71 -36.5 -109.5t-99.5 -42.5v38q23 3 37 19t14 33q0 31 -34 31h-46v158h165z" />
    <glyph glyph-name="quotedblleft.ss02" horiz-adv-x="378" 
d="M-8 400v127q0 71 37 109.5t100 42.5v-38q-23 -3 -37 -19t-14 -33q0 -31 34 -31h46v-158h-166zM203 400v127q0 71 36.5 109.5t99.5 42.5v-38q-23 -3 -37 -19t-14 -33q0 -31 34 -31h46v-158h-165z" />
    <glyph glyph-name="quotedblright.ss02" horiz-adv-x="378" 
d="M175 722v-127q0 -71 -36.5 -109.5t-99.5 -42.5v38q23 3 37 19t14 33q0 31 -34 31h-46v158h165zM386 722v-127q0 -71 -36.5 -109.5t-99.5 -42.5v38q23 3 37 19t14 33q0 31 -34 31h-46v158h165z" />
    <glyph glyph-name="quoteleft.ss02" horiz-adv-x="168" 
d="M-8 460v127q0 71 37 109.5t100 42.5v-38q-23 -3 -37 -19t-14 -33q0 -31 34 -31h46v-158h-166z" />
    <glyph glyph-name="quoteright.ss02" horiz-adv-x="215" 
d="M192 722v-127q0 -71 -36.5 -109.5t-99.5 -42.5v38q23 3 37 19t14 33q0 31 -34 31h-46v158h165z" />
    <glyph glyph-name="quotesinglbase.ss02" horiz-adv-x="222" 
d="M195 158v-127q0 -71 -36.5 -109.5t-99.5 -42.5v38q23 3 37 19t14 33q0 31 -34 31h-46v158h165z" />
    <glyph glyph-name="slash.ss01" horiz-adv-x="483" 
d="M188 -132l-144 44l251 863l146 -44z" />
    <glyph glyph-name="comma.ss02" horiz-adv-x="228" 
d="M196 158v-127q1 -71 -35.5 -109.5t-99.5 -42.5v38q23 3 37 19t14 33q0 31 -34 31h-46v158h164z" />
    <glyph glyph-name="exclam.ss02" horiz-adv-x="341" 
d="M244 225h-149l-19 475h189zM251 0h-172v157h172v-157z" />
    <glyph glyph-name="exclamdown.ss02" horiz-adv-x="341" 
d="M91 618h171v-157h-171v157zM98 394h149l18 -476h-189z" />
    <glyph glyph-name="period.ss02" horiz-adv-x="234" 
d="M204 0h-172v157h172v-157z" />
    <glyph glyph-name="question.ss02" horiz-adv-x="638" 
d="M282 718q101 8 181 -42.5t85 -150.5q2 -49 -16.5 -83.5t-46 -55l-55.5 -40.5t-48 -52t-21 -76l-179 -1q-3 69 15 120.5t45.5 78t55.5 44.5t48 32t20 29q0 22 -19 33.5t-49 9.5q-68 -6 -104 -90l-151 75q37 79 100.5 121t138.5 48zM357 0h-171v157h171v-157z" />
    <glyph glyph-name="questiondown.ss02" horiz-adv-x="581" 
d="M214 638h171v-157h-171v157zM289 -80q-101 -8 -181 42.5t-85 150.5q-2 41 11 72.5t34 49.5l45.5 37.5l45.5 36t36 45.5t15 67h179q2 -58 -10.5 -104t-33 -72t-45 -47t-45.5 -32t-35.5 -23.5t-14.5 -25.5q0 -21 19.5 -33t48.5 -9q68 6 104 90l151 -75q-37 -80 -100.5 -122
t-138.5 -48z" />
    <glyph glyph-name="dollar.ss01" horiz-adv-x="648" 
d="M616 220q0 -89 -54.5 -145t-145.5 -77v-99h-150v90q-123 12 -232 70l50 146q118 -63 223 -62q58 1 91.5 19t33.5 46q0 15 -9 25.5t-29 17.5t-39.5 11t-52 10t-54.5 11q-198 51 -201 207q-1 94 61 148t158 68v89h150v-91q74 -13 144 -44l-36 -147q-91 43 -179 43
q-51 0 -83 -15t-31 -44q1 -13 9 -22t26.5 -16t34.5 -10.5l48 -10t52 -11.5q48 -12 82 -26t66.5 -37.5t49.5 -59.5t17 -84z" />
    <glyph glyph-name="ampersand.sc" horiz-adv-x="622" 
d="M464 0l-24 22q-80 -44 -171 -44q-100 0 -170 51t-70 134q0 97 113 150q-30 35 -30 84q0 63 50.5 107.5t121.5 44.5q72 0 119.5 -45.5t47.5 -110.5q0 -73 -72 -117l50 -46q9 32 9 59l162 -1q0 -94 -53 -169l129 -121zM277 372l4 -3q30 17 30 35q0 22 -23 24q-26 0 -27 -22
q-1 -16 16 -34zM277 118q24 0 54 10l-88 86q-38 -21 -38 -46q-1 -21 19.5 -35t52.5 -15z" />
    <glyph glyph-name="ampersand.ss01" horiz-adv-x="825" 
d="M638 371l149 -78q-35 -84 -89 -150l80 -83l-120 -113l-81 86q-110 -71 -239 -71q-119 0 -205 62.5t-86 173.5q0 81 45.5 132t122.5 86q-48 58 -48 123q0 80 65 136t153 56q89 -1 150.5 -57.5t61.5 -135.5q0 -101 -123 -166l104 -106q33 44 60 105zM370 479l1 -1
q71 30 71 68q1 21 -14 35.5t-39 14.5q-22 0 -37 -13t-16 -35q-2 -32 34 -69zM338 117q63 0 124 38l-140 147q-91 -45 -92 -101q-1 -38 29 -61t79 -23z" />
    <glyph glyph-name="ampersand.sc.ss01" horiz-adv-x="622" 
d="M476 292l141 -73q-30 -68 -79 -123l49 -52l-116 -98l-53 58q-78 -39 -166 -39q-90 0 -159 50t-69 134q0 100 118 158q-33 39 -33 88q0 66 53.5 112t125.5 46q73 0 122.5 -47t49.5 -114q0 -77 -81 -127l51 -53q29 37 46 80zM280 372l4 -5q31 18 31 36q0 11 -7 18t-17 7
q-26 2 -28 -22q-1 -16 17 -34zM254 110q26 0 57 11l-69 76q-36 -21 -36 -47q-1 -18 12 -29t36 -11z" />
    <glyph glyph-name="ampersand.ss02" horiz-adv-x="774" 
d="M746 285h-57v-34q0 -110 -91 -185t-239 -76q-127 0 -219 55.5t-92 149.5q0 63 41.5 108.5t104.5 62.5q-55 21 -86.5 63t-31.5 95q0 83 71.5 135.5t178.5 52.5q119 0 238 -67l-62 -136q-74 48 -149 48q-48 0 -74 -19t-26 -45q0 -27 28 -43.5t70 -16.5h100v-146h-108
q-46 0 -78.5 -20t-32.5 -48q0 -30 38 -51.5t90 -21.5q63 0 107 33t44 88v165h235v-147z" />
    <glyph glyph-name="ampersand.ss03" horiz-adv-x="697" 
d="M564 226l86 -129q-77 -69 -184 -95v-102h-155v93q-110 10 -186.5 63t-76.5 139q0 63 41.5 109t104.5 62q-55 21 -86.5 63.5t-31.5 95.5q0 77 67 126.5t168 58.5v96h155v-109q68 -18 133 -55l-62 -135q-83 50 -172 50q-50 0 -81 -17.5t-31 -47.5q0 -28 28 -43.5t70 -15.5
h108v-146h-116q-46 0 -78.5 -20.5t-32.5 -49.5q0 -31 38 -51.5t95 -20.5q116 1 199 81z" />
    <glyph glyph-name="ampersand.ss04" horiz-adv-x="910" 
d="M853 162l52 -125q-75 -47 -156 -47q-59 0 -108.5 24.5t-78.5 69.5q-85 -92 -233 -94q-115 0 -198 56t-83 150q0 64 40 111t106 65q-118 46 -118 152q0 83 73.5 135.5t183.5 52.5q119 0 241 -67h109v-212h130v-143h-130v-71q0 -37 24 -60t61 -25q42 -1 85 28zM355 557
q-50 0 -76 -19.5t-26 -45.5q0 -27 28 -43t70 -16h162v73q-79 51 -158 51zM347 146q67 0 115.5 36t48.5 95v12h-176q-45 0 -74 -20.5t-29 -50.5q0 -32 33 -52t82 -20z" />
    <glyph glyph-name="logo" horiz-adv-x="1343" 
d="M1031 526l-28 -6l-12 -122q-4 -15 -19 -18q-50 -9 -87 12l-3 -18q-2 -13 -15 -15q-61 -12 -95 14.5t-25 84.5l19 171l-252 -47l4 39l290 56l-5 -40l-20 -182q-3 -32 11.5 -46.5t52.5 -12.5l23 205l37 6l-13 -152q-3 -22 12.5 -30.5t49.5 -7.5l12 116q4 19 20 21l48 9z
M673 488l37 1q-8 -37 -37 -61.5t-71 -32.5l-86 -21q-11 -1 -19 8q-27 -20 -54 -24l-58 -12q-9 -2 -16 5t-6 14l2 30l-34 -19l-9 -99q-3 -17 -18 -19l-186 -36h-6l20 161q4 31 -17 37t-56 -10l-16 -129l-38 -7l34 261l38 6l-12 -90q27 8 38.5 12.5t23 14.5t15.5 25l9 53l38 7
l-10 -62q-11 -40 -33 -53q28 -10 22 -63l-13 -118l130 25l6 63l-47 -27q-27 -14 -30 -14q-10 -1 -16 3.5t-5 13.5l15 164l40 8l-13 -136l60 32l12 115l38 6l-10 -99l34 20l7 91v-1l5 57q0 13 17 19l70 12q9 2 15.5 -4t4.5 -15l-14 -136q0 -13 -15 -18l-55 -29l-3 -27
q49 9 49 11q29 14 38.5 22t13.5 25l7 91q4 17 18 20l94 17q9 2 15.5 -4t5.5 -15l-11 -71q-1 -13 -14 -17l-78 -23l-3 -30l63 16q60 12 74 56zM407 461l31 18l11 100l-31 -6zM542 483l54 18l6 35l-56 -11zM1037 430l105 19l-5 -39l-104 -20zM1297 408l16 3q13 4 19.5 -4.5
t5.5 -23.5l-15 -152l-37 -7l14 147l-20 -3l-35 -7l-16 -148l-37 -7l13 148l-37 -8l-1 -10l-5 -38l-8 -85q-4 -16 -17 -17l-96 -18q-8 -2 -14 5t-5 14l12 143q0 20 19 22l46 9l111 21l45 9zM888 333l96 18q9 1 15.5 -4.5t5.5 -15.5l-5 -31l-40 -7l3 16l-54 -10l-5 -37l71 6
q9 1 14 -5t5 -14l-7 -65q0 -17 -18 -19l-163 -31l-18 -3l13 147l-54 -10l-9 -74v-1q-7 -36 -36 -59.5t-72 -32.5l-80 -14q-8 -2 -14 3.5t-5 13.5l12 148q1 14 18 19l94 18q9 1 15.5 -5t5.5 -15l-11 -70q-2 -14 -14 -18l-79 -24l-2 -29l57 10q65 13 74 59l10 102l103 19
q14 2 20.5 -5.5t4.5 -22.5l-10 -113l121 22l4 31l-72 -6q-9 -1 -14 5t-3 14l5 71q3 14 18 19zM1130 339l-59 -11l-10 -109l59 11zM491 309l-8 -69q30 -21 26 -65l-9 -81v-1q-2 -16 -17 -18l-145 -28l9 110l-28 -13l-16 36l48 20l9 108l111 20q9 1 14.5 -4.5t5.5 -14.5z
M421 233l11 4l14 6l6 44l-56 -10l-5 -58zM577 196l53 17l6 34l-56 -10zM465 109l7 66q2 13 -6 20t-19 7l-60 -27l-8 -82zM524 45l416 80l-6 -40l-415 -80z" />
    </font>
</defs>
</svg>
