<?xml version="1.0" standalone="no"?>
<!DOCTYPE svg PUBLIC "-//W3C//DTD SVG 1.1//EN" "http://www.w3.org/Graphics/SVG/1.1/DTD/svg11.dtd" >
<svg>
<metadata>
Created by FontForge 20090622 at Thu Mar 15 17:02:32 2018
 By deploy user
&#194;&#169; 2013 Kyle Wayne Benson
</metadata>
<defs>
<font id="TideSans-300LilKahuna" horiz-adv-x="664" >
  <font-face 
    font-family="Tide Sans 300 Lil Kahuna"
    font-weight="300"
    font-stretch="normal"
    units-per-em="1000"
    panose-1="0 0 4 0 0 0 0 0 0 0"
    ascent="800"
    descent="-200"
    x-height="535"
    cap-height="700"
    bbox="-143 -326 1397 983"
    underline-thickness="50"
    underline-position="-50"
    unicode-range="U+0020-U+FB02"
  />
<missing-glyph horiz-adv-x="500" 
d="M0 0v700h500v-700h-500zM250 395l170 255h-340zM280 350l170 -255v510zM80 50h340l-170 255zM50 605v-510l170 255z" />
    <glyph glyph-name="arrowleft" unicode="&#x3c;&#x2d;" horiz-adv-x="602" 
d="M577 216h-305v-97l-247 229l247 228v-96h305l-66 -132z" />
    <glyph glyph-name="arrowright" unicode="&#x2d;&#x3e;" horiz-adv-x="602" 
d="M300 119v97h-305l66 132l-66 132h305v96l247 -228z" />
    <glyph glyph-name="fi" unicode="fi" horiz-adv-x="674" 
d="M576 535v-535h-80v465h-276v-465h-80v465h-92v70h92v27q0 107 66.5 162t160.5 55q98 0 201 -63l-31 -66q-81 60 -165 59q-64 0 -108 -38t-44 -109v-27h356z" />
    <glyph glyph-name="fl" unicode="fl" horiz-adv-x="667" 
d="M358 776q103 0 205 -74v-702h-80v667q-64 40 -124 40q-60 -1 -104.5 -37.5t-44.5 -113.5v-21h134l-1 -70h-133v-465h-80v465h-82v70h82v22q0 109 67.5 164.5t160.5 54.5z" />
    <glyph glyph-name="uni00660066.liga" unicode="ff" horiz-adv-x="727" 
d="M652 695q-50 -1 -85 -32.5t-35 -98.5v-29h138v-70h-138v-465h-80v465h-242v-465h-80v465h-82v70h82v34q0 102 56.5 151.5t135.5 49.5q53 0 111 -25l-25 -56q-38 18 -79 18q-51 -2 -85 -35.5t-34 -103.5v-33h242v28q0 99 56.5 148t133.5 49q66 0 133 -36l-24 -58
q-48 30 -99 29z" />
    <glyph glyph-name="uni00740074.liga" unicode="tt" horiz-adv-x="915" 
d="M868 95l24 -64q-71 -42 -139 -41q-80 0 -131 51.5t-51 137.5v286h-346v-284q1 -60 32.5 -89.5t77.5 -30.5q51 -1 107 34l24 -64q-71 -42 -139 -41q-80 0 -131 51.5t-51 137.5v286h-113v70h113v165h80v-165h346v165h80v-165h185v-70h-185v-284q1 -60 32.5 -89.5
t77.5 -30.5q51 -1 107 34z" />
    <glyph glyph-name=".notdef" horiz-adv-x="500" 
d="M0 0v700h500v-700h-500zM250 395l170 255h-340zM280 350l170 -255v510zM80 50h340l-170 255zM50 605v-510l170 255z" />
    <glyph glyph-name=".null" horiz-adv-x="0" 
 />
    <glyph glyph-name="nonmarkingreturn" horiz-adv-x="333" 
 />
    <glyph glyph-name="space" unicode=" " horiz-adv-x="370" 
 />
    <glyph glyph-name="exclam" unicode="!" horiz-adv-x="333" 
d="M203 167h-70l-9 535h90zM166 95q20 0 35 -15t15 -35q0 -21 -15 -36t-35 -15t-35 15t-15 36q0 20 14.5 35t35.5 15z" />
    <glyph glyph-name="quotedbl" unicode="&#x22;" horiz-adv-x="259" 
d="M112 747v-64l-12 -68h-43l-13 68v64h68zM216 747v-64l-13 -68h-43l-13 68v64h69z" />
    <glyph glyph-name="numbersign" unicode="#" horiz-adv-x="792" 
d="M569 415l-24 -191h157v-67h-165l-19 -157h-68l19 157h-200l-19 -157h-68l19 157h-140v67h148l24 191h-142v66h151l20 160h68l-20 -160h200l20 160h68l-20 -160h154v-66h-163zM501 415h-200l-24 -191h200z" />
    <glyph glyph-name="dollar" unicode="$" horiz-adv-x="571" 
d="M326 380q40 -7 68.5 -16.5t56.5 -26.5t40.5 -45t7.5 -66q-6 -47 -37 -80.5t-73 -47.5t-91 -15l-11 -68l-57 10l10 62q-92 13 -181 71l30 63q99 -69 212 -67q49 1 85.5 20.5t40.5 57.5q3 20 -7 35t-32 24t-43.5 15t-53.5 12q-11 2 -16 3q-38 8 -61.5 16t-49.5 23.5t-37 40
t-6 59.5q9 63 64 101t135 40l12 69l58 -9l-12 -65q62 -10 133 -49l-25 -58q-83 49 -163 48q-49 0 -88 -20t-45 -59q-2 -13 0.5 -22.5t10.5 -17t15.5 -12t23.5 -9t25 -6.5t30.5 -5.5t30.5 -5.5z" />
    <glyph glyph-name="percent" unicode="%" horiz-adv-x="800" 
d="M220 714q66 0 109.5 -44.5t43.5 -106.5q0 -64 -43 -107.5t-110 -43.5q-64 0 -108.5 43t-44.5 108q0 64 44 107.5t109 43.5zM203 0h-72l454 700h73zM221 665q-44 0 -74 -30t-30 -73t30 -73t74 -30t73.5 30t29.5 73t-29.5 73t-73.5 30zM581 292q66 0 109.5 -44.5
t43.5 -106.5q0 -64 -43.5 -108t-109.5 -44q-64 0 -108.5 43.5t-44.5 108.5q0 64 44 107.5t109 43.5zM582 243q-44 0 -73.5 -30t-29.5 -73t29.5 -72.5t73.5 -29.5t73 29.5t29 72.5t-29 73t-73 30z" />
    <glyph glyph-name="ampersand" unicode="&#x26;" horiz-adv-x="817" 
d="M674 0l-72 74q-51 -55 -119 -84t-140 -29t-133 23.5t-101.5 74.5t-40.5 121q0 46 17 82.5t51 63t66.5 43.5t79.5 36l-13 15q-65 65 -65 138q0 74 56.5 122.5t136.5 48.5q81 0 131.5 -48t50.5 -120q0 -65 -43.5 -105t-122.5 -74l174 -179q31 65 34 144h85
q-3 -120 -56 -209l134 -138h-110zM347 451l14 -15q69 27 104.5 55.5t35.5 71.5q0 41 -28.5 68t-76.5 27t-78.5 -27.5t-31.5 -67.5q0 -51 61 -112zM339 38q124 0 205 97l-209 216q-43 -17 -69.5 -30.5t-55 -34t-42.5 -47t-14 -59.5q0 -67 53 -104.5t132 -37.5z" />
    <glyph glyph-name="quotesingle" unicode="'" horiz-adv-x="156" 
d="M112 747v-64l-12 -68h-43l-13 68v64h68z" />
    <glyph glyph-name="parenleft" unicode="(" horiz-adv-x="390" 
d="M201 784l70 -36q-121 -234 -121 -451q0 -218 124 -454l-70 -37q-67 129 -103.5 243.5t-36.5 246.5q0 131 36 246.5t101 241.5z" />
    <glyph glyph-name="parenright" unicode=")" horiz-adv-x="390" 
d="M119 748l70 36q65 -126 101 -241.5t36 -246.5q0 -132 -36.5 -246.5t-103.5 -243.5l-70 37q124 236 124 454q0 217 -121 451z" />
    <glyph glyph-name="asterisk" unicode="*" horiz-adv-x="465" 
d="M269 616l76 -106l-39 -25l-74 104l-67 -102l-39 27l70 103l-116 25l12 48l117 -27l2 119l49 -1l-3 -118l117 24l12 -48z" />
    <glyph glyph-name="plus" unicode="+" horiz-adv-x="705" 
d="M386 380h211v-64h-211v-229h-69v229h-208l-1 64h209v230h69v-230z" />
    <glyph glyph-name="comma" unicode="," horiz-adv-x="225" 
d="M109 89q23 0 40 -18t17 -48q0 -39 -28 -67t-70 -31l2 33q33 7 37 40q-19 -4 -33.5 9t-14.5 34q0 20 14.5 34t35.5 14z" />
    <glyph glyph-name="hyphen" unicode="-" horiz-adv-x="405" 
d="M365 315h-325v68h325v-68z" />
    <glyph glyph-name="period" unicode="." horiz-adv-x="220" 
d="M110 94q21 0 36 -15t15 -36q0 -22 -15.5 -37t-35.5 -15q-21 0 -36 15t-15 37q0 21 14.5 36t36.5 15z" />
    <glyph glyph-name="slash" unicode="/" horiz-adv-x="443" 
d="M139 -103l-75 -1l249 852h75z" />
    <glyph glyph-name="zero" unicode="0" horiz-adv-x="755" 
d="M377 711q43 0 85.5 -12t83.5 -39.5t72.5 -68.5t50.5 -103t19 -138t-19 -138t-50.5 -103t-72.5 -69t-83.5 -40t-85.5 -12q-55 0 -107.5 20.5t-99 61.5t-75 114t-28.5 167t28.5 166.5t75 113t99 60.5t107.5 20zM377 633q-40 0 -78 -15t-72 -46.5t-54.5 -88t-20.5 -130.5
q0 -75 20.5 -132.5t54 -90t72 -48.5t78.5 -16t78 15.5t72.5 47.5t55 89t20.5 132q0 74 -20.5 131t-55 89t-72.5 47.5t-78 15.5z" />
    <glyph glyph-name="one" unicode="1" horiz-adv-x="373" 
d="M246 0h-85v626l-73 -49l-29 48l111 75h76v-700z" />
    <glyph glyph-name="two" unicode="2" horiz-adv-x="677" 
d="M335 709q102 0 173 -62t71 -157q0 -116 -127 -216l-248 -196h400v-78h-544l1 68l331 256q102 79 102 161q0 63 -46 105t-117 42q-122 0 -176 -127l-71 40q34 74 100 119t151 45z" />
    <glyph glyph-name="three" unicode="3" horiz-adv-x="659" 
d="M324 710q101 0 167.5 -49t65.5 -128q-1 -60 -41 -104.5t-97 -56.5q70 -10 120 -59t50 -122q0 -91 -76.5 -145t-187.5 -54q-141 0 -271 88l34 66q116 -75 233 -75q80 0 131.5 35.5t51.5 89.5t-50.5 91.5t-128.5 37.5h-111v77h107q66 0 108.5 33.5t42.5 82.5q0 48 -43 81
t-114 33q-93 0 -188 -59l-33 69q116 68 230 68z" />
    <glyph glyph-name="four" unicode="4" horiz-adv-x="663" 
d="M504 234h108v-78h-108v-156h-81v156h-386v61l383 483h84v-466zM138 234h286v359z" />
    <glyph glyph-name="five" unicode="5" horiz-adv-x="686" 
d="M555 623h-338l-20 -218q91 59 184 59t157.5 -58.5t64.5 -161.5q0 -116 -82 -184.5t-196 -68.5q-133 0 -245 93l39 63q96 -78 202 -78q81 1 138.5 47t57.5 125q-1 72 -50.5 114.5t-122.5 42.5q-93 0 -189 -69l-43 26l30 345h413v-77z" />
    <glyph glyph-name="six" unicode="6" horiz-adv-x="697" 
d="M394 474q103 0 174 -65t71 -166q0 -112 -81 -181.5t-192 -69.5q-126 0 -215 90.5t-89 255.5q0 93 29.5 166t78.5 116.5t107.5 66t121.5 22.5q101 0 193 -56l-30 -70q-73 49 -158 49q-105 0 -180 -74t-76 -219v-11q42 71 107.5 108.5t138.5 37.5zM370 70q75 0 129.5 45
t54.5 123q0 73 -48.5 117t-122.5 44q-66 0 -127 -39.5t-97 -112.5q22 -85 80 -131t131 -46z" />
    <glyph glyph-name="seven" unicode="7" horiz-adv-x="628" 
d="M565 624l-350 -624h-106l353 615h-407v85h510v-76z" />
    <glyph glyph-name="eight" unicode="8" horiz-adv-x="721" 
d="M359 709q104 1 177 -48t74 -133q1 -65 -45.5 -108.5t-101.5 -52.5q38 -6 78 -26t73 -60.5t34 -90.5q1 -90 -79.5 -146t-206.5 -58q-128 -2 -207.5 53t-80.5 142q-1 76 56.5 125t121.5 59q-54 10 -99 52t-46 104q-1 82 72 134t180 54zM359 634q-71 -1 -119.5 -35
t-47.5 -84q1 -46 47.5 -78.5t121.5 -31.5q72 1 117.5 34t44.5 81q-1 50 -49.5 82.5t-114.5 31.5zM360 323q-85 -2 -143.5 -38t-57.5 -94q1 -55 56 -92.5t147 -36.5q89 2 145 40.5t54 94.5q-1 55 -59 91.5t-142 34.5z" />
    <glyph glyph-name="nine" unicode="9" horiz-adv-x="700" 
d="M338 711q124 0 212 -90t88 -256q0 -92 -27 -164.5t-73 -117.5t-104.5 -68t-124.5 -23q-117 0 -210 67l30 68q81 -58 175 -58q103 0 174.5 72t76.5 211l-1 25q-32 -71 -99.5 -111.5t-146.5 -40.5q-103 0 -174 64t-71 169q-1 113 80.5 183t194.5 70zM322 299q72 0 131 41
t89 115q-22 85 -78 131.5t-129 46.5q-77 0 -132.5 -47t-54.5 -125q0 -73 49 -117.5t125 -44.5z" />
    <glyph glyph-name="colon" unicode=":" horiz-adv-x="207" 
d="M103 464q20 0 34.5 -15t14.5 -35t-15 -34.5t-34 -14.5q-20 0 -34.5 14.5t-14.5 34.5t14.5 35t34.5 15zM103 105q20 0 34.5 -15t14.5 -35t-15 -34.5t-34 -14.5q-20 0 -34.5 14.5t-14.5 34.5t14.5 35t34.5 15z" />
    <glyph glyph-name="semicolon" unicode=";" horiz-adv-x="228" 
d="M107 459q21 0 36 -15t15 -36t-15.5 -35.5t-35.5 -14.5t-35 14.5t-15 35.5t14.5 36t35.5 15zM120 89q24 0 41 -18t17 -48q0 -39 -28.5 -67t-70.5 -31l3 33q33 9 37 40q-20 -3 -34.5 9.5t-14.5 33.5q0 20 14.5 34t35.5 14z" />
    <glyph glyph-name="less" unicode="&#x3c;" horiz-adv-x="704" 
d="M570 478l-428 -131l428 -131l-19 -69l-505 166v65l505 169z" />
    <glyph glyph-name="equal" unicode="=" horiz-adv-x="690" 
d="M582 402h-473l-1 63h473zM582 221h-473l-1 64h473z" />
    <glyph glyph-name="greater" unicode="&#x3e;" horiz-adv-x="704" 
d="M601 378v-65l-505 -166l-19 69l428 131l-428 131l19 69z" />
    <glyph glyph-name="question" unicode="?" horiz-adv-x="650" 
d="M283 712q98 10 171 -41t73 -142q0 -44 -16 -77t-39.5 -51l-51.5 -39.5t-52 -42.5t-40.5 -61t-17.5 -93l-84 -1q0 63 16 111.5t40 75t52 49.5t52 38t40 38.5t16 52.5q0 53 -44 83t-105 23q-104 -12 -148 -126l-71 35q28 73 82.5 116.5t126.5 51.5zM268 96q21 0 35.5 -15
t14.5 -35q0 -21 -15.5 -35.5t-34.5 -14.5q-20 0 -34.5 14.5t-14.5 35.5q0 20 14.5 35t34.5 15z" />
    <glyph glyph-name="at" unicode="@" horiz-adv-x="1045" 
d="M563 700q191 0 313.5 -125.5t101.5 -321.5q-13 -124 -75.5 -193.5t-137.5 -67.5q-44 1 -76 29t-38 80q-75 -92 -177 -92q-54 0 -100.5 27.5t-74.5 86t-19 135.5q12 107 78 169.5t151 62.5q101 0 170 -92l8 64l70 1l-33 -314q-5 -88 51 -88q44 0 83.5 53.5t48.5 140.5
q17 159 -84.5 268t-261.5 109q-104 0 -196 -47.5t-153 -135.5t-71 -198q-15 -166 85 -277t256 -111q90 0 170 39l23 -66q-97 -42 -193 -42q-123 0 -222 59t-152 165t-42 236q18 195 162 320.5t335 125.5zM525 435q-67 0 -115.5 -49.5t-56.5 -126.5q-9 -80 35 -132t115 -52
q30 0 58 11.5t45 24.5t43 36l23 204q-66 84 -147 84z" />
    <glyph glyph-name="A" unicode="A" horiz-adv-x="754" 
d="M570 158h-386l-67 -158h-94l313 700h80l316 -700h-93zM537 236l-161 372l-158 -372h319z" />
    <glyph glyph-name="B" unicode="B" horiz-adv-x="715" 
d="M360 702q122 -1 183 -46.5t61 -122.5q0 -60 -34 -101.5t-93 -52.5q84 -11 133.5 -59.5t49.5 -125.5q0 -91 -73 -144t-221 -53q-32 0 -141 1t-108 2v700q77 2 243 2zM381 628q-133 0 -179 -1v-218q95 -2 171 0q75 2 111.5 35.5t34.5 79.5q-1 50 -41 76.5t-97 27.5z
M364 335q-117 0 -162 -1v-261q119 -3 184 -1q91 1 139.5 36t48.5 94q0 60 -51 96t-159 37z" />
    <glyph glyph-name="C" unicode="C" horiz-adv-x="724" 
d="M434 710q114 2 219 -47l-29 -72q-90 45 -183 41q-122 -4 -207 -81.5t-85 -201.5q0 -127 88.5 -204t213.5 -77q94 0 178 47l31 -71q-102 -53 -209 -54q-162 -2 -274.5 98.5t-112.5 259.5q0 155 106 256t264 106z" />
    <glyph glyph-name="D" unicode="D" horiz-adv-x="779" 
d="M116 0v700q26 1 156 1q95 0 172.5 -19t139.5 -59t96.5 -108.5t34.5 -160.5q0 -173 -117 -264.5t-324 -91.5q-121 0 -158 2zM200 623v-546q14 -1 88 -1q159 2 250.5 71t91.5 205q0 75 -29 129.5t-79.5 84.5t-109 43.5t-128.5 13.5h-22.5h-35.5h-26z" />
    <glyph glyph-name="E" unicode="E" 
d="M586 623h-385v-232h295v-73h-295v-240h410v-78h-495v700h470v-77z" />
    <glyph glyph-name="F" unicode="F" horiz-adv-x="632" 
d="M589 623h-388v-266h281v-76h-281v-281h-85v700h473v-77z" />
    <glyph glyph-name="G" unicode="G" horiz-adv-x="789" 
d="M444 714q115 2 224 -50l-28 -75q-91 51 -194 48q-126 -5 -211 -86t-86 -201q0 -123 87 -206t220 -83q98 0 183 51v175h-205v76h288v-298q-119 -81 -265 -82q-170 -1 -281.5 104.5t-111.5 262.5q1 152 108.5 256.5t271.5 107.5z" />
    <glyph glyph-name="H" unicode="H" horiz-adv-x="832" 
d="M716 0h-85v303h-430v-303h-85v700h85v-319h430v319h85v-700z" />
    <glyph glyph-name="I" unicode="I" horiz-adv-x="314" 
d="M199 0h-83v700h83v-700z" />
    <glyph glyph-name="J" unicode="J" horiz-adv-x="429" 
d="M331 700v-367q0 -176 -81 -261.5t-234 -85.5l-1 78q110 1 170.5 69.5t60.5 202.5v364h85z" />
    <glyph glyph-name="K" unicode="K" horiz-adv-x="698" 
d="M413 409l292 -409h-104l-241 345l-160 -183v-162h-84v700h84v-423l363 423h100z" />
    <glyph glyph-name="L" unicode="L" horiz-adv-x="601" 
d="M201 78h392v-78h-477v700h85v-622z" />
    <glyph glyph-name="M" unicode="M" horiz-adv-x="1020" 
d="M904 0h-87v563l-311 -411l-304 412v-564h-86v700h82l308 -415l316 415h82v-700z" />
    <glyph glyph-name="N" unicode="N" horiz-adv-x="844" 
d="M729 0h-78l-450 567v-567h-85v700h85l442 -559v559h86v-700z" />
    <glyph glyph-name="O" unicode="O" horiz-adv-x="863" 
d="M432 711q159 0 263 -101.5t104 -262.5q0 -157 -101 -261.5t-265 -104.5q-162 0 -265.5 103t-103.5 263q0 161 104.5 262.5t263.5 101.5zM431 634q-124 0 -202.5 -79.5t-78.5 -207.5q0 -127 78 -207.5t205 -80.5t203.5 82t76.5 206q0 127 -78.5 207t-203.5 80z" />
    <glyph glyph-name="P" unicode="P" horiz-adv-x="691" 
d="M116 0v700q108 3 213 3q150 0 236.5 -66t87.5 -186q1 -119 -80.5 -185.5t-207.5 -69.5q-55 -1 -164 -1v-195h-85zM201 625v-353h80t74 1q100 2 157 49t56 124q0 79 -60 127.5t-154 50.5q-44 1 -153 1z" />
    <glyph glyph-name="Q" unicode="Q" horiz-adv-x="876" 
d="M767 -71l51 -39q-54 -106 -161 -89q-54 9 -126.5 66t-107.5 64q-34 6 -65 -10t-51 -55l-51 42q30 59 84 83q-125 29 -200.5 125t-75.5 231q0 161 104.5 262.5t263.5 101.5t263 -101.5t104 -262.5q0 -143 -84.5 -243t-225.5 -119q29 -14 86 -60t91 -52q62 -10 101 56z
M150 347q0 -126 78 -207t204 -81q128 0 204.5 82t76.5 206q0 126 -78.5 206.5t-203.5 80.5q-124 0 -202.5 -79.5t-78.5 -207.5z" />
    <glyph glyph-name="R" unicode="R" horiz-adv-x="721" 
d="M548 0l-123 204q-36 -7 -77 -7h-147v-197h-85v700q44 0 115.5 0.5t105.5 0.5q140 0 223.5 -69.5t84.5 -184.5q0 -150 -138 -216l139 -231h-98zM347 274q94 3 153.5 48.5t59.5 125.5q-1 80 -62.5 127t-156.5 49q-50 1 -140 1v-351q80 -1 146 0z" />
    <glyph glyph-name="S" unicode="S" horiz-adv-x="703" 
d="M360 710q114 0 229 -55l-26 -74q-106 52 -203 52q-76 0 -124 -30t-47 -84q0 -26 13.5 -45t39 -30.5t55 -19.5t68.5 -17l29 -6q59 -14 98.5 -28t75.5 -37t54 -57t18 -81q1 -100 -74.5 -155t-193.5 -57q-155 -2 -295 83l32 71q125 -77 257 -76q84 2 135 36.5t52 92.5
q0 21 -6.5 38t-24.5 30.5t-32.5 22t-48 18.5t-51.5 14l-61 14q-54 13 -88.5 25t-69.5 33t-52 52.5t-17 74.5q-1 95 74 145t184 50z" />
    <glyph glyph-name="T" unicode="T" horiz-adv-x="619" 
d="M612 623h-260v-623h-85v623h-260v77h605v-77z" />
    <glyph glyph-name="U" unicode="U" horiz-adv-x="815" 
d="M717 700v-394q0 -152 -87 -238.5t-221 -86.5q-132 0 -221.5 85t-89.5 238v396h85v-398q0 -112 61 -177.5t163 -65.5t163.5 66t61.5 178v397h85z" />
    <glyph glyph-name="V" unicode="V" horiz-adv-x="721" 
d="M408 0h-90l-318 700h92l270 -603l267 603h92z" />
    <glyph glyph-name="W" unicode="W" horiz-adv-x="1068" 
d="M825 0h-81l-208 574l-196 -574h-82l-232 700h86l188 -586l198 586h74l209 -585l174 585h86z" />
    <glyph glyph-name="X" unicode="X" horiz-adv-x="728" 
d="M364 297l-216 -297h-101l261 361l-244 339h102l198 -275l203 275h101l-246 -340l260 -360h-101z" />
    <glyph glyph-name="Y" unicode="Y" horiz-adv-x="756" 
d="M424 276v-276h-92v278l-289 422h103l232 -344l234 344h103z" />
    <glyph glyph-name="Z" unicode="Z" horiz-adv-x="705" 
d="M645 627l-475 -549h478v-78h-593v71l479 552h-458v77h569v-73z" />
    <glyph glyph-name="bracketleft" unicode="[" horiz-adv-x="338" 
d="M248 700h-91v-801h91l-1 -51h-172v904h173v-52z" />
    <glyph glyph-name="backslash" unicode="\" horiz-adv-x="426" 
d="M99 724l249 -852l-62 -15l-249 852z" />
    <glyph glyph-name="bracketright" unicode="]" horiz-adv-x="338" 
d="M233 752v-904h-172v51h91v801h-91l-1 52h173z" />
    <glyph glyph-name="asciicircum" unicode="^" horiz-adv-x="625" 
d="M291 700h44l239 -328h-80l-181 255l-181 -255h-81z" />
    <glyph glyph-name="underscore" unicode="_" horiz-adv-x="355" 
d="M340 -61h-325v61h325v-61z" />
    <glyph glyph-name="grave" unicode="`" horiz-adv-x="628" 
d="M473 805l-61 -26l-81 137l81 14z" />
    <glyph glyph-name="a" unicode="a" horiz-adv-x="667" 
d="M580 535v-535h-75l-2 81q-30 -39 -77.5 -64t-106.5 -25q-106 0 -184.5 78.5t-78.5 205.5q0 119 74 193.5t177 74.5q121 0 195 -101l1 92h77zM320 476q-78 0 -133 -57t-55 -145q0 -93 58 -152t140 -59q99 0 172 87v222q-76 104 -182 104z" />
    <glyph glyph-name="b" unicode="b" horiz-adv-x="695" 
d="M182 723v-286q91 107 213 107q101 0 173 -72.5t72 -195.5q0 -131 -79.5 -207.5t-183.5 -76.5q-103 0 -197 92l-2 -84h-76v723h80zM375 473q-108 0 -193 -109v-207q79 -92 177 -93q82 0 141.5 58.5t59.5 150.5q0 87 -53.5 143.5t-131.5 56.5z" />
    <glyph glyph-name="c" unicode="c" horiz-adv-x="608" 
d="M349 550q112 0 203 -69l-37 -62q-70 61 -162 61q-93 0 -155 -60t-62 -151q-1 -93 62.5 -150.5t152.5 -57.5q95 0 167 68l39 -56q-92 -82 -213 -82q-115 0 -201 74t-87 204q0 87 42.5 152t108.5 96.5t142 32.5z" />
    <glyph glyph-name="d" unicode="d" horiz-adv-x="695" 
d="M593 723l1 -723h-76l-2 84q-97 -92 -198 -92q-66 0 -124.5 31.5t-98 98t-39.5 154.5q0 124 72 196t173 72q122 0 213 -107l-1 286h80zM321 473q-78 0 -131.5 -56.5t-53.5 -143.5q0 -92 59 -150.5t141 -58.5q99 1 178 93v207q-85 109 -193 109z" />
    <glyph glyph-name="e" unicode="e" horiz-adv-x="660" 
d="M344 552q86 -1 152 -44.5t95 -115.5t12 -153h-465q11 -86 73.5 -132.5t151.5 -45.5q115 1 194 80l42 -58q-94 -92 -238 -92q-126 -1 -215.5 74t-89.5 206q0 129 84.5 206t203.5 75zM138 306h388q8 71 -44.5 123t-137.5 53q-79 0 -137 -47t-69 -129z" />
    <glyph glyph-name="f" unicode="f" horiz-adv-x="405" 
d="M320 760q66 0 132 -36l-24 -58q-48 30 -99 29q-49 -1 -84 -32.5t-35 -98.5v-29h138v-70h-138v-465h-80v465h-82v70h82v28q0 99 56.5 148t133.5 49z" />
    <glyph glyph-name="g" unicode="g" horiz-adv-x="672" 
d="M303 544q119 0 202 -96l3 87h76v-519q0 -65 -23 -114t-61.5 -76t-82.5 -40t-92 -13q-108 0 -216 60l28 62q93 -52 181 -52q78 0 132 41.5t54 127.5v74q-77 -86 -187 -86q-108 0 -184.5 73.5t-76.5 202.5q0 124 72 196t175 72zM322 474q-81 0 -133.5 -55.5t-52.5 -143.5
q0 -91 57 -146.5t140 -55.5q98 0 171 79v231q-80 91 -182 91z" />
    <glyph glyph-name="h" unicode="h" horiz-adv-x="692" 
d="M184 726v-304q95 125 215 125q90 0 152.5 -61t62.5 -176v-310h-80v304q0 79 -44 124.5t-110 45.5q-105 0 -196 -130v-344h-80v726h80z" />
    <glyph glyph-name="i" unicode="i" horiz-adv-x="283" 
d="M141 741q21 0 36.5 -15t15.5 -36t-15.5 -35.5t-35.5 -14.5q-21 0 -36.5 14.5t-15.5 35.5t14.5 36t36.5 15zM181 0h-80v535h80v-535z" />
    <glyph glyph-name="j" unicode="j" horiz-adv-x="277" 
d="M143 736q20 0 34 -13.5t14 -32.5q0 -20 -14.5 -33t-33.5 -13q-20 0 -34.5 13.5t-14.5 32.5t14 32.5t35 13.5zM182 535v-563q0 -102 -58.5 -154t-137.5 -52q-63 0 -129 36l26 62q48 -28 99 -27q48 1 84 33.5t36 102.5v562h80z" />
    <glyph glyph-name="k" unicode="k" horiz-adv-x="618" 
d="M183 235l276 300h105l-198 -211l231 -324h-103l-182 265l-129 -137v-128h-79v724h79v-489z" />
    <glyph glyph-name="l" unicode="l" horiz-adv-x="287" 
d="M184 0h-80v724h80v-724z" />
    <glyph glyph-name="m" unicode="m" horiz-adv-x="1019" 
d="M750 550q79 0 135 -55t56 -151v-344h-80v333q0 67 -37.5 105.5t-91.5 38.5q-60 0 -106 -42.5t-72 -98.5v-336h-80v333q0 67 -37.5 105.5t-92.5 38.5q-53 0 -99.5 -41t-76.5 -96v-340h-80v535h77l1 -122q31 55 83 96t117 41q64 0 114.5 -39t63.5 -102q29 54 83 97.5
t123 43.5z" />
    <glyph glyph-name="n" unicode="n" horiz-adv-x="667" 
d="M381 547q92 0 150.5 -61.5t58.5 -170.5v-315h-81l1 308q0 78 -41 122.5t-109 44.5q-104 0 -192 -128v-347h-80v535h77l3 -113q96 125 213 125z" />
    <glyph glyph-name="o" unicode="o" horiz-adv-x="675" 
d="M338 550q117 0 199 -76.5t82 -203.5q0 -130 -83.5 -204t-197.5 -74q-116 0 -199 75t-83 204q0 122 81.5 200.5t200.5 78.5zM338 479q-85 0 -144 -57t-58 -152q0 -97 59.5 -152t142.5 -55q81 -1 141 54t60 153q0 100 -59.5 154.5t-141.5 54.5z" />
    <glyph glyph-name="p" unicode="p" horiz-adv-x="677" 
d="M165 535l3 -90q89 99 206 99q103 0 175 -71.5t72 -196.5q0 -134 -79 -209t-182 -75q-107 0 -194 83v-260h-78v720h77zM355 472q-108 0 -187 -97l-1 -231q81 -81 179 -81q82 0 138.5 57t56.5 152q0 92 -53.5 146t-132.5 54z" />
    <glyph glyph-name="q" unicode="q" horiz-adv-x="677" 
d="M589 535v-720h-78v262q-83 -85 -196 -85q-108 0 -183.5 72.5t-75.5 204.5q0 131 76 203t183 72q121 0 194 -99l3 90h77zM330 472q-80 0 -137 -54t-57 -148t56 -150.5t139 -56.5q96 0 179 79l-1 235q-70 95 -179 95z" />
    <glyph glyph-name="r" unicode="r" horiz-adv-x="409" 
d="M329 546q32 0 67 -15l-20 -69q-25 13 -53 13q-89 0 -155 -119v-356h-80v535h73l3 -101q30 56 74 84t91 28z" />
    <glyph glyph-name="s" unicode="s" horiz-adv-x="591" 
d="M297 551q97 1 195 -45l-21 -67q-83 44 -174 43q-59 0 -98.5 -25t-38.5 -68q0 -10 2.5 -18.5t8.5 -15.5t12.5 -12t18 -9.5t20 -7.5t24 -6l25.5 -5t29 -5t29 -5q43 -7 74 -16.5t62.5 -26.5t48.5 -46t17 -68q1 -80 -63.5 -120.5t-159.5 -40.5q-132 0 -249 72l31 63
q99 -66 217 -65q62 1 103.5 23.5t40.5 66.5q-1 47 -68 68q-26 9 -109 24q-36 7 -58.5 12.5t-51 16.5t-44.5 25.5t-28 38.5t-12 55q-1 79 61 121.5t156 42.5z" />
    <glyph glyph-name="t" unicode="t" horiz-adv-x="489" 
d="M225 535h185v-70h-185v-284q1 -60 32.5 -89.5t77.5 -30.5q51 -1 107 34l24 -64q-71 -42 -139 -41q-80 0 -131 51.5t-51 137.5v286h-113v70h113v165h80v-165z" />
    <glyph glyph-name="u" unicode="u" 
d="M576 0h-74l-4 93q-32 -40 -87.5 -75.5t-126.5 -35.5q-85 0 -143 58t-58 162v333h80v-330q0 -70 40.5 -110.5t102.5 -40.5q61 0 110.5 35.5t79.5 83.5v362h80v-535z" />
    <glyph glyph-name="v" unicode="v" horiz-adv-x="595" 
d="M299 100l191 435h88l-246 -535h-67l-247 535h87z" />
    <glyph glyph-name="w" unicode="w" horiz-adv-x="890" 
d="M687 0h-87l-155 421l-154 -421h-85l-180 535h82l141 -428l160 428h73l161 -433l139 433h82z" />
    <glyph glyph-name="x" unicode="x" horiz-adv-x="619" 
d="M494 0l-191 227l-191 -227h-99l241 286l-210 249h105l160 -192l161 192h99l-209 -250l239 -285h-105z" />
    <glyph glyph-name="y" unicode="y" horiz-adv-x="638" 
d="M637 535l-408 -837h-92l146 296l-266 541h93l218 -453l217 453h92z" />
    <glyph glyph-name="z" unicode="z" horiz-adv-x="574" 
d="M508 482l-342 -412h358v-70h-470l1 48l347 417h-330v70h436v-53z" />
    <glyph glyph-name="braceleft" unicode="{" horiz-adv-x="313" 
d="M257 769v-53q-58 2 -58 -55v-244q0 -79 -85 -103v-4q85 -27 85 -104v-240q0 -57 58 -55v-54h-51q-41 0 -65.5 22.5t-24.5 68.5v248q0 74 -82 88l-1 56q83 11 83 87v252q0 46 24.5 68t65.5 22h51z" />
    <glyph glyph-name="bar" unicode="|" horiz-adv-x="377" 
d="M227 -91h-77v842h77v-842z" />
    <glyph glyph-name="braceright" unicode="}" horiz-adv-x="313" 
d="M27 769h50q41 0 65.5 -22t24.5 -68v-252q0 -76 84 -87l-1 -56q-83 -13 -83 -88v-248q0 -46 -24.5 -68.5t-65.5 -22.5h-50v54q57 -2 57 55v240q0 78 86 104v4q-86 23 -86 103v244q0 57 -57 55v53z" />
    <glyph glyph-name="asciitilde" unicode="~" horiz-adv-x="669" 
d="M221 483q33 1 65 -15.5t53.5 -36.5t51 -36.5t58.5 -15.5q37 1 67.5 29.5t43.5 62.5l51 -25q-27 -58 -62.5 -92.5t-92.5 -37.5q-37 -2 -71.5 14t-56.5 36t-50.5 37t-54.5 17q-75 0 -118 -90l-48 23q57 126 164 130z" />
    <glyph glyph-name="exclamdown" unicode="&#xa1;" horiz-adv-x="333" 
d="M166 521q-21 0 -35.5 15t-14.5 35q0 21 15 35.5t35 14.5t35 -14.5t15 -35.5q0 -20 -15 -35t-35 -15zM124 -87l9 536h70l11 -536h-90z" />
    <glyph glyph-name="cent" unicode="&#xa2;" horiz-adv-x="558" 
d="M473 222l34 -62q-86 -66 -192 -66l-11 1l-11 -73l-58 10l12 70q-83 19 -137 80t-54 157q-1 115 75 182t184 68h3l13 72l57 -9l-12 -68q65 -12 129 -52l-33 -62q-75 48 -153 48q-81 0 -136 -50t-55 -129q0 -80 57 -126t134 -46q88 0 154 55z" />
    <glyph glyph-name="sterling" unicode="&#xa3;" horiz-adv-x="676" 
d="M623 0h-478q-64 0 -130 36l29 67q47 -29 94 -28q48 2 80 32t32 94v129h-92v75h91v114q0 102 55 151.5t132 49.5q69 0 135 -36l-26 -69q-51 31 -103 29q-45 -2 -76 -34t-31 -99v-106h110v-75h-110v-128q0 -91 -50 -124h338v-78z" />
    <glyph glyph-name="currency" unicode="&#xa4;" horiz-adv-x="555" 
d="M437 362q0 -58 -32 -104l64 -63l-38 -41l-66 65q-46 -33 -106 -33q-62 0 -106 32l-65 -64l-38 42l62 61q-32 46 -32 105t35 107l-70 70l38 40l72 -73q45 31 103 31q61 0 104 -31l72 73l39 -39l-71 -72q35 -46 35 -106zM131 362q0 -54 37.5 -91t90.5 -37t90 37t37 91
t-37 90.5t-90 36.5t-90.5 -36.5t-37.5 -90.5z" />
    <glyph glyph-name="yen" unicode="&#xa5;" horiz-adv-x="757" 
d="M426 280h179v-64h-181v-216h-92v216h-190v64h188l-287 420h103l232 -344l234 344h103z" />
    <glyph glyph-name="brokenbar" unicode="&#xa6;" horiz-adv-x="378" 
d="M228 363h-78v388h78v-388zM228 -91h-78v374h78v-374z" />
    <glyph glyph-name="section" unicode="&#xa7;" horiz-adv-x="582" 
d="M518 104q1 -73 -62.5 -111t-152.5 -38q-118 0 -227 64l30 63q97 -58 199 -57q57 1 95.5 21.5t37.5 56.5q0 13 -5.5 24t-19.5 19l-24.5 13.5t-35 11l-36.5 8t-43 8.5q-41 8 -68.5 16t-56.5 23t-44 39.5t-16 58.5q0 82 81 122q-82 37 -83 114q-1 69 58 110.5t153 41.5
q90 -1 182 -40l-21 -67q-86 37 -162 37q-59 -2 -94.5 -23.5t-35.5 -58.5q0 -19 10.5 -32t34 -21.5t41.5 -12.5t55 -10l18 -3q189 -31 190 -142q1 -78 -86 -116q88 -39 88 -119zM170 329q0 -24 20.5 -39.5t43.5 -21t68 -13.5q55 2 95 22.5t39 56.5q-1 35 -36.5 51.5
t-105.5 29.5q-56 -2 -90 -25.5t-34 -60.5z" />
    <glyph glyph-name="dieresis" unicode="&#xa8;" horiz-adv-x="627" 
d="M390 881q18 0 30.5 -12t12.5 -30t-13.5 -30.5t-29.5 -12.5q-17 0 -30 12.5t-13 30.5t12.5 30t30.5 12zM533 881q18 0 30.5 -12t12.5 -30t-13.5 -30.5t-29.5 -12.5q-17 0 -30 12.5t-13 30.5t12.5 30t30.5 12z" />
    <glyph glyph-name="copyright" unicode="&#xa9;" horiz-adv-x="781" 
d="M392 709q148 0 253.5 -104.5t105.5 -252.5t-105.5 -254.5t-253.5 -106.5q-150 0 -256 106t-106 255q0 148 106.5 252.5t255.5 104.5zM392 658q-128 0 -218.5 -90t-90.5 -216q0 -127 91 -218t217 -91q125 0 216 91.5t91 218.5q0 125 -90.5 215t-215.5 90zM389 555
q77 0 153 -51l-26 -43q-57 42 -125 42t-112.5 -43t-43.5 -111q0 -70 46.5 -110t110.5 -40q76 0 126 48l27 -43q-63 -58 -153 -58q-85 0 -147 54t-63 149q-1 94 60.5 150t146.5 56z" />
    <glyph glyph-name="ordfeminine" unicode="&#xaa;" horiz-adv-x="476" 
d="M225 714q74 0 117.5 -45t43.5 -118v-195h-57v46q-71 -53 -139 -53q-63 0 -103 33.5t-40 88.5q0 58 46.5 88t108.5 30q54 0 124 -40q2 57 -26.5 88t-81.5 31q-52 0 -110 -30l-19 41q65 35 136 35zM210 550q-44 0 -74.5 -20.5t-30.5 -55.5q0 -37 28 -58.5t69 -21.5
q62 0 123 48v68q-60 40 -115 40zM399 227h-330v60h330v-60z" />
    <glyph glyph-name="guillemotleft" unicode="&#xab;" horiz-adv-x="626" 
d="M130 271l237 -271h-86l-237 271l236 264h85zM357 271l237 -271h-85l-237 271l235 264h85z" />
    <glyph glyph-name="logicalnot" unicode="&#xac;" horiz-adv-x="711" 
d="M647 91h-54v281h-530v50h584v-331z" />
    <glyph glyph-name="registered" unicode="&#xae;" horiz-adv-x="777" 
d="M390 709q148 0 252.5 -104.5t104.5 -252.5q0 -149 -104.5 -255t-252.5 -106t-254 106t-106 255q0 148 105.5 252.5t254.5 104.5zM390 658q-128 0 -218.5 -90t-90.5 -216q0 -127 91 -218t217 -91t216.5 91t90.5 219q0 125 -90.5 215t-215.5 90zM378 561q80 0 133 -41.5
t54 -111.5q0 -45 -23 -79t-62 -51l71 -140h-57l-60 121q-23 -6 -133 -6v-115h-52v418q61 5 129 5zM382 516q-51 0 -83 -1v-216q38 1 82 1q62 -1 98.5 28t36.5 78q-1 50 -39 80t-95 30z" />
    <glyph glyph-name="macron" unicode="&#xaf;" horiz-adv-x="626" 
d="M647 787h-335v58h335v-58z" />
    <glyph glyph-name="degree" unicode="&#xb0;" horiz-adv-x="408" 
d="M207 801q66 0 109 -44.5t43 -106.5q0 -64 -43 -107.5t-109 -43.5q-65 0 -109.5 43t-44.5 108q0 63 44.5 107t109.5 44zM208 752q-44 0 -74 -30t-30 -73t29.5 -73.5t74.5 -30.5q44 0 73.5 30.5t29.5 73.5t-29.5 73t-73.5 30z" />
    <glyph glyph-name="plusminus" unicode="&#xb1;" horiz-adv-x="588" 
d="M326 486h149v-59h-149v-164h-64v164h-149v59h149v165h64v-165zM480 113h-372v60h372v-60z" />
    <glyph glyph-name="twosuperior" unicode="&#xb2;" horiz-adv-x="414" 
d="M211 686q48 0 84.5 -31t36.5 -79q0 -60 -66 -115l-116 -94h191v-48h-281v34l158 133q30 26 43.5 45.5t13.5 43.5q0 27 -19.5 45t-47.5 18q-31 0 -54 -20.5t-30 -55.5l-51 14q12 52 51 81t87 29z" />
    <glyph glyph-name="threesuperior" unicode="&#xb3;" horiz-adv-x="410" 
d="M198 701q53 0 89.5 -27t36.5 -70q0 -54 -57 -80q31 -9 52 -34t21 -57q0 -49 -42 -77.5t-100 -28.5q-75 0 -144 47l22 40q57 -40 120 -40q40 0 66 17t26 46q0 27 -24.5 45.5t-59.5 18.5h-64v41h63q28 0 49 16.5t21 40.5t-21.5 40.5t-57.5 16.5q-49 0 -98 -32l-21 39
q59 38 123 38z" />
    <glyph glyph-name="acute" unicode="&#xb4;" horiz-adv-x="708" 
d="M543 916l-80 -137l-61 26l61 125z" />
    <glyph glyph-name="uni00B5" unicode="&#xb5;" horiz-adv-x="642" 
d="M576 535v-535h-74l-4 93q-32 -40 -87 -75t-127 -35q-73 0 -126 41v-224h-75v384v18v333v1h75v-1h5v-330q0 -70 40.5 -110.5t102.5 -40.5q61 0 110.5 35.5t79.5 83.5v362h80z" />
    <glyph glyph-name="paragraph" unicode="&#xb6;" horiz-adv-x="835" 
d="M650 -90v778h-68v-778h-83v334q-122 0 -158 1q-140 2 -217 67.5t-76 186.5q1 131 85.5 192.5t229.5 61.5l107 -1h249l1 -842h-70z" />
    <glyph glyph-name="periodcentered" unicode="&#xb7;" horiz-adv-x="220" 
d="M110 428q21 0 36 -15t15 -36q0 -22 -15.5 -36.5t-35.5 -14.5q-21 0 -36 14.5t-15 36.5q0 21 14.5 36t36.5 15z" />
    <glyph glyph-name="cedilla" unicode="&#xb8;" horiz-adv-x="634" 
d="M276 -131l-55 19l66 112h50z" />
    <glyph glyph-name="onesuperior" unicode="&#xb9;" horiz-adv-x="298" 
d="M172 328h-54v312l-33 -27l-26 39l63 47h50v-371z" />
    <glyph glyph-name="ordmasculine" unicode="&#xba;" horiz-adv-x="497" 
d="M249 718q80 0 136.5 -51.5t56.5 -136.5q0 -90 -57 -138.5t-136 -48.5q-81 0 -137 50.5t-56 136.5q0 83 55 135.5t138 52.5zM249 668q-56 0 -96 -38t-40 -99t40.5 -99t95.5 -38q56 -1 96 36t40 100q0 64 -40.5 101t-95.5 37zM435 227h-372v60h372v-60z" />
    <glyph glyph-name="guillemotright" unicode="&#xbb;" horiz-adv-x="647" 
d="M102 535l236 -264l-237 -271h-86l237 271l-235 264h85zM330 535l235 -264l-237 -271h-85l237 271l-235 264h85z" />
    <glyph glyph-name="onequarter" unicode="&#xbc;" horiz-adv-x="903" 
d="M217 0h-72l454 700h73zM228 328h-53v312l-33 -27l-26 39l62 47h50v-371zM733 124h55v-43h-55v-81h-53v81h-203v37l199 254h57v-248zM535 124h146v180z" />
    <glyph glyph-name="onehalf" unicode="&#xbd;" horiz-adv-x="939" 
d="M216 0h-72l455 700h72zM242 328h-53v312l-33 -27l-26 39l62 47h50v-371zM693 368q48 0 84.5 -31t36.5 -79q0 -60 -66 -115l-116 -94h191v-48h-281v34l158 133q30 26 43.5 45.5t13.5 43.5q0 27 -19.5 45t-47.5 18q-31 0 -54 -20.5t-30 -55.5l-51 14q12 52 51 81t87 29z
" />
    <glyph glyph-name="threequarters" unicode="&#xbe;" horiz-adv-x="987" 
d="M260 701q53 0 89.5 -27t36.5 -70q0 -54 -57 -80q31 -9 52 -34t21 -57q0 -49 -42 -77.5t-100 -28.5q-75 0 -144 47l22 40q57 -40 120 -40q40 0 66 17t26 46q0 27 -24.5 45.5t-59.5 18.5h-64v41h63q28 0 49 16.5t21 40.5t-21.5 40.5t-57.5 16.5q-49 0 -98 -32l-21 39
q59 38 123 38zM319 0h-72l455 700h72zM803 124h55v-43h-55v-81h-52v81h-204v37l200 254h56v-248zM606 124h145v180z" />
    <glyph glyph-name="questiondown" unicode="&#xbf;" horiz-adv-x="683" 
d="M345 527q-20 0 -35 15t-15 35q0 21 15.5 35.5t34.5 14.5q20 0 35 -14.5t15 -35.5q0 -20 -14.5 -35t-35.5 -15zM331 -88q-98 -10 -171 41t-73 142q0 44 16 76.5t39.5 50.5l51.5 39.5t52 42.5t40.5 61t17.5 93l84 1q0 -55 -12 -98t-31 -70t-42 -48t-46 -36.5t-42 -30.5
t-31 -35.5t-12 -45.5q0 -54 44 -84t105 -23q104 12 148 126l71 -34q-28 -73 -82.5 -116.5t-126.5 -51.5z" />
    <glyph glyph-name="Agrave" unicode="&#xc0;" horiz-adv-x="754" 
d="M390 779l-80 137l80 14l61 -125zM570 158h-386l-67 -158h-94l313 700h80l316 -700h-93zM537 236l-161 372l-158 -372h319z" />
    <glyph glyph-name="Aacute" unicode="&#xc1;" horiz-adv-x="754" 
d="M390 779l-61 26l61 125l80 -14zM570 158h-386l-67 -158h-94l313 700h80l316 -700h-93zM537 236l-161 372l-158 -372h319z" />
    <glyph glyph-name="Acircumflex" unicode="&#xc2;" horiz-adv-x="754" 
d="M306 775l-46 30l87 113h62l86 -113l-46 -30l-71 102zM570 158h-386l-67 -158h-94l313 700h80l316 -700h-93zM537 236l-161 372l-158 -372h319z" />
    <glyph glyph-name="Atilde" unicode="&#xc3;" horiz-adv-x="754" 
d="M306 837q-43 3 -60 -48l-43 22q8 34 35.5 57t67.5 22q37 -1 87 -30.5t73 -29.5q40 0 59 48l43 -19q-9 -36 -35.5 -58.5t-63.5 -22.5q-35 0 -87 29t-76 30zM570 158h-386l-67 -158h-94l313 700h80l316 -700h-93zM537 236l-161 372l-158 -372h319z" />
    <glyph glyph-name="Adieresis" unicode="&#xc4;" horiz-adv-x="754" 
d="M308 796q-17 0 -30 12.5t-13 30.5t12.5 30t30.5 12t30.5 -12t12.5 -30t-13.5 -30.5t-29.5 -12.5zM451 796q-17 0 -30 12.5t-13 30.5t12.5 30t30.5 12t30.5 -12t12.5 -30t-13.5 -30.5t-29.5 -12.5zM570 158h-386l-67 -158h-94l313 700h80l316 -700h-93zM537 236l-161 372
l-158 -372h319z" />
    <glyph glyph-name="Aring" unicode="&#xc5;" horiz-adv-x="754" 
d="M377 752q-53 0 -88 32t-35 83q0 50 35.5 83t87.5 33q51 0 86.5 -33t35.5 -83q0 -51 -35 -83t-87 -32zM376 939q-30 0 -52 -21t-22 -51t22.5 -51t52.5 -21t52 21t22 51t-22.5 51t-52.5 21zM570 158h-386l-67 -158h-94l313 700h80l316 -700h-93zM537 236l-161 372
l-158 -372h319z" />
    <glyph glyph-name="AE" unicode="&#xc6;" horiz-adv-x="1002" 
d="M948 78v-78h-495v272h-185l-146 -272h-95l388 700h508v-77h-385v-232h295v-73h-295v-240h410zM453 350v275l-14 -34l-130 -241h144z" />
    <glyph glyph-name="Ccedilla" unicode="&#xc7;" horiz-adv-x="724" 
d="M434 710q114 2 219 -47l-29 -72q-90 45 -183 41q-122 -4 -207 -81.5t-85 -201.5q0 -127 88.5 -204t213.5 -77q94 0 178 47l31 -71q-102 -53 -209 -54q-162 -2 -274.5 98.5t-112.5 259.5q0 155 106 256t264 106zM406 -141l-55 19l66 112h51z" />
    <glyph glyph-name="Egrave" unicode="&#xc8;" 
d="M380 788l-61 -26l-80 137l80 14zM586 623h-385v-232h295v-73h-295v-240h410v-78h-495v700h470v-77z" />
    <glyph glyph-name="Eacute" unicode="&#xc9;" 
d="M427 898l-81 -137l-61 26l61 125zM586 623h-385v-232h295v-73h-295v-240h410v-78h-495v700h470v-77z" />
    <glyph glyph-name="Ecircumflex" unicode="&#xca;" 
d="M433 772l-70 101l-72 -102l-46 31l86 113h62l87 -113zM586 623h-385v-232h295v-73h-295v-240h410v-78h-495v700h470v-77z" />
    <glyph glyph-name="Edieresis" unicode="&#xcb;" 
d="M287 857q18 0 30.5 -12t12.5 -30t-13.5 -30.5t-29.5 -12.5q-17 0 -30 12.5t-13 30.5t12.5 30t30.5 12zM430 857q18 0 30.5 -12t12.5 -30t-13.5 -30.5t-29.5 -12.5q-17 0 -30 12.5t-13 30.5t12.5 30t30.5 12zM586 623h-385v-232h295v-73h-295v-240h410v-78h-495v700h470
v-77z" />
    <glyph glyph-name="Igrave" unicode="&#xcc;" horiz-adv-x="314" 
d="M197 789l-61 -26l-80 137l80 14zM199 0h-83v700h83v-700z" />
    <glyph glyph-name="Iacute" unicode="&#xcd;" horiz-adv-x="314" 
d="M242 894l-81 -137l-61 26l61 125zM199 0h-83v700h83v-700z" />
    <glyph glyph-name="Icircumflex" unicode="&#xce;" horiz-adv-x="314" 
d="M231 770l-70 102l-72 -102l-46 30l86 113h62l87 -113zM199 0h-83v700h83v-700z" />
    <glyph glyph-name="Idieresis" unicode="&#xcf;" horiz-adv-x="314" 
d="M88 860q18 0 30.5 -12t12.5 -30t-13.5 -30.5t-29.5 -12.5q-17 0 -30 12.5t-13 30.5t12.5 30t30.5 12zM231 860q18 0 30.5 -12t12.5 -30t-13.5 -30.5t-29.5 -12.5q-17 0 -30 12.5t-13 30.5t12.5 30t30.5 12zM199 0h-83v700h83v-700z" />
    <glyph glyph-name="Eth" unicode="&#xd0;" horiz-adv-x="787" 
d="M279 701q95 0 172.5 -19t140 -59t97 -108.5t34.5 -160.5q0 -173 -117 -264.5t-324 -91.5q-122 0 -159 2v332h-91v54h91v314q27 1 156 1zM296 76q158 2 249.5 71t91.5 205q0 75 -29 129.5t-79.5 84.5t-109 43.5t-128.5 13.5h-84v-237h160v-54h-160v-255q15 -1 89 -1z" />
    <glyph glyph-name="Ntilde" unicode="&#xd1;" horiz-adv-x="844" 
d="M355 890q37 -1 87 -30.5t73 -29.5q40 0 59 48l43 -19q-9 -36 -35.5 -58.5t-63.5 -22.5q-35 0 -87 29t-76 30q-43 3 -60 -48l-43 22q8 34 35.5 57t67.5 22zM729 0h-78l-450 567v-567h-85v700h85l442 -559v559h86v-700z" />
    <glyph glyph-name="Ograve" unicode="&#xd2;" horiz-adv-x="863" 
d="M476 805l-61 -26l-80 137l80 14zM432 711q159 0 263 -101.5t104 -262.5q0 -157 -101 -261.5t-265 -104.5q-162 0 -265.5 103t-103.5 263q0 161 104.5 262.5t263.5 101.5zM431 634q-124 0 -202.5 -79.5t-78.5 -207.5q0 -127 78 -207.5t205 -80.5t203.5 82t76.5 206
q0 127 -78.5 207t-203.5 80z" />
    <glyph glyph-name="Oacute" unicode="&#xd3;" horiz-adv-x="863" 
d="M498 902l-81 -137l-61 26l61 125zM432 711q159 0 263 -101.5t104 -262.5q0 -157 -101 -261.5t-265 -104.5q-162 0 -265.5 103t-103.5 263q0 161 104.5 262.5t263.5 101.5zM431 634q-124 0 -202.5 -79.5t-78.5 -207.5q0 -127 78 -207.5t205 -80.5t203.5 82t76.5 206
q0 127 -78.5 207t-203.5 80z" />
    <glyph glyph-name="Ocircumflex" unicode="&#xd4;" horiz-adv-x="863" 
d="M499 770l-70 102l-72 -102l-46 30l86 113h62l87 -113zM432 711q159 0 263 -101.5t104 -262.5q0 -157 -101 -261.5t-265 -104.5q-162 0 -265.5 103t-103.5 263q0 161 104.5 262.5t263.5 101.5zM431 634q-124 0 -202.5 -79.5t-78.5 -207.5q0 -127 78 -207.5t205 -80.5
t203.5 82t76.5 206q0 127 -78.5 207t-203.5 80z" />
    <glyph glyph-name="Otilde" unicode="&#xd5;" horiz-adv-x="863" 
d="M353 890q37 -1 87 -30.5t73 -29.5q39 0 58 48l43 -19q-9 -36 -35.5 -58.5t-63.5 -22.5q-35 0 -87 29t-76 30q-43 3 -60 -48l-43 22q9 34 36.5 57t67.5 22zM432 711q159 0 263 -101.5t104 -262.5q0 -157 -101 -261.5t-265 -104.5q-162 0 -265.5 103t-103.5 263
q0 161 104.5 262.5t263.5 101.5zM431 634q-124 0 -202.5 -79.5t-78.5 -207.5q0 -127 78 -207.5t205 -80.5t203.5 82t76.5 206q0 127 -78.5 207t-203.5 80z" />
    <glyph glyph-name="Odieresis" unicode="&#xd6;" horiz-adv-x="863" 
d="M358 874q17 0 29.5 -12t12.5 -30t-13 -30.5t-29 -12.5q-17 0 -30 12.5t-13 30.5t12.5 30t30.5 12zM501 874q17 0 29.5 -12t12.5 -30t-13 -30.5t-29 -12.5q-17 0 -30 12.5t-13 30.5t12.5 30t30.5 12zM432 711q159 0 263 -101.5t104 -262.5q0 -157 -101 -261.5t-265 -104.5
q-162 0 -265.5 103t-103.5 263q0 161 104.5 262.5t263.5 101.5zM431 634q-124 0 -202.5 -79.5t-78.5 -207.5q0 -127 78 -207.5t205 -80.5t203.5 82t76.5 206q0 127 -78.5 207t-203.5 80z" />
    <glyph glyph-name="multiply" unicode="&#xd7;" horiz-adv-x="756" 
d="M427 273l230 -232l-48 -50l-231 233l-230 -233l-48 50l229 232l-229 232l48 50l230 -233l231 233l48 -50z" />
    <glyph glyph-name="Oslash" unicode="&#xd8;" horiz-adv-x="874" 
d="M670 742l-41 -73q83 -47 131.5 -131.5t48.5 -189.5q0 -159 -103.5 -265.5t-267.5 -106.5q-98 0 -178 40l-42 -74l-51 29l43 76q-69 50 -107.5 128.5t-38.5 172.5q0 162 107 266t267 104q71 0 138 -24l44 76zM151 348q0 -143 101 -228l284 502q-48 16 -98 16
q-124 0 -205.5 -82t-81.5 -208zM438 55q127 0 206 84.5t79 208.5q0 80 -36 146t-99 103l-287 -509q60 -31 137 -33z" />
    <glyph glyph-name="Ugrave" unicode="&#xd9;" horiz-adv-x="815" 
d="M445 783l-61 -26l-81 137l81 14zM717 700v-394q0 -152 -87 -238.5t-221 -86.5q-132 0 -221.5 85t-89.5 238v396h85v-398q0 -112 61 -177.5t163 -65.5t163.5 66t61.5 178v397h85z" />
    <glyph glyph-name="Uacute" unicode="&#xda;" horiz-adv-x="815" 
d="M480 898l-80 -137l-61 26l61 125zM717 700v-394q0 -152 -87 -238.5t-221 -86.5q-132 0 -221.5 85t-89.5 238v396h85v-398q0 -112 61 -177.5t163 -65.5t163.5 66t61.5 178v397h85z" />
    <glyph glyph-name="Ucircumflex" unicode="&#xdb;" horiz-adv-x="815" 
d="M471 769l-70 101l-72 -102l-46 31l86 113h62l87 -113zM717 700v-394q0 -152 -87 -238.5t-221 -86.5q-132 0 -221.5 85t-89.5 238v396h85v-398q0 -112 61 -177.5t163 -65.5t163.5 66t61.5 178v397h85z" />
    <glyph glyph-name="Udieresis" unicode="&#xdc;" horiz-adv-x="815" 
d="M328 856q17 0 29.5 -12t12.5 -30t-13 -30.5t-29 -12.5q-17 0 -30 12.5t-13 30.5t12.5 30t30.5 12zM471 856q17 0 29.5 -12t12.5 -30t-13 -30.5t-29 -12.5q-17 0 -30 12.5t-13 30.5t12.5 30t30.5 12zM717 700v-394q0 -152 -87 -238.5t-221 -86.5q-132 0 -221.5 85
t-89.5 238v396h85v-398q0 -112 61 -177.5t163 -65.5t163.5 66t61.5 178v397h85z" />
    <glyph glyph-name="Yacute" unicode="&#xdd;" horiz-adv-x="756" 
d="M471 916l-80 -137l-61 26l61 125zM424 276v-276h-92v278l-289 422h103l232 -344l234 344h103z" />
    <glyph glyph-name="Thorn" unicode="&#xde;" horiz-adv-x="684" 
d="M199 615h148q131 0 214.5 -64.5t84.5 -182.5t-81 -187.5t-206 -71.5q-110 -2 -160 -2v-107h-83v700h83v-85zM199 538v-356q34 0 79.5 0.5t70.5 0.5q96 1 153 51.5t57 129.5q-1 79 -59.5 126t-148.5 47q-23 0 -71.5 0.5t-80.5 0.5z" />
    <glyph glyph-name="germandbls" unicode="&#xdf;" horiz-adv-x="714" 
d="M289 741q93 0 160 -49t67 -129q0 -42 -23 -70t-50 -39t-50 -26t-23 -34q0 -30 25.5 -42t81.5 -21q107 -18 164 -57.5t58 -114.5q1 -83 -62 -126.5t-158 -44.5q-106 0 -210 59l27 65q89 -54 186 -53q59 1 98.5 25.5t38.5 71.5q0 26 -14 44t-40 29t-52.5 18t-64.5 14
q-8 1 -12 2q-67 13 -106 41t-39 90q0 38 23 64t50.5 37.5t50.5 30.5t23 44q0 42 -42 72.5t-98 29.5q-48 0 -84 -31t-36 -91v-550h-80v550q0 95 57 143t134 48z" />
    <glyph glyph-name="agrave" unicode="&#xe0;" horiz-adv-x="667" 
d="M437 660l-61 -26l-80 137l80 14zM580 535v-535h-75l-2 81q-30 -39 -77.5 -64t-106.5 -25q-106 0 -184.5 78.5t-78.5 205.5q0 119 74 193.5t177 74.5q121 0 195 -101l1 92h77zM320 476q-78 0 -133 -57t-55 -145q0 -93 58 -152t140 -59q99 0 172 87v222q-76 104 -182 104z
" />
    <glyph glyph-name="aacute" unicode="&#xe1;" horiz-adv-x="667" 
d="M456 771l-80 -137l-61 26l61 125zM580 535v-535h-75l-2 81q-30 -39 -77.5 -64t-106.5 -25q-106 0 -184.5 78.5t-78.5 205.5q0 119 74 193.5t177 74.5q121 0 195 -101l1 92h77zM320 476q-78 0 -133 -57t-55 -145q0 -93 58 -152t140 -59q99 0 172 87v222q-76 104 -182 104z
" />
    <glyph glyph-name="acircumflex" unicode="&#xe2;" horiz-adv-x="667" 
d="M435 630l-71 102l-72 -102l-46 30l87 113h62l86 -113zM580 535v-535h-75l-2 81q-30 -39 -77.5 -64t-106.5 -25q-106 0 -184.5 78.5t-78.5 205.5q0 119 74 193.5t177 74.5q121 0 195 -101l1 92h77zM320 476q-78 0 -133 -57t-55 -145q0 -93 58 -152t140 -59q99 0 172 87
v222q-76 104 -182 104z" />
    <glyph glyph-name="atilde" unicode="&#xe3;" horiz-adv-x="667" 
d="M292 745q37 -1 87 -30.5t73 -29.5q40 0 59 48l43 -19q-9 -36 -35.5 -58.5t-63.5 -22.5q-35 0 -87 29t-76 30q-43 3 -60 -48l-43 22q8 34 35.5 57t67.5 22zM580 535v-535h-75l-2 81q-30 -39 -77.5 -64t-106.5 -25q-106 0 -184.5 78.5t-78.5 205.5q0 119 74 193.5t177 74.5
q121 0 195 -101l1 92h77zM320 476q-78 0 -133 -57t-55 -145q0 -93 58 -152t140 -59q99 0 172 87v222q-76 104 -182 104z" />
    <glyph glyph-name="adieresis" unicode="&#xe4;" horiz-adv-x="667" 
d="M294 736q18 0 30.5 -12t12.5 -30t-13.5 -30.5t-29.5 -12.5q-17 0 -30 12.5t-13 30.5t12.5 30t30.5 12zM437 736q18 0 30.5 -12t12.5 -30t-13.5 -30.5t-29.5 -12.5q-17 0 -30 12.5t-13 30.5t12.5 30t30.5 12zM580 535v-535h-75l-2 81q-30 -39 -77.5 -64t-106.5 -25
q-106 0 -184.5 78.5t-78.5 205.5q0 119 74 193.5t177 74.5q121 0 195 -101l1 92h77zM320 476q-78 0 -133 -57t-55 -145q0 -93 58 -152t140 -59q99 0 172 87v222q-76 104 -182 104z" />
    <glyph glyph-name="aring" unicode="&#xe5;" horiz-adv-x="667" 
d="M363 838q51 0 86.5 -33t35.5 -83q0 -51 -35 -83t-87 -32q-53 0 -88 32t-35 83q0 50 35.5 83t87.5 33zM362 794q-30 0 -52 -21t-22 -51t22.5 -51t52.5 -21t52 21t22 51t-22.5 51t-52.5 21zM580 535v-535h-75l-2 81q-30 -39 -77.5 -64t-106.5 -25q-106 0 -184.5 78.5
t-78.5 205.5q0 119 74 193.5t177 74.5q121 0 195 -101l1 92h77zM320 476q-78 0 -133 -57t-55 -145q0 -93 58 -152t140 -59q99 0 172 87v222q-76 104 -182 104z" />
    <glyph glyph-name="ae" unicode="&#xe6;" horiz-adv-x="1113" 
d="M791 552q132 -1 209 -95t50 -218h-464q11 -86 73.5 -132.5t150.5 -45.5q114 1 195 80l41 -58q-38 -37 -98.5 -64t-138.5 -28q-87 0 -159.5 36.5t-111.5 104.5q-35 -66 -93 -103t-127 -37q-106 0 -184.5 78.5t-78.5 204.5q0 120 75 194.5t181 74.5q70 0 129.5 -35
t95.5 -101q36 69 105 107t150 37zM586 306h388q8 71 -44.5 123t-137.5 53q-79 0 -137 -47t-69 -129zM501 175v177q-23 57 -72.5 90.5t-108.5 33.5q-79 0 -134 -57t-55 -145q0 -93 58 -152t140 -59q58 0 103 32t69 80z" />
    <glyph glyph-name="ccedilla" unicode="&#xe7;" horiz-adv-x="608" 
d="M518 129l39 -56q-81 -73 -190 -81l-57 -121l-55 19l61 103q-108 9 -184 81.5t-76 194.5q0 87 42.5 152t108.5 96.5t142 32.5q112 0 203 -69l-37 -62q-70 61 -162 61q-93 0 -155 -60t-62 -151q-1 -93 62.5 -150.5t152.5 -57.5q95 0 167 68z" />
    <glyph glyph-name="egrave" unicode="&#xe8;" horiz-adv-x="660" 
d="M333 631l-80 137l80 14l61 -125zM344 552q86 -1 152 -44.5t95 -115.5t12 -153h-465q11 -86 73.5 -132.5t151.5 -45.5q115 1 194 80l42 -58q-94 -92 -238 -92q-126 -1 -215.5 74t-89.5 206q0 129 84.5 206t203.5 75zM138 306h388q8 71 -44.5 123t-137.5 53q-79 0 -137 -47
t-69 -129z" />
    <glyph glyph-name="eacute" unicode="&#xe9;" horiz-adv-x="660" 
d="M365 626l-61 26l61 125l80 -14zM344 552q86 -1 152 -44.5t95 -115.5t12 -153h-465q11 -86 73.5 -132.5t151.5 -45.5q115 1 194 80l42 -58q-94 -92 -238 -92q-126 -1 -215.5 74t-89.5 206q0 129 84.5 206t203.5 75zM138 306h388q8 71 -44.5 123t-137.5 53q-79 0 -137 -47
t-69 -129z" />
    <glyph glyph-name="ecircumflex" unicode="&#xea;" horiz-adv-x="660" 
d="M268 637l-46 31l86 113h62l87 -113l-47 -30l-70 101zM344 552q86 -1 152 -44.5t95 -115.5t12 -153h-465q11 -86 73.5 -132.5t151.5 -45.5q115 1 194 80l42 -58q-94 -92 -238 -92q-126 -1 -215.5 74t-89.5 206q0 129 84.5 206t203.5 75zM138 306h388q8 71 -44.5 123
t-137.5 53q-79 0 -137 -47t-69 -129z" />
    <glyph glyph-name="edieresis" unicode="&#xeb;" horiz-adv-x="660" 
d="M274 644q-17 0 -30 12.5t-13 30.5t12.5 30t30.5 12t30.5 -12t12.5 -30t-13.5 -30.5t-29.5 -12.5zM417 644q-17 0 -30 12.5t-13 30.5t12.5 30t30.5 12t30.5 -12t12.5 -30t-13.5 -30.5t-29.5 -12.5zM344 552q86 -1 152 -44.5t95 -115.5t12 -153h-465q11 -86 73.5 -132.5
t151.5 -45.5q115 1 194 80l42 -58q-94 -92 -238 -92q-126 -1 -215.5 74t-89.5 206q0 129 84.5 206t203.5 75zM138 306h388q8 71 -44.5 123t-137.5 53q-79 0 -137 -47t-69 -129z" />
    <glyph glyph-name="igrave" unicode="&#xec;" horiz-adv-x="260" 
d="M206 640l-61 -26l-80 137l80 14zM170 0h-80v535h80v-535z" />
    <glyph glyph-name="iacute" unicode="&#xed;" horiz-adv-x="260" 
d="M225 751l-80 -137l-61 26l61 125zM170 0h-80v535h80v-535z" />
    <glyph glyph-name="icircumflex" unicode="&#xee;" horiz-adv-x="266" 
d="M200 637l-70 102l-72 -102l-46 30l86 113h62l87 -113zM170 0h-80v535h80v-535z" />
    <glyph glyph-name="idieresis" unicode="&#xef;" horiz-adv-x="260" 
d="M63 716q18 0 30.5 -12t12.5 -30t-13.5 -30.5t-29.5 -12.5q-17 0 -30 12.5t-13 30.5t12.5 30t30.5 12zM206 716q18 0 30.5 -12t12.5 -30t-13.5 -30.5t-29.5 -12.5q-17 0 -30 12.5t-13 30.5t12.5 30t30.5 12zM170 0h-80v535h80v-535z" />
    <glyph glyph-name="eth" unicode="&#xf0;" horiz-adv-x="639" 
d="M586 351q12 -158 -59.5 -253.5t-188.5 -104.5q-106 -9 -188.5 55t-90.5 176q-7 100 54 169t159 75q129 7 228 -93q-12 78 -52 135.5t-90.5 87t-109.5 38.5l19 77q76 -11 141 -51l74 102l62 -42l-78 -105q109 -100 120 -266zM324 70q74 5 123.5 63.5t56.5 153.5
q-42 58 -97.5 85.5t-110.5 24.5q-69 -5 -113 -52.5t-39 -119.5q5 -76 58 -118t122 -37z" />
    <glyph glyph-name="ntilde" unicode="&#xf1;" horiz-adv-x="667" 
d="M275 755q37 -1 87 -30.5t73 -29.5q39 0 58 48l43 -19q-9 -36 -35.5 -58.5t-63.5 -22.5q-35 0 -87 29t-76 30q-43 3 -60 -48l-43 22q9 34 36.5 57t67.5 22zM381 547q92 0 150.5 -61.5t58.5 -170.5v-315h-81l1 308q0 78 -41 122.5t-109 44.5q-104 0 -192 -128v-347h-80v535
h77l3 -113q96 125 213 125z" />
    <glyph glyph-name="ograve" unicode="&#xf2;" horiz-adv-x="675" 
d="M397 643l-61 -26l-81 137l81 14zM338 550q117 0 199 -76.5t82 -203.5q0 -130 -83.5 -204t-197.5 -74q-116 0 -199 75t-83 204q0 122 81.5 200.5t200.5 78.5zM338 479q-85 0 -144 -57t-58 -152q0 -97 59.5 -152t142.5 -55q81 -1 141 54t60 153q0 100 -59.5 154.5
t-141.5 54.5z" />
    <glyph glyph-name="oacute" unicode="&#xf3;" horiz-adv-x="675" 
d="M416 754l-81 -137l-61 26l61 125zM338 550q117 0 199 -76.5t82 -203.5q0 -130 -83.5 -204t-197.5 -74q-116 0 -199 75t-83 204q0 122 81.5 200.5t200.5 78.5zM338 479q-85 0 -144 -57t-58 -152q0 -97 59.5 -152t142.5 -55q81 -1 141 54t60 153q0 100 -59.5 154.5
t-141.5 54.5z" />
    <glyph glyph-name="ocircumflex" unicode="&#xf4;" horiz-adv-x="675" 
d="M406 614l-71 101l-72 -102l-46 31l87 113h62l86 -113zM338 550q117 0 199 -76.5t82 -203.5q0 -130 -83.5 -204t-197.5 -74q-116 0 -199 75t-83 204q0 122 81.5 200.5t200.5 78.5zM338 479q-85 0 -144 -57t-58 -152q0 -97 59.5 -152t142.5 -55q81 -1 141 54t60 153
q0 100 -59.5 154.5t-141.5 54.5z" />
    <glyph glyph-name="otilde" unicode="&#xf5;" horiz-adv-x="675" 
d="M252 729q37 -1 87 -31t73 -30q38 0 58 48l43 -18q-9 -36 -35.5 -59t-63.5 -23q-35 0 -86.5 29.5t-76.5 29.5q-43 3 -60 -47l-43 21q9 35 36.5 58t67.5 22zM338 550q117 0 199 -76.5t82 -203.5q0 -130 -83.5 -204t-197.5 -74q-116 0 -199 75t-83 204q0 122 81.5 200.5
t200.5 78.5zM338 479q-85 0 -144 -57t-58 -152q0 -97 59.5 -152t142.5 -55q81 -1 141 54t60 153q0 100 -59.5 154.5t-141.5 54.5z" />
    <glyph glyph-name="odieresis" unicode="&#xf6;" horiz-adv-x="675" 
d="M259 720q18 0 30.5 -12t12.5 -30t-13.5 -30.5t-29.5 -12.5q-17 0 -30 12.5t-13 30.5t12.5 30t30.5 12zM402 720q18 0 30.5 -12t12.5 -30t-13.5 -30.5t-29.5 -12.5q-17 0 -30 12.5t-13 30.5t12.5 30t30.5 12zM338 550q117 0 199 -76.5t82 -203.5q0 -130 -83.5 -204
t-197.5 -74q-116 0 -199 75t-83 204q0 122 81.5 200.5t200.5 78.5zM338 479q-85 0 -144 -57t-58 -152q0 -97 59.5 -152t142.5 -55q81 -1 141 54t60 153q0 100 -59.5 154.5t-141.5 54.5z" />
    <glyph glyph-name="divide" unicode="&#xf7;" horiz-adv-x="711" 
d="M358 432h-1q-17 0 -30 13.5t-13 32.5q0 18 13.5 31t30.5 13q18 0 31 -13t13 -31q0 -19 -13 -32.5t-31 -13.5zM648 259h-585v49h585v-49zM358 136h1q16 0 29 -13.5t13 -32.5q0 -17 -13.5 -31.5t-29.5 -14.5q-19 0 -32 14t-13 32q0 20 13 33t32 13z" />
    <glyph glyph-name="oslash" unicode="&#xf8;" horiz-adv-x="675" 
d="M528 574l-34 -67q58 -36 91.5 -97t33.5 -140q0 -130 -83.5 -203.5t-197.5 -73.5q-54 0 -101 16l-36 -70l-49 24l35 69q-60 35 -95.5 96t-35.5 143q0 122 81 200t201 78q56 0 106 -18l34 67zM126 270q1 -119 91 -180l197 383q-35 13 -76 13q-87 0 -149.5 -59.5
t-62.5 -156.5zM338 55q84 -1 146.5 57t62.5 158q0 117 -84 177l-196 -381q35 -11 71 -11z" />
    <glyph glyph-name="ugrave" unicode="&#xf9;" 
d="M363 664l-61 -26l-80 137l80 14zM576 0h-74l-4 93q-32 -40 -87.5 -75.5t-126.5 -35.5q-85 0 -143 58t-58 162v333h80v-330q0 -70 40.5 -110.5t102.5 -40.5q61 0 110.5 35.5t79.5 83.5v362h80v-535z" />
    <glyph glyph-name="uacute" unicode="&#xfa;" 
d="M419 759l-81 -137l-61 26l61 125zM576 0h-74l-4 93q-32 -40 -87.5 -75.5t-126.5 -35.5q-85 0 -143 58t-58 162v333h80v-330q0 -70 40.5 -110.5t102.5 -40.5q61 0 110.5 35.5t79.5 83.5v362h80v-535z" />
    <glyph glyph-name="ucircumflex" unicode="&#xfb;" 
d="M406 639l-71 101l-72 -102l-46 31l87 113h62l86 -113zM576 0h-74l-4 93q-32 -40 -87.5 -75.5t-126.5 -35.5q-85 0 -143 58t-58 162v333h80v-330q0 -70 40.5 -110.5t102.5 -40.5q61 0 110.5 35.5t79.5 83.5v362h80v-535z" />
    <glyph glyph-name="udieresis" unicode="&#xfc;" 
d="M253 741q17 0 29.5 -12t12.5 -30t-13 -30.5t-29 -12.5q-17 0 -30 12.5t-13 30.5t12.5 30t30.5 12zM396 741q17 0 29.5 -12t12.5 -30t-13 -30.5t-29 -12.5q-17 0 -30 12.5t-13 30.5t12.5 30t30.5 12zM576 0h-74l-4 93q-32 -40 -87.5 -75.5t-126.5 -35.5q-85 0 -143 58
t-58 162v333h80v-330q0 -70 40.5 -110.5t102.5 -40.5q61 0 110.5 35.5t79.5 83.5v362h80v-535z" />
    <glyph glyph-name="yacute" unicode="&#xfd;" horiz-adv-x="638" 
d="M332 614l-61 26l61 125l80 -14zM637 535l-408 -837h-92l146 296l-266 541h93l218 -453l217 453h92z" />
    <glyph glyph-name="thorn" unicode="&#xfe;" horiz-adv-x="681" 
d="M183 703v-244q84 84 191 84q102 0 176.5 -76t74.5 -207q0 -123 -67.5 -196t-164.5 -73q-62 0 -117.5 29.5t-92.5 71.5v-283h-79v894h79zM183 393v-236q81 -97 183 -97q76 0 128 56.5t52 145.5q0 92 -57.5 151t-138.5 59q-92 0 -167 -79z" />
    <glyph glyph-name="ydieresis" unicode="&#xff;" horiz-adv-x="638" 
d="M250 631q-17 0 -30 12.5t-13 30.5t12.5 30t30.5 12t30.5 -12t12.5 -30t-13.5 -30.5t-29.5 -12.5zM393 631q-17 0 -30 12.5t-13 30.5t12.5 30t30.5 12t30.5 -12t12.5 -30t-13.5 -30.5t-29.5 -12.5zM637 535l-408 -837h-92l146 296l-266 541h93l218 -453l217 453h92z" />
    <glyph glyph-name="Amacron" unicode="&#x100;" horiz-adv-x="754" 
d="M543 787h-335v58h335v-58zM570 158h-386l-67 -158h-94l313 700h80l316 -700h-93zM537 236l-161 372l-158 -372h319z" />
    <glyph glyph-name="amacron" unicode="&#x101;" horiz-adv-x="667" 
d="M529 642h-335v58h335v-58zM580 535v-535h-75l-2 81q-30 -39 -77.5 -64t-106.5 -25q-106 0 -184.5 78.5t-78.5 205.5q0 119 74 193.5t177 74.5q121 0 195 -101l1 92h77zM320 476q-78 0 -133 -57t-55 -145q0 -93 58 -152t140 -59q99 0 172 87v222q-76 104 -182 104z" />
    <glyph glyph-name="Abreve" unicode="&#x102;" horiz-adv-x="754" 
d="M379 779q-60 0 -99.5 32.5t-55.5 84.5l57 18q24 -77 99 -77q74 0 96 77l55 -17q-14 -52 -53 -85t-99 -33zM570 158h-386l-67 -158h-94l313 700h80l316 -700h-93zM537 236l-161 372l-158 -372h319z" />
    <glyph glyph-name="abreve" unicode="&#x103;" horiz-adv-x="667" 
d="M462 769l55 -17q-14 -52 -53 -85t-99 -33t-99.5 32.5t-55.5 84.5l57 18q24 -77 99 -77q74 0 96 77zM580 535v-535h-75l-2 81q-30 -39 -77.5 -64t-106.5 -25q-106 0 -184.5 78.5t-78.5 205.5q0 119 74 193.5t177 74.5q121 0 195 -101l1 92h77zM320 476q-78 0 -133 -57
t-55 -145q0 -93 58 -152t140 -59q99 0 172 87v222q-76 104 -182 104z" />
    <glyph glyph-name="Aogonek" unicode="&#x104;" horiz-adv-x="754" 
d="M796 -99l19 -31q-46 -38 -99 -39q-44 -1 -74 22.5t-30 61.5q0 24 15 47t41 38h-29l-69 158h-386l-67 -158h-94l313 700h80l316 -700h-4q-64 -28 -66 -75q-1 -24 17 -37.5t48 -12.5q36 2 69 26zM537 236l-161 372l-158 -372h319z" />
    <glyph glyph-name="aogonek" unicode="&#x105;" horiz-adv-x="667" 
d="M647 -99l20 -31q-48 -38 -99 -39q-44 -1 -74 22.5t-30 61.5q0 54 55 85h-14l-2 80q-30 -38 -78 -63t-106 -25q-106 0 -184.5 78.5t-78.5 204.5q0 120 73.5 194.5t177.5 74.5q120 0 195 -102l1 93h77v-535h-2q-63 -28 -65 -75q-1 -23 17.5 -37t48.5 -13q33 1 68 26z
M502 150v222q-76 104 -182 104q-78 0 -133 -57t-55 -145q0 -93 58 -152t140 -59q99 0 172 87z" />
    <glyph glyph-name="Cacute" unicode="&#x106;" horiz-adv-x="724" 
d="M502 907l-81 -137l-61 26l61 125zM434 710q114 2 219 -47l-29 -72q-90 45 -183 41q-122 -4 -207 -81.5t-85 -201.5q0 -127 88.5 -204t213.5 -77q94 0 178 47l31 -71q-102 -53 -209 -54q-162 -2 -274.5 98.5t-112.5 259.5q0 155 106 256t264 106z" />
    <glyph glyph-name="cacute" unicode="&#x107;" horiz-adv-x="608" 
d="M428 758l-80 -137l-61 26l61 125zM349 550q112 0 203 -69l-37 -62q-70 61 -162 61q-93 0 -155 -60t-62 -151q-1 -93 62.5 -150.5t152.5 -57.5q95 0 167 68l39 -56q-92 -82 -213 -82q-115 0 -201 74t-87 204q0 87 42.5 152t108.5 96.5t142 32.5z" />
    <glyph glyph-name="Ccaron" unicode="&#x10c;" horiz-adv-x="724" 
d="M475 778h-60l-84 100l47 35l66 -85l66 84l48 -33zM434 710q114 2 219 -47l-29 -72q-90 45 -183 41q-122 -4 -207 -81.5t-85 -201.5q0 -127 88.5 -204t213.5 -77q94 0 178 47l31 -71q-102 -53 -209 -54q-162 -2 -274.5 98.5t-112.5 259.5q0 155 106 256t264 106z" />
    <glyph glyph-name="ccaron" unicode="&#x10d;" horiz-adv-x="608" 
d="M381 624h-60l-84 100l47 35l66 -85l66 84l48 -33zM349 550q112 0 203 -69l-37 -62q-70 61 -162 61q-93 0 -155 -60t-62 -151q-1 -93 62.5 -150.5t152.5 -57.5q95 0 167 68l39 -56q-92 -82 -213 -82q-115 0 -201 74t-87 204q0 87 42.5 152t108.5 96.5t142 32.5z" />
    <glyph glyph-name="Dcaron" unicode="&#x10e;" horiz-adv-x="779" 
d="M395 776h-60l-84 100l47 34l66 -85l66 85l48 -34zM116 0v700q26 1 156 1q95 0 172.5 -19t139.5 -59t96.5 -108.5t34.5 -160.5q0 -173 -117 -264.5t-324 -91.5q-121 0 -158 2zM200 623v-546q14 -1 88 -1q159 2 250.5 71t91.5 205q0 75 -29 129.5t-79.5 84.5t-109 43.5
t-128.5 13.5h-22.5h-35.5h-26z" />
    <glyph glyph-name="dcaron" unicode="&#x10f;" horiz-adv-x="722" 
d="M684 814q23 3 42 -12.5t23 -44.5q4 -38 -20.5 -69t-65.5 -39l-1 33q32 11 32 44q-18 -6 -34 4.5t-18 30.5q-3 20 9.5 35.5t32.5 17.5zM593 723l1 -723h-76l-2 84q-97 -92 -198 -92q-66 0 -124.5 31.5t-98 98t-39.5 154.5q0 124 72 196t173 72q122 0 213 -107l-1 286h80z
M321 473q-78 0 -131.5 -56.5t-53.5 -143.5q0 -92 59 -150.5t141 -58.5q99 1 178 93v207q-85 109 -193 109z" />
    <glyph glyph-name="Dcroat" unicode="&#x110;" horiz-adv-x="787" 
d="M279 701q95 0 172.5 -19t140 -59t97 -108.5t34.5 -160.5q0 -173 -117 -264.5t-324 -91.5q-122 0 -159 2v332h-91v54h91v314q27 1 156 1zM296 76q158 2 249.5 71t91.5 205q0 75 -29 129.5t-79.5 84.5t-109 43.5t-128.5 13.5h-84v-237h160v-54h-160v-255q15 -1 89 -1z" />
    <glyph glyph-name="dcroat" unicode="&#x111;" horiz-adv-x="695" 
d="M665 601h-72l1 -601h-76l-2 84q-97 -92 -198 -92q-66 0 -124.5 31.5t-98 98t-39.5 154.5q0 124 72 196t173 72q122 0 213 -107l-1 164h-183v58h183v64h80v-64h72v-58zM514 157v207q-85 109 -193 109q-78 0 -131.5 -56.5t-53.5 -143.5q0 -92 59 -150.5t141 -58.5
q99 1 178 93z" />
    <glyph glyph-name="Emacron" unicode="&#x112;" 
d="M513 765h-335v59h335v-59zM586 623h-385v-232h295v-73h-295v-240h410v-78h-495v700h470v-77z" />
    <glyph glyph-name="emacron" unicode="&#x113;" horiz-adv-x="660" 
d="M514 643h-335v59h335v-59zM344 552q86 -1 152 -44.5t95 -115.5t12 -153h-465q11 -86 73.5 -132.5t151.5 -45.5q115 1 194 80l42 -58q-94 -92 -238 -92q-126 -1 -215.5 74t-89.5 206q0 129 84.5 206t203.5 75zM138 306h388q8 71 -44.5 123t-137.5 53q-79 0 -137 -47
t-69 -129z" />
    <glyph glyph-name="Edotaccent" unicode="&#x116;" 
d="M358 851q18 0 30.5 -12t12.5 -30t-13.5 -30.5t-29.5 -12.5q-17 0 -30 12.5t-13 30.5t12.5 30t30.5 12zM586 623h-385v-232h295v-73h-295v-240h410v-78h-495v700h470v-77z" />
    <glyph glyph-name="edotaccent" unicode="&#x117;" horiz-adv-x="660" 
d="M355 640q-17 0 -30 12.5t-13 30.5t12.5 30t30.5 12t30.5 -12t12.5 -30t-13.5 -30.5t-29.5 -12.5zM344 552q86 -1 152 -44.5t95 -115.5t12 -153h-465q11 -86 73.5 -132.5t151.5 -45.5q115 1 194 80l42 -58q-94 -92 -238 -92q-126 -1 -215.5 74t-89.5 206q0 129 84.5 206
t203.5 75zM138 306h388q8 71 -44.5 123t-137.5 53q-79 0 -137 -47t-69 -129z" />
    <glyph glyph-name="Eogonek" unicode="&#x118;" 
d="M611 0h-173q-64 -28 -66 -75q-1 -23 17 -37t48 -13q34 1 69 26l19 -31q-46 -38 -99 -39q-44 -1 -74 22.5t-30 61.5q0 24 15 47t41 38h-262v700h470v-77h-385v-232h295v-73h-295v-240h410v-78z" />
    <glyph glyph-name="eogonek" unicode="&#x119;" horiz-adv-x="660" 
d="M344 552q86 -1 152 -44.5t95 -115.5t12 -153h-465q11 -86 73.5 -132.5t151.5 -45.5q115 1 194 80l42 -58q-90 -86 -224 -92q-62 -28 -64 -73q-1 -24 17 -38t48 -12q36 2 69 26l19 -32q-45 -37 -99 -38q-43 -2 -73.5 22t-30.5 61q0 25 15.5 48t42.5 38q-113 13 -188 85.5
t-75 192.5q0 129 84.5 206t203.5 75zM138 306h388q8 71 -44.5 123t-137.5 53q-79 0 -137 -47t-69 -129z" />
    <glyph glyph-name="Ecaron" unicode="&#x11a;" 
d="M388 767h-61l-83 100l46 35l67 -85l66 84l48 -33zM586 623h-385v-232h295v-73h-295v-240h410v-78h-495v700h470v-77z" />
    <glyph glyph-name="ecaron" unicode="&#x11b;" horiz-adv-x="660" 
d="M315 628l-83 100l46 35l67 -85l66 84l48 -33l-83 -101h-61zM344 552q86 -1 152 -44.5t95 -115.5t12 -153h-465q11 -86 73.5 -132.5t151.5 -45.5q115 1 194 80l42 -58q-94 -92 -238 -92q-126 -1 -215.5 74t-89.5 206q0 129 84.5 206t203.5 75zM138 306h388q8 71 -44.5 123
t-137.5 53q-79 0 -137 -47t-69 -129z" />
    <glyph glyph-name="Gcommaaccent" unicode="&#x122;" horiz-adv-x="789" 
d="M444 714q115 2 224 -50l-28 -75q-91 51 -194 48q-126 -5 -211 -86t-86 -201q0 -123 87 -206t220 -83q98 0 183 51v175h-205v76h288v-298q-119 -81 -265 -82q-170 -1 -281.5 104.5t-111.5 262.5q1 152 108.5 256.5t271.5 107.5zM462 -85q23 0 40 -18t17 -48q0 -39 -28 -67
t-70 -31l2 33q33 9 37 40q-19 -3 -33.5 9.5t-14.5 33.5q0 20 14.5 34t35.5 14z" />
    <glyph glyph-name="gcommaaccent" unicode="&#x123;" horiz-adv-x="672" 
d="M377 759q23 0 40 -18t17 -48q0 -39 -28 -66.5t-70 -30.5l2 33q33 7 37 40q-19 -4 -33.5 8.5t-14.5 33.5q0 20 14.5 34t35.5 14zM303 544q119 0 202 -96l3 87h76v-519q0 -65 -23 -114t-61.5 -76t-82.5 -40t-92 -13q-108 0 -216 60l28 62q93 -52 181 -52q78 0 132 41.5
t54 127.5v74q-77 -86 -187 -86q-108 0 -184.5 73.5t-76.5 202.5q0 124 72 196t175 72zM322 474q-81 0 -133.5 -55.5t-52.5 -143.5q0 -91 57 -146.5t140 -55.5q98 0 171 79v231q-80 91 -182 91z" />
    <glyph glyph-name="Imacron" unicode="&#x12a;" horiz-adv-x="314" 
d="M328 787h-335v58h335v-58zM199 0h-83v700h83v-700z" />
    <glyph glyph-name="imacron" unicode="&#x12b;" horiz-adv-x="260" 
d="M298 622h-336v58h336v-58zM170 0h-80v535h80v-535z" />
    <glyph glyph-name="Iogonek" unicode="&#x12e;" horiz-adv-x="314" 
d="M253 -99l19 -31q-46 -38 -99 -39q-44 -1 -74 22.5t-30 61.5q0 24 15 47t41 38h-9v700h83v-700h-13q-65 -28 -67 -75q-1 -24 17.5 -38t48.5 -12q35 2 68 26z" />
    <glyph glyph-name="iogonek" unicode="&#x12f;" horiz-adv-x="260" 
d="M130 611q-21 0 -36 14.5t-15 35.5t14.5 35.5t36.5 14.5q20 0 35 -15t15 -35q0 -21 -15.5 -35.5t-34.5 -14.5zM238 -99l19 -31q-48 -38 -99 -39q-44 -1 -74 22.5t-30 61.5q0 24 15 47t41 38h-20v535h80v-535q-64 -28 -66 -75q-1 -24 17 -37.5t48 -12.5q36 2 69 26z" />
    <glyph glyph-name="dotlessi" unicode="&#x131;" horiz-adv-x="260" 
d="M170 0h-80v535h80v-535z" />
    <glyph glyph-name="Kcommaaccent" unicode="&#x136;" horiz-adv-x="698" 
d="M413 409l292 -409h-104l-241 345l-160 -183v-162h-84v700h84v-423l363 423h100zM364 -87q24 0 41 -18t17 -48q0 -39 -28.5 -67t-70.5 -31l3 33q33 9 37 40q-20 -3 -34.5 9.5t-14.5 33.5q0 20 14.5 34t35.5 14z" />
    <glyph glyph-name="kcommaaccent" unicode="&#x137;" horiz-adv-x="618" 
d="M183 235l276 300h105l-198 -211l231 -324h-103l-182 265l-129 -137v-128h-79v724h79v-489zM306 -65q24 0 41 -18t17 -48q0 -39 -28.5 -66.5t-70.5 -30.5l3 33q33 7 37 40q-20 -4 -34.5 8.5t-14.5 33.5q0 20 14.5 34t35.5 14z" />
    <glyph glyph-name="Lacute" unicode="&#x139;" horiz-adv-x="601" 
d="M269 888l-81 -137l-61 26l61 125zM201 78h392v-78h-477v700h85v-622z" />
    <glyph glyph-name="lacute" unicode="&#x13a;" horiz-adv-x="287" 
d="M233 911l-81 -137l-61 26l61 125zM184 0h-80v724h80v-724z" />
    <glyph glyph-name="Lcommaaccent" unicode="&#x13b;" horiz-adv-x="601" 
d="M201 78h392v-78h-477v700h85v-622zM348 -87q23 0 40 -18t17 -48q0 -39 -28 -67t-70 -31l2 33q33 9 37 40q-19 -3 -33.5 9.5t-14.5 33.5q0 20 14.5 34t35.5 14z" />
    <glyph glyph-name="lcommaaccent" unicode="&#x13c;" horiz-adv-x="287" 
d="M184 0h-80v724h80v-724zM141 -71q24 0 41 -18t17 -48q0 -39 -28.5 -66.5t-70.5 -30.5l3 33q33 7 37 40q-20 -4 -34.5 8.5t-14.5 33.5q0 20 14.5 34t35.5 14z" />
    <glyph glyph-name="Lcaron" unicode="&#x13d;" horiz-adv-x="601" 
d="M201 78h392v-78h-477v700h85v-622z" />
    <glyph glyph-name="lcaron" unicode="&#x13e;" horiz-adv-x="316" 
d="M278 808q23 3 41.5 -12.5t22.5 -44.5q5 -38 -19.5 -69t-65.5 -39l-1 33q31 10 32 44q-18 -6 -34 4.5t-19 30.5q-2 20 10.5 35.5t32.5 17.5zM184 0h-80v724h80v-724z" />
    <glyph glyph-name="Ldot" unicode="&#x13f;" horiz-adv-x="601" 
d="M201 78h392v-78h-477v700h85v-622zM354 409q20 0 34 -14.5t14 -34.5q0 -21 -14.5 -35t-33.5 -14q-20 0 -34.5 14t-14.5 35q0 20 14 34.5t35 14.5z" />
    <glyph glyph-name="ldot" unicode="&#x140;" horiz-adv-x="287" 
d="M184 0h-80v724h80v-724zM278 430q21 0 36 -15t15 -36q0 -22 -15.5 -36.5t-35.5 -14.5q-21 0 -36 15t-15 36t15 36t36 15z" />
    <glyph glyph-name="Lslash" unicode="&#x141;" horiz-adv-x="615" 
d="M608 78v-78h-478v265l-56 -23l-21 54l77 31v373h85v-338l164 67l21 -53l-185 -77v-221h393z" />
    <glyph glyph-name="lslash" unicode="&#x142;" horiz-adv-x="369" 
d="M218 311v-311h-80v269l-86 -45l-23 52l109 57v391h80v-349l100 53l22 -51z" />
    <glyph glyph-name="Nacute" unicode="&#x143;" horiz-adv-x="844" 
d="M517 901l-81 -137l-61 26l61 125zM729 0h-78l-450 567v-567h-85v700h85l442 -559v559h86v-700z" />
    <glyph glyph-name="nacute" unicode="&#x144;" horiz-adv-x="667" 
d="M444 772l-81 -137l-61 26l61 125zM381 547q92 0 150.5 -61.5t58.5 -170.5v-315h-81l1 308q0 78 -41 122.5t-109 44.5q-104 0 -192 -128v-347h-80v535h77l3 -113q96 125 213 125z" />
    <glyph glyph-name="Ncommaaccent" unicode="&#x145;" horiz-adv-x="844" 
d="M729 0h-78l-450 567v-567h-85v700h85l442 -559v559h86v-700zM434 -87q23 0 40 -18t17 -48q0 -39 -28 -67t-70 -31l2 33q33 9 37 40q-19 -3 -33.5 9.5t-14.5 33.5q0 20 14.5 34t35.5 14z" />
    <glyph glyph-name="ncommaaccent" unicode="&#x146;" horiz-adv-x="667" 
d="M381 547q92 0 150.5 -61.5t58.5 -170.5v-315h-81l1 308q0 78 -41 122.5t-109 44.5q-104 0 -192 -128v-347h-80v535h77l3 -113q96 125 213 125zM351 -85q23 0 40 -18t17 -48q0 -39 -28 -67t-70 -31l2 33q33 9 37 40q-19 -3 -33.5 9.5t-14.5 33.5q0 20 14.5 34t35.5 14z
" />
    <glyph glyph-name="Ncaron" unicode="&#x147;" horiz-adv-x="844" 
d="M464 769h-61l-83 100l46 35l67 -85l66 84l48 -33zM729 0h-78l-450 567v-567h-85v700h85l442 -559v559h86v-700z" />
    <glyph glyph-name="ncaron" unicode="&#x148;" horiz-adv-x="667" 
d="M381 637h-61l-83 100l46 35l67 -85l66 84l48 -33zM381 547q92 0 150.5 -61.5t58.5 -170.5v-315h-81l1 308q0 78 -41 122.5t-109 44.5q-104 0 -192 -128v-347h-80v535h77l3 -113q96 125 213 125z" />
    <glyph glyph-name="Eng" unicode="&#x14a;" horiz-adv-x="822" 
d="M729 700l-1 -700q-4 -165 -85 -245.5t-229 -80.5l-1 77q107 2 167 67t63 192l-442 557v-567h-85v700h85l442 -559v559h86z" />
    <glyph glyph-name="eng" unicode="&#x14b;" horiz-adv-x="667" 
d="M381 547q92 0 150.5 -61.5t58.5 -170.5v-355q0 -103 -58 -157.5t-137 -54.5q-83 0 -154 41l24 64q54 -36 122 -34q51 1 86.5 37t35.5 109v35l1 308q0 78 -41 122.5t-109 44.5q-104 0 -192 -128v-347h-80v535h77l3 -113q96 125 213 125z" />
    <glyph glyph-name="Omacron" unicode="&#x14c;" horiz-adv-x="863" 
d="M602 787h-335v58h335v-58zM432 711q159 0 263 -101.5t104 -262.5q0 -157 -101 -261.5t-265 -104.5q-162 0 -265.5 103t-103.5 263q0 161 104.5 262.5t263.5 101.5zM431 634q-124 0 -202.5 -79.5t-78.5 -207.5q0 -127 78 -207.5t205 -80.5t203.5 82t76.5 206
q0 127 -78.5 207t-203.5 80z" />
    <glyph glyph-name="omacron" unicode="&#x14d;" horiz-adv-x="675" 
d="M488 625h-335v59h335v-59zM338 550q117 0 199 -76.5t82 -203.5q0 -130 -83.5 -204t-197.5 -74q-116 0 -199 75t-83 204q0 122 81.5 200.5t200.5 78.5zM338 479q-85 0 -144 -57t-58 -152q0 -97 59.5 -152t142.5 -55q81 -1 141 54t60 153q0 100 -59.5 154.5t-141.5 54.5z
" />
    <glyph glyph-name="Ohungarumlaut" unicode="&#x150;" horiz-adv-x="863" 
d="M443 898l-81 -137l-61 26l61 125zM593 898l-81 -137l-61 26l61 125zM432 711q159 0 263 -101.5t104 -262.5q0 -157 -101 -261.5t-265 -104.5q-162 0 -265.5 103t-103.5 263q0 161 104.5 262.5t263.5 101.5zM431 634q-124 0 -202.5 -79.5t-78.5 -207.5q0 -127 78 -207.5
t205 -80.5t203.5 82t76.5 206q0 127 -78.5 207t-203.5 80z" />
    <glyph glyph-name="ohungarumlaut" unicode="&#x151;" horiz-adv-x="675" 
d="M338 754l-80 -137l-61 26l61 125zM488 754l-80 -137l-61 26l61 125zM338 550q117 0 199 -76.5t82 -203.5q0 -130 -83.5 -204t-197.5 -74q-116 0 -199 75t-83 204q0 122 81.5 200.5t200.5 78.5zM338 479q-85 0 -144 -57t-58 -152q0 -97 59.5 -152t142.5 -55q81 -1 141 54
t60 153q0 100 -59.5 154.5t-141.5 54.5z" />
    <glyph glyph-name="OE" unicode="&#x152;" horiz-adv-x="1288" 
d="M1234 77v-77h-495v137q-48 -73 -127 -114.5t-179 -41.5q-162 0 -265.5 103t-103.5 263q0 161 104.5 262.5t263.5 101.5q98 0 178.5 -41.5t128.5 -114.5v145h470v-77h-385v-232h295v-73h-295v-240zM433 59q128 0 204 81.5t76 206.5q0 126 -78.5 206t-203.5 80
q-124 0 -202.5 -79.5t-78.5 -206.5t78 -207.5t205 -80.5z" />
    <glyph glyph-name="oe" unicode="&#x153;" horiz-adv-x="1164" 
d="M843 554q132 -1 209 -95t50 -218h-464q11 -86 73.5 -132.5t150.5 -45.5q115 1 194 80l42 -58q-38 -37 -98.5 -64t-139.5 -28q-87 0 -160 37t-112 106q-35 -69 -103 -106t-147 -37q-117 0 -200 74.5t-83 203.5q0 122 81.5 200.5t201.5 78.5q79 0 146 -37.5t102 -104.5
q36 70 105.5 108.5t151.5 37.5zM638 308h388q8 71 -44.5 123t-137.5 53q-80 0 -138 -47t-68 -129zM338 63q81 -1 141 54t60 153q0 100 -59.5 154.5t-141.5 54.5q-85 0 -144 -57t-58 -152q0 -97 59.5 -152t142.5 -55z" />
    <glyph glyph-name="Racute" unicode="&#x154;" horiz-adv-x="721" 
d="M348 762l-61 26l61 125l80 -14zM548 0l-123 204q-36 -7 -77 -7h-147v-197h-85v700q44 0 115.5 0.5t105.5 0.5q140 0 223.5 -69.5t84.5 -184.5q0 -150 -138 -216l139 -231h-98zM347 274q94 3 153.5 48.5t59.5 125.5q-1 80 -62.5 127t-156.5 49q-50 1 -140 1v-351
q80 -1 146 0z" />
    <glyph glyph-name="racute" unicode="&#x155;" horiz-adv-x="409" 
d="M334 753l-81 -137l-61 26l61 125zM329 546q32 0 67 -15l-20 -69q-25 13 -53 13q-89 0 -155 -119v-356h-80v535h73l3 -101q30 56 74 84t91 28z" />
    <glyph glyph-name="Rcommaaccent" unicode="&#x156;" horiz-adv-x="721" 
d="M548 0l-123 204q-36 -7 -77 -7h-147v-197h-85v700q44 0 115.5 0.5t105.5 0.5q140 0 223.5 -69.5t84.5 -184.5q0 -150 -138 -216l139 -231h-98zM347 274q94 3 153.5 48.5t59.5 125.5q-1 80 -62.5 127t-156.5 49q-50 1 -140 1v-351q80 -1 146 0zM348 -87q24 0 41 -18
t17 -48q0 -39 -28.5 -67t-70.5 -31l3 33q33 9 37 40q-20 -3 -34.5 9.5t-14.5 33.5q0 20 14.5 34t35.5 14z" />
    <glyph glyph-name="rcommaaccent" unicode="&#x157;" horiz-adv-x="409" 
d="M329 546q32 0 67 -15l-20 -69q-25 13 -53 13q-89 0 -155 -119v-356h-80v535h73l3 -101q30 56 74 84t91 28zM224 -85q24 0 41 -18t17 -48q0 -39 -28.5 -67t-70.5 -31l3 33q33 9 37 40q-20 -3 -34.5 9.5t-14.5 33.5q0 20 14.5 34t35.5 14z" />
    <glyph glyph-name="Rcaron" unicode="&#x158;" horiz-adv-x="721" 
d="M329 773l-84 100l47 35l66 -85l66 84l48 -33l-83 -101h-60zM548 0l-123 204q-36 -7 -77 -7h-147v-197h-85v700q44 0 115.5 0.5t105.5 0.5q140 0 223.5 -69.5t84.5 -184.5q0 -150 -138 -216l139 -231h-98zM347 274q94 3 153.5 48.5t59.5 125.5q-1 80 -62.5 127t-156.5 49
q-50 1 -140 1v-351q80 -1 146 0z" />
    <glyph glyph-name="rcaron" unicode="&#x159;" horiz-adv-x="409" 
d="M270 640h-60l-84 100l47 34l66 -85l66 85l48 -34zM329 546q32 0 67 -15l-20 -69q-25 13 -53 13q-89 0 -155 -119v-356h-80v535h73l3 -101q30 56 74 84t91 28z" />
    <glyph glyph-name="Sacute" unicode="&#x15a;" horiz-adv-x="703" 
d="M446 903l-81 -137l-61 26l61 125zM360 710q114 0 229 -55l-26 -74q-106 52 -203 52q-76 0 -124 -30t-47 -84q0 -26 13.5 -45t39 -30.5t55 -19.5t68.5 -17l29 -6q59 -14 98.5 -28t75.5 -37t54 -57t18 -81q1 -100 -74.5 -155t-193.5 -57q-155 -2 -295 83l32 71
q125 -77 257 -76q84 2 135 36.5t52 92.5q0 21 -6.5 38t-24.5 30.5t-32.5 22t-48 18.5t-51.5 14l-61 14q-54 13 -88.5 25t-69.5 33t-52 52.5t-17 74.5q-1 95 74 145t184 50z" />
    <glyph glyph-name="sacute" unicode="&#x15b;" horiz-adv-x="591" 
d="M403 771l-81 -137l-61 26l61 125zM297 551q97 1 195 -45l-21 -67q-83 44 -174 43q-59 0 -98.5 -25t-38.5 -68q0 -10 2.5 -18.5t8.5 -15.5t12.5 -12t18 -9.5t20 -7.5t24 -6l25.5 -5t29 -5t29 -5q43 -7 74 -16.5t62.5 -26.5t48.5 -46t17 -68q1 -80 -63.5 -120.5
t-159.5 -40.5q-132 0 -249 72l31 63q99 -66 217 -65q62 1 103.5 23.5t40.5 66.5q-1 47 -68 68q-26 9 -109 24q-36 7 -58.5 12.5t-51 16.5t-44.5 25.5t-28 38.5t-12 55q-1 79 61 121.5t156 42.5z" />
    <glyph glyph-name="Scedilla" unicode="&#x15e;" horiz-adv-x="703" 
d="M639 198q1 -95 -66.5 -149.5t-175.5 -61.5l-59 -125l-55 19l62 105q-144 6 -268 83l32 71q125 -77 257 -76q84 2 135 36.5t52 92.5q0 21 -6.5 38t-24.5 30.5t-32.5 22t-48 18.5t-51.5 14l-61 14q-54 13 -88.5 25t-69.5 33t-52 52.5t-17 74.5q-1 95 74 145t184 50
q114 0 229 -55l-26 -74q-106 52 -203 52q-76 0 -124 -30t-47 -84q0 -26 13.5 -45t39 -30.5t55 -19.5t68.5 -17l29 -6q59 -14 98.5 -28t75.5 -37t53.5 -57t17.5 -81z" />
    <glyph glyph-name="scedilla" unicode="&#x15f;" horiz-adv-x="591" 
d="M531 148q0 -72 -51 -111.5t-131 -47.5l-55 -117l-55 19l57 96q-131 4 -237 72l31 63q99 -66 217 -65q62 1 103.5 23.5t40.5 66.5q-1 47 -68 68q-26 9 -109 24q-36 7 -58.5 12.5t-51 16.5t-44.5 25.5t-28 38.5t-12 55q-1 79 61 121.5t156 42.5q97 1 195 -45l-21 -67
q-83 44 -174 43q-59 0 -98.5 -25t-38.5 -68q0 -10 2.5 -18.5t8.5 -15.5t12.5 -12t18 -9.5t20 -7.5t24 -6l25.5 -5t29 -5t29 -5q43 -7 74 -16.5t62.5 -26.5t48.5 -46t17 -68z" />
    <glyph glyph-name="Scaron" unicode="&#x160;" horiz-adv-x="703" 
d="M382 775h-61l-83 100l46 35l67 -85l66 84l48 -33zM360 710q114 0 229 -55l-26 -74q-106 52 -203 52q-76 0 -124 -30t-47 -84q0 -26 13.5 -45t39 -30.5t55 -19.5t68.5 -17l29 -6q59 -14 98.5 -28t75.5 -37t54 -57t18 -81q1 -100 -74.5 -155t-193.5 -57q-155 -2 -295 83
l32 71q125 -77 257 -76q84 2 135 36.5t52 92.5q0 21 -6.5 38t-24.5 30.5t-32.5 22t-48 18.5t-51.5 14l-61 14q-54 13 -88.5 25t-69.5 33t-52 52.5t-17 74.5q-1 95 74 145t184 50z" />
    <glyph glyph-name="scaron" unicode="&#x161;" horiz-adv-x="591" 
d="M337 632h-61l-83 100l46 35l67 -85l66 84l48 -33zM297 551q97 1 195 -45l-21 -67q-83 44 -174 43q-59 0 -98.5 -25t-38.5 -68q0 -10 2.5 -18.5t8.5 -15.5t12.5 -12t18 -9.5t20 -7.5t24 -6l25.5 -5t29 -5t29 -5q43 -7 74 -16.5t62.5 -26.5t48.5 -46t17 -68
q1 -80 -63.5 -120.5t-159.5 -40.5q-132 0 -249 72l31 63q99 -66 217 -65q62 1 103.5 23.5t40.5 66.5q-1 47 -68 68q-26 9 -109 24q-36 7 -58.5 12.5t-51 16.5t-44.5 25.5t-28 38.5t-12 55q-1 79 61 121.5t156 42.5z" />
    <glyph glyph-name="Tcedilla" unicode="&#x162;" horiz-adv-x="619" 
d="M612 700v-77h-260v-623h-8l-62 -131l-55 19l66 112h-26v623h-260v77h605z" />
    <glyph glyph-name="tcedilla" unicode="&#x163;" horiz-adv-x="489" 
d="M442 95l24 -65q-70 -39 -135 -40l-55 -119l-55 19l61 105q-62 14 -99.5 62.5t-37.5 121.5v286h-113v70h113v165h80v-165h185v-70h-185v-284q1 -60 32.5 -89.5t77.5 -30.5q51 -1 107 34z" />
    <glyph glyph-name="Tcaron" unicode="&#x164;" horiz-adv-x="619" 
d="M343 768h-61l-83 100l46 35l67 -85l66 84l48 -33zM612 623h-260v-623h-85v623h-260v77h605v-77z" />
    <glyph glyph-name="tcaron" unicode="&#x165;" horiz-adv-x="489" 
d="M375 786q23 3 42 -12.5t23 -44.5q4 -38 -20.5 -69t-65.5 -39l-1 33q32 11 32 44q-18 -6 -34 4.5t-18 30.5q-3 20 9.5 35.5t32.5 17.5zM225 535h185v-70h-185v-284q1 -60 32.5 -89.5t77.5 -30.5q51 -1 107 34l24 -64q-71 -42 -139 -41q-80 0 -131 51.5t-51 137.5v286h-113
v70h113v165h80v-165z" />
    <glyph glyph-name="Tbar" unicode="&#x166;" horiz-adv-x="619" 
d="M352 623v-144h137v-59h-137v-420h-85v420h-103v59h103v144h-260v77h605v-77h-260z" />
    <glyph glyph-name="tbar" unicode="&#x167;" horiz-adv-x="489" 
d="M442 95l24 -65q-69 -41 -139 -40q-80 0 -131 51t-51 137v101h-113v58h113v128h-113v70h113v165h80v-165h185v-70h-185v-128h149v-58h-149v-98q1 -60 32.5 -89.5t77.5 -30.5q51 -1 107 34z" />
    <glyph glyph-name="Umacron" unicode="&#x16a;" horiz-adv-x="815" 
d="M567 787h-335v58h335v-58zM717 700v-394q0 -152 -87 -238.5t-221 -86.5q-132 0 -221.5 85t-89.5 238v396h85v-398q0 -112 61 -177.5t163 -65.5t163.5 66t61.5 178v397h85z" />
    <glyph glyph-name="umacron" unicode="&#x16b;" 
d="M482 646h-335v58h335v-58zM576 0h-74l-4 93q-32 -40 -87.5 -75.5t-126.5 -35.5q-85 0 -143 58t-58 162v333h80v-330q0 -70 40.5 -110.5t102.5 -40.5q61 0 110.5 35.5t79.5 83.5v362h80v-535z" />
    <glyph glyph-name="Uring" unicode="&#x16e;" horiz-adv-x="815" 
d="M404 983q52 0 87.5 -33t35.5 -83q0 -51 -35.5 -83t-87.5 -32t-87.5 32t-35.5 83q0 50 35.5 83t87.5 33zM404 939q-30 0 -52 -21t-22 -51t22 -51t52 -21t52 21t22 51t-22 51t-52 21zM717 700v-394q0 -152 -87 -238.5t-221 -86.5q-132 0 -221.5 85t-89.5 238v396h85v-398
q0 -112 61 -177.5t163 -65.5t163.5 66t61.5 178v397h85z" />
    <glyph glyph-name="uring" unicode="&#x16f;" 
d="M319 831q51 0 86.5 -33t35.5 -83q0 -51 -35 -83t-87 -32q-53 0 -88 32t-35 83q0 50 35.5 83t87.5 33zM318 787q-30 0 -52 -21t-22 -51t22.5 -51t52.5 -21t52 21t22 51t-22.5 51t-52.5 21zM576 0h-74l-4 93q-32 -40 -87.5 -75.5t-126.5 -35.5q-85 0 -143 58t-58 162v333
h80v-330q0 -70 40.5 -110.5t102.5 -40.5q61 0 110.5 35.5t79.5 83.5v362h80v-535z" />
    <glyph glyph-name="Uhungarumlaut" unicode="&#x170;" horiz-adv-x="815" 
d="M390 900l-81 -137l-61 26l61 125zM540 900l-81 -137l-61 26l61 125zM717 700v-394q0 -152 -87 -238.5t-221 -86.5q-132 0 -221.5 85t-89.5 238v396h85v-398q0 -112 61 -177.5t163 -65.5t163.5 66t61.5 178v397h85z" />
    <glyph glyph-name="uhungarumlaut" unicode="&#x171;" 
d="M313 744l-81 -137l-61 26l61 125zM463 744l-81 -137l-61 26l61 125zM576 0h-74l-4 93q-32 -40 -87.5 -75.5t-126.5 -35.5q-85 0 -143 58t-58 162v333h80v-330q0 -70 40.5 -110.5t102.5 -40.5q61 0 110.5 35.5t79.5 83.5v362h80v-535z" />
    <glyph glyph-name="Uogonek" unicode="&#x172;" horiz-adv-x="815" 
d="M717 700v-394q0 -145 -80 -230.5t-205 -93.5q-31 -14 -48 -34.5t-17 -40.5q-1 -24 17 -38t48 -12q36 2 69 26l19 -32q-45 -37 -99 -38q-43 -2 -73.5 22t-30.5 61q0 56 57 87q-120 11 -198 94.5t-78 226.5v396h85v-398q0 -112 61 -177.5t163 -65.5t163.5 66t61.5 178v397
h85z" />
    <glyph glyph-name="uogonek" unicode="&#x173;" 
d="M643 -99l20 -31q-48 -38 -99 -39q-44 -1 -74 22.5t-30 61.5q0 24 14.5 47t40.5 38h-13l-4 93q-32 -40 -87.5 -75.5t-126.5 -35.5q-85 0 -143 58t-58 162v333h80v-330q0 -70 40.5 -110.5t102.5 -40.5q61 0 110.5 35.5t79.5 83.5v362h80v-535q-65 -28 -67 -75
q-1 -24 17.5 -38t48.5 -12q35 2 68 26z" />
    <glyph glyph-name="Wcircumflex" unicode="&#x174;" horiz-adv-x="1068" 
d="M605 775l-70 102l-72 -102l-46 30l86 113h62l87 -113zM825 0h-81l-208 574l-196 -574h-82l-232 700h86l188 -586l198 586h74l209 -585l174 585h86z" />
    <glyph glyph-name="wcircumflex" unicode="&#x175;" horiz-adv-x="890" 
d="M516 610l-71 102l-72 -102l-46 30l87 113h62l86 -113zM687 0h-87l-155 421l-154 -421h-85l-180 535h82l141 -428l160 428h73l161 -433l139 433h82z" />
    <glyph glyph-name="Ycircumflex" unicode="&#x176;" horiz-adv-x="756" 
d="M450 775l-71 102l-72 -102l-46 30l87 113h62l86 -113zM424 276v-276h-92v278l-289 422h103l232 -344l234 344h103z" />
    <glyph glyph-name="ycircumflex" unicode="&#x177;" horiz-adv-x="638" 
d="M248 610l-46 30l87 113h62l86 -113l-46 -30l-71 102zM637 535l-408 -837h-92l146 296l-266 541h93l218 -453l217 453h92z" />
    <glyph glyph-name="Ydieresis" unicode="&#x178;" horiz-adv-x="756" 
d="M309 881q18 0 30.5 -12t12.5 -30t-13.5 -30.5t-29.5 -12.5q-17 0 -30 12.5t-13 30.5t12.5 30t30.5 12zM452 881q18 0 30.5 -12t12.5 -30t-13.5 -30.5t-29.5 -12.5q-17 0 -30 12.5t-13 30.5t12.5 30t30.5 12zM424 276v-276h-92v278l-289 422h103l232 -344l234 344h103z
" />
    <glyph glyph-name="Zacute" unicode="&#x179;" horiz-adv-x="705" 
d="M436 916l-81 -137l-61 26l61 125zM645 627l-475 -549h478v-78h-593v71l479 552h-458v77h569v-73z" />
    <glyph glyph-name="zacute" unicode="&#x17a;" horiz-adv-x="574" 
d="M376 764l-80 -137l-61 26l61 125zM508 482l-342 -412h358v-70h-470l1 48l347 417h-330v70h436v-53z" />
    <glyph glyph-name="Zdotaccent" unicode="&#x17b;" horiz-adv-x="705" 
d="M366 866q18 0 30.5 -12t12.5 -30t-13.5 -30.5t-29.5 -12.5q-17 0 -30 12.5t-13 30.5t12.5 30t30.5 12zM645 627l-475 -549h478v-78h-593v71l479 552h-458v77h569v-73z" />
    <glyph glyph-name="zdotaccent" unicode="&#x17c;" horiz-adv-x="574" 
d="M295 714q18 0 30.5 -12t12.5 -30t-13.5 -30.5t-29.5 -12.5q-17 0 -30 12.5t-13 30.5t12.5 30t30.5 12zM508 482l-342 -412h358v-70h-470l1 48l347 417h-330v70h436v-53z" />
    <glyph glyph-name="Zcaron" unicode="&#x17d;" horiz-adv-x="705" 
d="M386 782h-60l-84 100l47 34l66 -85l66 85l48 -34zM645 627l-475 -549h478v-78h-593v71l479 552h-458v77h569v-73z" />
    <glyph glyph-name="zcaron" unicode="&#x17e;" horiz-adv-x="574" 
d="M329 630h-60l-84 100l47 35l66 -85l66 84l48 -33zM508 482l-342 -412h358v-70h-470l1 48l347 417h-330v70h436v-53z" />
    <glyph glyph-name="florin" unicode="&#x192;" horiz-adv-x="532" 
d="M400 713q55 0 117 -31l-19 -53q-44 26 -86 25q-46 -2 -78 -35.5t-32 -104.5v-90h134v-56h-134v-173q0 -100 -47.5 -148t-118.5 -48q-54 0 -118 32l19 54q44 -26 86 -25q46 2 78 35.5t32 104.5v168h-79v56h79v94q0 99 48 147t119 48z" />
    <glyph glyph-name="circumflex" unicode="&#x2c6;" horiz-adv-x="592" 
d="M527 770l-71 102l-72 -102l-46 30l87 113h62l86 -113z" />
    <glyph glyph-name="caron" unicode="&#x2c7;" horiz-adv-x="627" 
d="M488 803h-61l-83 100l46 34l67 -85l66 85l48 -34z" />
    <glyph glyph-name="breve" unicode="&#x2d8;" horiz-adv-x="626" 
d="M564 914l55 -17q-14 -52 -53 -85t-99 -33t-99.5 32.5t-55.5 84.5l57 18q24 -77 99 -77q74 0 96 77z" />
    <glyph glyph-name="dotaccent" unicode="&#x2d9;" horiz-adv-x="630" 
d="M380 881q17 0 29.5 -12t12.5 -30t-13 -30.5t-29 -12.5q-17 0 -30 12.5t-13 30.5t12.5 30t30.5 12z" />
    <glyph glyph-name="ring" unicode="&#x2da;" horiz-adv-x="628" 
d="M435 983q51 0 86.5 -33t35.5 -83q0 -51 -35 -83t-87 -32q-53 0 -88 32t-35 83q0 50 35.5 83t87.5 33zM434 939q-30 0 -52 -21t-22 -51t22.5 -51t52.5 -21t52 21t22 51t-22.5 51t-52.5 21z" />
    <glyph glyph-name="ogonek" unicode="&#x2db;" horiz-adv-x="634" 
d="M309 8v-8q-65 -28 -67 -75q-1 -24 17.5 -38t48.5 -12q35 2 68 26l20 -32q-47 -37 -99 -38q-44 -2 -74 22t-30 61q0 29 20 55.5t54 39.5z" />
    <glyph glyph-name="tilde" unicode="&#x2dc;" horiz-adv-x="627" 
d="M380 890q37 -1 87 -30.5t73 -29.5q40 0 59 48l43 -19q-9 -36 -35.5 -58.5t-63.5 -22.5q-35 0 -87 29t-76 30q-43 3 -60 -48l-43 22q8 34 35.5 57t67.5 22z" />
    <glyph glyph-name="hungarumlaut" unicode="&#x2dd;" horiz-adv-x="625" 
d="M496 916l-80 -137l-61 26l61 125zM646 916l-80 -137l-61 26l61 125z" />
    <glyph glyph-name="commaaccentcomb" unicode="&#x326;" horiz-adv-x="0" 
d="M147 -87q23 0 40 -18t17 -48q0 -39 -28 -67t-70 -31l2 33q33 9 37 40q-19 -3 -33.5 9.5t-14.5 33.5q0 20 14.5 34t35.5 14z" />
    <glyph glyph-name="Omega" unicode="&#x3a9;" horiz-adv-x="748" 
d="M683 46v-46h-222v38q70 56 114.5 144.5t44.5 189.5q0 74 -26.5 138.5t-83.5 107.5t-133 43q-113 0 -180.5 -86t-67.5 -204q0 -99 46 -189.5t115 -143.5v-38h-225v46h154q-63 57 -105.5 142.5t-42.5 185.5q0 143 86 238.5t222 95.5q137 0 217.5 -95t80.5 -233
q0 -103 -42 -188.5t-107 -145.5h155z" />
    <glyph glyph-name="pi" unicode="&#x3c0;" horiz-adv-x="724" 
d="M693 457h-109v-294q0 -107 18 -163h-78q-21 26 -21 152v305h-249q-7 -112 -35 -256.5t-60 -200.5h-80q34 71 61.5 209.5t33.5 247.5q-107 0 -152 -17l-13 48q53 28 178 28h514z" />
    <glyph glyph-name="Wgrave" unicode="&#x1e80;" horiz-adv-x="1068" 
d="M608 805l-61 -26l-81 137l81 14zM825 0h-81l-208 574l-196 -574h-82l-232 700h86l188 -586l198 586h74l209 -585l174 585h86z" />
    <glyph glyph-name="wgrave" unicode="&#x1e81;" horiz-adv-x="890" 
d="M518 640l-61 -26l-80 137l80 14zM687 0h-87l-155 421l-154 -421h-85l-180 535h82l141 -428l160 428h73l161 -433l139 433h82z" />
    <glyph glyph-name="Wacute" unicode="&#x1e82;" horiz-adv-x="1068" 
d="M627 916l-81 -137l-61 26l61 125zM825 0h-81l-208 574l-196 -574h-82l-232 700h86l188 -586l198 586h74l209 -585l174 585h86z" />
    <glyph glyph-name="wacute" unicode="&#x1e83;" horiz-adv-x="890" 
d="M537 751l-80 -137l-61 26l61 125zM687 0h-87l-155 421l-154 -421h-85l-180 535h82l141 -428l160 428h73l161 -433l139 433h82z" />
    <glyph glyph-name="Wdieresis" unicode="&#x1e84;" horiz-adv-x="1068" 
d="M465 881q17 0 29.5 -12t12.5 -30t-13 -30.5t-29 -12.5q-17 0 -30 12.5t-13 30.5t12.5 30t30.5 12zM608 881q17 0 29.5 -12t12.5 -30t-13 -30.5t-29 -12.5q-17 0 -30 12.5t-13 30.5t12.5 30t30.5 12zM825 0h-81l-208 574l-196 -574h-82l-232 700h86l188 -586l198 586h74
l209 -585l174 585h86z" />
    <glyph glyph-name="wdieresis" unicode="&#x1e85;" horiz-adv-x="890" 
d="M375 716q18 0 30.5 -12t12.5 -30t-13.5 -30.5t-29.5 -12.5q-17 0 -30 12.5t-13 30.5t12.5 30t30.5 12zM518 716q18 0 30.5 -12t12.5 -30t-13.5 -30.5t-29.5 -12.5q-17 0 -30 12.5t-13 30.5t12.5 30t30.5 12zM687 0h-87l-155 421l-154 -421h-85l-180 535h82l141 -428
l160 428h73l161 -433l139 433h82z" />
    <glyph glyph-name="Ygrave" unicode="&#x1ef2;" horiz-adv-x="756" 
d="M452 805l-61 -26l-80 137l80 14zM424 276v-276h-92v278l-289 422h103l232 -344l234 344h103z" />
    <glyph glyph-name="ygrave" unicode="&#x1ef3;" horiz-adv-x="638" 
d="M332 614l-80 137l80 14l61 -125zM637 535l-408 -837h-92l146 296l-266 541h93l218 -453l217 453h92z" />
    <glyph glyph-name="endash" unicode="&#x2013;" horiz-adv-x="464" 
d="M424 315h-384v68h384v-68z" />
    <glyph glyph-name="emdash" unicode="&#x2014;" horiz-adv-x="598" 
d="M558 315h-518v68h518v-68z" />
    <glyph glyph-name="quoteleft" unicode="&#x2018;" horiz-adv-x="121" 
d="M63 600q-23 -3 -42 12.5t-23 44.5q-4 38 20.5 69t65.5 39l1 -33q-31 -10 -32 -44q18 6 34 -4.5t19 -30.5q2 -20 -10.5 -35.5t-32.5 -17.5z" />
    <glyph glyph-name="quoteright" unicode="&#x2019;" horiz-adv-x="121" 
d="M58 787q24 3 42.5 -12.5t22.5 -45.5q4 -38 -20.5 -68.5t-65.5 -38.5l-1 32q32 12 32 44q-18 -5 -34 5t-18 31q-3 19 9.5 34.5t32.5 18.5z" />
    <glyph glyph-name="quotesinglbase" unicode="&#x201a;" horiz-adv-x="225" 
d="M109 89q23 0 40 -18t17 -48q0 -39 -28 -67t-70 -31l2 33q33 7 37 40q-19 -4 -33.5 9t-14.5 34q0 20 14.5 34t35.5 14z" />
    <glyph glyph-name="quotedblleft" unicode="&#x201c;" horiz-adv-x="245" 
d="M63 600q-23 -3 -42 12.5t-23 44.5q-4 38 20.5 69t65.5 39l1 -33q-31 -10 -32 -44q18 6 34 -4.5t19 -30.5q2 -20 -10.5 -35.5t-32.5 -17.5zM187 600q-23 -3 -41.5 12.5t-22.5 44.5q-5 38 19.5 69t65.5 39l1 -33q-31 -10 -32 -44q18 6 34 -4.5t19 -30.5q2 -20 -10.5 -35.5
t-32.5 -17.5z" />
    <glyph glyph-name="quotedblright" unicode="&#x201d;" horiz-adv-x="247" 
d="M58 787q24 3 42.5 -12.5t22.5 -45.5q4 -38 -20.5 -68.5t-65.5 -38.5l-1 32q32 12 32 44q-18 -5 -34 5t-18 31q-3 19 9.5 34.5t32.5 18.5zM184 787q24 3 42.5 -12.5t22.5 -45.5q4 -38 -20.5 -68.5t-65.5 -38.5l-1 32q32 12 32 44q-18 -5 -34 5t-18 31q-3 19 9.5 34.5
t32.5 18.5z" />
    <glyph glyph-name="quotedblbase" unicode="&#x201e;" horiz-adv-x="354" 
d="M109 89q23 0 40 -18t17 -48q0 -39 -28 -67t-70 -31l2 33q33 7 37 40q-19 -4 -33.5 9t-14.5 34q0 20 14.5 34t35.5 14zM238 89q23 0 40 -18t17 -48q0 -39 -28 -67t-70 -31l2 33q33 7 37 40q-19 -4 -33.5 9t-14.5 34q0 20 14.5 34t35.5 14z" />
    <glyph glyph-name="dagger" unicode="&#x2020;" horiz-adv-x="473" 
d="M434 471h-153v-562h-77v562h-154v68h154v212h77v-212h153v-68z" />
    <glyph glyph-name="daggerdbl" unicode="&#x2021;" horiz-adv-x="473" 
d="M281 471v-238h153v-69h-153v-255h-77v255h-154v69h154v238h-154v68h154v212h77v-212h153v-68h-153z" />
    <glyph glyph-name="bullet" unicode="&#x2022;" horiz-adv-x="348" 
d="M177 386q24 0 41.5 -17t17.5 -42t-18 -42.5t-41 -17.5q-24 0 -42 17.5t-18 42.5t17.5 42t42.5 17z" />
    <glyph glyph-name="ellipsis" unicode="&#x2026;" horiz-adv-x="569" 
d="M110 94q21 0 36 -15t15 -36q0 -22 -15.5 -37t-35.5 -15q-21 0 -36 15t-15 37q0 21 14.5 36t36.5 15zM287 94q21 0 36 -15t15 -36q0 -22 -15.5 -37t-35.5 -15q-21 0 -36 15t-15 37q0 21 14.5 36t36.5 15zM459 94q21 0 36 -15t15 -36q0 -22 -15.5 -37t-35.5 -15
q-21 0 -36 15.5t-15 36.5t15 36t36 15z" />
    <glyph glyph-name="perthousand" unicode="&#x2030;" horiz-adv-x="1168" 
d="M220 714q66 0 109.5 -44.5t43.5 -106.5q0 -64 -43 -107.5t-110 -43.5q-64 0 -108.5 43t-44.5 108q0 64 44 107.5t109 43.5zM203 0h-72l454 700h73zM221 665q-44 0 -74 -30t-30 -73t30 -73t74 -30t73.5 30t29.5 73t-29.5 73t-73.5 30zM581 292q66 0 109.5 -44.5
t43.5 -106.5q0 -64 -43.5 -108t-109.5 -44q-64 0 -108.5 43.5t-44.5 108.5q0 64 44 107.5t109 43.5zM954 292q65 0 108.5 -44.5t43.5 -106.5q0 -64 -43 -108t-109 -44q-64 0 -109 43.5t-45 108.5q0 64 44.5 107.5t109.5 43.5zM582 243q-44 0 -73.5 -30t-29.5 -73t29.5 -72.5
t73.5 -29.5t73 29.5t29 72.5t-29 73t-73 30zM955 243q-44 0 -73.5 -30t-29.5 -73t29.5 -72.5t73.5 -29.5t73 29.5t29 72.5t-29 73t-73 30z" />
    <glyph glyph-name="guilsinglleft" unicode="&#x2039;" horiz-adv-x="399" 
d="M129 271l237 -271h-85l-237 271l236 264h84z" />
    <glyph glyph-name="guilsinglright" unicode="&#x203a;" horiz-adv-x="420" 
d="M102 535l236 -264l-237 -271h-85l237 271l-235 264h84z" />
    <glyph glyph-name="fraction" unicode="&#x2044;" horiz-adv-x="630" 
d="M115 0h-72l454 700h73z" />
    <glyph glyph-name="foursuperior" unicode="&#x2074;" horiz-adv-x="399" 
d="M293 453h55v-44h-55v-80h-53v80h-203v38l199 253h57v-247zM95 452h146v180z" />
    <glyph glyph-name="Euro" unicode="&#x20ac;" horiz-adv-x="750" 
d="M650 137l37 -59q-94 -100 -243 -100q-125 0 -213 72t-117 194h-74v49h66q-3 27 -3 57v24h-63v50h68q22 134 114.5 215t221.5 81q131 0 225 -81l-33 -60q-80 67 -185 67q-99 0 -167 -60.5t-87 -161.5h306v-50h-312v-24q0 -30 3 -57h308v-49h-298q25 -88 88.5 -139.5
t156.5 -51.5q123 0 201 84z" />
    <glyph glyph-name="afii61289" unicode="&#x2113;" horiz-adv-x="612" 
d="M539 169l41 -33q-85 -143 -240 -143q-91 0 -143 52t-60 127v11q-13 -8 -38 -26.5t-36 -25.5l-26 44q12 9 46.5 32.5t51.5 37.5v274q0 69 16.5 120t44 78t59 39.5t67.5 12.5q78 0 118.5 -49.5t40.5 -118.5q0 -94 -68.5 -184t-202.5 -198v-17q1 -72 44.5 -110.5
t102.5 -38.5q58 0 106.5 35t75.5 81zM210 539v-252q102 91 155.5 163.5t53.5 143.5q0 122 -97 122q-44 0 -78 -42.5t-34 -134.5z" />
    <glyph glyph-name="uni2116" unicode="&#x2116;" horiz-adv-x="1462" 
d="M1116 711q117 0 199 -76.5t82 -203.5q0 -131 -83.5 -204.5t-197.5 -73.5q-117 0 -200 74.5t-83 204.5q0 122 81.5 200.5t201.5 78.5zM729 0h-78l-450 567v-567h-85v700h85l442 -559v559h86v-700zM1116 640q-85 0 -144 -57t-59 -152q1 -98 60 -152.5t143 -55.5
q81 0 141 55t60 153q0 100 -59.5 154.5t-141.5 54.5zM1369 0h-502v59h502v-59z" />
    <glyph glyph-name="trademark" unicode="&#x2122;" horiz-adv-x="952" 
d="M403 623h-144v-315h-85v315h-144v78h373v-78zM892 308h-84v264l-147 -192l-139 191v-263h-85v393h75l150 -200l156 200h74v-393z" />
    <glyph glyph-name="estimated" unicode="&#x212e;" horiz-adv-x="872" 
d="M837 339h-650q-6 0 -6 -4v-197q0 -11 9 -22q104 -107 246 -107q155 0 259 120h57q-54 -65 -138 -102.5t-179 -37.5q-166 0 -283.5 105.5t-117.5 254.5q0 150 117.5 256t283.5 106q167 0 284.5 -106t117.5 -256v-10zM689 365v198q0 14 -9 23q-105 103 -244 103
q-141 0 -245 -106q-10 -10 -10 -24v-194q0 -6 6 -6h498q4 0 4 6z" />
    <glyph glyph-name="arrowup" unicode="&#x2191;" horiz-adv-x="587" 
d="M411 362v-305l-132 66l-132 -66v305h-97l229 247l228 -247h-96z" />
    <glyph glyph-name="arrowdown" unicode="&#x2193;" horiz-adv-x="587" 
d="M507 334l-228 -247l-229 247h97v305l132 -66l132 66v-305h96z" />
    <glyph glyph-name="partialdiff" unicode="&#x2202;" horiz-adv-x="688" 
d="M125 670l-30 47q85 61 212 61q131 0 223.5 -105t92.5 -279q0 -59 -12.5 -116t-39.5 -109t-65 -91.5t-92.5 -63t-118.5 -23.5q-61 0 -110 23t-77 58.5t-43 75.5t-15 78q0 108 77.5 177.5t187.5 69.5q45 0 87 -15t70 -37t45.5 -40.5t26.5 -33.5h1q1 15 1 54q0 145 -72 232
t-174 87q-94 0 -175 -50zM302 48h1q90 0 152 69.5t77 164.5q-17 45 -73.5 90t-129.5 45q-82 0 -141 -54t-59 -133q0 -75 48.5 -128.5t124.5 -53.5z" />
    <glyph glyph-name="Delta" unicode="&#x2206;" horiz-adv-x="836" 
d="M37 0v53l334 665h95l332 -665v-53h-761zM121 59h586l-200 406q-87 185 -90 193h-5q-2 -5 -80 -171z" />
    <glyph glyph-name="product" unicode="&#x220f;" horiz-adv-x="887" 
d="M858 631h-150v-727h-76v727h-378v-727h-76v727h-150v64h830v-64z" />
    <glyph glyph-name="summation" unicode="&#x2211;" horiz-adv-x="705" 
d="M677 -96h-652v44l348 349l-331 349v49h618v-64h-502v-4l308 -324l-328 -330v-3h539v-66z" />
    <glyph glyph-name="minus" unicode="&#x2212;" horiz-adv-x="765" 
d="M609 293h-453v68h453v-68z" />
    <glyph glyph-name="bulletoperator" unicode="&#x2219;" horiz-adv-x="332" 
d="M171 389q22 0 38 -16t16 -38q0 -23 -16.5 -39t-37.5 -16q-23 0 -39 16t-16 39t16 38.5t39 15.5z" />
    <glyph glyph-name="radical" unicode="&#x221a;" horiz-adv-x="703" 
d="M712 821l-283 -974h-72l-205 466l-93 -35l-19 43l158 63l174 -413q19 -55 20 -57h2q1 6 16 59l241 848h61z" />
    <glyph glyph-name="infinity" unicode="&#x221e;" horiz-adv-x="918" 
d="M855 288v-1q0 -80 -53 -130.5t-125 -50.5q-53 0 -100.5 33.5t-116.5 109.5q-31 -35 -49.5 -53.5t-48.5 -43t-61 -35.5t-66 -11q-70 0 -121.5 51.5t-51.5 125.5q0 78 52.5 130t129.5 52q42 0 84.5 -23t70 -49.5t66.5 -70.5l50 54.5t45.5 41t61.5 37t65 10.5q76 -1 122 -50
t46 -127zM243 154h1q22 0 43 7.5t44 25t35 28t37 37l29 30.5q-62 74 -92 97q-51 40 -105 40t-87.5 -40.5t-33.5 -96.5q0 -53 35.5 -90.5t93.5 -37.5zM681 419h-1q-29 0 -60 -16.5t-48 -32t-47 -47l-35 -36.5q69 -73 109 -103t83 -30q55 0 88 39.5t33 90.5q0 62 -34.5 98.5
t-87.5 36.5z" />
    <glyph glyph-name="integral" unicode="&#x222b;" horiz-adv-x="530" 
d="M397 713q54 0 118 -31l-20 -49q-44 26 -86 25q-46 -2 -77.5 -35.5t-31.5 -104.5v-323q0 -99 -48 -147.5t-119 -48.5q-52 0 -118 32l20 49q44 -26 86 -25q46 2 77.5 35.5t31.5 104.5v323q0 99 48 147t119 48z" />
    <glyph glyph-name="approxequal" unicode="&#x2248;" horiz-adv-x="673" 
d="M221 499q33 1 65 -15.5t53.5 -36.5t51 -36t58.5 -15q37 1 68 29t43 63l51 -25q-27 -59 -62 -93t-93 -37q-37 -2 -71.5 13.5t-56.5 35.5t-50.5 37t-54.5 17q-74 1 -118 -89l-48 23q57 126 164 129zM225 302q33 1 65 -15.5t53 -36.5t50.5 -36.5t58.5 -15.5q37 1 67.5 29
t44.5 63l51 -25q-28 -58 -63.5 -92.5t-92.5 -37.5q-37 -2 -71.5 14t-56.5 36t-50 37t-54 17q-77 0 -118 -90l-48 23q57 126 164 130z" />
    <glyph glyph-name="notequal" unicode="&#x2260;" horiz-adv-x="690" 
d="M582 221h-202l-95 -324l-75 -1l95 325h-196l-1 64h216l34 117h-249l-1 63h268l83 283h75l-83 -283h130l1 -63h-149l-35 -117h183z" />
    <glyph glyph-name="lessequal" unicode="&#x2264;" horiz-adv-x="646" 
d="M606 544l-428 -131l428 -131l-19 -69l-505 166v65l505 169zM613 155v-61h-525v61h525z" />
    <glyph glyph-name="greaterequal" unicode="&#x2265;" horiz-adv-x="665" 
d="M601 444v-65l-505 -166l-19 69l428 131l-428 131l19 69zM595 94h-525v61h525v-61z" />
    <glyph glyph-name="deleterightKey" unicode="&#x2326;" horiz-adv-x="749" 
d="M653 338l-132 -167h-484v334h484z" />
    <glyph glyph-name="uni232B" unicode="&#x232b;" horiz-adv-x="746" 
d="M681 505v-334h-484l-132 167l132 167h484z" />
    <glyph glyph-name="lozenge" unicode="&#x25ca;" horiz-adv-x="791" 
d="M736 345l-340 -341l-341 341l341 340zM133 345l264 -263l262 263l-262 263z" />
    <glyph glyph-name="uni2639" unicode="&#x2639;" horiz-adv-x="781" 
d="M190 192l203 4q173 5 222 5q29 0 49 20.5t20 49.5q0 27 -17.5 47t-43.5 23q-22 40 -66 40q-33 0 -56 -26q-25 33 -66 33q-9 0 -13 -1q-39 66 -115 66q-41 0 -74.5 -23t-48.5 -61q-34 -2 -57.5 -28t-23.5 -60q0 -37 25.5 -63t61.5 -26zM190 338q17 0 21 11q10 33 36.5 53
t59.5 20q29 0 54 -16.5t38 -43.5q7 -12 19 -8q6 3 17 3q37 0 50 -35q4 -11 15 -11q10 0 15 10q13 28 42 28q31 0 41 -29q5 -11 16 -9h1q16 0 27 -11.5t11 -28.5q0 -16 -11 -28t-27 -12q-66 0 -222 -3l-203 -4q-23 0 -39.5 17t-16.5 40t16.5 40t39.5 17z" />
    <glyph glyph-name="whitesmilingface" unicode="&#x263a;" horiz-adv-x="514" 
d="M404 421l-34 -297q0 -40 -94 -40q-84 0 -90 40l-38 294v6q0 12 22 21t33 9l-10 99q-6 6 -6 10l-1 6l-76 62l18 18l71 -60h6q11 0 11 -5v-13q2 -2 2 -5q2 -6 -2 -13l9 -96q18 3 51 3q14 0 30.5 -1t41 -4.5t40.5 -11.5t16 -19v-3zM276 438q-33 0 -48 -3v-26q15 -3 48 -3
q83 0 105 18q-38 14 -105 14zM205 412v19q-31 -5 -31 -9q1 -5 31 -10zM276 107q52 0 72 17q-1 0 -3 1t-6 2.5t-8 3.5q-12 2 -12 13q0 14 16 9q2 -1 7.5 -2.5t7.5 -2.5l29 251q-16 -16 -103 -16q-25 0 -45 2l2 -14h2q10 0 13 -5l18 -3l20 -2q13 -6 15 -18q10 3 20 3
q-3 3 -7 3q-9 0 -9 12q0 4 3.5 7t7.5 3q15 -1 25.5 -4.5t13.5 -6.5t3 -5q0 -11 -2 -14q-7 -13 -51 -20v-6q0 -3 1.5 -8.5t1.5 -7.5v-6q6 -3 10.5 -10t5.5 -12l1 -5l6 -43q0 -3 -4 -6.5t-9 -3.5l-59 -10q-11 8 -13 10l5 -40l-23 -2l-10 95q-10 6 -10 15l5 43v5q-14 4 -20 12
q-3 5 -3 14q0 7 21 11l-3 23q-22 3 -34 10l31 -251q28 13 71 13q12 0 12 -11q0 -12 -12 -12q-45 0 -68 -14q14 -17 68 -17zM283 313q-1 6 -1 16q0 9 -3 9l-16 3q-15 2 -20 2l-4 -2l-4 -3v-3l-2 -46l18 -3q1 0 5 1.5t7 1.5q1 0 4 1t4 1l5 2q6 2 10 2v4q0 2 -1.5 6.5t-1.5 7.5
zM257 264v-18l2 -16q4 0 4 -4l42 7l-4 28q-5 12 -8 12q-4 -4 -12.5 -7.5t-9.5 -4.5h-3h-2z" />
    <glyph glyph-name="invsmileface" unicode="&#x263b;" horiz-adv-x="885" 
d="M436 695l411 -142v-415l-411 -154l-398 154v415z" />
    <glyph glyph-name="uni2714" unicode="&#x2714;" horiz-adv-x="821" 
d="M806 664l-561 -666l-230 250l61 55l167 -185l501 597z" />
    <glyph glyph-name="A.ss01" horiz-adv-x="758" 
d="M578 158h-399l-75 -169l-77 33l311 680h82l311 -682l-76 -34zM543 236l-164 370l-165 -370h329z" />
    <glyph glyph-name="Aacute.ss01" horiz-adv-x="758" 
d="M390 779l-61 26l61 125l80 -14zM578 158h-399l-75 -169l-77 33l311 680h82l311 -682l-76 -34zM543 236l-164 370l-165 -370h329z" />
    <glyph glyph-name="Abreve.ss01" horiz-adv-x="758" 
d="M379 779q-60 0 -99.5 32.5t-55.5 84.5l57 18q24 -77 99 -77q74 0 96 77l55 -17q-14 -52 -53 -85t-99 -33zM578 158h-399l-75 -169l-77 33l311 680h82l311 -682l-76 -34zM543 236l-164 370l-165 -370h329z" />
    <glyph glyph-name="Acircumflex.ss01" horiz-adv-x="758" 
d="M306 775l-46 30l87 113h62l86 -113l-46 -30l-71 102zM578 158h-399l-75 -169l-77 33l311 680h82l311 -682l-76 -34zM543 236l-164 370l-165 -370h329z" />
    <glyph glyph-name="Adieresis.ss01" horiz-adv-x="758" 
d="M308 796q-17 0 -30 12.5t-13 30.5t12.5 30t30.5 12t30.5 -12t12.5 -30t-13.5 -30.5t-29.5 -12.5zM451 796q-17 0 -30 12.5t-13 30.5t12.5 30t30.5 12t30.5 -12t12.5 -30t-13.5 -30.5t-29.5 -12.5zM578 158h-399l-75 -169l-77 33l311 680h82l311 -682l-76 -34zM543 236
l-164 370l-165 -370h329z" />
    <glyph glyph-name="Agrave.ss01" horiz-adv-x="758" 
d="M390 779l-80 137l80 14l61 -125zM578 158h-399l-75 -169l-77 33l311 680h82l311 -682l-76 -34zM543 236l-164 370l-165 -370h329z" />
    <glyph glyph-name="Amacron.ss01" horiz-adv-x="758" 
d="M543 787h-335v58h335v-58zM578 158h-399l-75 -169l-77 33l311 680h82l311 -682l-76 -34zM543 236l-164 370l-165 -370h329z" />
    <glyph glyph-name="Aogonek.ss01" horiz-adv-x="758" 
d="M796 -99l19 -31q-48 -38 -99 -39q-44 -1 -74 22.5t-30 61.5q0 45 41 75l-75 168h-399l-75 -169l-77 33l311 680h82l311 -682l-27 -12h24v-8q-64 -28 -66 -75q-1 -24 17 -37.5t48 -12.5q36 2 69 26zM543 236l-165 370l-164 -370h329z" />
    <glyph glyph-name="Aring.ss01" horiz-adv-x="758" 
d="M377 752q-53 0 -88 32t-35 83q0 50 35.5 83t87.5 33q51 0 86.5 -33t35.5 -83q0 -51 -35 -83t-87 -32zM376 939q-30 0 -52 -21t-22 -51t22.5 -51t52.5 -21t52 21t22 51t-22.5 51t-52.5 21zM578 158h-399l-75 -169l-77 33l311 680h82l311 -682l-76 -34zM543 236l-164 370
l-165 -370h329z" />
    <glyph glyph-name="Atilde.ss01" horiz-adv-x="758" 
d="M306 837q-43 3 -60 -48l-43 22q8 34 35.5 57t67.5 22q37 -1 87 -30.5t73 -29.5q40 0 59 48l43 -19q-9 -36 -35.5 -58.5t-63.5 -22.5q-35 0 -87 29t-76 30zM578 158h-399l-75 -169l-77 33l311 680h82l311 -682l-76 -34zM543 236l-164 370l-165 -370h329z" />
    <glyph glyph-name="AE.ss01" horiz-adv-x="993" 
d="M940 78v-78h-495v263h-194l-154 -272l-70 40l384 669h504v-77h-385v-232h295v-73h-295v-240h410zM444 340v270l-9 -22l-140 -248h149z" />
    <glyph glyph-name="K.ss01" horiz-adv-x="697" 
d="M643 661l-231 -261l278 -363l-63 -52l-270 354l-157 -176v-163h-84v700h84v-417l382 430z" />
    <glyph glyph-name="Q.ss01" horiz-adv-x="863" 
d="M798 347q0 -153 -94 -255l77 -84l-58 -52l-81 84q-91 -59 -209 -59q-162 0 -265.5 103t-103.5 263q0 161 104.5 262.5t263.5 101.5t263 -101.5t103 -262.5zM150 347q0 -127 77.5 -207.5t204.5 -80.5q128 0 204.5 81.5t76.5 206.5q0 126 -78.5 206t-203.5 80
q-124 0 -202.5 -79.5t-78.5 -206.5z" />
    <glyph glyph-name="R.ss01" horiz-adv-x="713" 
d="M645 449q0 -147 -140 -216l132 -206l-73 -45l-141 224q-37 -9 -75 -9q-102 0 -147 1v-198h-85v700q144 2 219 2q140 -1 224 -70t86 -183zM347 275q91 3 152.5 49t60.5 124t-63 125.5t-156 49.5q-50 1 -140 1v-349q80 -1 146 0z" />
    <glyph glyph-name="V.ss01" horiz-adv-x="727" 
d="M716 677l-312 -677h-78l-315 677l77 33l277 -609l274 608z" />
    <glyph glyph-name="W.ss01" horiz-adv-x="1080" 
d="M1049 687l-217 -689h-79l-211 565l-199 -565h-77l-236 687l77 24l198 -587l204 579h65l215 -577l185 587z" />
    <glyph glyph-name="Wacute.ss01" horiz-adv-x="1080" 
d="M634 916l-80 -137l-61 26l61 125zM1049 687l-217 -689h-79l-211 565l-199 -565h-77l-236 687l77 24l198 -587l204 579h65l215 -577l185 587z" />
    <glyph glyph-name="Wcircumflex.ss01" horiz-adv-x="1080" 
d="M613 775l-71 102l-72 -102l-46 30l87 113h62l86 -113zM1049 687l-217 -689h-79l-211 565l-199 -565h-77l-236 687l77 24l198 -587l204 579h65l215 -577l185 587z" />
    <glyph glyph-name="Wdieresis.ss01" horiz-adv-x="1080" 
d="M472 881q18 0 30.5 -12t12.5 -30t-13.5 -30.5t-29.5 -12.5q-17 0 -30 12.5t-13 30.5t12.5 30t30.5 12zM615 881q18 0 30.5 -12t12.5 -30t-13.5 -30.5t-29.5 -12.5q-17 0 -30 12.5t-13 30.5t12.5 30t30.5 12zM1049 687l-217 -689h-79l-211 565l-199 -565h-77l-236 687
l77 24l198 -587l204 579h65l215 -577l185 587z" />
    <glyph glyph-name="Wgrave.ss01" horiz-adv-x="1080" 
d="M615 805l-61 -26l-80 137l80 14zM1049 687l-217 -689h-79l-211 565l-199 -565h-77l-236 687l77 24l198 -587l204 579h65l215 -577l185 587z" />
    <glyph glyph-name="X.ss01" horiz-adv-x="778" 
d="M662 -21l-273 323l-273 -323l-63 55l282 332l-254 299l64 53l244 -288l245 288l63 -53l-254 -299l282 -332z" />
    <glyph glyph-name="Y.ss01" horiz-adv-x="757" 
d="M715 664l-294 -386v-278h-86v281l-294 383l65 53l272 -361l274 360z" />
    <glyph glyph-name="Yacute.ss01" horiz-adv-x="757" 
d="M471 916l-80 -137l-61 26l61 125zM715 664l-294 -386v-278h-86v281l-294 383l65 53l272 -361l274 360z" />
    <glyph glyph-name="Ycircumflex.ss01" horiz-adv-x="757" 
d="M450 775l-71 102l-72 -102l-46 30l87 113h62l86 -113zM715 664l-294 -386v-278h-86v281l-294 383l65 53l272 -361l274 360z" />
    <glyph glyph-name="Ydieresis.ss01" horiz-adv-x="757" 
d="M309 881q18 0 30.5 -12t12.5 -30t-13.5 -30.5t-29.5 -12.5q-17 0 -30 12.5t-13 30.5t12.5 30t30.5 12zM452 881q18 0 30.5 -12t12.5 -30t-13.5 -30.5t-29.5 -12.5q-17 0 -30 12.5t-13 30.5t12.5 30t30.5 12zM715 664l-294 -386v-278h-86v281l-294 383l65 53l272 -361
l274 360z" />
    <glyph glyph-name="Ygrave.ss01" horiz-adv-x="757" 
d="M443 805l-61 -26l-81 137l81 14zM715 664l-294 -386v-278h-86v281l-294 383l65 53l272 -361l274 360z" />
    <glyph glyph-name="a.ss01" horiz-adv-x="647" 
d="M315 542q112 0 183.5 -69t71.5 -188v-285h-79l-2 80q-101 -91 -227 -91q-93 0 -154 52t-61 135q0 85 65 133.5t159 48.5q111 -1 218 -73q0 89 -51 138t-132 49q-79 0 -160 -43l-26 59q99 54 195 54zM127 175q0 -53 44.5 -84.5t111.5 -31.5q105 0 206 78v94
q-102 61 -194 62q-73 2 -120.5 -31t-47.5 -87z" />
    <glyph glyph-name="aacute.ss01" horiz-adv-x="647" 
d="M376 634l-61 26l61 125l80 -14zM315 542q112 0 183.5 -69t71.5 -188v-285h-79l-2 80q-101 -91 -227 -91q-93 0 -154 52t-61 135q0 85 65 133.5t159 48.5q111 -1 218 -73q0 89 -51 138t-132 49q-79 0 -160 -43l-26 59q99 54 195 54zM127 175q0 -53 44.5 -84.5t111.5 -31.5
q105 0 206 78v94q-102 61 -194 62q-73 2 -120.5 -31t-47.5 -87z" />
    <glyph glyph-name="abreve.ss01" horiz-adv-x="647" 
d="M365 634q-60 0 -99.5 32.5t-55.5 84.5l57 18q24 -77 99 -77q74 0 96 77l55 -17q-14 -52 -53 -85t-99 -33zM315 542q112 0 183.5 -69t71.5 -188v-285h-79l-2 80q-101 -91 -227 -91q-93 0 -154 52t-61 135q0 85 65 133.5t159 48.5q111 -1 218 -73q0 89 -51 138t-132 49
q-79 0 -160 -43l-26 59q99 54 195 54zM127 175q0 -53 44.5 -84.5t111.5 -31.5q105 0 206 78v94q-102 61 -194 62q-73 2 -120.5 -31t-47.5 -87z" />
    <glyph glyph-name="acircumflex.ss01" horiz-adv-x="647" 
d="M292 630l-46 30l87 113h62l86 -113l-46 -30l-71 102zM315 542q112 0 183.5 -69t71.5 -188v-285h-79l-2 80q-101 -91 -227 -91q-93 0 -154 52t-61 135q0 85 65 133.5t159 48.5q111 -1 218 -73q0 89 -51 138t-132 49q-79 0 -160 -43l-26 59q99 54 195 54zM127 175
q0 -53 44.5 -84.5t111.5 -31.5q105 0 206 78v94q-102 61 -194 62q-73 2 -120.5 -31t-47.5 -87z" />
    <glyph glyph-name="adieresis.ss01" horiz-adv-x="647" 
d="M294 651q-17 0 -30 12.5t-13 30.5t12.5 30t30.5 12t30.5 -12t12.5 -30t-13.5 -30.5t-29.5 -12.5zM437 651q-17 0 -30 12.5t-13 30.5t12.5 30t30.5 12t30.5 -12t12.5 -30t-13.5 -30.5t-29.5 -12.5zM315 542q112 0 183.5 -69t71.5 -188v-285h-79l-2 80q-101 -91 -227 -91
q-93 0 -154 52t-61 135q0 85 65 133.5t159 48.5q111 -1 218 -73q0 89 -51 138t-132 49q-79 0 -160 -43l-26 59q99 54 195 54zM127 175q0 -53 44.5 -84.5t111.5 -31.5q105 0 206 78v94q-102 61 -194 62q-73 2 -120.5 -31t-47.5 -87z" />
    <glyph glyph-name="agrave.ss01" horiz-adv-x="647" 
d="M376 634l-80 137l80 14l61 -125zM315 542q112 0 183.5 -69t71.5 -188v-285h-79l-2 80q-101 -91 -227 -91q-93 0 -154 52t-61 135q0 85 65 133.5t159 48.5q111 -1 218 -73q0 89 -51 138t-132 49q-79 0 -160 -43l-26 59q99 54 195 54zM127 175q0 -53 44.5 -84.5
t111.5 -31.5q105 0 206 78v94q-102 61 -194 62q-73 2 -120.5 -31t-47.5 -87z" />
    <glyph glyph-name="amacron.ss01" horiz-adv-x="647" 
d="M529 642h-335v58h335v-58zM315 542q112 0 183.5 -69t71.5 -188v-285h-79l-2 80q-101 -91 -227 -91q-93 0 -154 52t-61 135q0 85 65 133.5t159 48.5q111 -1 218 -73q0 89 -51 138t-132 49q-79 0 -160 -43l-26 59q99 54 195 54zM127 175q0 -53 44.5 -84.5t111.5 -31.5
q105 0 206 78v94q-102 61 -194 62q-73 2 -120.5 -31t-47.5 -87z" />
    <glyph glyph-name="aogonek.ss01" horiz-adv-x="647" 
d="M637 -99l20 -31q-48 -38 -99 -39q-44 -1 -74 22.5t-30 61.5q0 24 14.5 47t40.5 38h-18l-2 80q-101 -91 -227 -91q-93 0 -154 52t-61 135q0 85 65 133.5t159 48.5q111 -1 218 -73q0 89 -51 138t-132 49q-79 0 -160 -43l-26 59q99 54 195 54q112 0 183.5 -69t71.5 -188
v-285q-65 -28 -67 -75q-1 -24 17.5 -38t48.5 -12q35 2 68 26zM126 175q0 -53 44.5 -84.5t111.5 -31.5q106 0 207 78v94q-102 61 -194 62q-73 2 -120.5 -31t-48.5 -87z" />
    <glyph glyph-name="aring.ss01" horiz-adv-x="647" 
d="M363 607q-53 0 -88 32t-35 83q0 50 35.5 83t87.5 33q51 0 86.5 -33t35.5 -83q0 -51 -35 -83t-87 -32zM362 794q-30 0 -52 -21t-22 -51t22.5 -51t52.5 -21t52 21t22 51t-22.5 51t-52.5 21zM315 542q112 0 183.5 -69t71.5 -188v-285h-79l-2 80q-101 -91 -227 -91
q-93 0 -154 52t-61 135q0 85 65 133.5t159 48.5q111 -1 218 -73q0 89 -51 138t-132 49q-79 0 -160 -43l-26 59q99 54 195 54zM127 175q0 -53 44.5 -84.5t111.5 -31.5q105 0 206 78v94q-102 61 -194 62q-73 2 -120.5 -31t-47.5 -87z" />
    <glyph glyph-name="atilde.ss01" horiz-adv-x="647" 
d="M292 692q-43 3 -60 -48l-43 22q8 34 35.5 57t67.5 22q37 -1 87 -30.5t73 -29.5q40 0 59 48l43 -19q-9 -36 -35.5 -58.5t-63.5 -22.5q-35 0 -87 29t-76 30zM315 542q112 0 183.5 -69t71.5 -188v-285h-79l-2 80q-101 -91 -227 -91q-93 0 -154 52t-61 135q0 85 65 133.5
t159 48.5q111 -1 218 -73q0 89 -51 138t-132 49q-79 0 -160 -43l-26 59q99 54 195 54zM127 175q0 -53 44.5 -84.5t111.5 -31.5q105 0 206 78v94q-102 61 -194 62q-73 2 -120.5 -31t-47.5 -87z" />
    <glyph glyph-name="ae.ss01" horiz-adv-x="1120" 
d="M799 552q86 -1 152 -44.5t95 -115.5t12 -153h-464q11 -86 73.5 -132.5t150.5 -45.5q115 1 194 80l42 -58q-38 -37 -98.5 -64t-139.5 -28q-93 0 -169.5 42t-111.5 120q-47 -81 -121.5 -123t-152.5 -42q-90 0 -152.5 52t-62.5 135q0 90 73 137.5t172 45.5q93 -2 198 -67
q-1 86 -49 132.5t-132 46.5q-82 0 -163 -42l-28 61q94 51 198 51q84 0 143.5 -33t86.5 -96q37 67 105 104.5t149 36.5zM594 306h387q8 71 -44.5 123t-137.5 53q-79 0 -137 -47t-68 -129zM487 208v31q-101 57 -183 60q-76 3 -130 -29.5t-54 -92.5q0 -54 43.5 -85.5
t106.5 -31.5q66 0 126 38t91 110z" />
    <glyph glyph-name="k.ss01" horiz-adv-x="625" 
d="M183 236l307 318l55 -53l-184 -190l240 -268l-58 -55l-240 271l-120 -120v-139h-79v724h79v-488z" />
    <glyph glyph-name="v.ss01" horiz-adv-x="607" 
d="M307 106l216 440l73 -34l-256 -511h-67l-262 512l73 36z" />
    <glyph glyph-name="w.ss01" horiz-adv-x="893" 
d="M691 0h-86l-155 423l-156 -423h-80l-186 521l76 21l149 -430l163 423h71l161 -428l141 436l76 -22z" />
    <glyph glyph-name="wacute.ss01" horiz-adv-x="893" 
d="M544 751l-80 -137l-61 26l61 125zM691 0h-86l-155 423l-156 -423h-80l-186 521l76 21l149 -430l163 423h71l161 -428l141 436l76 -22z" />
    <glyph glyph-name="wcircumflex.ss01" horiz-adv-x="893" 
d="M523 610l-71 102l-72 -102l-46 30l87 113h62l86 -113zM691 0h-86l-155 423l-156 -423h-80l-186 521l76 21l149 -430l163 423h71l161 -428l141 436l76 -22z" />
    <glyph glyph-name="wdieresis.ss01" horiz-adv-x="893" 
d="M382 716q18 0 30.5 -12t12.5 -30t-13.5 -30.5t-29.5 -12.5q-17 0 -30 12.5t-13 30.5t12.5 30t30.5 12zM525 716q18 0 30.5 -12t12.5 -30t-13.5 -30.5t-29.5 -12.5q-17 0 -30 12.5t-13 30.5t12.5 30t30.5 12zM691 0h-86l-155 423l-156 -423h-80l-186 521l76 21l149 -430
l163 423h71l161 -428l141 436l76 -22z" />
    <glyph glyph-name="wgrave.ss01" horiz-adv-x="893" 
d="M525 640l-61 -26l-80 137l80 14zM691 0h-86l-155 423l-156 -423h-80l-186 521l76 21l149 -430l163 423h71l161 -428l141 436l76 -22z" />
    <glyph glyph-name="x.ss01" horiz-adv-x="629" 
d="M538 -11l-224 232l-224 -232l-57 53l227 235l-204 213l56 51l200 -209l208 215l57 -53l-211 -218l228 -234z" />
    <glyph glyph-name="y.ss01" horiz-adv-x="673" 
d="M652 509l-403 -811l-74 33l128 260l-280 513l73 39l251 -467l231 467z" />
    <glyph glyph-name="yacute.ss01" horiz-adv-x="673" 
d="M412 751l-80 -137l-61 26l61 125zM652 509l-403 -811l-74 33l128 260l-280 513l73 39l251 -467l231 467z" />
    <glyph glyph-name="ycircumflex.ss01" horiz-adv-x="673" 
d="M391 610l-71 102l-72 -102l-46 30l87 113h62l86 -113zM652 509l-403 -811l-74 33l128 260l-280 513l73 39l251 -467l231 467z" />
    <glyph glyph-name="ydieresis.ss01" horiz-adv-x="673" 
d="M250 716q18 0 30.5 -12t12.5 -30t-13.5 -30.5t-29.5 -12.5q-17 0 -30 12.5t-13 30.5t12.5 30t30.5 12zM393 716q18 0 30.5 -12t12.5 -30t-13.5 -30.5t-29.5 -12.5q-17 0 -30 12.5t-13 30.5t12.5 30t30.5 12zM652 509l-403 -811l-74 33l128 260l-280 513l73 39l251 -467
l231 467z" />
    <glyph glyph-name="ygrave.ss01" horiz-adv-x="673" 
d="M393 640l-61 -26l-80 137l80 14zM652 509l-403 -811l-74 33l128 260l-280 513l73 39l251 -467l231 467z" />
    <glyph glyph-name="dcaron.ss02" horiz-adv-x="757" 
d="M777 742v-70q0 -89 -87 -99v24q15 3 25 14t10 24q0 20 -22 20h-22v87h96zM593 723l1 -723h-76l-2 84q-97 -92 -198 -92q-66 0 -124.5 31.5t-98 98t-39.5 154.5q0 124 72 196t173 72q122 0 213 -107l-1 286h80zM321 473q-78 0 -131.5 -56.5t-53.5 -143.5q0 -92 59 -150.5
t141 -58.5q99 1 178 93v207q-85 109 -193 109z" />
    <glyph glyph-name="i.ss02" horiz-adv-x="283" 
d="M185 718v-84h-87v84h87zM181 0h-80v535h80v-535z" />
    <glyph glyph-name="j.ss02" horiz-adv-x="277" 
d="M186 718v-84h-87v84h87zM182 535v-563q0 -102 -58.5 -154t-137.5 -52q-63 0 -129 36l26 62q48 -28 99 -27q48 1 84 33.5t36 102.5v562h80z" />
    <glyph glyph-name="lcaron.ss02" horiz-adv-x="310" 
d="M360 742v-69q0 -90 -87 -100v25q16 3 25.5 13.5t9.5 23.5q0 20 -22 20h-22v87h96zM184 0h-80v724h80v-724z" />
    <glyph glyph-name="tcaron.ss02" horiz-adv-x="489" 
d="M413 790v-70q0 -89 -87 -99v24q15 3 25 14t10 24q0 20 -22 20h-22v87h96zM225 535h185v-70h-185v-284q1 -60 32.5 -89.5t77.5 -30.5q51 -1 107 34l24 -64q-71 -42 -139 -41q-80 0 -131 51.5t-51 137.5v286h-113v70h113v165h80v-165z" />
    <glyph glyph-name="uni004E0044.ordn" horiz-adv-x="1201" 
d="M698 700l128 1q71 0 130.5 -15t107 -45.5t74 -83t26.5 -122.5q0 -132 -91 -203t-247 -71q-90 0 -128 2v537zM549 163h-80l-307 404v-404h-85v537h84l302 -400v400h86v-537zM782 623v-385q46 0 61 1q104 2 170 51t66 143q0 52 -21 90.5t-57 59.5t-75.5 30.5t-83.5 9.5h-60
z" />
    <glyph glyph-name="uni00530054.ordn" horiz-adv-x="1034" 
d="M281 708q90 0 176 -41l-24 -71q-76 36 -150 36q-52 0 -86.5 -19.5t-34.5 -55.5q0 -13 4 -22.5t15.5 -17.5t19 -12.5t28 -10t30 -7.5t35.5 -7q7 -1 10 -2q35 -7 58.5 -13.5t51.5 -19t44.5 -28t28 -40.5t11.5 -57q0 -80 -59.5 -123.5t-154.5 -44.5q-115 0 -226 63l31 69
q94 -56 193 -55q56 1 92 24t36 63q0 26 -19.5 42.5t-44.5 24t-72 17.5q-16 3 -25 5q-53 11 -86.5 24.5t-60.5 45.5t-27 80q0 76 60 114.5t146 38.5zM1022 623h-190v-460h-85v460h-189v77h464v-77z" />
    <glyph glyph-name="uni00720064.ordn" horiz-adv-x="1142" 
d="M621 702l128 1q71 0 130.5 -15t107 -45.5t74 -82.5t26.5 -122q0 -132 -91 -203t-247 -71q-90 0 -128 1v537zM511 509q1 -110 -91 -164l97 -180h-97l-81 151q-28 -5 -53 -5l-113 1v-147h-85v535q134 2 184 2q112 -1 175.5 -53t63.5 -140zM765 241q105 2 171 51t66 143
q0 52 -21 90.5t-57 59.5t-75.5 30.5t-83.5 9.5h-60v-385q46 0 60 1zM172 625v-238q79 0 114 1q65 2 103 33.5t37 84.5q0 54 -40 85t-105 33q-36 1 -109 1z" />
    <glyph glyph-name="uni00740068.ordn" horiz-adv-x="1127" 
d="M466 623h-190v-460h-84v460h-190v77h464v-77zM1052 163h-85v225h-293v-225h-85v537h85v-235h293v235h85v-537z" />
    <glyph glyph-name="a.sc" horiz-adv-x="624" 
d="M458 115h-292l-50 -115h-94l249 535h81l251 -535h-93zM424 192l-113 253l-111 -253h224z" />
    <glyph glyph-name="aacute.sc" horiz-adv-x="624" 
d="M306 614l-61 26l61 125l80 -14zM458 115h-292l-50 -115h-94l249 535h81l251 -535h-93zM424 192l-113 253l-111 -253h224z" />
    <glyph glyph-name="abreve.sc" horiz-adv-x="624" 
d="M295 615q-60 0 -99.5 32.5t-55.5 84.5l57 17q24 -77 99 -77q74 0 96 77l55 -17q-14 -52 -53 -84.5t-99 -32.5zM458 115h-292l-50 -115h-94l249 535h81l251 -535h-93zM424 192l-113 253l-111 -253h224z" />
    <glyph glyph-name="acircumflex.sc" horiz-adv-x="624" 
d="M222 610l-46 31l87 113h62l86 -113l-46 -30l-71 101zM458 115h-292l-50 -115h-94l249 535h81l251 -535h-93zM424 192l-113 253l-111 -253h224z" />
    <glyph glyph-name="adieresis.sc" horiz-adv-x="624" 
d="M224 632q-17 0 -30 12.5t-13 30.5t12.5 30t30.5 12t30.5 -12t12.5 -30t-13.5 -30.5t-29.5 -12.5zM367 632q-17 0 -30 12.5t-13 30.5t12.5 30t30.5 12t30.5 -12t12.5 -30t-13.5 -30.5t-29.5 -12.5zM458 115h-292l-50 -115h-94l249 535h81l251 -535h-93zM424 192l-113 253
l-111 -253h224z" />
    <glyph glyph-name="agrave.sc" horiz-adv-x="624" 
d="M306 614l-80 137l80 14l61 -125zM458 115h-292l-50 -115h-94l249 535h81l251 -535h-93zM424 192l-113 253l-111 -253h224z" />
    <glyph glyph-name="amacron.sc" horiz-adv-x="624" 
d="M459 622h-335v59h335v-59zM458 115h-292l-50 -115h-94l249 535h81l251 -535h-93zM424 192l-113 253l-111 -253h224z" />
    <glyph glyph-name="aogonek.sc" horiz-adv-x="624" 
d="M633 -80l19 -32q-47 -37 -99 -38q-44 -2 -74 22t-30 61q0 53 53 84l-44 98h-292l-50 -115h-95l250 535h81l250 -535h-70q-33 -26 -33 -56q-1 -24 17 -38t48 -12q36 2 69 26zM424 192l-113 252l-111 -252h224z" />
    <glyph glyph-name="aring.sc" horiz-adv-x="624" 
d="M293 587q-53 0 -88 32t-35 83q0 50 35.5 83t87.5 33t87 -33t35 -83q0 -51 -35 -83t-87 -32zM292 775q-30 0 -52 -21t-22 -51t22.5 -51t52.5 -21t52 21t22 51t-22.5 51t-52.5 21zM458 115h-292l-50 -115h-94l249 535h81l251 -535h-93zM424 192l-113 253l-111 -253h224z
" />
    <glyph glyph-name="atilde.sc" horiz-adv-x="624" 
d="M222 672q-43 3 -60 -47l-43 21q8 35 35.5 58t67.5 22q37 -1 87 -31t73 -30q39 0 59 48l43 -18q-9 -36 -35.5 -59t-63.5 -23q-35 0 -86.5 29.5t-76.5 29.5zM458 115h-292l-50 -115h-94l249 535h81l251 -535h-93zM424 192l-113 253l-111 -253h224z" />
    <glyph glyph-name="ae.sc" horiz-adv-x="768" 
d="M339 0v195h-170l-130 -196l-64 53l330 485h34h370v-77h-285v-153h223v-73h-223v-157h303l1 -77h-389zM339 272v182l-15 -27l-104 -155h119z" />
    <glyph glyph-name="b.sc" horiz-adv-x="553" 
d="M282 538q95 0 144.5 -39t49.5 -95q0 -41 -26.5 -72.5t-70.5 -39.5q56 -8 93 -47.5t37 -94.5q0 -68 -56.5 -110.5t-161.5 -42.5q-113 0 -214 3v537q146 2 205 1zM289 468q-87 0 -127 -1v-149q29 -1 125 -1q51 1 79 24.5t27 52.5q-1 33 -31 53.5t-73 20.5zM281 246
q-43 2 -119 -1v-173q84 -2 134 -1q126 1 126 85q0 37 -35 63t-106 27z" />
    <glyph glyph-name="c.sc" horiz-adv-x="553" 
d="M327 546q84 1 169 -38l-27 -70q-63 33 -133 30q-91 -2 -151.5 -57t-60.5 -140q-1 -87 62.5 -144.5t157.5 -57.5q69 0 125 33l31 -70q-78 -40 -162 -41q-123 -1 -211 77.5t-88 202.5q0 120 82.5 196.5t205.5 78.5z" />
    <glyph glyph-name="cacute.sc" horiz-adv-x="553" 
d="M428 751l-81 -137l-61 26l61 125zM327 546q84 1 169 -38l-27 -70q-63 33 -133 30q-91 -2 -151.5 -57t-60.5 -140q-1 -87 62.5 -144.5t157.5 -57.5q69 0 125 33l31 -70q-78 -40 -162 -41q-123 -1 -211 77.5t-88 202.5q0 120 82.5 196.5t205.5 78.5z" />
    <glyph glyph-name="ccaron.sc" horiz-adv-x="553" 
d="M364 638h-60l-84 100l47 34l66 -85l66 85l48 -34zM327 546q84 1 169 -38l-27 -70q-63 33 -133 30q-91 -2 -151.5 -57t-60.5 -140q-1 -87 62.5 -144.5t157.5 -57.5q69 0 125 33l31 -70q-78 -40 -162 -41q-123 -1 -211 77.5t-88 202.5q0 120 82.5 196.5t205.5 78.5z" />
    <glyph glyph-name="ccedilla.sc" horiz-adv-x="553" 
d="M469 102l30 -71q-79 -39 -161 -40l-19 1l-58 -122l-55 19l65 109q-101 19 -166.5 93t-65.5 180q0 120 82.5 196.5t205.5 78.5q84 1 169 -38l-27 -70q-63 33 -133 30q-91 -2 -151.5 -57t-60.5 -140q-1 -87 62.5 -144.5t157.5 -57.5q69 0 125 33z" />
    <glyph glyph-name="d.sc" horiz-adv-x="589" 
d="M77 537l128 1q71 0 130 -15t106.5 -45.5t74 -82.5t26.5 -122q0 -132 -91 -203.5t-247 -71.5q-89 0 -127 2v537zM161 460v-384q29 -2 60 0q105 2 171 51t66 144q0 42 -14.5 75t-37.5 54t-54.5 35t-63.5 19.5t-67 5.5q-1 0 -12.5 0.5t-24.5 0.5t-23 -1z" />
    <glyph glyph-name="eth.sc" horiz-adv-x="589" 
d="M77 537l128 1q71 0 130 -15t106.5 -45.5t74 -82.5t26.5 -122q0 -132 -91 -203.5t-247 -71.5q-89 0 -127 2v275h-71v68h71v194zM221 76q105 2 171 51t66 144q0 42 -14.5 75t-37.5 54t-54.5 35t-63.5 19.5t-67 5.5q-1 0 -12.5 0.5t-24.5 0.5t-23 -1v-117h148v-68h-148v-199
q29 -2 60 0z" />
    <glyph glyph-name="dcaron.sc" horiz-adv-x="589" 
d="M321 639h-61l-83 100l46 34l67 -85l66 85l48 -34zM77 537l128 1q71 0 130 -15t106.5 -45.5t74 -82.5t26.5 -122q0 -132 -91 -203.5t-247 -71.5q-89 0 -127 2v537zM161 460v-384q29 -2 60 0q105 2 171 51t66 144q0 42 -14.5 75t-37.5 54t-54.5 35t-63.5 19.5t-67 5.5
q-1 0 -12.5 0.5t-24.5 0.5t-23 -1z" />
    <glyph glyph-name="dcroat.sc" horiz-adv-x="589" 
d="M457 623h-335v58h335v-58zM77 537l128 1q71 0 130 -15t106.5 -45.5t74 -82.5t26.5 -122q0 -132 -91 -203.5t-247 -71.5q-89 0 -127 2v537zM161 460v-384q29 -2 60 0q105 2 171 51t66 144q0 42 -14.5 75t-37.5 54t-54.5 35t-63.5 19.5t-67 5.5q-1 0 -12.5 0.5t-24.5 0.5
t-23 -1z" />
    <glyph glyph-name="e.sc" horiz-adv-x="503" 
d="M447 460h-285v-153h223v-73h-223v-157h303v-77h-388v537h370v-77z" />
    <glyph glyph-name="eacute.sc" horiz-adv-x="503" 
d="M359 751l-80 -137l-61 26l61 125zM447 460h-285v-153h223v-73h-223v-157h303v-77h-388v537h370v-77z" />
    <glyph glyph-name="ecaron.sc" horiz-adv-x="503" 
d="M296 638h-61l-83 100l46 34l67 -85l66 85l48 -34zM447 460h-285v-153h223v-73h-223v-157h303v-77h-388v537h370v-77z" />
    <glyph glyph-name="ecircumflex.sc" horiz-adv-x="503" 
d="M338 610l-71 102l-72 -102l-46 30l87 113h62l86 -113zM447 460h-285v-153h223v-73h-223v-157h303v-77h-388v537h370v-77z" />
    <glyph glyph-name="edieresis.sc" horiz-adv-x="503" 
d="M197 716q18 0 30.5 -12t12.5 -30t-13.5 -30.5t-29.5 -12.5q-17 0 -30 12.5t-13 30.5t12.5 30t30.5 12zM340 716q18 0 30.5 -12t12.5 -30t-13.5 -30.5t-29.5 -12.5q-17 0 -30 12.5t-13 30.5t12.5 30t30.5 12zM447 460h-285v-153h223v-73h-223v-157h303v-77h-388v537h370
v-77z" />
    <glyph glyph-name="edotaccent.sc" horiz-adv-x="503" 
d="M283 716q18 0 30.5 -12t12.5 -30t-13.5 -30.5t-29.5 -12.5q-17 0 -30 12.5t-13 30.5t12.5 30t30.5 12zM447 460h-285v-153h223v-73h-223v-157h303v-77h-388v537h370v-77z" />
    <glyph glyph-name="egrave.sc" horiz-adv-x="503" 
d="M340 640l-61 -26l-80 137l80 14zM447 460h-285v-153h223v-73h-223v-157h303v-77h-388v537h370v-77z" />
    <glyph glyph-name="emacron.sc" horiz-adv-x="503" 
d="M432 622h-335v58h335v-58zM447 460h-285v-153h223v-73h-223v-157h303v-77h-388v537h370v-77z" />
    <glyph glyph-name="eogonek.sc" horiz-adv-x="503" 
d="M315 -125q33 1 68 26l20 -31q-48 -38 -99 -39q-44 -1 -74 22.5t-30 61.5q0 24 15 47t41 38h-179v537h370v-77h-285v-153h223v-73h-223v-157h303v-77h-149q-64 -28 -66 -75q-1 -24 17 -37.5t48 -12.5z" />
    <glyph glyph-name="f.sc" horiz-adv-x="486" 
d="M449 460h-287v-178h211v-75h-211v-207h-85v537h372v-77z" />
    <glyph glyph-name="g.sc" horiz-adv-x="614" 
d="M334 549q87 1 170 -38l-27 -75q-65 38 -139 35q-91 -2 -151 -60t-60 -143q-1 -87 60.5 -146t154.5 -59q63 0 126 35v114h-138v75h223v-233q-95 -67 -212 -68q-128 -1 -214.5 79t-86.5 203q1 119 83.5 199.5t210.5 81.5z" />
    <glyph glyph-name="gcommaaccent.sc" horiz-adv-x="614" 
d="M334 549q87 1 170 -38l-27 -75q-65 38 -139 35q-91 -2 -151 -60t-60 -143q-1 -87 60.5 -146t154.5 -59q63 0 126 35v114h-138v75h223v-233q-95 -67 -212 -68q-128 -1 -214.5 79t-86.5 203q1 119 83.5 199.5t210.5 81.5zM353 -87q23 0 40 -18t17 -48q0 -39 -28 -67
t-70 -31l2 33q33 9 37 40q-19 -3 -33.5 9.5t-14.5 33.5q0 20 14.5 34t35.5 14z" />
    <glyph glyph-name="h.sc" horiz-adv-x="616" 
d="M539 0h-85v225h-292v-225h-85v537h85v-235h292v235h85v-537z" />
    <glyph glyph-name="i.sc" horiz-adv-x="236" 
d="M160 0h-83v535h83v-535z" />
    <glyph glyph-name="iacute.sc" horiz-adv-x="236" 
d="M211 751l-80 -137l-61 26l61 125zM160 0h-83v535h83v-535z" />
    <glyph glyph-name="icircumflex.sc" horiz-adv-x="236" 
d="M190 610l-71 102l-72 -102l-46 30l87 113h62l86 -113zM160 0h-83v535h83v-535z" />
    <glyph glyph-name="idieresis.sc" horiz-adv-x="236" 
d="M49 716q18 0 30.5 -12t12.5 -30t-13.5 -30.5t-29.5 -12.5q-17 0 -30 12.5t-13 30.5t12.5 30t30.5 12zM192 716q18 0 30.5 -12t12.5 -30t-13.5 -30.5t-29.5 -12.5q-17 0 -30 12.5t-13 30.5t12.5 30t30.5 12zM160 0h-83v535h83v-535z" />
    <glyph glyph-name="igrave.sc" horiz-adv-x="236" 
d="M192 640l-61 -26l-80 137l80 14zM160 0h-83v535h83v-535z" />
    <glyph glyph-name="imacron.sc" horiz-adv-x="236" 
d="M284 622h-336v58h336v-58zM160 0h-83v535h83v-535z" />
    <glyph glyph-name="iogonek.sc" horiz-adv-x="236" 
d="M227 -99l19 -31q-46 -38 -99 -39q-44 -1 -74 22.5t-30 61.5q0 24 15 47t41 38h-22v535h83v-535q-65 -28 -67 -75q-1 -24 17.5 -38t48.5 -12q35 2 68 26z" />
    <glyph glyph-name="j.sc" horiz-adv-x="338" 
d="M274 537v-280q0 -136 -63.5 -203t-182.5 -67l-1 78q77 0 119.5 51.5t42.5 142.5v278h85z" />
    <glyph glyph-name="k.sc" horiz-adv-x="558" 
d="M327 307l231 -307h-104l-179 243l-114 -125v-118h-84v535h84v-302l266 302h99z" />
    <glyph glyph-name="kcommaaccent.sc" horiz-adv-x="558" 
d="M327 307l231 -307h-104l-179 243l-114 -125v-118h-84v535h84v-302l266 302h99zM268 -87q23 0 40 -18t17 -48q0 -39 -28 -67t-70 -31l2 33q33 9 37 40q-19 -3 -33.5 9.5t-14.5 33.5q0 20 14.5 34t35.5 14z" />
    <glyph glyph-name="l.sc" horiz-adv-x="477" 
d="M162 77h303v-77h-388v537h85v-460z" />
    <glyph glyph-name="lacute.sc" horiz-adv-x="477" 
d="M302 751l-80 -137l-61 26l61 125zM162 77h303v-77h-388v537h85v-460z" />
    <glyph glyph-name="lcaron.sc" horiz-adv-x="477" 
d="M162 77h303v-77h-388v537h85v-460z" />
    <glyph glyph-name="lcommaaccent.sc" horiz-adv-x="477" 
d="M162 77h303v-77h-388v537h85v-460zM223 -87q24 0 41 -18t17 -48q0 -39 -28.5 -67t-70.5 -31l3 33q33 9 37 40q-20 -3 -34.5 9.5t-14.5 33.5q0 20 14.5 34t35.5 14z" />
    <glyph glyph-name="ldot.sc" horiz-adv-x="477" 
d="M162 77h303v-77h-388v537h85v-460zM312 446q21 0 36 -15t15 -36q0 -22 -15.5 -36.5t-35.5 -14.5q-21 0 -36 15t-15 36t15 36t36 15z" />
    <glyph glyph-name="lslash.sc" horiz-adv-x="482" 
d="M465 77v-77h-388v189l-30 -15l-23 52l53 27v284h85v-239l151 80l22 -51l-173 -93v-157h303z" />
    <glyph glyph-name="m.sc" horiz-adv-x="757" 
d="M680 0h-87v402l-218 -296l-212 297v-403h-86v537h81l217 -301l224 301h81v-537z" />
    <glyph glyph-name="n.sc" horiz-adv-x="625" 
d="M549 0h-80l-307 404v-404h-85v537h84l302 -399v399h86v-537z" />
    <glyph glyph-name="nacute.sc" horiz-adv-x="625" 
d="M407 751l-80 -137l-61 26l61 125zM549 0h-80l-307 404v-404h-85v537h84l302 -399v399h86v-537z" />
    <glyph glyph-name="ncaron.sc" horiz-adv-x="625" 
d="M344 638h-61l-83 100l46 34l67 -85l66 85l48 -34zM549 0h-80l-307 404v-404h-85v537h84l302 -399v399h86v-537z" />
    <glyph glyph-name="ncommaaccent.sc" horiz-adv-x="625" 
d="M549 0h-80l-307 404v-404h-85v537h84l302 -399v399h86v-537zM323 -87q24 0 41 -18t17 -48q0 -39 -28.5 -67t-70.5 -31l3 33q33 9 37 40q-20 -3 -34.5 9.5t-14.5 33.5q0 20 14.5 34t35.5 14z" />
    <glyph glyph-name="eng.sc" horiz-adv-x="622" 
d="M549 0h-5v-15q0 -136 -63.5 -203t-182.5 -67l-1 77q77 1 119.5 52.5t42.5 142.5v27l-297 390v-404h-85v537h84l298 -394v122h4v272h86v-537z" />
    <glyph glyph-name="ntilde.sc" horiz-adv-x="625" 
d="M243 725q37 -1 87 -30.5t73 -29.5q40 0 59 48l43 -19q-9 -36 -35.5 -58.5t-63.5 -22.5q-35 0 -87 29t-76 30q-43 3 -60 -48l-43 22q8 34 35.5 57t67.5 22zM549 0h-80l-307 404v-404h-85v537h84l302 -399v399h86v-537z" />
    <glyph glyph-name="o.sc" horiz-adv-x="662" 
d="M331 546q124 0 206 -78t82 -202q0 -122 -80 -202t-207 -80q-126 0 -207.5 79t-81.5 203t82 202t206 78zM331 469q-89 0 -145.5 -56.5t-56.5 -146.5t56 -147.5t147 -57.5q92 0 147 58.5t55 146.5q0 89 -56.5 146t-146.5 57z" />
    <glyph glyph-name="oacute.sc" horiz-adv-x="662" 
d="M424 751l-81 -137l-61 26l61 125zM331 546q124 0 206 -78t82 -202q0 -122 -80 -202t-207 -80q-126 0 -207.5 79t-81.5 203t82 202t206 78zM331 469q-89 0 -145.5 -56.5t-56.5 -146.5t56 -147.5t147 -57.5q92 0 147 58.5t55 146.5q0 89 -56.5 146t-146.5 57z" />
    <glyph glyph-name="ocircumflex.sc" horiz-adv-x="662" 
d="M402 610l-70 102l-72 -102l-46 30l86 113h62l87 -113zM331 546q124 0 206 -78t82 -202q0 -122 -80 -202t-207 -80q-126 0 -207.5 79t-81.5 203t82 202t206 78zM331 469q-89 0 -145.5 -56.5t-56.5 -146.5t56 -147.5t147 -57.5q92 0 147 58.5t55 146.5q0 89 -56.5 146
t-146.5 57z" />
    <glyph glyph-name="odieresis.sc" horiz-adv-x="662" 
d="M262 716q17 0 29.5 -12t12.5 -30t-13 -30.5t-29 -12.5q-17 0 -30 12.5t-13 30.5t12.5 30t30.5 12zM405 716q17 0 29.5 -12t12.5 -30t-13 -30.5t-29 -12.5q-17 0 -30 12.5t-13 30.5t12.5 30t30.5 12zM331 546q124 0 206 -78t82 -202q0 -122 -80 -202t-207 -80
q-126 0 -207.5 79t-81.5 203t82 202t206 78zM331 469q-89 0 -145.5 -56.5t-56.5 -146.5t56 -147.5t147 -57.5q92 0 147 58.5t55 146.5q0 89 -56.5 146t-146.5 57z" />
    <glyph glyph-name="ograve.sc" horiz-adv-x="662" 
d="M405 640l-61 -26l-81 137l81 14zM331 546q124 0 206 -78t82 -202q0 -122 -80 -202t-207 -80q-126 0 -207.5 79t-81.5 203t82 202t206 78zM331 469q-89 0 -145.5 -56.5t-56.5 -146.5t56 -147.5t147 -57.5q92 0 147 58.5t55 146.5q0 89 -56.5 146t-146.5 57z" />
    <glyph glyph-name="ohungarumlaut.sc" horiz-adv-x="662" 
d="M346 751l-80 -137l-61 26l61 125zM496 751l-80 -137l-61 26l61 125zM331 546q124 0 206 -78t82 -202q0 -122 -80 -202t-207 -80q-126 0 -207.5 79t-81.5 203t82 202t206 78zM331 469q-89 0 -145.5 -56.5t-56.5 -146.5t56 -147.5t147 -57.5q92 0 147 58.5t55 146.5
q0 89 -56.5 146t-146.5 57z" />
    <glyph glyph-name="omacron.sc" horiz-adv-x="662" 
d="M496 622h-335v58h335v-58zM331 546q124 0 206 -78t82 -202q0 -122 -80 -202t-207 -80q-126 0 -207.5 79t-81.5 203t82 202t206 78zM331 469q-89 0 -145.5 -56.5t-56.5 -146.5t56 -147.5t147 -57.5q92 0 147 58.5t55 146.5q0 89 -56.5 146t-146.5 57z" />
    <glyph glyph-name="oslash.sc" horiz-adv-x="662" 
d="M540 620l-52 -115q61 -36 96 -98t35 -141q0 -122 -79.5 -202t-207.5 -80q-34 0 -77 9l-41 -88l-71 11l46 101q-69 35 -108 100t-39 149q0 124 82.5 202t206.5 78q52 0 92 -13l46 99zM128 266q0 -121 94 -177l169 372q-27 7 -61 7q-89 0 -145.5 -56t-56.5 -146zM332 61
q91 0 146 58.5t55 146.5q0 110 -79 165l-167 -366q20 -4 45 -4z" />
    <glyph glyph-name="otilde.sc" horiz-adv-x="662" 
d="M260 725q37 -1 87 -30.5t73 -29.5q39 0 58 48l43 -19q-9 -36 -35.5 -58.5t-63.5 -22.5q-35 0 -87 29t-76 30q-43 3 -60 -48l-43 22q9 34 36.5 57t67.5 22zM331 546q124 0 206 -78t82 -202q0 -122 -80 -202t-207 -80q-126 0 -207.5 79t-81.5 203t82 202t206 78zM331 469
q-89 0 -145.5 -56.5t-56.5 -146.5t56 -147.5t147 -57.5q92 0 147 58.5t55 146.5q0 89 -56.5 146t-146.5 57z" />
    <glyph glyph-name="oe.sc" horiz-adv-x="984" 
d="M562 0v90q-81 -105 -230 -105q-126 0 -208 79t-82 202q0 124 82.5 202t206.5 78q72 0 132 -27.5t99 -78.5v97h370v-77h-285v-153h223v-73h-223v-157h303l1 -77h-389zM332 61q91 0 146 58.5t55 146.5q0 90 -56.5 146.5t-146.5 56.5q-89 0 -145.5 -56.5t-56.5 -146.5
t56.5 -147.5t147.5 -57.5z" />
    <glyph glyph-name="p.sc" horiz-adv-x="532" 
d="M77 0v537q82 3 160 3q116 0 185 -52.5t69 -147.5q1 -93 -62.5 -142.5t-153.5 -51.5q-39 -1 -113 -1v-145h-85zM162 462v-240q67 0 102 1q65 1 104 33.5t38 85.5q0 52 -40 84.5t-102 34.5q-29 1 -102 1z" />
    <glyph glyph-name="thorn.sc" horiz-adv-x="529" 
d="M162 472h90q106 0 171.5 -51.5t66.5 -144.5q0 -91 -62 -143t-153 -54q-80 -2 -113 -2v-77h-85v535h85v-63zM264 394q-29 1 -102 1v-241q67 0 102 1q65 1 102.5 35t37.5 86q-1 52 -39 84.5t-101 33.5z" />
    <glyph glyph-name="q.sc" horiz-adv-x="691" 
d="M619 -49l49 -38q-50 -94 -143 -79q-46 8 -104.5 54t-88.5 51q-55 12 -89 -45l-48 40q24 44 65 64q-89 26 -142.5 97.5t-53.5 170.5q0 124 82.5 202t206.5 78t206 -78t82 -202q0 -109 -66 -186t-174 -92q16 -9 61 -45t73 -40q50 -8 84 48zM150 266q0 -90 56.5 -147.5
t147.5 -57.5t146 58.5t55 146.5q0 90 -56.5 146.5t-146.5 56.5q-89 0 -145.5 -56.5t-56.5 -146.5z" />
    <glyph glyph-name="r.sc" horiz-adv-x="567" 
d="M409 0l-81 151q-28 -5 -53 -5h-114v-146h-85v535q34 0 95 0.5t90 0.5q112 0 175.5 -52t63.5 -140q1 -110 -91 -164l98 -180h-98zM161 460v-238q79 0 114 1q65 2 103 33.5t37 84.5q0 54 -40 85t-105 33q-36 1 -109 1z" />
    <glyph glyph-name="racute.sc" horiz-adv-x="567" 
d="M286 614l-61 26l61 125l81 -14zM409 0l-81 151q-28 -5 -53 -5h-114v-146h-85v535q34 0 95 0.5t90 0.5q112 0 175.5 -52t63.5 -140q1 -110 -91 -164l98 -180h-98zM161 460v-238q79 0 114 1q65 2 103 33.5t37 84.5q0 54 -40 85t-105 33q-36 1 -109 1z" />
    <glyph glyph-name="rcaron.sc" horiz-adv-x="567" 
d="M243 638l-84 100l47 34l66 -85l66 85l48 -34l-83 -100h-60zM409 0l-81 151q-28 -5 -53 -5h-114v-146h-85v535q34 0 95 0.5t90 0.5q112 0 175.5 -52t63.5 -140q1 -110 -91 -164l98 -180h-98zM161 460v-238q79 0 114 1q65 2 103 33.5t37 84.5q0 54 -40 85t-105 33
q-36 1 -109 1z" />
    <glyph glyph-name="rcommaaccent.sc" horiz-adv-x="567" 
d="M506 0h-97l-81 151q-28 -5 -53 -5h-114v-146h-85v535q34 0 95 0.5t90 0.5q112 0 175.5 -52t63.5 -140q1 -110 -91 -164zM161 460v-238q79 0 114 1q65 2 103 33.5t37 84.5q0 54 -40 85t-105 33q-36 1 -109 1zM287 -87q24 0 41 -18t17 -48q0 -39 -28.5 -67t-70.5 -31l3 33
q33 9 37 40q-20 -3 -34.5 9.5t-14.5 33.5q0 20 14.5 34t35.5 14z" />
    <glyph glyph-name="s.sc" horiz-adv-x="548" 
d="M281 545q90 0 176 -41l-24 -71q-76 36 -150 36q-52 0 -86.5 -19.5t-34.5 -55.5q0 -13 4 -22.5t15.5 -17.5t19 -12.5t28 -10t30 -7.5t35.5 -7q7 -1 10 -2q35 -7 58.5 -13.5t51.5 -19t44.5 -28t28 -40.5t11.5 -57q0 -80 -59.5 -123.5t-154.5 -44.5q-112 -1 -226 63l31 69
q94 -56 193 -55q56 1 92 24t36 63q0 26 -19.5 42.5t-44.5 24t-72 17.5q-16 3 -25 5q-53 11 -86.5 24.5t-60.5 45.5t-27 80q0 76 60 114.5t146 38.5z" />
    <glyph glyph-name="sacute.sc" horiz-adv-x="548" 
d="M367 751l-80 -137l-61 26l61 125zM281 545q90 0 176 -41l-24 -71q-76 36 -150 36q-52 0 -86.5 -19.5t-34.5 -55.5q0 -13 4 -22.5t15.5 -17.5t19 -12.5t28 -10t30 -7.5t35.5 -7q7 -1 10 -2q35 -7 58.5 -13.5t51.5 -19t44.5 -28t28 -40.5t11.5 -57q0 -80 -59.5 -123.5
t-154.5 -44.5q-112 -1 -226 63l31 69q94 -56 193 -55q56 1 92 24t36 63q0 26 -19.5 42.5t-44.5 24t-72 17.5q-16 3 -25 5q-53 11 -86.5 24.5t-60.5 45.5t-27 80q0 76 60 114.5t146 38.5z" />
    <glyph glyph-name="scaron.sc" horiz-adv-x="548" 
d="M304 638h-61l-83 100l46 34l67 -85l66 85l48 -34zM281 545q90 0 176 -41l-24 -71q-76 36 -150 36q-52 0 -86.5 -19.5t-34.5 -55.5q0 -13 4 -22.5t15.5 -17.5t19 -12.5t28 -10t30 -7.5t35.5 -7q7 -1 10 -2q35 -7 58.5 -13.5t51.5 -19t44.5 -28t28 -40.5t11.5 -57
q0 -80 -59.5 -123.5t-154.5 -44.5q-112 -1 -226 63l31 69q94 -56 193 -55q56 1 92 24t36 63q0 26 -19.5 42.5t-44.5 24t-72 17.5q-16 3 -25 5q-53 11 -86.5 24.5t-60.5 45.5t-27 80q0 76 60 114.5t146 38.5z" />
    <glyph glyph-name="scedilla.sc" horiz-adv-x="548" 
d="M497 157q1 -77 -54.5 -120.5t-146.5 -47.5l-57 -119l-55 19l61 102q-98 9 -187 61l31 69q94 -56 193 -55q56 1 92 24t36 63q0 26 -19.5 42.5t-44.5 24t-72 17.5q-16 3 -25 5q-53 11 -86.5 24.5t-60.5 45.5t-27 80q0 76 60 114.5t146 38.5q90 0 176 -41l-24 -71
q-76 36 -150 36q-52 0 -86.5 -19.5t-34.5 -55.5q0 -13 4 -22.5t15.5 -17.5t19 -12.5t28 -10t30 -7.5t35.5 -7q7 -1 10 -2q35 -7 58.5 -13.5t51.5 -19t44.5 -28t27.5 -40.5t11 -57z" />
    <glyph glyph-name="t.sc" horiz-adv-x="503" 
d="M484 460h-190v-460h-85v460h-189v77h464v-77z" />
    <glyph glyph-name="tbar.sc" horiz-adv-x="503" 
d="M414 605h-335v58h335v-58zM484 460h-190v-460h-85v460h-189v77h464v-77z" />
    <glyph glyph-name="tcaron.sc" horiz-adv-x="503" 
d="M278 621h-61l-83 100l46 34l67 -85l66 85l48 -34zM484 460h-190v-460h-85v460h-189v77h464v-77z" />
    <glyph glyph-name="tcedilla.sc" horiz-adv-x="503" 
d="M484 537v-77h-190v-460h-15l-62 -131l-55 19l66 112h-19v460h-189v77h464z" />
    <glyph glyph-name="u.sc" horiz-adv-x="627" 
d="M561 537v-295q0 -119 -70.5 -188t-176.5 -69q-103 0 -175 67t-72 187v298h85v-302q0 -77 45 -125t116 -48q72 0 117.5 48t45.5 127v300h85z" />
    <glyph glyph-name="uacute.sc" horiz-adv-x="627" 
d="M407 751l-81 -137l-61 26l61 125zM561 537v-295q0 -119 -70.5 -188t-176.5 -69q-103 0 -175 67t-72 187v298h85v-302q0 -77 45 -125t116 -48q72 0 117.5 48t45.5 127v300h85z" />
    <glyph glyph-name="ucircumflex.sc" horiz-adv-x="627" 
d="M385 610l-70 102l-72 -102l-46 30l86 113h62l87 -113zM561 537v-295q0 -119 -70.5 -188t-176.5 -69q-103 0 -175 67t-72 187v298h85v-302q0 -77 45 -125t116 -48q72 0 117.5 48t45.5 127v300h85z" />
    <glyph glyph-name="udieresis.sc" horiz-adv-x="627" 
d="M245 716q17 0 29.5 -12t12.5 -30t-13 -30.5t-29 -12.5q-17 0 -30 12.5t-13 30.5t12.5 30t30.5 12zM388 716q17 0 29.5 -12t12.5 -30t-13 -30.5t-29 -12.5q-17 0 -30 12.5t-13 30.5t12.5 30t30.5 12zM561 537v-295q0 -119 -70.5 -188t-176.5 -69q-103 0 -175 67t-72 187
v298h85v-302q0 -77 45 -125t116 -48q72 0 117.5 48t45.5 127v300h85z" />
    <glyph glyph-name="ugrave.sc" horiz-adv-x="627" 
d="M388 640l-61 -26l-81 137l81 14zM561 537v-295q0 -119 -70.5 -188t-176.5 -69q-103 0 -175 67t-72 187v298h85v-302q0 -77 45 -125t116 -48q72 0 117.5 48t45.5 127v300h85z" />
    <glyph glyph-name="uhungarumlaut.sc" horiz-adv-x="627" 
d="M329 751l-80 -137l-61 26l61 125zM479 751l-80 -137l-61 26l61 125zM561 537v-295q0 -119 -70.5 -188t-176.5 -69q-103 0 -175 67t-72 187v298h85v-302q0 -77 45 -125t116 -48q72 0 117.5 48t45.5 127v300h85z" />
    <glyph glyph-name="umacron.sc" horiz-adv-x="627" 
d="M479 622h-335v58h335v-58zM561 537v-295q0 -119 -70.5 -188t-176.5 -69q-103 0 -175 67t-72 187v298h85v-302q0 -77 45 -125t116 -48q72 0 117.5 48t45.5 127v300h85z" />
    <glyph glyph-name="uogonek.sc" horiz-adv-x="627" 
d="M412 3q-58 -28 -60 -72q-1 -24 17 -37.5t48 -12.5q36 2 69 26l19 -32q-45 -37 -99 -38q-43 -2 -73.5 22t-30.5 61q0 35 29 66l-17 -1q-103 0 -175 67t-72 186v299h85v-302q0 -78 45 -125.5t116 -47.5q72 0 117.5 47.5t45.5 126.5v301h85v-296q0 -88 -40.5 -149.5
t-108.5 -88.5z" />
    <glyph glyph-name="uring.sc" horiz-adv-x="627" 
d="M313 818q52 0 87.5 -33t35.5 -83q0 -51 -35.5 -83t-87.5 -32t-87.5 32t-35.5 83q0 50 35.5 83t87.5 33zM313 774q-30 0 -52 -21t-22 -51t22 -51t52 -21t52 21t22 51t-22 51t-52 21zM561 537v-295q0 -119 -70.5 -188t-176.5 -69q-103 0 -175 67t-72 187v298h85v-302
q0 -77 45 -125t116 -48q72 0 117.5 48t45.5 127v300h85z" />
    <glyph glyph-name="v.sc" horiz-adv-x="593" 
d="M345 0h-92l-249 535h92l202 -442l200 442h91z" />
    <glyph glyph-name="w.sc" horiz-adv-x="827" 
d="M641 0h-82l-144 407l-137 -407h-82l-176 535h86l132 -423l140 423h72l147 -422l124 422h86z" />
    <glyph glyph-name="wacute.sc" horiz-adv-x="827" 
d="M509 751l-81 -137l-61 26l61 125zM641 0h-82l-144 407l-137 -407h-82l-176 535h86l132 -423l140 423h72l147 -422l124 422h86z" />
    <glyph glyph-name="wcircumflex.sc" horiz-adv-x="827" 
d="M487 610l-70 102l-72 -102l-46 30l86 113h62l87 -113zM641 0h-82l-144 407l-137 -407h-82l-176 535h86l132 -423l140 423h72l147 -422l124 422h86z" />
    <glyph glyph-name="wdieresis.sc" horiz-adv-x="827" 
d="M347 716q17 0 29.5 -12t12.5 -30t-13 -30.5t-29 -12.5q-17 0 -30 12.5t-13 30.5t12.5 30t30.5 12zM490 716q17 0 29.5 -12t12.5 -30t-13 -30.5t-29 -12.5q-17 0 -30 12.5t-13 30.5t12.5 30t30.5 12zM641 0h-82l-144 407l-137 -407h-82l-176 535h86l132 -423l140 423h72
l147 -422l124 422h86z" />
    <glyph glyph-name="wgrave.sc" horiz-adv-x="827" 
d="M490 640l-61 -26l-81 137l81 14zM641 0h-82l-144 407l-137 -407h-82l-176 535h86l132 -423l140 423h72l147 -422l124 422h86z" />
    <glyph glyph-name="x.sc" horiz-adv-x="595" 
d="M297 212l-160 -212h-101l205 275l-193 260h102l147 -197l153 197h101l-195 -261l204 -274h-101z" />
    <glyph glyph-name="y.sc" horiz-adv-x="619" 
d="M356 204v-204h-93v206l-230 329h103l174 -251l174 251h103z" />
    <glyph glyph-name="yacute.sc" horiz-adv-x="619" 
d="M385 751l-81 -137l-61 26l61 125zM356 204v-204h-93v206l-230 329h103l174 -251l174 251h103z" />
    <glyph glyph-name="ycircumflex.sc" horiz-adv-x="619" 
d="M363 610l-70 102l-72 -102l-46 30l86 113h62l87 -113zM356 204v-204h-93v206l-230 329h103l174 -251l174 251h103z" />
    <glyph glyph-name="ydieresis.sc" horiz-adv-x="619" 
d="M223 716q17 0 29.5 -12t12.5 -30t-13 -30.5t-29 -12.5q-17 0 -30 12.5t-13 30.5t12.5 30t30.5 12zM366 716q17 0 29.5 -12t12.5 -30t-13 -30.5t-29 -12.5q-17 0 -30 12.5t-13 30.5t12.5 30t30.5 12zM356 204v-204h-93v206l-230 329h103l174 -251l174 251h103z" />
    <glyph glyph-name="ygrave.sc" horiz-adv-x="619" 
d="M366 640l-61 -26l-81 137l81 14zM356 204v-204h-93v206l-230 329h103l174 -251l174 251h103z" />
    <glyph glyph-name="z.sc" horiz-adv-x="540" 
d="M493 464l-335 -386h337v-78h-452v71l340 389h-325v77h435v-73z" />
    <glyph glyph-name="zacute.sc" horiz-adv-x="540" 
d="M363 751l-81 -137l-61 26l61 125zM493 464l-335 -386h337v-78h-452v71l340 389h-325v77h435v-73z" />
    <glyph glyph-name="zcaron.sc" horiz-adv-x="540" 
d="M299 638h-60l-84 100l47 34l66 -85l66 85l48 -34zM493 464l-335 -386h337v-78h-452v71l340 389h-325v77h435v-73z" />
    <glyph glyph-name="zdotaccent.sc" horiz-adv-x="540" 
d="M287 716q17 0 29.5 -12t12.5 -30t-13 -30.5t-29 -12.5q-17 0 -30 12.5t-13 30.5t12.5 30t30.5 12zM493 464l-335 -386h337v-78h-452v71l340 389h-325v77h435v-73z" />
    <glyph glyph-name="a.sc.ss01" horiz-adv-x="588" 
d="M436 116h-285l-54 -127l-78 33l234 516h82l234 -517l-77 -34zM402 193l-109 251l-108 -251h217z" />
    <glyph glyph-name="k.sc.ss01" horiz-adv-x="543" 
d="M497 494l-176 -192l213 -263l-62 -52l-205 254l-106 -118v-123h-84v537h84v-297l277 307z" />
    <glyph glyph-name="q.sc.ss01" horiz-adv-x="683" 
d="M619 266q0 -116 -72 -194l59 -68l-59 -52l-63 71q-66 -39 -152 -39q-126 0 -207.5 79t-81.5 203t82 202t206 78t206 -78t82 -202zM128 266q0 -90 56.5 -147.5t147.5 -57.5t146 58.5t55 146.5q0 90 -56.5 146.5t-146.5 56.5q-89 0 -145.5 -56.5t-56.5 -146.5z" />
    <glyph glyph-name="r.sc.ss01" horiz-adv-x="558" 
d="M502 345q0 -115 -103 -170l94 -150l-73 -45l-101 169q-12 -2 -35 -2h-122v-147h-85v535q126 2 193 2q104 -1 168 -53t64 -139zM161 461v-238q106 0 123 1q54 2 93 32.5t38 84.5t-39.5 85t-96.5 33q-34 2 -118 2z" />
    <glyph glyph-name="v.sc.ss01" horiz-adv-x="568" 
d="M561 514l-236 -514h-79l-239 514l77 32l201 -447l200 447z" />
    <glyph glyph-name="w.sc.ss01" horiz-adv-x="832" 
d="M806 524l-163 -525h-80l-146 400l-138 -400h-78l-176 523l77 23l139 -424l144 416h64l151 -415l131 425z" />
    <glyph glyph-name="x.sc.ss01" horiz-adv-x="603" 
d="M504 -18l-202 234l-203 -234l-62 56l209 242l-188 217l61 55l182 -209l183 209l61 -55l-189 -218l210 -241z" />
    <glyph glyph-name="y.sc.ss01" horiz-adv-x="584" 
d="M553 497l-218 -277v-220h-87v224l-215 270l65 53l194 -248l197 250z" />
    <glyph glyph-name="seven.ss01" horiz-adv-x="628" 
d="M565 624l-358 -639l-78 48l333 582h-407v85h510v-76z" />
    <glyph glyph-name="one.dnom" horiz-adv-x="298" 
d="M172 1h-54v312l-33 -27l-26 39l63 47h50v-371z" />
    <glyph glyph-name="two.dnom" horiz-adv-x="414" 
d="M211 368q48 0 84.5 -31t36.5 -79q0 -60 -66 -115l-116 -94h191v-48h-281v34l158 133q30 26 43.5 45.5t13.5 43.5q0 27 -19.5 45t-47.5 18q-31 0 -54 -20.5t-30 -55.5l-51 14q12 52 51 81t87 29z" />
    <glyph glyph-name="three.dnom" horiz-adv-x="410" 
d="M198 367q53 0 89.5 -27t36.5 -70q0 -54 -57 -80q31 -9 52 -34t21 -57q0 -49 -42 -78t-100 -29q-74 0 -144 48l22 40q57 -40 120 -40q40 0 66 17t26 46q0 27 -24.5 45.5t-59.5 18.5h-64v41h63q28 0 49 16.5t21 40.5t-21.5 40.5t-57.5 16.5q-49 0 -98 -32l-21 39
q59 38 123 38z" />
    <glyph glyph-name="four.dnom" horiz-adv-x="399" 
d="M293 124h55v-43h-55v-81h-53v81h-203v37l199 254h57v-248zM95 124h146v180z" />
    <glyph glyph-name="one.numr" horiz-adv-x="298" 
d="M172 328h-54v312l-33 -27l-26 39l63 47h50v-371z" />
    <glyph glyph-name="two.numr" horiz-adv-x="414" 
d="M211 686q48 0 84.5 -31t36.5 -79q0 -60 -66 -115l-116 -94h191v-48h-281v34l158 133q30 26 43.5 45.5t13.5 43.5q0 27 -19.5 45t-47.5 18q-31 0 -54 -20.5t-30 -55.5l-51 14q12 52 51 81t87 29z" />
    <glyph glyph-name="three.numr" horiz-adv-x="410" 
d="M198 701q53 0 89.5 -27t36.5 -70q0 -54 -57 -80q31 -9 52 -34t21 -57q0 -49 -42 -77.5t-100 -28.5q-75 0 -144 47l22 40q57 -40 120 -40q40 0 66 17t26 46q0 27 -24.5 45.5t-59.5 18.5h-64v41h63q28 0 49 16.5t21 40.5t-21.5 40.5t-57.5 16.5q-49 0 -98 -32l-21 39
q59 38 123 38z" />
    <glyph glyph-name="four.numr" horiz-adv-x="399" 
d="M293 453h55v-44h-55v-80h-53v80h-203v38l199 253h57v-247zM95 452h146v180z" />
    <glyph glyph-name="guillemotleft.ss01" horiz-adv-x="595" 
d="M316 458l-196 -182l196 -180l-37 -44l-235 206v36l235 206zM555 458l-196 -182l196 -180l-37 -44l-235 206v36l235 206z" />
    <glyph glyph-name="guillemotright.ss01" horiz-adv-x="616" 
d="M295 294v-36l-235 -206l-37 44l196 180l-196 182l37 42zM534 294v-36l-235 -206l-37 44l196 180l-196 182l37 42z" />
    <glyph glyph-name="guilsinglleft.ss01" horiz-adv-x="356" 
d="M316 458l-196 -182l196 -180l-37 -44l-235 206v36l235 206z" />
    <glyph glyph-name="guilsinglright.ss01" horiz-adv-x="377" 
d="M295 294v-36l-235 -206l-37 44l196 180l-196 182l37 42z" />
    <glyph glyph-name="quotedblbase.ss02" horiz-adv-x="344" 
d="M155 108v-70q0 -44 -23 -69.5t-64 -30.5v25q15 3 24.5 13.5t9.5 24.5q0 20 -22 20h-21v87h96zM285 108v-70q0 -90 -87 -100v25q16 3 25.5 13.5t9.5 24.5q0 20 -22 20h-22v87h96z" />
    <glyph glyph-name="quotedblleft.ss02" horiz-adv-x="260" 
d="M8 511v70q0 44 23 69t64 30v-24q-15 -3 -24.5 -14t-9.5 -24q0 -20 22 -20h21v-87h-96zM139 511v70q0 89 87 99v-24q-15 -3 -25 -14t-10 -24q0 -20 22 -20h22v-87h-96z" />
    <glyph glyph-name="quotedblright.ss02" horiz-adv-x="260" 
d="M121 721v-69q0 -90 -87 -100v25q16 3 25.5 13.5t9.5 23.5q0 20 -22 20h-22v87h96zM252 721v-69q0 -44 -23 -69.5t-64 -30.5v25q15 3 24.5 13.5t9.5 23.5q0 20 -22 20h-21v87h96z" />
    <glyph glyph-name="quoteleft.ss02" horiz-adv-x="129" 
d="M8 558v69q0 44 23 69.5t64 30.5v-25q-15 -3 -24.5 -13.5t-9.5 -23.5q0 -20 22 -20h21v-87h-96z" />
    <glyph glyph-name="quoteright.ss02" horiz-adv-x="146" 
d="M121 721v-69q0 -90 -87 -100v25q16 3 25.5 13.5t9.5 23.5q0 20 -22 20h-22v87h96z" />
    <glyph glyph-name="quotesinglbase.ss02" horiz-adv-x="214" 
d="M154 87v-69q1 -90 -87 -100v24q15 3 25 14t10 24q0 20 -22 20h-22v87h96z" />
    <glyph glyph-name="slash.ss01" horiz-adv-x="443" 
d="M132 -107l-69 21l249 853l70 -22z" />
    <glyph glyph-name="comma.ss02" horiz-adv-x="208" 
d="M152 87v-69q0 -90 -87 -100v24q15 3 24.5 14t9.5 24q0 20 -22 20h-21v87h96z" />
    <glyph glyph-name="exclam.ss02" horiz-adv-x="329" 
d="M200 163h-71l-8 539h90zM207 0h-91v85h91v-85z" />
    <glyph glyph-name="exclamdown.ss02" horiz-adv-x="329" 
d="M122 613h91v-85h-91v85zM129 450h71l8 -539h-90z" />
    <glyph glyph-name="period.ss02" horiz-adv-x="203" 
d="M147 0h-91v85h91v-85z" />
    <glyph glyph-name="question.ss02" horiz-adv-x="650" 
d="M283 712q98 10 171 -41t73 -142q0 -44 -16 -77t-39.5 -51l-51.5 -39.5t-52 -42.5t-40.5 -61t-17.5 -93l-84 -1q0 63 16 111.5t40 75t52 49.5t52 38t40 38.5t16 52.5q0 53 -44 83t-105 23q-104 -12 -148 -126l-71 35q28 73 82.5 116.5t126.5 51.5zM312 0h-90v85h90v-85z
" />
    <glyph glyph-name="questiondown.ss02" horiz-adv-x="621" 
d="M279 638h91v-85h-91v85zM309 -74q-98 -10 -171 41.5t-73 142.5q0 44 16 76.5t39.5 50.5l51.5 39.5t52 42.5t40.5 61t16.5 93l84 1q0 -63 -16 -111.5t-40 -75t-51.5 -49.5t-51.5 -38t-40 -38t-16 -52q0 -54 43.5 -84t104.5 -23q104 12 149 126l70 -34q-27 -73 -81.5 -117
t-126.5 -52z" />
    <glyph glyph-name="dollar.ss01" horiz-adv-x="682" 
d="M622 197q1 -92 -63.5 -146t-168.5 -63v-81h-75v80q-136 9 -256 81l32 71q128 -77 257 -75q84 1 135 36t52 92q0 25 -11.5 44.5t-27 32t-48.5 24.5t-55.5 17.5l-68.5 16.5q-9 2 -13 3q-53 12 -88.5 24.5t-69.5 33t-51.5 52.5t-17.5 75q0 60 32.5 103.5t83.5 65t115 25.5
v76h75v-78q92 -8 181 -52l-26 -74q-104 52 -203 52q-76 0 -124 -30t-47 -84q1 -57 74 -84q24 -10 131 -34q59 -14 98.5 -28t75.5 -37t54 -57.5t18 -81.5z" />
    <glyph glyph-name="ampersand.sc" horiz-adv-x="611" 
d="M505 0l-54 54q-78 -76 -190 -76q-88 0 -149 46.5t-61 124.5q0 64 39 100t108 62l-1 1q-48 50 -48 105q0 56 43.5 95t105.5 38q61 -1 100.5 -40t39.5 -95q0 -48 -30 -76.5t-84 -49.5l112 -113q21 52 21 108h84q0 -95 -44 -170l114 -115zM269 344l5 -5q42 15 64.5 33
t22.5 46q0 26 -17 44t-46 18t-48.5 -17.5t-20.5 -42.5q0 -35 40 -76zM262 55q78 0 132 57l-147 149q-53 -20 -81.5 -44t-28.5 -64q-1 -45 35.5 -71.5t89.5 -26.5z" />
    <glyph glyph-name="ampersand.ss01" horiz-adv-x="817" 
d="M697 -24l-96 99q-117 -114 -270 -114q-109 0 -187.5 58.5t-78.5 159.5q0 47 17.5 83.5t51.5 63.5t66.5 44t81.5 36l-13 13q-65 74 -65 140q0 71 55.5 120.5t136.5 48.5q79 -1 130.5 -49.5t51.5 -118.5q0 -65 -44 -104.5t-125 -72.5l186 -190q42 57 74 139l72 -36
q-33 -89 -88 -162l101 -104zM344 451l15 -16q69 26 105 54.5t36 71.5q0 41 -28.5 68.5t-76.5 27.5q-47 0 -77.5 -27t-30.5 -67q-2 -53 57 -112zM327 38q120 0 218 96l-213 219q-88 -34 -134.5 -71.5t-47.5 -101.5q0 -67 50 -104.5t127 -37.5z" />
    <glyph glyph-name="ampersand.sc.ss01" horiz-adv-x="611" 
d="M511 -24l-66 70q-89 -76 -196 -76q-83 0 -142.5 45t-59.5 123q0 64 39.5 102.5t109.5 67.5l-7 7q-45 47 -45 103q0 55 44 94.5t105 38.5q61 0 102 -39t41 -94q0 -47 -30 -77t-85 -55l121 -126q32 46 50 98l73 -36q-28 -69 -67 -120l70 -73zM264 346l7 -8q43 18 65.5 36.5
t22.5 45.5q0 26 -18.5 43.5t-47.5 17.5t-49 -17t-20 -43q-1 -34 40 -75zM247 47q76 0 143 57l-144 151q-55 -23 -84.5 -49t-29.5 -66q-1 -44 31.5 -68.5t83.5 -24.5z" />
    <glyph glyph-name="ampersand.ss02" horiz-adv-x="798" 
d="M762 326h-89v-77q0 -114 -88 -185.5t-224 -72.5q-119 1 -203 55.5t-84 145.5q0 70 50.5 118t119.5 59q-58 12 -98 56t-40 103q-1 78 67 130t169 52q112 0 226 -68l-33 -69q-93 59 -187 59q-72 0 -115 -34t-43 -81q0 -48 44.5 -80.5t112.5 -32.5h143v-78h-148
q-79 0 -130.5 -36t-51.5 -88q0 -57 60.5 -94t140.5 -37q94 0 160.5 51t66.5 136v146h174v-78z" />
    <glyph glyph-name="ampersand.ss03" horiz-adv-x="692" 
d="M583 156l46 -64q-94 -80 -213 -97v-89h-77v86q-107 7 -186 59.5t-79 139.5q0 69 50.5 117.5t119.5 59.5q-59 12 -98.5 56t-39.5 103q-1 77 66.5 127.5t166.5 54.5v81h77v-86q87 -14 168 -63l-34 -68q-91 59 -192 59q-72 0 -120 -34.5t-48 -85.5q0 -48 44.5 -78t112.5 -30
h121v-78h-126q-79 0 -130.5 -36.5t-51.5 -88.5q0 -57 60 -94t141 -37q125 0 222 86z" />
    <glyph glyph-name="ampersand.ss04" horiz-adv-x="912" 
d="M861 96l28 -63q-64 -43 -137 -43q-61 1 -109 32t-69 86q-81 -115 -238 -117q-106 1 -184 57t-78 145q0 70 48.5 119.5t121.5 62.5q-61 16 -99.5 57.5t-38.5 100.5q-1 78 67 127.5t170 49.5q129 0 257 -84h43v-222h148v-75h-148l-1 -139q0 -60 34 -93.5t84 -35.5
q52 -1 101 35zM190 517q0 -49 44.5 -81t111.5 -32h213v156q-109 72 -212 72q-73 0 -115 -33.5t-42 -81.5zM342 71q89 0 152 53.5t63 136.5v68h-223q-78 0 -126 -36.5t-48 -89.5q0 -58 54 -95t128 -37z" />
    <glyph glyph-name="logo" horiz-adv-x="1363" 
d="M1041 526l-28 -6l-12 -122q-4 -15 -19 -18q-50 -9 -87 12l-3 -18q-2 -13 -15 -15q-61 -12 -95 14.5t-25 84.5l19 171l-252 -47l4 39l290 56l-5 -40l-20 -182q-3 -32 11.5 -46.5t52.5 -12.5l23 205l37 6l-13 -152q-3 -22 12.5 -30.5t49.5 -7.5l12 116q4 19 20 21l48 9z
M683 488l37 1q-8 -37 -37 -61.5t-71 -32.5l-86 -21q-11 -1 -19 8q-27 -20 -54 -24l-58 -12q-9 -2 -16 5t-6 14l2 30l-34 -19l-9 -99q-3 -17 -18 -19l-186 -36h-6l20 161q4 31 -17 37t-56 -10l-16 -129l-38 -7l34 261l38 6l-12 -90q27 8 38.5 12.5t23 14.5t15.5 25l9 53l38 7
l-10 -62q-11 -40 -33 -53q28 -10 22 -63l-13 -118l130 25l6 63l-47 -27q-27 -14 -30 -14q-10 -1 -16 3.5t-5 13.5l15 164l40 8l-13 -136l60 32l12 115l38 6l-10 -99l34 20l7 91v-1l5 57q0 13 17 19l70 12q9 2 15.5 -4t4.5 -15l-14 -136q0 -13 -15 -18l-55 -29l-3 -27
q49 9 49 11q29 14 38.5 22t13.5 25l7 91q4 17 18 20l94 17q9 2 15.5 -4t5.5 -15l-11 -71q-1 -13 -14 -17l-78 -23l-3 -30l63 16q60 12 74 56zM417 461l31 18l11 100l-31 -6zM552 483l54 18l6 35l-56 -11zM1047 430l105 19l-5 -39l-104 -20zM1307 408l16 3q13 4 19.5 -4.5
t5.5 -23.5l-15 -152l-37 -7l14 147l-20 -3l-35 -7l-16 -148l-37 -7l13 148l-37 -8l-1 -10l-5 -38l-8 -85q-4 -16 -17 -17l-96 -18q-8 -2 -14 5t-5 14l12 143q0 20 19 22l46 9l111 21l45 9zM898 333l96 18q9 1 15.5 -4.5t5.5 -15.5l-5 -31l-40 -7l3 16l-54 -10l-5 -37l71 6
q9 1 14 -5t5 -14l-7 -65q0 -17 -18 -19l-163 -31l-18 -3l13 147l-54 -10l-9 -74v-1q-7 -36 -36 -59.5t-72 -32.5l-80 -14q-8 -2 -14 3.5t-5 13.5l12 148q1 14 18 19l94 18q9 1 15.5 -5t5.5 -15l-11 -70q-2 -14 -14 -18l-79 -24l-2 -29l57 10q65 13 74 59l10 102l103 19
q14 2 20.5 -5.5t4.5 -22.5l-10 -113l121 22l4 31l-72 -6q-9 -1 -14 5t-3 14l5 71q3 14 18 19zM1140 339l-59 -11l-10 -109l59 11zM501 309l-8 -69q30 -21 26 -65l-9 -81v-1q-2 -16 -17 -18l-145 -28l9 110l-28 -13l-16 36l48 20l9 108l111 20q9 1 14.5 -4.5t5.5 -14.5z
M431 233l11 4l14 6l6 44l-56 -10l-5 -58zM587 196l53 17l6 34l-56 -10zM475 109l7 66q2 13 -6 20t-19 7l-60 -27l-8 -82zM534 45l416 80l-6 -40l-415 -80z" />
    </font>
</defs>
</svg>
