<svg viewBox="0 0 119.95 32.79" xmlns="http://www.w3.org/2000/svg" xmlns:xlink="http://www.w3.org/1999/xlink"><clipPath id="a"><path d="m0 0h119.95v32.79h-119.95z"/></clipPath><g clip-path="url(#a)"><path d="m119.95 5.5a5.58 5.58 0 0 0 -5.66-5.5h-108.63a5.58 5.58 0 0 0 -5.66 5.5v21.79a5.58 5.58 0 0 0 5.65 5.5h108.64a5.58 5.58 0 0 0 5.66-5.5z" fill="#ffe400"/></g><path d="m117.36 5.85a3.49 3.49 0 0 0 -3.54-3.44h-107.69a3.49 3.49 0 0 0 -3.54 3.44v21.1a3.49 3.49 0 0 0 3.53 3.44h107.7a3.49 3.49 0 0 0 3.54-3.44z" fill="none" stroke="#1a1818" stroke-width=".47"/><g fill="#1a1818"><path d="m20.43 15.28v6.11c0 .69 1.24.65 1.24.65v.34h-5.1v-.38a.87.87 0 0 0 1-1v-6.8c0-1.77-1.11-1.48-1.11-1.48v-.61h4v1.29c1-1.69 2.15-1.47 2.15-1.47a1.26 1.26 0 0 1 1.3 1.46c0 1.41-1.05 1.38-1.05 1.38a1.75 1.75 0 0 1 -1-.42s-1.34-1.12-1.4.93"/><path d="m23.42 22.34h5.3v-.52s-1.1.21-1.1-1.07v-2.42a.37.37 0 0 1 .26-.38.25.25 0 0 1 .3.15l1.82 3.07s.44.72-.6.72v.47h4.79v-.45s-.17.12-.63-.48l-3.58-5.36a.47.47 0 0 1 -.07-.31s2.13-3.15 3.6-3.24v-.33h-4.43v.43s1.19 0 1.19.87c0 0 .1.34-.52 1.05l-2 2.32s-.2.1-.2-.09v-9.12s0-.22-.14-.22h-4v.45s1.26-.05 1.26.76v12.3s.14.91-1.27.91zm15.68.02h-4.68v-.45s.76.1.76-.95v-7.53s0-.74-1.11-.74v-.4h3.85v8.57s-.12 1 1.19 1zm-.99-13.36a1.58 1.58 0 1 0 -1.58 1.53 1.55 1.55 0 0 0 1.58-1.53m5.1-.48h-.5s-.49 1.83-3.55 4.23c0 0-.11.4 0 .55h1a.1.1 0 0 1 .12.11v7.35a2.72 2.72 0 0 0 2.67 1.9 2.77 2.77 0 0 0 2.62-2l-.37-.27s-.62.94-1.24.94c0 0-.74.1-.74-.9v-7s0-.1.1-.1h1.95s.09 0 .09-.09v-1s0-.07-.12-.07h-1.92s-.11 0-.11-.11zm10.25 13.85h5.37v-.52s-1.1.21-1.1-1.07v-2.33a.36.36 0 0 1 .24-.39s.15 0 .26.17l1.94 3s.44.72-.6.72v.47h4.79v-.45s-.27.12-.73-.48l-3.63-5.43a.46.46 0 0 1 -.07-.3s2.19-3.11 3.66-3.2v-.29h-4.3v.43s1.13-.07 1.13.79c0 0 .16.34-.46 1l-2.12 2.32s-.14.1-.14-.09v-9.07s0-.22-.14-.22h-4.07v.57s1.26-.05 1.26.76v12.24s.14.91-1.27.91z"/><path d="m67.74 8.52h-.5s-.49 1.83-3.55 4.23c0 0-.11.4 0 .55h1a.1.1 0 0 1 .12.11v7.35a2.7 2.7 0 0 0 2.67 1.84s1.7.22 2.62-1.95l-.37-.27s-.62.94-1.24.94c0 0-.74.1-.74-.9v-7s0-.1.11-.1h1.95s.09 0 .09-.09v-1s0-.07-.12-.07h-1.94s-.11 0-.11-.11z"/><path d="m70 22.34h5.37v-.52s-1.1.21-1.1-1.07v-2.31a.36.36 0 0 1 .24-.4s.15 0 .26.17l1.94 2.95s.44.72-.6.72v.47h4.79v-.45s-.27.12-.73-.48l-3.58-5.36a.46.46 0 0 1 -.07-.3s2.19-3.11 3.66-3.2v-.29h-4.39v.43s1.13-.07 1.13.79c0 0 .16.34-.46 1l-2.12 2.32s-.14.1-.14-.09v-9.07s0-.22-.14-.22h-4.06v.57s1.26-.05 1.26.76v12.2s.14.91-1.27.91zm28.9-.01v-.45s.88.1.88-.95v-7.55s0-.74-1.11-.74v-.38h3.91v8.63s-.05 1 1.26 1v.4zm3.94-13.43a1.58 1.58 0 1 0 -1.58 1.53 1.55 1.55 0 0 0 1.58-1.53m-91.76 11.78s-.86.07-.86-1.15a2.55 2.55 0 0 1 1.78-2.21s.2-.14.2.12v2.14a1 1 0 0 1 -1.09 1.1m4.21.08v-6.21c0-2.77-3.46-2.59-3.46-2.59-4.74 0-4.54 2.62-4.54 2.62a1.43 1.43 0 0 0 1.58 1.56c1.51-.14 1.52-1.14 1.52-1.14 0-.6-.35-.72-.35-.72-1.27-1.24.74-1.34.74-1.34 1.41 0 1.38 1 1.38 1v2.06c-.25.38-1.18.64-1.18.64-4.21 1.48-3.92 3.7-3.92 3.7a2.23 2.23 0 0 0 2.29 2.26 4.85 4.85 0 0 0 2.81-1.35 1.94 1.94 0 0 0 1.91 1.37 3.08 3.08 0 0 0 2.6-1.51l-.49-.32c-.88 1.15-.92 0-.92 0m33.05-4.64s-.34-3.27 1.46-3.27a1.24 1.24 0 0 1 1.2 1.38v1.89s0 .09-.05.09h-2.56s-.05 0-.05-.09m2.58 4.68s-2.51.45-2.51-3.58c0 0 0-.17.14-.17h5.07s.33-4.84-3.91-5.09c0 0-4.33-.2-4.35 5.57 0 0-.35 4.73 4.21 5.1a4.25 4.25 0 0 0 4.06-3l-.53-.27a2.2 2.2 0 0 1 -2.19 1.47"/><path d="m84.32 21.65s-1.53.24-1.46-4.65c0 0-.21-4.2 1.46-4.23 0 0 1.7-.38 1.56 4.3 0 0 .24 4.58-1.56 4.58m0-9.67c-4.42 0-4.6 5.3-4.6 5.3.14 5.37 4.65 5.22 4.65 5.22 4.63-.14 4.68-5.29 4.68-5.29a4.89 4.89 0 0 0 -4.73-5.21"/><path d="m94.46 21.3c-1.19 0-1.31-1.44-1.31-1.44v-4.74s.21-1.67 1.22-1.67c0 0 1.13 0 1 3.64 0 0 .22 4.2-.94 4.2m.7-9.52a2.35 2.35 0 0 0 -2 1.24v-.93l-.85-.14-3.28.95v.28a1.06 1.06 0 0 1 1.14 1.12v10.48s0 .62-1.11.62v.41h5.62v-.48s-1.41.38-1.41-.9v-2.5a4.67 4.67 0 0 0 2 .62s3.44.44 3.44-5.47c0 0-.18-5.3-3.5-5.3m12.67 8.87s-.84.13-.84-1.09a2.76 2.76 0 0 1 1.79-2.35s.2-.14.2.12v2.14a1.17 1.17 0 0 1 -1.15 1.18m5.19.1c-.89 1.15-1 0-1 0v-6.3c0-2.77-3.38-2.58-3.38-2.58-4.66.14-4.66 2.67-4.66 2.67a1.52 1.52 0 0 0 1.7 1.58c1.54-.1 1.5-1.25 1.5-1.25 0-.6-.28-.72-.28-.72-1.27-1.24.74-1.34.74-1.34 1.42 0 1.38 1 1.38 1v2.1c-.25.38-1.18.64-1.18.64-4.21 1.48-3.94 3.8-3.94 3.8a2.12 2.12 0 0 0 2.21 2.19 4.94 4.94 0 0 0 2.83-1.35 2 2 0 0 0 2 1.37 3.08 3.08 0 0 0 2.6-1.57z"/></g></svg>