<svg xmlns="http://www.w3.org/2000/svg" width="52.006" height="52.006"><path fill-rule="evenodd" fill="#FFF" d="M36 39H3a3 3 0 0 1-3-3V3a3 3 0 0 1 3-3h33a3 3 0 0 1 3 3v33a3 3 0 0 1-3 3zm-3.728-26.919c-.683-1.079-1.999-1.763-3.395-2.144l-1.219-.086c-.945-.204-2.345-.053-3.134.258a9.18 9.18 0 0 0-2.003 1.114l-.957 1.029a7.014 7.014 0 0 1-.087.086c-1.385-2.75-6.026-3.355-8.88-1.458-.432.288-.874.489-1.132.944h-.174c.007-.627.08-1.489-.087-1.973-1.272-.007-3.177-.272-4.266.086v13.206c0 1.496-.306 4.825.087 6.002 1.273.007 3.178.272 4.266-.086V17.397c.236-1.007.612-1.797 1.132-2.486.548-.728 1.673-1.718 3.308-1.287 2.128.562 2.089 2.805 2.089 5.488v10.033c1.297.007 3.242.28 4.353-.086v-7.974c0-1.277-.212-2.906.087-4.031.246-.924.644-1.586 1.132-2.229.764-1.006 3.004-1.881 4.353-.686.589.522.531 1.411.957 2.058v8.832c0 1.237-.267 3.058.087 4.116 1.273.007 3.178.272 4.266-.086V17.998c0-2.299.101-4.519-.783-5.917z"/></svg>